<svg version="1.1" xmlns="http://www.w3.org/2000/svg" xmlns:xlink="http://www.w3.org/1999/xlink" width="404.43165" height="120.00002" viewBox="0,0,404.43165,120.00002"><g transform="translate(-24.99999,-125.99998)"><g data-paper-data="{&quot;isPaintingLayer&quot;:true}" stroke="none" stroke-width="1" stroke-linecap="butt" stroke-linejoin="miter" stroke-miterlimit="10" stroke-dasharray="" stroke-dashoffset="0" style="mix-blend-mode: normal"><path d="M106.797,244.125c-10.898,2.5 -32.695,2.5 -43.594,0c-19.555,-4.485 -31.883,-16.764 -36.328,-36.328c-2.512,-11.056 -2.488,-32.851 0,-43.594c4.527,-19.546 16.785,-31.788 36.328,-36.328c10.693,-2.484 32.487,-2.516 43.594,0c19.567,4.433 31.675,16.812 36.328,36.328c2.452,10.285 2.548,32.058 0,43.594c-4.327,19.591 -16.773,31.843 -36.328,36.328" data-paper-data="{&quot;origPos&quot;:null}" fill="#62d31a" fill-rule="evenodd"/><path d="M116.64,234.281c7.165,-1.644 13.365,-4.341 18.572,-8.048c-6.426,9.029 -15.976,15.038 -28.416,17.892c-10.898,2.5 -32.694,2.5 -43.594,0c-19.555,-4.486 -31.883,-16.764 -36.328,-36.328c-2.51,-11.056 -2.487,-32.851 0,-43.594c2.876,-12.412 8.879,-21.866 17.874,-28.286c-3.687,5.167 -6.379,11.312 -8.03,18.442c-2.488,10.744 -2.512,32.538 0,43.594c4.445,19.564 16.773,31.843 36.328,36.328c10.899,2.5 32.696,2.5 43.594,0" data-paper-data="{&quot;origPos&quot;:null}" fill="#5bbf1b" fill-rule="evenodd"/><path d="M117.522,162.63c0,8.5 0.655,26.569 0,35.04c-0.608,7.86 -6.539,14.095 -14.605,14.095c-8.066,0 -14.605,-6.391 -14.605,-14.273c0,-7.883 6.539,-14.272 14.605,-14.272c0.9964,-0.00055 1.99035,0.09861 2.967,0.296v-12.753l-28.237,4.235v25.863c0.018,0.289 0,0.573 0,0.866c0,7.881 -6.539,14.272 -14.605,14.272c-8.066,0 -14.604,-6.392 -14.604,-14.272c0,-7.883 6.538,-14.273 14.604,-14.273c0.99637,-0.00005 1.99028,0.0991 2.967,0.296v-20.885c0,-5.732 4.973,-8.831 10.621,-10.38c7.16,-1.962 22.184,-4.267 30.27,-4.235c5.867,0.024 10.622,4.648 10.622,10.38" data-paper-data="{&quot;origPos&quot;:null}" fill="#ffffff" fill-rule="evenodd"/><text transform="translate(152.875,221.22601) scale(2.17922,2.17922)" font-size="40" xml:space="preserve" fill="#9966ff" fill-rule="nonzero" stroke="none" stroke-width="1" stroke-linecap="butt" stroke-linejoin="miter" stroke-miterlimit="10" stroke-dasharray="" stroke-dashoffset="0" font-family="Marker" font-weight="normal" text-anchor="start" style="mix-blend-mode: normal"><tspan x="0" dy="0">MUSIC</tspan></text></g></g></svg>