<svg version="1.1" xmlns="http://www.w3.org/2000/svg" xmlns:xlink="http://www.w3.org/1999/xlink" width="80.30324" height="85.48281" viewBox="0,0,80.30324,85.48281"><g transform="translate(-205.39059,-138.26893)"><g data-paper-data="{&quot;isPaintingLayer&quot;:true}" fill-rule="nonzero" stroke="none" stroke-linecap="butt" stroke-linejoin="miter" stroke-miterlimit="10" stroke-dasharray="" stroke-dashoffset="0" style="mix-blend-mode: normal"><path d="M270.83549,174.354c0,3.86 -0.09,7.5 -0.28,10.82c-0.01,0.08 -0.01,0.15 -0.02,0.22c-0.39,5.08 -1.36,9.37 -2.97,13.11c-1.98,4.5 -5.12,8.59 -9.34,12.24c-0.69,0.59 -1.44,1.09 -2.25,1.49l-2.36,1.18c-3.8,2.01 -8.3,3.16 -13.37,3.41c-0.04,0.01 -0.07,0.01 -0.1,0.01c-0.35,0.01 -0.69,0.02 -1.02,0.02c-4.86,0 -9.41,-1.4 -13.54,-4.15c-0.6,-0.4 -1.16,-0.86 -1.68,-1.37c-1.2,-1.21 -1.9,-2.46 -2.38,-3.41c-0.91,-1.84 -1.36,-3.65 -1.36,-5.51c0,-1.06 0.15,-2.1 0.44,-3.1c0.34,-1.87 1.06,-3.62 2.16,-5.16c-2.59,-2.08 -4.62,-4.52 -6.04,-7.3c-1.9,-3.67 -2.95,-7.52 -3.15,-11.43c-0.37,-6.8 0.87,-12.19 3.8,-16.41c2.67,-3.87 6.45,-7.32 11.2,-10.21c5.16,-3.13 9.96,-4.7 14.66,-4.8c0.35,-0.01 0.7,0 1.04,0.02c1.88,0.14 3.03,0.22 3.43,0.25c0.46,0.02 0.92,0.06 1.37,0.14c4.64,0.78 7.72,2.82 9.61,4.61c0.32,0.27 0.7,0.61 1.15,1c0.49,0.43 0.93,0.91 1.34,1.42l2.62,3.33c1.63,2.03 2.79,3.88 3.59,5.72c0.43,0.77 0.93,1.7 1.5,2.79c0.14,0.27 0.27,0.54 0.39,0.82c1.08,2.57 1.56,5.73 1.56,10.25z" fill="#00cccc" stroke-width="1"/><path d="M207.19022,223.75174v-85.48281h66.94272v85.48281z" data-paper-data="{&quot;origPos&quot;:null}" fill="#03cdff" stroke-width="0"/><path d="M234.58918,207.7247c-0.763,0.938 -1.525,1.554 -2.287,1.848c-0.763,0.293 -1.906,0.381 -3.431,0.264c-1.701,-0.118 -2.814,-0.118 -3.343,0c-0.059,0 -0.483,0.102 -1.275,0.308c-0.791,0.205 -1.394,0.309 -1.803,0.309c-0.118,0 -0.338,-0.104 -0.66,-0.309c-0.323,-0.206 -0.571,-0.308 -0.747,-0.308c-0.295,0 -1.071,0.044 -2.331,0.132c-1.262,0.088 -2.243,0.132 -2.947,0.132h-3.782c-1.525,-0.059 -2.405,-0.264 -2.639,-0.615c-0.527,-0.704 -0.792,-1.231 -0.792,-1.583c-0.176,-0.177 -0.322,-0.44 -0.439,-0.792c0.469,-2.404 2.756,-3.371 6.861,-2.902c2.99,0.294 4.75,0.264 5.277,-0.089c0.233,-6.273 0.088,-16.302 -0.439,-30.082c0.233,-2.58 0.468,-6.802 0.703,-12.667c-0.411,-0.058 -0.998,0.207 -1.759,0.792c-0.88,0.763 -1.438,1.203 -1.672,1.319c-0.72849,0.28709 -1.50399,0.4363 -2.287,0.44c-0.997,0 -1.729,-0.322 -2.198,-0.968c-0.29055,-0.34372 -0.44684,-0.78099 -0.44,-1.231c0,-1.056 1.056,-2.257 3.167,-3.606c2.463,-1.524 3.928,-2.903 4.398,-4.135c1.231,-0.997 2.52,-1.496 3.87,-1.496c1.759,0 2.814,0.88 3.166,2.639c-0.14545,0.31173 -0.26324,0.63565 -0.352,0.968c-0.235,1.818 -0.439,5.277 -0.616,10.38c0,0.294 -0.03,0.938 -0.088,1.935c-0.0368,0.55692 -0.06614,1.1143 -0.088,1.672v9.411c0,0.118 0.044,0.836 0.132,2.155c0.05267,0.71779 0.09701,1.43617 0.133,2.155v20.055c1.583,0.294 2.667,0.323 3.254,0.088c0.762,-0.292 1.437,-0.439 2.023,-0.439c1.349,0 2.492,0.763 3.431,2.287c0.116,0.174 0.116,0.819 0,1.933z" data-paper-data="{&quot;origPos&quot;:null}" fill="#ffffff" stroke-width="1"/><path d="M271.53813,190.909c0,0.998 -0.499,3.079 -1.495,6.245c-0.235,0.528 -1.174,1.819 -2.815,3.871c-4.34,5.102 -9.5,7.652 -15.481,7.652c-2.697,0 -5.22,-0.587 -7.564,-1.759c-0.997,-0.998 -2.493,-2.229 -4.485,-3.695c-0.06,-0.585 -0.499,-1.407 -1.319,-2.463c-0.646,-0.879 -1.32,-1.759 -2.023,-2.639c-0.06,-0.645 -0.47,-1.964 -1.231,-3.958c-0.704,-1.76 -1.056,-2.844 -1.056,-3.255c0,-0.703 0.365,-1.333 1.1,-1.891c0.732,-0.557 1.509,-0.836 2.331,-0.836c1.113,0 1.876,0.527 2.287,1.583c0,0.587 0.028,1.496 0.088,2.728c0.352,1.701 1.172,3.577 2.463,5.629c1.465,2.287 2.96,3.842 4.485,4.662c1.76,0.88 3.576,1.319 5.454,1.319c3.283,0 6.215,-1.265 8.796,-3.793c1.407,-1.353 2.229,-2.178 2.463,-2.472c0.645,-0.705 1.201,-1.704 1.672,-2.999c-0.118,-0.47 -0.06,-0.823 0.176,-1.06c0.527,-0.411 0.732,-1.44 0.615,-3.088c0,-0.233 0.044,-0.616 0.132,-1.146c0.088,-0.529 0.133,-0.941 0.133,-1.235c0,-0.058 -0.207,-1.322 -0.616,-3.793c-0.176,-0.177 -0.352,-0.383 -0.527,-0.619c-0.353,-3.175 -2.376,-5.557 -6.07,-7.146c-2.873,-1.234 -5.835,-1.765 -8.884,-1.589c-0.938,0.061 -2.186,0.211 -3.738,0.45c-1.555,0.24 -2.683,0.601 -3.387,1.08c-2.581,1.562 -4.457,2.341 -5.629,2.341c-1.407,0 -2.493,-0.821 -3.255,-2.463c0.058,-0.646 0.088,-1.584 0.088,-2.815c-0.176,-1.231 -0.411,-3.107 -0.703,-5.629c-0.235,-2.053 -0.616,-5.336 -1.144,-9.852c-0.176,-1.173 0,-2.111 0.527,-2.815c0.82,-1.113 2.696,-1.671 5.63,-1.671c0.82,0 1.904,0.044 3.254,0.132c1.349,0.088 2.199,0.132 2.551,0.132c2.345,-0.116 5.542,-0.204 9.588,-0.264c0.645,0 1.729,-0.132 3.255,-0.396c1.524,-0.265 2.639,-0.396 3.343,-0.396c1.817,0 2.844,0.734 3.078,2.199c-0.059,1.291 0,3.313 0.177,6.069c0.352,2.287 0.264,3.782 -0.265,4.486c-1.173,0.527 -2.142,0.791 -2.902,0.791c-1.35,0 -2.259,-0.615 -2.728,-1.847c-0.294,-0.762 -0.439,-1.76 -0.439,-2.991c0.058,-1.583 0.029,-2.608 -0.088,-3.078c-1.759,-0.058 -4.398,0.03 -7.916,0.264c-1.408,0.118 -4.722,0.47 -9.94,1.056c-0.176,0.118 -0.382,0.264 -0.615,0.439c-0.118,0.88 0,2.815 0.352,5.806c0.41,3.167 0.616,5.132 0.616,5.894c0.058,0 0.879,-0.264 2.463,-0.792c0.761,-0.116 1.876,-0.293 3.342,-0.527c1.936,-0.469 3.987,-0.704 6.158,-0.704c4.339,0 8.121,0.851 11.347,2.551c3.812,2.054 6.303,5.073 7.477,9.061c0.586,2.053 0.88,3.313 0.88,3.782v5.454z" fill="#ffffff" stroke-width="1"/><path d="M269.57592,174.354c0,3.86 -0.09,7.5 -0.28,10.82c-0.01,0.08 -0.01,0.15 -0.02,0.22c-0.39,5.08 -1.36,9.37 -2.97,13.11c-1.98,4.5 -5.12,8.59 -9.34,12.24c-0.69,0.59 -1.44,1.09 -2.25,1.49l-2.36,1.18c-3.8,2.01 -8.3,3.16 -13.37,3.41c-0.04,0.01 -0.07,0.01 -0.1,0.01c-0.35,0.01 -0.69,0.02 -1.02,0.02c-4.86,0 -9.41,-1.4 -13.54,-4.15c-0.6,-0.4 -1.16,-0.86 -1.68,-1.37c-1.2,-1.21 -1.9,-2.46 -2.38,-3.41c-0.91,-1.84 -1.36,-3.65 -1.36,-5.51c0,-1.06 0.15,-2.1 0.44,-3.1c0.34,-1.87 1.06,-3.62 2.16,-5.16c-2.59,-2.08 -4.62,-4.52 -6.04,-7.3c-1.9,-3.67 -2.95,-7.52 -3.15,-11.43c-0.37,-6.8 0.87,-12.19 3.8,-16.41c2.67,-3.87 6.45,-7.32 11.2,-10.21c5.16,-3.13 9.96,-4.7 14.66,-4.8c0.35,-0.01 0.7,0 1.04,0.02c1.88,0.14 3.03,0.22 3.43,0.25c0.46,0.02 0.92,0.06 1.37,0.14c4.64,0.78 7.72,2.82 9.61,4.61c0.32,0.27 0.7,0.61 1.15,1c0.49,0.43 0.93,0.91 1.34,1.42l2.62,3.33c1.63,2.03 2.79,3.88 3.59,5.72c0.43,0.77 0.93,1.7 1.5,2.79c0.14,0.27 0.27,0.54 0.39,0.82c1.08,2.57 1.56,5.73 1.56,10.25z" fill="#00cccc" stroke-width="1"/><path d="M205.93065,223.75174v-85.48281h66.94272v85.48281z" data-paper-data="{&quot;origPos&quot;:null}" fill="#03cdff" stroke-width="0"/><path d="M233.32961,207.7247c-0.763,0.938 -1.525,1.554 -2.287,1.848c-0.763,0.293 -1.906,0.381 -3.431,0.264c-1.701,-0.118 -2.814,-0.118 -3.343,0c-0.059,0 -0.483,0.102 -1.275,0.308c-0.791,0.205 -1.394,0.309 -1.803,0.309c-0.118,0 -0.338,-0.104 -0.66,-0.309c-0.323,-0.206 -0.571,-0.308 -0.747,-0.308c-0.295,0 -1.071,0.044 -2.331,0.132c-1.262,0.088 -2.243,0.132 -2.947,0.132h-3.782c-1.525,-0.059 -2.405,-0.264 -2.639,-0.615c-0.527,-0.704 -0.792,-1.231 -0.792,-1.583c-0.176,-0.177 -0.322,-0.44 -0.439,-0.792c0.469,-2.404 2.756,-3.371 6.861,-2.902c2.99,0.294 4.75,0.264 5.277,-0.089c0.233,-6.273 0.088,-16.302 -0.439,-30.082c0.233,-2.58 0.468,-6.802 0.703,-12.667c-0.411,-0.058 -0.998,0.207 -1.759,0.792c-0.88,0.763 -1.438,1.203 -1.672,1.319c-0.72849,0.28709 -1.50399,0.4363 -2.287,0.44c-0.997,0 -1.729,-0.322 -2.198,-0.968c-0.29055,-0.34372 -0.44684,-0.78099 -0.44,-1.231c0,-1.056 1.056,-2.257 3.167,-3.606c2.463,-1.524 3.928,-2.903 4.398,-4.135c1.231,-0.997 2.52,-1.496 3.87,-1.496c1.759,0 2.814,0.88 3.166,2.639c-0.14545,0.31173 -0.26324,0.63565 -0.352,0.968c-0.235,1.818 -0.439,5.277 -0.616,10.38c0,0.294 -0.03,0.938 -0.088,1.935c-0.0368,0.55692 -0.06614,1.1143 -0.088,1.672v9.411c0,0.118 0.044,0.836 0.132,2.155c0.05267,0.71779 0.09701,1.43617 0.133,2.155v20.055c1.583,0.294 2.667,0.323 3.254,0.088c0.762,-0.292 1.437,-0.439 2.023,-0.439c1.349,0 2.492,0.763 3.431,2.287c0.116,0.174 0.116,0.819 0,1.933z" data-paper-data="{&quot;origPos&quot;:null}" fill="#ffffff" stroke-width="1"/><path d="M268.77802,207.0283c-0.998,0.528 -2.933,0.616 -5.805,0.264c-2.991,-0.468 -5.221,-0.645 -6.686,-0.527c-0.235,0 -0.91,0.06 -2.023,0.176c-0.88,0.118 -1.613,0.176 -2.199,0.176c-1.055,0 -2.639,0.06 -4.749,0.176c-1.351,0.06 -2.287,0.032 -2.815,-0.082c-0.763,-0.11 -1.363,-0.442 -1.803,-0.995c-0.44,-0.553 -0.66,-1.076 -0.66,-1.573c0,-0.884 0.498,-1.616 1.495,-2.197c0.997,-0.579 2.023,-0.869 3.079,-0.869c0.469,0 0.88,0 1.231,0h5.365c0.353,0 0.85,-0.088 1.496,-0.267c0.116,-2.132 -0.119,-6.13 -0.704,-11.993c0,-0.948 -0.016,-1.94 -0.044,-2.978c-0.03,-1.036 -0.279,-1.88 -0.748,-2.531c-3.284,0.294 -6.948,0.792 -10.995,1.495c-3.226,0.587 -5.513,0.88 -6.86,0.88c-0.998,0 -1.966,-0.088 -2.903,-0.264c-0.703,-0.117 -1.613,-1.085 -2.727,-2.903c0.117,-0.527 0.44,-1.436 0.968,-2.727c0,-0.116 0,-0.204 0,-0.264c0.176,0 0.409,-0.117 0.704,-0.352c2.463,-3.283 6.86,-9.5 13.193,-18.647c1.231,-1.76 2.199,-3.255 2.903,-4.486c0.352,-0.645 1.025,-1.407 2.022,-2.287c0.997,-0.88 1.788,-1.437 2.375,-1.671c0.41,-0.117 0.88,-0.088 1.407,0.088c0.353,0.176 0.704,0.322 1.056,0.439c0.938,0.176 1.437,0.264 1.495,0.264c0.646,0.176 1.144,0.471 1.496,0.88c0.352,0.411 0.585,1.613 0.703,3.606c-0.059,1.818 -0.03,4.517 0.088,8.093c0.117,2.639 0.353,6.627 0.704,11.962c0.645,0.06 1.729,0 3.255,-0.176c1.759,-0.233 2.932,-0.352 3.519,-0.352c2.168,0 3.254,0.821 3.254,2.463c0,0.352 -0.059,0.763 -0.176,1.231c-1.056,1.29 -2.551,1.935 -4.485,1.935c-0.295,0 -0.748,0 -1.364,0c-0.615,0 -1.07,0 -1.363,0c-0.703,0 -1.319,0.089 -1.847,0.265c0,2.053 0.116,5.132 0.352,9.235c0.352,4.75 0.704,7.683 1.056,8.796c1.583,-0.058 3.928,-0.028 7.037,0.088c1.465,0.118 2.198,1.203 2.198,3.255c0,1.055 -0.498,1.847 -1.495,2.374zM253.12102,178.4423c-0.527,-4.867 -0.851,-10.145 -0.968,-15.833c-0.118,0 -0.206,-0.029 -0.264,-0.088c0.176,-0.176 0.264,-0.322 0.264,-0.44c0,-0.058 -0.088,-0.233 -0.264,-0.527c-0.118,-0.233 -0.118,-0.439 0,-0.616c0.176,-0.233 0.264,-0.527 0.264,-0.879c-0.821,0.821 -1.642,1.906 -2.463,3.254c-1.35,2.171 -2.141,3.431 -2.374,3.783c-2.229,2.933 -5.045,7.066 -8.444,12.402c-0.06,0.234 0,0.439 0.176,0.615c1.759,0 4.104,-0.205 7.037,-0.615c3.752,-0.587 6.098,-0.938 7.036,-1.056z" data-paper-data="{&quot;origPos&quot;:null}" fill="#ffffff" stroke-width="1"/><path d="M264.28573,174.354c0,3.86 -0.09,7.5 -0.28,10.82c-0.01,0.08 -0.01,0.15 -0.02,0.22c-0.39,5.08 -1.36,9.37 -2.97,13.11c-1.98,4.5 -5.12,8.59 -9.34,12.24c-0.69,0.59 -1.44,1.09 -2.25,1.49l-2.36,1.18c-3.8,2.01 -8.3,3.16 -13.37,3.41c-0.04,0.01 -0.07,0.01 -0.1,0.01c-0.35,0.01 -0.69,0.02 -1.02,0.02c-4.86,0 -9.41,-1.4 -13.54,-4.15c-0.6,-0.4 -1.16,-0.86 -1.68,-1.37c-1.2,-1.21 -1.9,-2.46 -2.38,-3.41c-0.91,-1.84 -1.36,-3.65 -1.36,-5.51c0,-1.06 0.15,-2.1 0.44,-3.1c0.34,-1.87 1.06,-3.62 2.16,-5.16c-2.59,-2.08 -4.62,-4.52 -6.04,-7.3c-1.9,-3.67 -2.95,-7.52 -3.15,-11.43c-0.37,-6.8 0.87,-12.19 3.8,-16.41c2.67,-3.87 6.45,-7.32 11.2,-10.21c5.16,-3.13 9.96,-4.7 14.66,-4.8c0.35,-0.01 0.7,0 1.04,0.02c1.88,0.14 3.03,0.22 3.43,0.25c0.46,0.02 0.92,0.06 1.37,0.14c4.64,0.78 7.72,2.82 9.61,4.61c0.32,0.27 0.7,0.61 1.15,1c0.49,0.43 0.93,0.91 1.34,1.42l2.62,3.33c1.63,2.03 2.79,3.88 3.59,5.72c0.43,0.77 0.93,1.7 1.5,2.79c0.14,0.27 0.27,0.54 0.39,0.82c1.08,2.57 1.56,5.73 1.56,10.25z" fill="#00cccc" stroke-width="1"/><path d="M269.83926,186.11185c0.528,2.405 0.792,4.633 0.792,6.685c0,2.814 -0.499,5.22 -1.495,7.213c-0.176,0.587 -0.587,1.379 -1.231,2.375c-6.041,5.922 -14.484,8.972 -25.333,9.148c-1.174,0 -2.463,-0.323 -3.87,-0.968c-1.583,-0.822 -3.431,-2.229 -5.541,-4.223c-2.405,-2.228 -3.754,-4.016 -4.047,-5.365c-0.176,-0.469 -0.47,-1.173 -0.879,-2.111c0,-0.117 -0.206,-1.407 -0.616,-3.87c-0.118,0.176 -0.176,0.499 -0.176,0.968c-0.118,-0.41 -0.176,-0.88 -0.176,-1.407c0,-2.111 0.82,-4.442 2.463,-6.993c1.641,-2.551 3.431,-3.826 5.365,-3.826c0.938,0 1.848,0.353 2.727,1.06c0.234,0.177 0.353,0.56 0.353,1.147c0,0.236 -0.104,0.546 -0.308,0.928c-0.207,0.382 -0.339,0.691 -0.396,0.926c-0.821,0.707 -1.643,1.413 -2.463,2.12c-1.174,1.118 -1.818,2.06 -1.935,2.825c-0.118,0.471 -0.177,0.971 -0.177,1.501c0,2.944 1.32,5.843 3.959,8.697c2.639,2.854 5.423,4.281 8.356,4.281c0.527,0 1.084,-0.059 1.671,-0.176c0.996,-0.06 2.463,-0.178 4.397,-0.354c2.287,-0.529 4.632,-1.408 7.037,-2.643c2.932,-1.527 4.75,-3.157 5.453,-4.891c0.704,-1.731 1.056,-3.627 1.056,-5.683c0,-1.996 -0.352,-3.846 -1.056,-5.55c-0.176,-0.471 -0.439,-1.146 -0.791,-2.027c-2.347,-3.524 -4.956,-5.726 -7.828,-6.608c-0.704,-0.233 -2.171,-0.381 -4.398,-0.439c-2.229,-0.06 -3.842,-0.147 -4.838,-0.266c-1.935,-0.233 -3.489,-0.733 -4.662,-1.498c-0.352,-0.409 -0.527,-0.908 -0.527,-1.496c0,-1.41 0.585,-2.468 1.759,-3.173c0.938,-0.587 2.668,-2.937 5.19,-7.049c1.699,-2.408 4.162,-5.991 7.389,-10.749c-7.213,0 -14.368,0.439 -21.463,1.319c0,0.88 0.205,2.493 0.616,4.838c0.527,3.108 0.82,4.956 0.879,5.542c0.058,0.703 -0.234,1.422 -0.879,2.154c-0.646,0.734 -1.467,1.188 -2.463,1.363c-0.939,0.177 -1.76,-0.176 -2.463,-1.055c-0.235,-0.353 -0.383,-1.056 -0.44,-2.111c0,-0.88 -0.47,-4.163 -1.407,-9.852c-0.059,-0.117 -0.176,-0.264 -0.352,-0.44c-0.353,-1.816 -0.528,-2.696 -0.528,-2.639c0,-0.645 0.176,-1.172 0.528,-1.583c0.996,-0.996 2.608,-1.524 4.838,-1.583c1.816,0 5.951,-0.088 12.402,-0.265c1.231,0 5.014,-0.204 11.347,-0.615c0.938,-0.117 1.905,-0.233 2.902,-0.352c1.465,-0.176 2.448,-0.117 2.947,0.176c0.497,0.294 0.864,0.703 1.099,1.231c0.469,0.998 0.322,1.965 -0.439,2.902c-0.411,0.235 -0.91,0.675 -1.495,1.319c-0.763,1.231 -1.922,2.859 -3.475,4.882c-1.554,2.023 -2.683,3.622 -3.386,4.794c-0.939,1.643 -2.375,4.105 -4.311,7.389c10.496,1.583 17.034,5.894 19.615,12.931c0.234,0.237 0.47,0.618 0.704,1.146z" data-paper-data="{&quot;origPos&quot;:null}" fill="#ffffff" stroke-width="1"/><path d="M268.06446,174.354c0,3.86 -0.09,7.5 -0.28,10.82c-0.01,0.08 -0.01,0.15 -0.02,0.22c-0.39,5.08 -1.36,9.37 -2.97,13.11c-1.98,4.5 -5.12,8.59 -9.34,12.24c-0.69,0.59 -1.44,1.09 -2.25,1.49l-2.36,1.18c-3.8,2.01 -8.3,3.16 -13.37,3.41c-0.04,0.01 -0.07,0.01 -0.1,0.01c-0.35,0.01 -0.69,0.02 -1.02,0.02c-4.86,0 -9.41,-1.4 -13.54,-4.15c-0.6,-0.4 -1.16,-0.86 -1.68,-1.37c-1.2,-1.21 -1.9,-2.46 -2.38,-3.41c-0.91,-1.84 -1.36,-3.65 -1.36,-5.51c0,-1.06 0.15,-2.1 0.44,-3.1c0.34,-1.87 1.06,-3.62 2.16,-5.16c-2.59,-2.08 -4.62,-4.52 -6.04,-7.3c-1.9,-3.67 -2.95,-7.52 -3.15,-11.43c-0.37,-6.8 0.87,-12.19 3.8,-16.41c2.67,-3.87 6.45,-7.32 11.2,-10.21c5.16,-3.13 9.96,-4.7 14.66,-4.8c0.35,-0.01 0.7,0 1.04,0.02c1.88,0.14 3.03,0.22 3.43,0.25c0.46,0.02 0.92,0.06 1.37,0.14c4.64,0.78 7.72,2.82 9.61,4.61c0.32,0.27 0.7,0.61 1.15,1c0.49,0.43 0.93,0.91 1.34,1.42l2.62,3.33c1.63,2.03 2.79,3.88 3.59,5.72c0.43,0.77 0.93,1.7 1.5,2.79c0.14,0.27 0.27,0.54 0.39,0.82c1.08,2.57 1.56,5.73 1.56,10.25z" fill="#00cccc" stroke-width="1"/><path d="M205.39059,223.75174v-85.48281h66.69987v85.48281z" fill="#03cdff" stroke-width="0"/><path d="M234.24664,207.7247c-0.763,0.938 -1.525,1.554 -2.287,1.848c-0.763,0.293 -1.906,0.381 -3.431,0.264c-1.701,-0.118 -2.814,-0.118 -3.343,0c-0.059,0 -0.483,0.102 -1.275,0.308c-0.791,0.205 -1.394,0.309 -1.803,0.309c-0.118,0 -0.338,-0.104 -0.66,-0.309c-0.323,-0.206 -0.571,-0.308 -0.747,-0.308c-0.295,0 -1.071,0.044 -2.331,0.132c-1.262,0.088 -2.243,0.132 -2.947,0.132h-3.782c-1.525,-0.059 -2.405,-0.264 -2.639,-0.615c-0.527,-0.704 -0.792,-1.231 -0.792,-1.583c-0.176,-0.177 -0.322,-0.44 -0.439,-0.792c0.469,-2.404 2.756,-3.371 6.861,-2.902c2.99,0.294 4.75,0.264 5.277,-0.089c0.233,-6.273 0.088,-16.302 -0.439,-30.082c0.233,-2.58 0.468,-6.802 0.703,-12.667c-0.411,-0.058 -0.998,0.207 -1.759,0.792c-0.88,0.763 -1.438,1.203 -1.672,1.319c-0.72849,0.28709 -1.50399,0.4363 -2.287,0.44c-0.997,0 -1.729,-0.322 -2.198,-0.968c-0.29055,-0.34372 -0.44684,-0.78099 -0.44,-1.231c0,-1.056 1.056,-2.257 3.167,-3.606c2.463,-1.524 3.928,-2.903 4.398,-4.135c1.231,-0.997 2.52,-1.496 3.87,-1.496c1.759,0 2.814,0.88 3.166,2.639c-0.14545,0.31173 -0.26324,0.63565 -0.352,0.968c-0.235,1.818 -0.439,5.277 -0.616,10.38c0,0.294 -0.03,0.938 -0.088,1.935c-0.0368,0.55692 -0.06614,1.1143 -0.088,1.672v9.411c0,0.118 0.044,0.836 0.132,2.155c0.05267,0.71779 0.09701,1.43617 0.133,2.155v20.055c1.583,0.294 2.667,0.323 3.254,0.088c0.762,-0.292 1.437,-0.439 2.023,-0.439c1.349,0 2.492,0.763 3.431,2.287c0.116,0.174 0.116,0.819 0,1.933z" data-paper-data="{&quot;origPos&quot;:null}" fill="#ffffff" stroke-width="1"/><path d="M270.77159,206.81475c0,0.761 -0.704,1.436 -2.111,2.022c-1.35,0.586 -3.343,0.454 -5.981,-0.396c-2.639,-0.851 -6.509,-1.922 -11.61,-3.211c-2.405,-0.294 -4.486,0.234 -6.245,1.584c-3.05,2.228 -5.221,3.342 -6.51,3.342c-0.879,0 -1.671,-0.352 -2.375,-1.054v-1.933c0,-0.059 0.073,-0.176 0.221,-0.351c0.146,-0.177 0.233,-0.367 0.264,-0.57c0.028,-0.206 0.132,-0.543 0.308,-1.01c0.23352,-3.22005 0.94498,-6.38741 2.111,-9.398c0.293,-0.877 1.113,-2.75 2.463,-5.62c1.759,-3.688 4.954,-7.933 9.588,-12.735c1.348,-1.287 3.283,-3.22 5.805,-5.797c1.0996,-1.04025 2.21405,-2.06469 3.343,-3.073c1.583,-1.521 2.403,-2.721 2.463,-3.601c0.116,-0.176 0.264,-0.469 0.439,-0.878c0.058,-0.644 0.029,-1.521 -0.088,-2.635c-0.059,-0.117 -0.132,-0.381 -0.22,-0.79c-0.12567,-0.64046 -0.22841,-1.2852 -0.308,-1.933c-1.76,-3.513 -5.132,-5.27 -10.115,-5.27c-3.343,0 -5.894,0.843 -7.653,2.526c-0.176,0.058 -0.41,0.146 -0.703,0.261c-0.998,0.639 -1.613,1.249 -1.848,1.829c-1.231,2.846 -2.581,4.268 -4.046,4.268c-1.643,0 -2.463,-1.084 -2.463,-3.254c0,-0.997 0.85,-2.991 2.551,-5.981c0.352,-0.234 0.82,-0.557 1.407,-0.968c0.293,-0.293 0.82,-0.674 1.584,-1.144c1.73568,-0.59775 3.48021,-1.16948 5.233,-1.715c1.788,-0.557 3.387,-0.865 4.794,-0.924c3.752,-0.117 7.271,0.558 10.555,2.022c2.228,0.939 4.046,2.654 5.454,5.146c1.407,2.493 2.052,4.823 1.935,6.992c-0.16667,1.96795 -0.86602,3.85338 -2.023,5.454c-0.703,0.879 -2.198,2.346 -4.485,4.397c-2.054,2.171 -5.22,5.366 -9.5,9.588c-0.352,0.822 -1.144,1.73 -2.375,2.727c-0.059,0.235 -0.206,0.587 -0.439,1.056c-0.763,1.35 -1.847,2.845 -3.255,4.486c0.058,0.527 -0.176,1.144 -0.703,1.847c-0.646,0.998 -0.968,1.555 -0.968,1.672c-0.47,1.114 -1.086,2.757 -1.848,4.926c-0.176,0.704 -0.47,1.789 -0.879,3.255c1.77917,-0.53095 3.5678,-1.0297 5.365,-1.496c1.30686,-0.23013 2.63104,-0.34789 3.958,-0.352c2.64,0 5.688,0.646 9.148,1.936c0.82,0.294 2.052,0.733 3.694,1.319c0.82,-0.058 1.641,-0.088 2.463,-0.088c1.348,0 2.315,0.322 2.902,0.968c0.408,0.471 0.644,1.322 0.703,2.554z" data-paper-data="{&quot;origPos&quot;:null}" fill="#ffffff" stroke-width="1"/><path d="M268.06446,174.354c0,3.86 -0.09,7.5 -0.28,10.82c-0.01,0.08 -0.01,0.15 -0.02,0.22c-0.39,5.08 -1.36,9.37 -2.97,13.11c-1.98,4.5 -5.12,8.59 -9.34,12.24c-0.69,0.59 -1.44,1.09 -2.25,1.49l-2.36,1.18c-3.8,2.01 -8.3,3.16 -13.37,3.41c-0.04,0.01 -0.07,0.01 -0.1,0.01c-0.35,0.01 -0.69,0.02 -1.02,0.02c-4.86,0 -9.41,-1.4 -13.54,-4.15c-0.6,-0.4 -1.16,-0.86 -1.68,-1.37c-1.2,-1.21 -1.9,-2.46 -2.38,-3.41c-0.91,-1.84 -1.36,-3.65 -1.36,-5.51c0,-1.06 0.15,-2.1 0.44,-3.1c0.34,-1.87 1.06,-3.62 2.16,-5.16c-2.59,-2.08 -4.62,-4.52 -6.04,-7.3c-1.9,-3.67 -2.95,-7.52 -3.15,-11.43c-0.37,-6.8 0.87,-12.19 3.8,-16.41c2.67,-3.87 6.45,-7.32 11.2,-10.21c5.16,-3.13 9.96,-4.7 14.66,-4.8c0.35,-0.01 0.7,0 1.04,0.02c1.88,0.14 3.03,0.22 3.43,0.25c0.46,0.02 0.92,0.06 1.37,0.14c4.64,0.78 7.72,2.82 9.61,4.61c0.32,0.27 0.7,0.61 1.15,1c0.49,0.43 0.93,0.91 1.34,1.42l2.62,3.33c1.63,2.03 2.79,3.88 3.59,5.72c0.43,0.77 0.93,1.7 1.5,2.79c0.14,0.27 0.27,0.54 0.39,0.82c1.08,2.57 1.56,5.73 1.56,10.25z" fill="#00cccc" stroke-width="1"/><path d="M205.39059,223.75174v-85.48281h80.30324v85.48281z" fill="#03cdff" stroke-width="0"/><path d="M241.2886,207.75323c0,0.761 -0.704,1.436 -2.111,2.022c-1.35,0.586 -3.343,0.454 -5.981,-0.396c-2.639,-0.851 -6.509,-1.922 -11.61,-3.211c-2.405,-0.294 -4.486,0.234 -6.245,1.584c-3.05,2.228 -5.221,3.342 -6.51,3.342c-0.879,0 -1.671,-0.352 -2.375,-1.054v-1.933c0,-0.059 0.073,-0.176 0.221,-0.351c0.146,-0.177 0.233,-0.367 0.264,-0.57c0.028,-0.206 0.132,-0.543 0.308,-1.01c0.23352,-3.22005 0.94498,-6.38741 2.111,-9.398c0.293,-0.877 1.113,-2.75 2.463,-5.62c1.759,-3.688 4.954,-7.933 9.588,-12.735c1.348,-1.287 3.283,-3.22 5.805,-5.797c1.0996,-1.04025 2.21405,-2.06469 3.343,-3.073c1.583,-1.521 2.403,-2.721 2.463,-3.601c0.116,-0.176 0.264,-0.469 0.439,-0.878c0.058,-0.644 0.029,-1.521 -0.088,-2.635c-0.059,-0.117 -0.132,-0.381 -0.22,-0.79c-0.12567,-0.64046 -0.22841,-1.2852 -0.308,-1.933c-1.76,-3.513 -5.132,-5.27 -10.115,-5.27c-3.343,0 -5.894,0.843 -7.653,2.526c-0.176,0.058 -0.41,0.146 -0.703,0.261c-0.998,0.639 -1.613,1.249 -1.848,1.829c-1.231,2.846 -2.581,4.268 -4.046,4.268c-1.643,0 -2.463,-1.084 -2.463,-3.254c0,-0.997 0.85,-2.991 2.551,-5.981c0.352,-0.234 0.82,-0.557 1.407,-0.968c0.293,-0.293 0.82,-0.674 1.584,-1.144c1.73568,-0.59775 3.48021,-1.16948 5.233,-1.715c1.788,-0.557 3.387,-0.865 4.794,-0.924c3.752,-0.117 7.271,0.558 10.555,2.022c2.228,0.939 4.046,2.654 5.454,5.146c1.407,2.493 2.052,4.823 1.935,6.992c-0.16667,1.96795 -0.86602,3.85338 -2.023,5.454c-0.703,0.879 -2.198,2.346 -4.485,4.397c-2.054,2.171 -5.22,5.366 -9.5,9.588c-0.352,0.822 -1.144,1.73 -2.375,2.727c-0.059,0.235 -0.206,0.587 -0.439,1.056c-0.763,1.35 -1.847,2.845 -3.255,4.486c0.058,0.527 -0.176,1.144 -0.703,1.847c-0.646,0.998 -0.968,1.555 -0.968,1.672c-0.47,1.114 -1.086,2.757 -1.848,4.926c-0.176,0.704 -0.47,1.789 -0.879,3.255c1.77917,-0.53095 3.5678,-1.0297 5.365,-1.496c1.30686,-0.23013 2.63104,-0.34789 3.958,-0.352c2.64,0 5.688,0.646 9.148,1.936c0.82,0.294 2.052,0.733 3.694,1.319c0.82,-0.058 1.641,-0.088 2.463,-0.088c1.348,0 2.315,0.322 2.902,0.968c0.408,0.471 0.644,1.322 0.703,2.554z" fill="#ffffff" stroke-width="1"/><path d="M275.42941,207.514c-0.998,0.528 -2.933,0.616 -5.805,0.264c-2.991,-0.468 -5.221,-0.645 -6.686,-0.527c-0.235,0 -0.91,0.06 -2.023,0.176c-0.88,0.118 -1.613,0.176 -2.199,0.176c-1.055,0 -2.639,0.06 -4.749,0.176c-1.351,0.06 -2.287,0.032 -2.815,-0.082c-0.763,-0.11 -1.363,-0.442 -1.803,-0.995c-0.44,-0.553 -0.66,-1.076 -0.66,-1.573c0,-0.884 0.498,-1.616 1.495,-2.197c0.997,-0.579 2.023,-0.869 3.079,-0.869c0.469,0 0.88,0 1.231,0h5.365c0.353,0 0.85,-0.088 1.496,-0.267c0.116,-2.132 -0.119,-6.13 -0.704,-11.993c0,-0.948 -0.016,-1.94 -0.044,-2.978c-0.03,-1.036 -0.279,-1.88 -0.748,-2.531c-3.284,0.294 -6.948,0.792 -10.995,1.495c-3.226,0.587 -5.513,0.88 -6.86,0.88c-0.998,0 -1.966,-0.088 -2.903,-0.264c-0.703,-0.117 -1.613,-1.085 -2.727,-2.903c0.117,-0.527 0.44,-1.436 0.968,-2.727c0,-0.116 0,-0.204 0,-0.264c0.176,0 0.409,-0.117 0.704,-0.352c2.463,-3.283 6.86,-9.5 13.193,-18.647c1.231,-1.76 2.199,-3.255 2.903,-4.486c0.352,-0.645 1.025,-1.407 2.022,-2.287c0.997,-0.88 1.788,-1.437 2.375,-1.671c0.41,-0.117 0.88,-0.088 1.407,0.088c0.353,0.176 0.704,0.322 1.056,0.439c0.938,0.176 1.437,0.264 1.495,0.264c0.646,0.176 1.144,0.471 1.496,0.88c0.352,0.411 0.585,1.613 0.703,3.606c-0.059,1.818 -0.03,4.517 0.088,8.093c0.117,2.639 0.353,6.627 0.704,11.962c0.645,0.06 1.729,0 3.255,-0.176c1.759,-0.233 2.932,-0.352 3.519,-0.352c2.168,0 3.254,0.821 3.254,2.463c0,0.352 -0.059,0.763 -0.176,1.231c-1.056,1.29 -2.551,1.935 -4.485,1.935c-0.295,0 -0.748,0 -1.364,0c-0.615,0 -1.07,0 -1.363,0c-0.703,0 -1.319,0.089 -1.847,0.265c0,2.053 0.116,5.132 0.352,9.235c0.352,4.75 0.704,7.683 1.056,8.796c1.583,-0.058 3.928,-0.028 7.037,0.088c1.465,0.118 2.198,1.203 2.198,3.255c0,1.055 -0.498,1.847 -1.495,2.374zM259.77241,178.928c-0.527,-4.867 -0.851,-10.145 -0.968,-15.833c-0.118,0 -0.206,-0.029 -0.264,-0.088c0.176,-0.176 0.264,-0.322 0.264,-0.44c0,-0.058 -0.088,-0.233 -0.264,-0.527c-0.118,-0.233 -0.118,-0.439 0,-0.616c0.176,-0.233 0.264,-0.527 0.264,-0.879c-0.821,0.821 -1.642,1.906 -2.463,3.254c-1.35,2.171 -2.141,3.431 -2.374,3.783c-2.229,2.933 -5.045,7.066 -8.444,12.402c-0.06,0.234 0,0.439 0.176,0.615c1.759,0 4.104,-0.205 7.037,-0.615c3.752,-0.587 6.098,-0.938 7.036,-1.056z" fill="#ffffff" stroke-width="1"/></g></g></svg>