<svg version="1.1" xmlns="http://www.w3.org/2000/svg" xmlns:xlink="http://www.w3.org/1999/xlink" width="66.69987" height="85.48281" viewBox="0,0,66.69987,85.48281"><g transform="translate(-206.65014,-138.26893)"><g data-paper-data="{&quot;isPaintingLayer&quot;:true}" fill-rule="nonzero" stroke="none" stroke-linecap="butt" stroke-linejoin="miter" stroke-miterlimit="10" stroke-dasharray="" stroke-dashoffset="0" style="mix-blend-mode: normal"><path d="M269.32401,174.354c0,3.86 -0.09,7.5 -0.28,10.82c-0.01,0.08 -0.01,0.15 -0.02,0.22c-0.39,5.08 -1.36,9.37 -2.97,13.11c-1.98,4.5 -5.12,8.59 -9.34,12.24c-0.69,0.59 -1.44,1.09 -2.25,1.49l-2.36,1.18c-3.8,2.01 -8.3,3.16 -13.37,3.41c-0.04,0.01 -0.07,0.01 -0.1,0.01c-0.35,0.01 -0.69,0.02 -1.02,0.02c-4.86,0 -9.41,-1.4 -13.54,-4.15c-0.6,-0.4 -1.16,-0.86 -1.68,-1.37c-1.2,-1.21 -1.9,-2.46 -2.38,-3.41c-0.91,-1.84 -1.36,-3.65 -1.36,-5.51c0,-1.06 0.15,-2.1 0.44,-3.1c0.34,-1.87 1.06,-3.62 2.16,-5.16c-2.59,-2.08 -4.62,-4.52 -6.04,-7.3c-1.9,-3.67 -2.95,-7.52 -3.15,-11.43c-0.37,-6.8 0.87,-12.19 3.8,-16.41c2.67,-3.87 6.45,-7.32 11.2,-10.21c5.16,-3.13 9.96,-4.7 14.66,-4.8c0.35,-0.01 0.7,0 1.04,0.02c1.88,0.14 3.03,0.22 3.43,0.25c0.46,0.02 0.92,0.06 1.37,0.14c4.64,0.78 7.72,2.82 9.61,4.61c0.32,0.27 0.7,0.61 1.15,1c0.49,0.43 0.93,0.91 1.34,1.42l2.62,3.33c1.63,2.03 2.79,3.88 3.59,5.72c0.43,0.77 0.93,1.7 1.5,2.79c0.14,0.27 0.27,0.54 0.39,0.82c1.08,2.57 1.56,5.73 1.56,10.25z" fill="#00cccc" stroke-width="1"/><path d="M206.65014,223.75174v-85.48281h66.69987v85.48281z" fill="#03cdff" stroke-width="0"/><path d="M235.50619,207.7247c-0.763,0.938 -1.525,1.554 -2.287,1.848c-0.763,0.293 -1.906,0.381 -3.431,0.264c-1.701,-0.118 -2.814,-0.118 -3.343,0c-0.059,0 -0.483,0.102 -1.275,0.308c-0.791,0.205 -1.394,0.309 -1.803,0.309c-0.118,0 -0.338,-0.104 -0.66,-0.309c-0.323,-0.206 -0.571,-0.308 -0.747,-0.308c-0.295,0 -1.071,0.044 -2.331,0.132c-1.262,0.088 -2.243,0.132 -2.947,0.132h-3.782c-1.525,-0.059 -2.405,-0.264 -2.639,-0.615c-0.527,-0.704 -0.792,-1.231 -0.792,-1.583c-0.176,-0.177 -0.322,-0.44 -0.439,-0.792c0.469,-2.404 2.756,-3.371 6.861,-2.902c2.99,0.294 4.75,0.264 5.277,-0.089c0.233,-6.273 0.088,-16.302 -0.439,-30.082c0.233,-2.58 0.468,-6.802 0.703,-12.667c-0.411,-0.058 -0.998,0.207 -1.759,0.792c-0.88,0.763 -1.438,1.203 -1.672,1.319c-0.72849,0.28709 -1.50399,0.4363 -2.287,0.44c-0.997,0 -1.729,-0.322 -2.198,-0.968c-0.29055,-0.34372 -0.44684,-0.78099 -0.44,-1.231c0,-1.056 1.056,-2.257 3.167,-3.606c2.463,-1.524 3.928,-2.903 4.398,-4.135c1.231,-0.997 2.52,-1.496 3.87,-1.496c1.759,0 2.814,0.88 3.166,2.639c-0.14545,0.31173 -0.26324,0.63565 -0.352,0.968c-0.235,1.818 -0.439,5.277 -0.616,10.38c0,0.294 -0.03,0.938 -0.088,1.935c-0.0368,0.55692 -0.06614,1.1143 -0.088,1.672v9.411c0,0.118 0.044,0.836 0.132,2.155c0.05267,0.71779 0.09701,1.43617 0.133,2.155v20.055c1.583,0.294 2.667,0.323 3.254,0.088c0.762,-0.292 1.437,-0.439 2.023,-0.439c1.349,0 2.492,0.763 3.431,2.287c0.116,0.174 0.116,0.819 0,1.933z" data-paper-data="{&quot;origPos&quot;:null}" fill="#ffffff" stroke-width="1"/><path d="M272.03115,206.81475c0,0.761 -0.704,1.436 -2.111,2.022c-1.35,0.586 -3.343,0.454 -5.981,-0.396c-2.639,-0.851 -6.509,-1.922 -11.61,-3.211c-2.405,-0.294 -4.486,0.234 -6.245,1.584c-3.05,2.228 -5.221,3.342 -6.51,3.342c-0.879,0 -1.671,-0.352 -2.375,-1.054v-1.933c0,-0.059 0.073,-0.176 0.221,-0.351c0.146,-0.177 0.233,-0.367 0.264,-0.57c0.028,-0.206 0.132,-0.543 0.308,-1.01c0.23352,-3.22005 0.94498,-6.38741 2.111,-9.398c0.293,-0.877 1.113,-2.75 2.463,-5.62c1.759,-3.688 4.954,-7.933 9.588,-12.735c1.348,-1.287 3.283,-3.22 5.805,-5.797c1.0996,-1.04025 2.21405,-2.06469 3.343,-3.073c1.583,-1.521 2.403,-2.721 2.463,-3.601c0.116,-0.176 0.264,-0.469 0.439,-0.878c0.058,-0.644 0.029,-1.521 -0.088,-2.635c-0.059,-0.117 -0.132,-0.381 -0.22,-0.79c-0.12567,-0.64046 -0.22841,-1.2852 -0.308,-1.933c-1.76,-3.513 -5.132,-5.27 -10.115,-5.27c-3.343,0 -5.894,0.843 -7.653,2.526c-0.176,0.058 -0.41,0.146 -0.703,0.261c-0.998,0.639 -1.613,1.249 -1.848,1.829c-1.231,2.846 -2.581,4.268 -4.046,4.268c-1.643,0 -2.463,-1.084 -2.463,-3.254c0,-0.997 0.85,-2.991 2.551,-5.981c0.352,-0.234 0.82,-0.557 1.407,-0.968c0.293,-0.293 0.82,-0.674 1.584,-1.144c1.73568,-0.59775 3.48021,-1.16948 5.233,-1.715c1.788,-0.557 3.387,-0.865 4.794,-0.924c3.752,-0.117 7.271,0.558 10.555,2.022c2.228,0.939 4.046,2.654 5.454,5.146c1.407,2.493 2.052,4.823 1.935,6.992c-0.16667,1.96795 -0.86602,3.85338 -2.023,5.454c-0.703,0.879 -2.198,2.346 -4.485,4.397c-2.054,2.171 -5.22,5.366 -9.5,9.588c-0.352,0.822 -1.144,1.73 -2.375,2.727c-0.059,0.235 -0.206,0.587 -0.439,1.056c-0.763,1.35 -1.847,2.845 -3.255,4.486c0.058,0.527 -0.176,1.144 -0.703,1.847c-0.646,0.998 -0.968,1.555 -0.968,1.672c-0.47,1.114 -1.086,2.757 -1.848,4.926c-0.176,0.704 -0.47,1.789 -0.879,3.255c1.77917,-0.53095 3.5678,-1.0297 5.365,-1.496c1.30686,-0.23013 2.63104,-0.34789 3.958,-0.352c2.64,0 5.688,0.646 9.148,1.936c0.82,0.294 2.052,0.733 3.694,1.319c0.82,-0.058 1.641,-0.088 2.463,-0.088c1.348,0 2.315,0.322 2.902,0.968c0.408,0.471 0.644,1.322 0.703,2.554z" data-paper-data="{&quot;origPos&quot;:null}" fill="#ffffff" stroke-width="1"/></g></g></svg>