<svg version="1.1" xmlns="http://www.w3.org/2000/svg" xmlns:xlink="http://www.w3.org/1999/xlink" width="120.00018" height="120.00002" viewBox="0,0,120.00018,120.00002"><g transform="translate(-179.99999,-119.99998)"><g data-paper-data="{&quot;isPaintingLayer&quot;:true}" fill-rule="evenodd" stroke="none" stroke-width="1" stroke-linecap="butt" stroke-linejoin="miter" stroke-miterlimit="10" stroke-dasharray="" stroke-dashoffset="0" style="mix-blend-mode: normal"><g><path d="M261.797,238.125c-10.898,2.5 -32.695,2.5 -43.594,0c-19.555,-4.485 -31.883,-16.764 -36.328,-36.328c-2.512,-11.056 -2.488,-32.85 0,-43.594c4.527,-19.546 16.785,-31.788 36.328,-36.328c10.693,-2.484 32.487,-2.516 43.594,0c19.567,4.433 31.675,16.812 36.328,36.328c2.452,10.285 2.548,32.058 0,43.594c-4.327,19.591 -16.773,31.843 -36.328,36.328" fill="#62d31a"/><path d="M271.64,228.281c7.165,-1.644 13.365,-4.341 18.572,-8.048c-6.426,9.029 -15.975,15.038 -28.416,17.892c-10.898,2.5 -32.694,2.5 -43.594,0c-19.555,-4.486 -31.883,-16.764 -36.328,-36.328c-2.51,-11.056 -2.487,-32.851 0,-43.594c2.876,-12.412 8.879,-21.866 17.874,-28.286c-3.687,5.167 -6.379,11.312 -8.03,18.442c-2.488,10.744 -2.512,32.538 0,43.594c4.445,19.564 16.773,31.843 36.328,36.328c10.899,2.5 32.696,2.5 43.594,0" fill="#62d31a"/><path d="M259.706,163.06c-0.917,0.09 -38.493,0.084 -39.41,0c-4.58,-0.42 -7.919,-2.751 -8.357,-6.103c-0.086,-0.661 -0.085,-2 0,-2.68c0.42,-3.353 3.767,-5.743 8.356,-6.102c0.812,-0.063 38.38,-0.07 39.411,0c4.596,0.307 7.975,2.746 8.356,6.103c0.08,0.69 0.087,2.035 0,2.679c-0.45,3.35 -3.782,5.657 -8.356,6.103M259.706,187.435c-0.917,0.09 -38.493,0.084 -39.41,0c-4.58,-0.42 -7.919,-2.751 -8.357,-6.103c-0.086,-0.661 -0.085,-2 0,-2.68c0.42,-3.353 3.767,-5.743 8.356,-6.102c0.812,-0.063 38.38,-0.07 39.411,0c4.596,0.307 7.975,2.746 8.356,6.103c0.08,0.69 0.087,2.035 0,2.679c-0.45,3.35 -3.782,5.657 -8.356,6.103M259.706,211.81c-0.917,0.09 -38.493,0.084 -39.41,0c-4.58,-0.42 -7.919,-2.751 -8.357,-6.103c-0.086,-0.661 -0.085,-2 0,-2.68c0.42,-3.353 3.767,-5.743 8.356,-6.102c0.812,-0.063 38.38,-0.07 39.411,0c4.596,0.307 7.975,2.746 8.356,6.103c0.08,0.69 0.087,2.035 0,2.679c-0.45,3.35 -3.782,5.657 -8.356,6.103" fill="#ffffff"/><path d="M271.78181,228.22368c7.165,-1.644 13.365,-4.341 18.572,-8.048c-6.426,9.029 -15.976,15.038 -28.416,17.892c-10.898,2.5 -32.694,2.5 -43.594,0c-19.555,-4.486 -31.883,-16.764 -36.328,-36.328c-2.51,-11.056 -2.487,-32.851 0,-43.594c2.876,-12.412 8.879,-21.866 17.874,-28.286c-3.687,5.167 -6.379,11.312 -8.03,18.442c-2.488,10.744 -2.512,32.538 0,43.594c4.445,19.564 16.773,31.843 36.328,36.328c10.899,2.5 32.696,2.5 43.594,0" data-paper-data="{&quot;origPos&quot;:null}" fill="#5bbf1b"/></g></g></g></svg>