<svg version="1.1" xmlns="http://www.w3.org/2000/svg" xmlns:xlink="http://www.w3.org/1999/xlink" width="120.00018" height="120.00002" viewBox="0,0,120.00018,120.00002"><g transform="translate(-209.99999,-149.99998)"><g data-paper-data="{&quot;isPaintingLayer&quot;:true}" fill-rule="evenodd" stroke="none" stroke-width="1" stroke-linecap="butt" stroke-linejoin="miter" stroke-miterlimit="10" stroke-dasharray="" stroke-dashoffset="0" style="mix-blend-mode: normal"><g><path d="M291.797,268.125c-10.898,2.5 -32.695,2.5 -43.594,0c-19.555,-4.485 -31.883,-16.764 -36.328,-36.328c-2.512,-11.056 -2.488,-32.851 0,-43.594c4.527,-19.546 16.785,-31.788 36.328,-36.328c10.693,-2.484 32.487,-2.516 43.594,0c19.567,4.433 31.675,16.812 36.328,36.328c2.452,10.285 2.548,32.058 0,43.594c-4.327,19.591 -16.773,31.843 -36.328,36.328" fill="#83c5ea"/><path d="M301.64,258.281c7.165,-1.644 13.365,-4.341 18.572,-8.048c-6.426,9.029 -15.975,15.038 -28.416,17.892c-10.898,2.5 -32.694,2.5 -43.594,0c-19.555,-4.486 -31.883,-16.764 -36.328,-36.328c-2.51,-11.056 -2.487,-32.851 0,-43.594c2.876,-12.412 8.879,-21.866 17.874,-28.286c-3.687,5.167 -6.379,11.312 -8.03,18.442c-2.488,10.744 -2.512,32.538 0,43.594c4.445,19.564 16.773,31.843 36.328,36.328c10.899,2.5 32.696,2.5 43.594,0" fill="#6cb7d8"/><path d="M309.661,200.757c4.776,5.787 4.458,12.643 0,18.813c-5.519,7.644 -16.522,14.545 -21.872,16.12c-6.563,1.931 -11.872,-1.115 -13.136,-9.408c-1.245,-8.162 -1.163,-24.273 0,-32.236c1.212,-8.305 6.769,-12.181 13.136,-9.407c6.858,2.987 17.726,11.096 21.871,16.118M230.34,200.757c-4.777,5.787 -4.459,12.643 0,18.813c5.518,7.644 16.521,14.545 21.87,16.12c6.563,1.931 11.872,-1.115 13.137,-9.408c1.244,-8.162 1.162,-24.273 0,-32.236c-1.213,-8.305 -6.769,-12.181 -13.137,-9.407c-6.858,2.987 -17.725,11.096 -21.87,16.118" fill="#ffffff"/></g></g></g></svg>