<svg xmlns="http://www.w3.org/2000/svg" xmlns:xlink="http://www.w3.org/1999/xlink" width="121.00018310546875" height="121.00001525878906" viewBox="-0.5000108480453491 -0.5000190734863281 121.00018310546875 121.00001525878906"><defs><path id="a" d="M0 0h120v120H0z" stroke-width="1"/><path id="c" d="M0 .917h110.213V111H0z" stroke-width="1"/></defs><g fill-rule="evenodd"><mask id="b"><use xlink:href="#a" stroke-width="1" fill="#fff"/></mask><path d="M81.797 118.125c-10.898 2.5-32.695 2.5-43.594 0C18.648 113.64 6.32 101.361 1.875 81.797c-2.512-11.056-2.488-32.85 0-43.594C6.402 18.657 18.66 6.415 38.203 1.875c10.693-2.484 32.487-2.516 43.594 0 19.567 4.433 31.675 16.812 36.328 36.328 2.452 10.285 2.548 32.058 0 43.594-4.327 19.591-16.773 31.843-36.328 36.328" fill="#FBC02D" mask="url(#b)" stroke-width="1"/><g><mask id="d"><use xlink:href="#c" stroke-width="1" fill="#fff" transform="matrix(1,0,0,1,0,9)"/></mask><path d="M 91.64 108.281 C 80.743 110.781 58.946 110.781 48.047 108.281 C 28.492 103.796 16.164 91.517 11.719 71.953 C 9.207 60.897 9.23 39.103 11.719 28.359 C 13.369 21.229 16.061 15.084 19.749 9.917 C 10.754 16.337 4.749 25.791 1.875 38.203 C -0.612 48.946 -0.636 70.741 1.875 81.797 C 6.319 101.361 18.648 113.639 38.203 118.125 C 49.101 120.625 70.898 120.625 81.796 118.125 C 94.236 115.271 103.786 109.262 110.212 100.233 C 105.005 103.94 98.805 106.637 91.64 108.281 " fill="#E8AD28" mask="url(#d)" stroke-width="1"/></g><path d="M82.734 50.14c-5.33-5.356-19.303-14.005-28.12-17.191-8.188-2.96-15.332 1.175-16.89 10.034-1.495 8.494-1.6 25.679 0 34.386 1.625 8.845 8.451 12.094 16.89 10.034 6.877-1.68 21.024-9.041 28.12-17.193 5.731-6.584 6.141-13.896 0-20.07" fill="#FFF" stroke-width="1"/></g></svg>