<svg version="1.1" xmlns="http://www.w3.org/2000/svg" xmlns:xlink="http://www.w3.org/1999/xlink" width="21.13714" height="33.13963" viewBox="0,0,21.13714,33.13963"><g transform="translate(-292.75427,-163.26595)"><g data-paper-data="{&quot;isPaintingLayer&quot;:true}" fill-rule="evenodd" stroke="none" stroke-linecap="butt" stroke-linejoin="miter" stroke-miterlimit="10" stroke-dasharray="" stroke-dashoffset="0" style="mix-blend-mode: normal"><g><path d="M307.1622,195.88777c-1.9196,0.69041 -5.75898,0.69041 -7.67876,0c-3.44447,-1.2386 -5.61595,-4.6296 -6.39891,-10.03247c-0.44247,-3.05327 -0.43824,-9.07225 0,-12.03907c0.79739,-5.39789 2.95655,-8.77869 6.39891,-10.03247c1.88349,-0.68599 5.72235,-0.69483 7.67876,0c3.44658,1.22423 5.57932,4.64287 6.39891,10.03247c0.4319,2.84034 0.44881,8.85325 0,12.03907c-0.76217,5.41032 -2.95444,8.79387 -6.39891,10.03247" data-paper-data="{&quot;origPos&quot;:null}" fill="#00ccff" stroke-width="1"/><path d="M308.89598,193.16922c1.26206,-0.45401 2.35415,-1.19882 3.27132,-2.22257c-1.13189,2.49348 -2.81388,4.15295 -5.00527,4.94112c-1.9196,0.69041 -5.7588,0.69041 -7.67876,0c-3.44447,-1.23887 -5.61596,-4.6296 -6.39891,-10.03247c-0.44212,-3.05327 -0.43807,-9.07225 0,-12.03907c0.50658,-3.42774 1.56398,-6.03859 3.14838,-7.81156c-0.64944,1.42693 -1.12362,3.12396 -1.41443,5.09301c-0.43824,2.9671 -0.44247,8.98581 0,12.03907c0.78296,5.40286 2.95444,8.79387 6.39891,10.03247c1.91978,0.69041 5.75916,0.69041 7.67876,0" data-paper-data="{&quot;origPos&quot;:null}" fill="#4adbff" stroke-width="1"/><path d="M310.10206,176.11968c1.47138,1.78248 1.37301,3.95015 -0.00042,5.8506c-1.69962,2.35446 -5.1487,4.50618 -6.79626,4.99131c-2.02149,0.59477 -3.6869,-0.36138 -4.07654,-2.91573c-0.38317,-2.514 -0.35827,-7.54904 -0.00036,-10.00174c0.37362,-2.55805 2.11533,-3.77025 4.07676,-2.91582c2.11235,0.92004 5.52011,3.44454 6.79683,4.99139" data-paper-data="{&quot;noHover&quot;:false,&quot;origItem&quot;:[&quot;Path&quot;,{&quot;applyMatrix&quot;:true,&quot;segments&quot;:[[[592.95257,360.25174],[0,0],[-2.63847,3.19632]],[[592.95257,370.64267],[-2.46283,-3.40786],[3.04774,4.22199]],[[605.03197,379.54618],[-2.9544,-0.86992],[3.62492,1.06654]],[[612.28789,374.34989],[-0.69869,4.58045],[0.68709,-4.50809]],[[612.28789,356.54508],[0.6418,4.39818],[-0.66997,-4.58708]],[[605.03197,351.34934],[3.51722,-1.53216],[-3.78786,1.6498]],[[592.95257,360.25174],[2.2894,-2.77379],[0,0]]],&quot;fillRule&quot;:&quot;evenodd&quot;}],&quot;origPos&quot;:null,&quot;index&quot;:null}" fill="#ffffff" stroke-width="0.5"/></g></g></g></svg>