<svg version="1.1" xmlns="http://www.w3.org/2000/svg" xmlns:xlink="http://www.w3.org/1999/xlink" width="66.94272" height="85.48281" viewBox="0,0,66.94272,85.48281"><g transform="translate(-205.67874,-138.26893)"><g data-paper-data="{&quot;isPaintingLayer&quot;:true}" fill-rule="nonzero" stroke="none" stroke-linecap="butt" stroke-linejoin="miter" stroke-miterlimit="10" stroke-dasharray="" stroke-dashoffset="0" style="mix-blend-mode: normal"><path d="M269.32401,174.354c0,3.86 -0.09,7.5 -0.28,10.82c-0.01,0.08 -0.01,0.15 -0.02,0.22c-0.39,5.08 -1.36,9.37 -2.97,13.11c-1.98,4.5 -5.12,8.59 -9.34,12.24c-0.69,0.59 -1.44,1.09 -2.25,1.49l-2.36,1.18c-3.8,2.01 -8.3,3.16 -13.37,3.41c-0.04,0.01 -0.07,0.01 -0.1,0.01c-0.35,0.01 -0.69,0.02 -1.02,0.02c-4.86,0 -9.41,-1.4 -13.54,-4.15c-0.6,-0.4 -1.16,-0.86 -1.68,-1.37c-1.2,-1.21 -1.9,-2.46 -2.38,-3.41c-0.91,-1.84 -1.36,-3.65 -1.36,-5.51c0,-1.06 0.15,-2.1 0.44,-3.1c0.34,-1.87 1.06,-3.62 2.16,-5.16c-2.59,-2.08 -4.62,-4.52 -6.04,-7.3c-1.9,-3.67 -2.95,-7.52 -3.15,-11.43c-0.37,-6.8 0.87,-12.19 3.8,-16.41c2.67,-3.87 6.45,-7.32 11.2,-10.21c5.16,-3.13 9.96,-4.7 14.66,-4.8c0.35,-0.01 0.7,0 1.04,0.02c1.88,0.14 3.03,0.22 3.43,0.25c0.46,0.02 0.92,0.06 1.37,0.14c4.64,0.78 7.72,2.82 9.61,4.61c0.32,0.27 0.7,0.61 1.15,1c0.49,0.43 0.93,0.91 1.34,1.42l2.62,3.33c1.63,2.03 2.79,3.88 3.59,5.72c0.43,0.77 0.93,1.7 1.5,2.79c0.14,0.27 0.27,0.54 0.39,0.82c1.08,2.57 1.56,5.73 1.56,10.25z" fill="#00cccc" stroke-width="1"/><path d="M205.67874,223.75174v-85.48281h66.94272v85.48281z" data-paper-data="{&quot;origPos&quot;:null}" fill="#03cdff" stroke-width="0"/><path d="M233.32961,207.7247c-0.763,0.938 -1.525,1.554 -2.287,1.848c-0.763,0.293 -1.906,0.381 -3.431,0.264c-1.701,-0.118 -2.814,-0.118 -3.343,0c-0.059,0 -0.483,0.102 -1.275,0.308c-0.791,0.205 -1.394,0.309 -1.803,0.309c-0.118,0 -0.338,-0.104 -0.66,-0.309c-0.323,-0.206 -0.571,-0.308 -0.747,-0.308c-0.295,0 -1.071,0.044 -2.331,0.132c-1.262,0.088 -2.243,0.132 -2.947,0.132h-3.782c-1.525,-0.059 -2.405,-0.264 -2.639,-0.615c-0.527,-0.704 -0.792,-1.231 -0.792,-1.583c-0.176,-0.177 -0.322,-0.44 -0.439,-0.792c0.469,-2.404 2.756,-3.371 6.861,-2.902c2.99,0.294 4.75,0.264 5.277,-0.089c0.233,-6.273 0.088,-16.302 -0.439,-30.082c0.233,-2.58 0.468,-6.802 0.703,-12.667c-0.411,-0.058 -0.998,0.207 -1.759,0.792c-0.88,0.763 -1.438,1.203 -1.672,1.319c-0.72849,0.28709 -1.50399,0.4363 -2.287,0.44c-0.997,0 -1.729,-0.322 -2.198,-0.968c-0.29055,-0.34372 -0.44684,-0.78099 -0.44,-1.231c0,-1.056 1.056,-2.257 3.167,-3.606c2.463,-1.524 3.928,-2.903 4.398,-4.135c1.231,-0.997 2.52,-1.496 3.87,-1.496c1.759,0 2.814,0.88 3.166,2.639c-0.14545,0.31173 -0.26324,0.63565 -0.352,0.968c-0.235,1.818 -0.439,5.277 -0.616,10.38c0,0.294 -0.03,0.938 -0.088,1.935c-0.0368,0.55692 -0.06614,1.1143 -0.088,1.672v9.411c0,0.118 0.044,0.836 0.132,2.155c0.05267,0.71779 0.09701,1.43617 0.133,2.155v20.055c1.583,0.294 2.667,0.323 3.254,0.088c0.762,-0.292 1.437,-0.439 2.023,-0.439c1.349,0 2.492,0.763 3.431,2.287c0.116,0.174 0.116,0.819 0,1.933z" fill="#ffffff" stroke-width="1"/><path d="M268.24691,193.43997c0.234,1.818 -0.498,5.16 -2.198,10.027c-0.646,1.818 -2.581,3.576 -5.806,5.277c-2.874,1.465 -5.806,2.199 -8.796,2.199c-4.105,0 -8.064,-1.438 -11.875,-4.311c-0.528,-0.41 -1.848,-2.051 -3.958,-4.926l-1.496,-2.814c-0.41,-0.41 -0.879,-1.113 -1.407,-2.111c-0.527,-1.759 -1.231,-4.455 -2.11,-8.092c-0.353,-1.936 -0.528,-4.34 -0.528,-7.213c0,-3.107 0.029,-4.867 0.088,-5.277c0.233,-1.113 1.085,-3.432 2.551,-6.949c0.353,-0.527 0.85,-1.289 1.495,-2.287c1.584,-2.932 4.017,-5.336 7.301,-7.213c2.815,-1.584 5.688,-2.492 8.62,-2.727c0.293,0 1.672,0.118 4.135,0.352c0.293,0.059 1.583,0.383 3.87,0.968c0.88,0.235 1.744,0.835 2.595,1.804c0.85,0.967 1.275,1.891 1.275,2.77c0,0.528 -0.176,0.998 -0.527,1.408c-0.527,0.586 -1.291,0.91 -2.287,0.967c-0.938,0.119 -1.672,0 -2.199,-0.352c-0.294,-0.645 -1.086,-1.465 -2.375,-2.463c-1.467,-0.586 -2.902,-0.879 -4.31,-0.879c-4.165,0 -7.8,2.346 -10.907,7.037c-2.757,4.221 -3.93,8.092 -3.519,11.609c3.928,-3.811 8.884,-5.717 14.865,-5.717c0.938,0 1.905,0.059 2.902,0.176c0.058,0 0.234,0.088 0.528,0.264c2.228,0 4.603,1.057 7.125,3.167c2.287,1.878 3.987,3.988 5.102,6.333c0.293,0.471 0.732,1.319 1.319,2.551c0.233,0.764 0.381,1.848 0.439,3.255c0.057,1.935 0.088,2.991 0.088,3.167zM262.88091,193.48697c0.176,-3.882 -0.675,-6.971 -2.551,-9.266c-2.815,-3.588 -6.363,-5.383 -10.644,-5.383c-3.988,0 -8.151,2.501 -12.49,7.501c-0.235,0.118 -0.558,0.294 -0.968,0.529c1.231,6.767 3.107,11.59 5.63,14.472c2.814,3.178 5.951,4.678 9.411,4.502c1.349,0.176 2.888,-0.016 4.618,-0.574c1.729,-0.557 3.005,-1.338 3.827,-2.338c1.936,-2.295 2.992,-5.441 3.167,-9.443z" fill="#ffffff" stroke-width="1"/></g></g></svg>