<svg version="1.1" xmlns="http://www.w3.org/2000/svg" xmlns:xlink="http://www.w3.org/1999/xlink" width="740.164" height="413.90858" viewBox="0,0,740.164,413.90858"><defs><linearGradient x1="-39.147" y1="103.3675" x2="278.075" y2="103.3675" gradientUnits="userSpaceOnUse" id="color-1"><stop offset="0" stop-color="#f1ffad" stop-opacity="0"/><stop offset="1" stop-color="#f1ffad"/></linearGradient><linearGradient x1="258.249" y1="103.3675" x2="575.472" y2="103.3675" gradientUnits="userSpaceOnUse" id="color-2"><stop offset="0" stop-color="#e7fbb2"/><stop offset="1" stop-color="#e7fbb2" stop-opacity="0"/></linearGradient></defs><g transform="translate(143.864,24.14451)"><g stroke="none" stroke-miterlimit="10"><path d="M-48.56252,298.85549v-323h605v323z" fill="#66c7ff" fill-rule="nonzero" stroke-width="0"/><path d="M-0.163,-0.014h480.665v360h-480.665z" fill="none" fill-rule="evenodd" stroke-width="1"/><path d="M256.447,227.224l-295.594,-122.169v-48.597l296.495,163.341l-291.088,-218.688l48.664,-20.924l244.227,233.538l-194.66,-230.164h63.084l140.588,231.514l-81.108,-235.564h46.862l44.158,239.614z" fill="url(#color-1)" fill-rule="evenodd" stroke-width="1"/><path d="M258.249,219.125l44.159,-239.614h46.862l-81.107,235.564l140.586,-231.514h63.085l-194.659,230.164l244.225,-233.538l48.665,20.924l-291.088,218.688l296.495,-163.341v48.597l-295.594,122.169z" fill="url(#color-2)" fill-rule="evenodd" stroke-width="1"/><path d="M442,149l39,37.384v170.616h-256l169.878,-162.832z" fill="#697386" fill-rule="evenodd" stroke-width="1"/><g fill-rule="evenodd" stroke-width="1"><path d="M340.008,208.239c0,29.169 -28.653,52.814 -64,52.814c-35.346,0 -64,-23.645 -64,-52.814c0,-29.17 28.654,-52.815 64,-52.815c35.347,0 64,23.646 64,52.815" fill="#fff568"/><path d="M320.656,208.239c0,20.349 -19.99,36.844 -44.647,36.844c-24.659,0 -44.647,-16.495 -44.647,-36.844c0,-20.35 19.988,-36.845 44.647,-36.845c24.657,0 44.647,16.496 44.647,36.845" fill="#ffd343"/><g fill="#697386"><path d="M-143.864,351.032l169.623,-162.506l47.05,-45.076l216.673,207.583z"/></g><g fill="#697386"><path d="M60.349,357.745l169.624,-121.732l47.05,-33.766l216.673,155.498z"/></g><g fill="#919fb8"><path d="M-15.392,318.78l183.78,-168.435l183.78,168.435z"/></g><path d="M148.606,195.371l-20.125,8.45v-16.9l39.907,-36.576l39.907,36.576l-1.658,18.399l-25.907,-7.325l-12.342,11.074z" fill="#ffffff"/><path d="M146.111,318.78l37.728,-22.027l-15.452,-17.215l34.105,-49.348l-34.105,-21.121l-13.564,-22.49l13.564,-36.234l183.78,168.435z" fill="#818da3"/><path d="M168.387,150.346l39.908,36.574l-1.657,18.4l-25.908,-7.325l-12.343,11.074l-13.564,-22.49z" fill="#d9f1fd"/><g fill="#919fb8"><path d="M162.952,333.561l216.675,-207.581l216.673,207.582z"/></g><path d="M356.304,181.469l-23.729,10.414v-20.828l47.051,-45.076l47.05,45.076l-1.955,22.676l-30.544,-9.027l-14.552,13.647z" fill="#ffffff"/><g fill="#818da3"><path d="M353.363,333.561l44.479,-27.146l-18.218,-21.216l40.21,-60.817l-40.209,-26.031l-15.992,-27.718l15.993,-44.653l216.673,207.581z"/></g><path d="M379.626,125.979l47.05,45.076l-1.955,22.677l-30.544,-9.029l-14.552,13.648l-15.991,-27.718z" fill="#d9f1fd"/><path d="M59.153,239.368c-0.219,-2.312 -0.056,-4.633 0.108,-6.946c0.227,-3.23 0.454,-6.456 0.683,-9.685c0.17,-2.43 0.342,-4.857 0.617,-7.28c1.147,-10.096 4.095,-20.05 8.158,-29.714c0.55,-1.31 1.15,-2.653 2.361,-3.683c1.212,-1.03 3.2,-1.671 4.915,-1.19c0.852,0.237 1.541,0.716 2.16,1.213c5.973,4.79 7.295,11.777 8.207,18.295c2.265,16.168 3.755,32.594 0.004,48.606c-0.597,2.552 -1.36,5.146 -3.2,7.338c-1.843,2.192 -4.977,3.936 -8.435,3.937c-8.932,-4.805 -14.8,-12.673 -15.578,-20.891M99.71,279.868c-0.22,-2.312 -0.057,-4.633 0.108,-6.946l0.682,-9.685c0.17,-2.43 0.342,-4.857 0.617,-7.28c1.147,-10.096 4.095,-20.05 8.158,-29.714c0.55,-1.31 1.15,-2.653 2.362,-3.683c1.21,-1.03 3.199,-1.671 4.914,-1.19c0.852,0.237 1.541,0.716 2.16,1.213c5.973,4.79 7.295,11.777 8.207,18.295c2.266,16.168 3.756,32.594 0.004,48.606c-0.597,2.552 -1.36,5.146 -3.2,7.338c-1.843,2.192 -4.977,3.936 -8.435,3.937c-8.932,-4.805 -14.8,-12.673 -15.578,-20.891M185.32,329.051c-0.117,-1.227 -0.03,-2.458 0.055,-3.686l0.364,-5.137c0.09,-1.288 0.181,-2.576 0.327,-3.862c0.609,-5.356 2.172,-10.636 4.327,-15.763c0.292,-0.695 0.61,-1.407 1.252,-1.953c0.644,-0.546 1.699,-0.887 2.608,-0.632c0.453,0.126 0.817,0.38 1.147,0.643c3.168,2.541 3.87,6.248 4.354,9.705c1.2,8.578 1.99,17.292 0.001,25.787c-0.318,1.352 -0.722,2.73 -1.698,3.892c-0.977,1.162 -2.64,2.088 -4.474,2.088c-4.739,-2.549 -7.851,-6.723 -8.264,-11.082M267.934,335.502c-0.117,-1.227 -0.03,-2.458 0.056,-3.686c0.121,-1.712 0.243,-3.424 0.363,-5.137c0.09,-1.288 0.181,-2.576 0.327,-3.862c0.609,-5.356 2.172,-10.636 4.327,-15.763c0.293,-0.695 0.61,-1.407 1.253,-1.953c0.643,-0.546 1.698,-0.887 2.607,-0.632c0.453,0.126 0.817,0.38 1.147,0.643c3.169,2.54 3.87,6.248 4.354,9.705c1.2,8.578 1.991,17.29 0.002,25.787c-0.318,1.352 -0.723,2.729 -1.699,3.89c-0.977,1.164 -2.64,2.09 -4.474,2.09c-4.739,-2.55 -7.85,-6.724 -8.263,-11.082M392.371,295.518c-0.252,-2.67 -0.064,-5.354 0.124,-8.027l0.79,-11.19c0.197,-2.807 0.395,-5.614 0.713,-8.414c1.324,-11.666 4.731,-23.168 9.426,-34.337c0.635,-1.51 1.328,-3.065 2.729,-4.255c1.4,-1.189 3.697,-1.93 5.681,-1.376c0.983,0.276 1.779,0.828 2.496,1.403c6.901,5.535 8.427,13.608 9.482,21.14c2.618,18.683 4.34,37.665 0.004,56.168c-0.69,2.95 -1.57,5.947 -3.698,8.48c-2.129,2.532 -5.75,4.548 -9.746,4.55c-10.323,-5.554 -17.103,-14.647 -18,-24.142" fill="#455914"/><path d="M411.866,253.545c-0.185,-1.968 -0.048,-3.943 0.091,-5.913l0.581,-8.242c0.147,-2.068 0.292,-4.135 0.526,-6.197c0.976,-8.593 3.485,-17.065 6.943,-25.292c0.469,-1.114 0.979,-2.257 2.01,-3.133c1.032,-0.876 2.725,-1.422 4.185,-1.014c0.724,0.202 1.31,0.609 1.837,1.033c5.083,4.076 6.209,10.024 6.986,15.57c1.928,13.762 3.196,27.745 0.003,41.373c-0.509,2.17 -1.158,4.379 -2.724,6.245c-1.569,1.866 -4.235,3.35 -7.178,3.35c-7.605,-4.09 -12.599,-10.786 -13.26,-17.78M445.213,296.07c-0.187,-1.968 -0.048,-3.943 0.09,-5.913l0.581,-8.243c0.147,-2.067 0.293,-4.134 0.526,-6.197c0.975,-8.592 3.485,-17.065 6.943,-25.291c0.469,-1.114 0.979,-2.257 2.011,-3.133c1.03,-0.877 2.724,-1.423 4.183,-1.015c0.725,0.203 1.311,0.61 1.839,1.033c5.083,4.077 6.208,10.025 6.985,15.571c1.928,13.762 3.197,27.744 0.003,41.373c-0.509,2.17 -1.158,4.378 -2.724,6.245c-1.569,1.866 -4.235,3.35 -7.178,3.35c-7.605,-4.09 -12.598,-10.787 -13.26,-17.78M297.4,327.86c-0.17,-1.816 -0.042,-3.639 0.085,-5.455l0.537,-7.603c0.133,-1.906 0.268,-3.812 0.484,-5.714c0.899,-7.926 3.214,-15.74 6.404,-23.328c0.431,-1.027 0.902,-2.083 1.853,-2.89c0.952,-0.809 2.513,-1.312 3.86,-0.936c0.668,0.188 1.208,0.563 1.696,0.953c4.689,3.76 5.725,9.245 6.442,14.363c1.778,12.692 2.948,25.588 0.003,38.158c-0.47,2.003 -1.067,4.04 -2.513,5.76c-1.446,1.721 -3.906,3.09 -6.62,3.09c-7.014,-3.772 -11.62,-9.949 -12.23,-16.399M364.531,256.474c-0.144,-1.533 -0.036,-3.073 0.072,-4.608l0.453,-6.423c0.114,-1.61 0.226,-3.222 0.409,-4.829c0.76,-6.697 2.715,-13.298 5.41,-19.709c0.366,-0.869 0.763,-1.759 1.567,-2.443c0.803,-0.682 2.122,-1.107 3.26,-0.79c0.566,0.158 1.022,0.476 1.433,0.806c3.962,3.177 4.838,7.81 5.444,12.134c1.502,10.724 2.49,21.62 0.003,32.24c-0.398,1.692 -0.903,3.413 -2.125,4.867c-1.221,1.454 -3.299,2.61 -5.593,2.61c-5.925,-3.186 -9.817,-8.405 -10.333,-13.855M346.369,318.11c-0.171,-1.816 -0.044,-3.639 0.084,-5.455l0.535,-7.603c0.135,-1.906 0.27,-3.812 0.485,-5.714c0.9,-7.926 3.215,-15.74 6.405,-23.328c0.431,-1.027 0.902,-2.083 1.853,-2.89c0.95,-0.809 2.513,-1.312 3.86,-0.936c0.668,0.188 1.208,0.563 1.694,0.953c4.69,3.76 5.727,9.245 6.444,14.363c1.779,12.692 2.948,25.588 0.003,38.158c-0.47,2.003 -1.067,4.04 -2.513,5.76c-1.446,1.721 -3.907,3.09 -6.621,3.09c-7.014,-3.772 -11.619,-9.949 -12.23,-16.399M196.254,324.09c1.368,-0.516 -8.945,-11.167 -7.804,-13.23c1.143,-2.06 5.043,-1.716 5.96,-2.06c0.918,-0.345 -6.653,-10.995 -7.11,-12.37c-0.46,-1.375 2.751,-0.517 3.898,-0.86c1.147,-0.342 -7.34,-13.228 -10.55,-13.228c-3.213,0 -11.7,12.886 -10.552,13.228c1.147,0.344 4.358,-0.514 3.9,0.86c-0.46,1.375 -8.03,12.025 -7.113,12.37c0.919,0.344 4.817,0 5.96,2.06c1.142,2.063 -9.171,12.714 -7.804,13.23c1.367,0.516 5.057,0 5.057,0.858c0,0.86 -6.882,7.904 -4.588,7.904h30.278c2.294,0 -4.588,-7.044 -4.588,-7.904c0,-0.858 3.69,-0.342 5.056,-0.858" fill="#455914"/><path d="M214.271,329.213c-0.803,0.303 -2.97,0 -2.97,0.504c0,0.505 4.043,4.643 2.695,4.643h-17.791c-1.347,0 2.695,-4.138 2.695,-4.643c0,-0.504 -2.166,-0.201 -2.97,-0.504c-0.802,-0.304 5.256,-6.562 4.586,-7.774c-0.672,-1.21 -2.962,-1.008 -3.502,-1.21c-0.539,-0.203 3.908,-6.46 4.178,-7.268c0.269,-0.808 -1.617,-0.305 -2.291,-0.505c-0.674,-0.202 4.313,-7.772 6.2,-7.772c1.887,0 6.874,7.57 6.199,7.772c-0.672,0.201 -2.56,-0.303 -2.29,0.505c0.269,0.808 4.717,7.065 4.177,7.268c-0.538,0.201 -2.831,0 -3.501,1.211c-0.671,1.211 5.389,7.47 4.585,7.773M305.497,326.045c-1.168,0.44 -4.322,0 -4.322,0.734c0,0.735 5.883,6.756 3.922,6.756h-25.885c-1.96,0 3.921,-6.021 3.921,-6.756c0,-0.734 -3.152,-0.294 -4.32,-0.734c-1.17,-0.44 7.647,-9.546 6.67,-11.309c-0.976,-1.762 -4.31,-1.468 -5.095,-1.762c-0.784,-0.295 5.688,-9.4 6.08,-10.575c0.391,-1.175 -2.354,-0.441 -3.335,-0.735c-0.98,-0.293 6.277,-11.308 9.022,-11.308c2.745,0 10,11.015 9.02,11.308c-0.981,0.294 -3.726,-0.44 -3.334,0.735c0.393,1.175 6.864,10.281 6.079,10.575c-0.785,0.294 -4.117,0 -5.095,1.761c-0.976,1.764 7.841,10.87 6.672,11.31M376.411,268.079c-1.284,0.483 -4.75,0 -4.75,0.807c0,0.806 6.466,7.424 4.311,7.424h-28.448c-2.156,0 4.31,-6.618 4.31,-7.424c0,-0.807 -3.466,-0.324 -4.75,-0.807c-1.285,-0.484 8.405,-10.492 7.331,-12.43c-1.073,-1.936 -4.736,-1.613 -5.598,-1.936c-0.863,-0.323 6.25,-10.33 6.68,-11.622c0.431,-1.291 -2.586,-0.484 -3.664,-0.807c-1.076,-0.323 6.898,-12.43 9.915,-12.43c3.016,0 10.991,12.107 9.913,12.43c-1.078,0.323 -4.095,-0.484 -3.664,0.807c0.431,1.292 7.544,11.299 6.681,11.622c-0.861,0.323 -4.525,0 -5.598,1.936c-1.074,1.938 8.616,11.946 7.331,12.43M458.724,232.754c-1.282,0.484 -4.75,0 -4.75,0.807c0,0.807 6.466,7.424 4.312,7.424h-28.449c-2.155,0 4.311,-6.617 4.311,-7.424c0,-0.807 -3.466,-0.323 -4.75,-0.807c-1.285,-0.484 8.405,-10.492 7.331,-12.429c-1.072,-1.938 -4.736,-1.614 -5.598,-1.938c-0.863,-0.321 6.25,-10.33 6.68,-11.62c0.431,-1.292 -2.587,-0.485 -3.663,-0.808c-1.077,-0.322 6.896,-12.43 9.914,-12.43c3.016,0 10.991,12.108 9.912,12.43c-1.076,0.323 -4.095,-0.484 -3.662,0.808c0.43,1.291 7.542,11.299 6.68,11.621c-0.861,0.323 -4.525,0 -5.599,1.936c-1.073,1.938 8.616,11.946 7.332,12.43M402.848,312.403c-1.284,0.484 -4.751,0 -4.751,0.808c0,0.806 6.467,7.424 4.31,7.424h-28.447c-2.155,0 4.31,-6.618 4.31,-7.424c0,-0.808 -3.465,-0.324 -4.749,-0.808c-1.285,-0.484 8.405,-10.491 7.331,-12.429c-1.073,-1.936 -4.737,-1.614 -5.598,-1.936c-0.863,-0.323 6.249,-10.331 6.68,-11.622c0.431,-1.291 -2.586,-0.485 -3.664,-0.807c-1.077,-0.323 6.896,-12.429 9.914,-12.429c3.017,0 10.991,12.106 9.913,12.429c-1.077,0.322 -4.095,-0.484 -3.663,0.807c0.431,1.291 7.544,11.299 6.681,11.622c-0.863,0.322 -4.525,0 -5.6,1.936c-1.072,1.938 8.617,11.945 7.333,12.429" fill="#455914"/><path d="M353.257,315.242c-1.964,0.741 -7.266,0 -7.266,1.234c0,1.236 9.891,11.36 6.594,11.36h-43.519c-3.297,0 6.593,-10.124 6.593,-11.36c0,-1.234 -5.302,-0.494 -7.266,-1.234c-1.965,-0.74 12.857,-16.05 11.215,-19.014c-1.641,-2.963 -7.245,-2.468 -8.565,-2.963c-1.318,-0.494 9.561,-15.803 10.221,-17.779c0.659,-1.974 -3.956,-0.74 -5.605,-1.234c-1.649,-0.494 10.55,-19.014 15.166,-19.014c4.616,0 16.814,18.521 15.166,19.014c-1.649,0.493 -6.264,-0.74 -5.604,1.233c0.659,1.977 11.538,17.286 10.22,17.78c-1.319,0.495 -6.925,0 -8.565,2.963c-1.642,2.964 13.181,18.274 11.215,19.014M152.396,272.116c-1.367,0.517 -5.056,0 -5.056,0.86c0,0.859 6.881,7.903 4.588,7.903h-30.278c-2.296,0 4.587,-7.044 4.587,-7.903c0,-0.859 -3.689,-0.343 -5.056,-0.859c-1.367,-0.516 8.946,-11.167 7.804,-13.23c-1.143,-2.06 -5.043,-1.716 -5.96,-2.06c-0.917,-0.344 6.653,-10.995 7.111,-12.37c0.459,-1.374 -2.752,-0.515 -3.899,-0.859c-1.147,-0.343 7.34,-13.228 10.553,-13.228c3.21,0 11.697,12.885 10.55,13.227c-1.147,0.345 -4.358,-0.514 -3.9,0.86c0.459,1.375 8.03,12.026 7.112,12.37c-0.918,0.344 -4.817,0 -5.96,2.06c-1.142,2.063 9.171,12.714 7.804,13.23M60.173,216.77c-1.367,0.515 -5.056,0 -5.056,0.858c0,0.86 6.882,7.904 4.587,7.904h-30.278c-2.293,0 4.588,-7.044 4.588,-7.904c0,-0.857 -3.689,-0.343 -5.056,-0.857c-1.368,-0.517 8.945,-11.168 7.804,-13.23c-1.143,-2.061 -5.042,-1.718 -5.96,-2.061c-0.918,-0.345 6.652,-10.996 7.112,-12.37c0.458,-1.375 -2.753,-0.516 -3.9,-0.86c-1.147,-0.343 7.34,-13.228 10.552,-13.228c3.211,0 11.697,12.885 10.551,13.228c-1.147,0.344 -4.359,-0.515 -3.899,0.86c0.458,1.374 8.028,12.025 7.111,12.369c-0.917,0.344 -4.817,0 -5.96,2.062c-1.142,2.062 9.171,12.713 7.804,13.229" fill="#455914"/><path d="M73.585,233.915c-1.366,0.517 -5.056,0 -5.056,0.86c0,0.86 6.881,7.904 4.588,7.904h-30.278c-2.295,0 4.587,-7.044 4.587,-7.904c0,-0.859 -3.689,-0.343 -5.056,-0.859c-1.367,-0.515 8.946,-11.167 7.804,-13.23c-1.143,-2.06 -5.043,-1.716 -5.96,-2.06c-0.918,-0.344 6.653,-10.995 7.112,-12.369c0.458,-1.375 -2.753,-0.516 -3.9,-0.86c-1.147,-0.343 7.34,-13.228 10.553,-13.228c3.21,0 11.697,12.885 10.55,13.227c-1.147,0.345 -4.358,-0.514 -3.9,0.86c0.459,1.375 8.03,12.026 7.112,12.37c-0.918,0.344 -4.817,0 -5.96,2.06c-1.141,2.063 9.17,12.715 7.804,13.23" fill="#455914"/><g fill="#455914"><path d="M16.406,300.689c-1.366,0.516 -5.056,0 -5.056,0.859c0,0.859 6.883,7.903 4.588,7.903h-30.278c-2.294,0 4.588,-7.043 4.588,-7.903c0,-0.858 -3.69,-0.343 -5.055,-0.858c-1.367,-0.517 8.945,-11.168 7.803,-13.23c-1.144,-2.06 -5.042,-1.717 -5.96,-2.06c-0.918,-0.345 6.652,-10.996 7.112,-12.37c0.458,-1.375 -2.754,-0.516 -3.9,-0.86c-1.148,-0.343 7.34,-13.228 10.552,-13.228c3.21,0 11.697,12.885 10.549,13.228c-1.147,0.344 -4.358,-0.515 -3.898,0.86c0.459,1.374 8.028,12.025 7.11,12.37c-0.917,0.343 -4.817,0 -5.96,2.06c-1.141,2.062 9.172,12.713 7.804,13.23"/></g><path d="M94.914,315.389c-1.366,0.516 -5.056,0 -5.056,0.859c0,0.859 6.882,7.903 4.588,7.903h-30.278c-2.294,0 4.588,-7.043 4.588,-7.903c0,-0.858 -3.69,-0.343 -5.057,-0.858c-1.367,-0.517 8.945,-11.168 7.805,-13.23c-1.144,-2.06 -5.044,-1.717 -5.96,-2.06c-0.918,-0.345 6.652,-10.996 7.11,-12.37c0.46,-1.375 -2.752,-0.516 -3.898,-0.86c-1.148,-0.343 7.339,-13.228 10.552,-13.228c3.21,0 11.697,12.885 10.55,13.228c-1.147,0.344 -4.358,-0.515 -3.9,0.86c0.459,1.374 8.03,12.025 7.112,12.37c-0.918,0.343 -4.817,0 -5.96,2.06c-1.141,2.062 9.172,12.713 7.804,13.23M161.628,321.474c-1.667,0.629 -6.167,0 -6.167,1.048c0,1.048 8.394,9.64 5.595,9.64h-36.932c-2.799,0 5.596,-8.592 5.596,-9.64c0,-1.048 -4.5,-0.418 -6.168,-1.048c-1.666,-0.628 10.913,-13.621 9.52,-16.136c-1.394,-2.514 -6.15,-2.094 -7.27,-2.514c-1.119,-0.418 8.115,-13.412 8.675,-15.088c0.559,-1.677 -3.358,-0.628 -4.757,-1.048c-1.399,-0.419 8.953,-16.136 12.871,-16.136c3.917,0 14.269,15.717 12.87,16.136c-1.4,0.419 -5.316,-0.629 -4.756,1.048c0.559,1.676 9.792,14.669 8.673,15.088c-1.119,0.419 -5.875,0 -7.269,2.514c-1.392,2.516 11.186,15.508 9.519,16.136" fill="#455914"/><path d="M123.777,318.099c-1.667,0.629 -6.167,0 -6.167,1.048c0,1.048 8.394,9.64 5.596,9.64h-36.933c-2.798,0 5.597,-8.592 5.597,-9.64c0,-1.048 -4.501,-0.418 -6.168,-1.048c-1.667,-0.628 10.912,-13.621 9.52,-16.136c-1.394,-2.514 -6.15,-2.094 -7.27,-2.514c-1.119,-0.418 8.114,-13.412 8.674,-15.088c0.56,-1.676 -3.358,-0.628 -4.756,-1.048c-1.399,-0.419 8.953,-16.136 12.87,-16.136c3.918,0 14.27,15.717 12.87,16.136c-1.399,0.42 -5.316,-0.628 -4.756,1.048c0.559,1.676 9.793,14.669 8.673,15.088c-1.118,0.42 -5.874,0 -7.268,2.514c-1.393,2.515 11.186,15.508 9.518,16.137" fill="#455914"/><path d="M207.35,325.76c3.421,0.882 7.135,0.597 7.135,0.597c-0.934,-2.437 1.996,-4.688 1.996,-4.688c-2.461,0.063 -3.862,1.92 -3.862,1.92c-1.023,-1.677 0.67,-4.702 0.67,-4.702c-4.037,0.838 -4.493,4.635 -4.493,4.635c-1.764,-1.917 -4.814,-1.627 -4.814,-1.627c3.025,1.2 3.368,3.865 3.368,3.865M272.218,327.908c-4.171,0.576 -8.411,-0.239 -8.411,-0.239c1.648,-2.703 -1.224,-5.698 -1.224,-5.698c2.84,0.396 4.03,2.733 4.03,2.733c1.578,-1.812 0.32,-5.539 0.32,-5.539c4.484,1.498 4.13,5.961 4.13,5.961c2.49,-1.994 5.96,-1.258 5.96,-1.258c-3.786,0.996 -4.805,4.04 -4.805,4.04" fill="#b9d53f"/><path d="M367.433,314.314h10.22v17.268h-10.221z" fill="#9b6d3a"/><path d="M355.225,300.893c-0.231,-2.44 -0.059,-4.89 0.113,-7.334l0.721,-10.224c0.18,-2.564 0.362,-5.128 0.652,-7.685c1.21,-10.659 4.323,-21.167 8.61,-31.37c0.583,-1.383 1.215,-2.802 2.495,-3.889c1.279,-1.086 3.378,-1.764 5.19,-1.257c0.898,0.251 1.626,0.757 2.28,1.281c6.306,5.057 7.7,12.433 8.664,19.314c2.391,17.07 3.964,34.412 0.004,51.316c-0.632,2.694 -1.435,5.432 -3.38,7.746c-1.945,2.315 -5.252,4.156 -8.904,4.157c-9.43,-5.073 -15.625,-13.38 -16.445,-22.055" fill="#5f7523"/><path d="M120.678,322.685h11.253v19.012h-11.253z" fill="#9b6d3a"/><path d="M107.237,307.909c-0.253,-2.687 -0.064,-5.385 0.126,-8.074l0.792,-11.257c0.199,-2.822 0.399,-5.646 0.718,-8.462c1.333,-11.735 4.76,-23.305 9.481,-34.54c0.64,-1.52 1.338,-3.082 2.745,-4.278c1.409,-1.197 3.72,-1.943 5.715,-1.385c0.99,0.276 1.789,0.833 2.51,1.41c6.943,5.568 8.478,13.69 9.54,21.266c2.633,18.793 4.365,37.886 0.003,56.498c-0.695,2.965 -1.58,5.98 -3.72,8.529c-2.14,2.548 -5.783,4.574 -9.802,4.575c-10.385,-5.585 -17.205,-14.73 -18.108,-24.282" fill="#5f7523"/><path d="M40.349,307.02h19.518v31.238h-19.517z" fill="#9b6d3a"/><path d="M85.054,297.097c-3.06,1.154 -11.321,0 -11.321,1.924c0,1.923 15.41,17.695 10.273,17.695h-67.798c-5.136,0 10.273,-15.772 10.273,-17.695c0,-1.924 -8.259,-0.77 -11.321,-1.924c-3.06,-1.154 20.032,-25.004 17.474,-29.62c-2.557,-4.616 -11.289,-3.846 -13.342,-4.616c-2.055,-0.77 14.893,-24.62 15.92,-27.698c1.029,-3.077 -6.163,-1.153 -8.731,-1.923c-2.567,-0.769 16.436,-29.62 23.626,-29.62c7.192,0 26.196,28.851 23.626,29.62c-2.567,0.769 -9.758,-1.154 -8.73,1.923c1.026,3.078 17.976,26.928 15.922,27.698c-2.055,0.769 -10.786,0 -13.344,4.616c-2.557,4.616 20.533,28.466 17.473,29.62" fill="#5f7523"/><path d="M162.495,318.186h10.315v16.508h-10.315z" fill="#9b6d3a"/><path d="M186.12,312.943c-1.617,0.609 -5.982,0 -5.982,1.017c0,1.016 8.142,9.35 5.428,9.35h-35.827c-2.715,0 5.427,-8.334 5.427,-9.35c0,-1.017 -4.364,-0.408 -5.981,-1.017c-1.618,-0.61 10.585,-13.214 9.233,-15.653c-1.352,-2.44 -5.965,-2.033 -7.05,-2.44c-1.087,-0.406 7.871,-13.01 8.413,-14.636c0.543,-1.626 -3.257,-0.61 -4.615,-1.016c-1.356,-0.406 8.687,-15.653 12.486,-15.653c3.801,0 13.843,15.247 12.486,15.653c-1.358,0.406 -5.158,-0.61 -4.614,1.016c0.542,1.626 9.5,14.23 8.414,14.636c-1.087,0.407 -5.7,0 -7.052,2.44c-1.351,2.439 10.851,15.043 9.234,15.653" fill="#5f7523"/><path d="M318.45,317.48h9.191v14.711h-9.191z" fill="#9b6d3a"/><path d="M339.503,312.807c-1.442,0.544 -5.332,0 -5.332,0.906c0,0.906 7.257,8.333 4.838,8.333h-31.927c-2.42,0 4.837,-7.427 4.837,-8.333c0,-0.905 -3.889,-0.362 -5.331,-0.905c-1.441,-0.544 9.433,-11.776 8.228,-13.95c-1.203,-2.174 -5.316,-1.812 -6.283,-2.174c-0.968,-0.362 7.014,-11.593 7.497,-13.043c0.485,-1.449 -2.901,-0.544 -4.111,-0.905c-1.21,-0.364 7.74,-13.95 11.126,-13.95c3.386,0 12.336,13.586 11.126,13.949c-1.208,0.362 -4.596,-0.543 -4.111,0.906c0.483,1.449 8.465,12.681 7.497,13.043c-0.966,0.362 -5.079,0 -6.284,2.174c-1.203,2.174 9.672,13.406 8.23,13.949" fill="#5f7523"/><path d="M422.042,314.639h19.518v31.238h-19.518z" fill="#9b6d3a"/><path d="M466.749,304.716c-3.061,1.153 -11.321,0 -11.321,1.923c0,1.925 15.409,17.695 10.273,17.695h-67.798c-5.136,0 10.272,-15.771 10.272,-17.695c0,-1.923 -8.26,-0.769 -11.32,-1.923c-3.062,-1.154 20.032,-25.005 17.473,-29.62c-2.558,-4.617 -11.288,-3.847 -13.343,-4.617c-2.054,-0.768 14.895,-24.619 15.921,-27.697c1.027,-3.078 -6.163,-1.153 -8.73,-1.923c-2.568,-0.77 16.435,-29.621 23.626,-29.621c7.19,0 26.195,28.852 23.626,29.622c-2.568,0.769 -9.759,-1.155 -8.731,1.923c1.027,3.078 17.976,26.928 15.922,27.696c-2.054,0.769 -10.785,0 -13.344,4.617c-2.556,4.615 20.534,28.466 17.474,29.62" fill="#5f7523"/><path d="M26.475,303.489c0,0 3.205,-4.2 5.208,-5.1c2.002,-0.9 5.207,-3.3 8.411,-4.2c3.205,-0.9 8.812,-0.9 11.616,-0.9c2.804,0 6.41,6.3 10.415,7.8c4.005,1.5 8.411,5.1 10.013,6.9c1.603,1.8 1.603,5.4 1.603,5.4c0,0 -37.652,-5.1 -47.266,-9.9M334.614,323.296c0,0 -2.68,-4.401 -4.563,-5.435c-1.886,-1.033 -4.784,-3.641 -7.866,-4.756c-3.081,-1.116 -8.665,-1.5 -11.458,-1.691c-2.792,-0.191 -7.15,5.836 -11.321,7.056c-4.171,1.22 -8.998,4.504 -10.813,6.187c-1.814,1.683 -2.253,5.268 -2.253,5.268c0,0 38.116,-2.506 48.274,-6.63M161.312,323.89c0,0 0.4,-4.8 5.607,-4.5c5.208,0.3 8.011,0.9 12.818,0c4.807,-0.9 10.815,-2.7 14.02,0c3.204,2.7 5.607,8.1 5.607,8.1c0,0 -28.84,-0.9 -38.052,-3.6" fill="#bdb999"/><path d="M460.537,278.557h11.063v24.422h-11.063z" fill="#b68046"/><path d="M471.6,278.557h11.062v24.422h-11.063z" fill="#a3723d"/><path d="M491.409,222.738c-2.9,5.232 23.278,32.271 19.808,33.579c-3.47,1.309 -12.833,0 -12.833,2.181c0,2.179 17.468,20.059 11.645,20.059h-38.429v-128.212c8.151,0 29.696,32.707 26.784,33.58c-2.912,0.873 -11.064,-1.308 -9.898,2.18c1.164,3.489 20.379,30.528 18.05,31.4c-2.33,0.872 -12.229,0 -15.127,5.233" fill="#7f9832"/><path d="M471.6,150.344v128.214h-38.43c-5.822,0 11.646,-17.88 11.646,-20.06c0,-2.18 -9.364,-0.873 -12.835,-2.18c-3.47,-1.31 22.708,-28.348 19.81,-33.58c-2.899,-5.233 -12.798,-4.362 -15.128,-5.233c-2.328,-0.873 16.886,-27.91 18.052,-31.4c1.164,-3.489 -6.989,-1.308 -9.899,-2.18c-2.912,-0.873 18.632,-33.58 26.784,-33.58z" fill="#94af3c"/><path d="M338.614,310.533h6.816v15.048h-6.816z" fill="#b68046"/><path d="M345.431,310.533h6.816v15.048h-6.816z" fill="#a3723d"/><path d="M357.636,276.139c-1.787,3.225 14.344,19.884 12.205,20.69c-2.138,0.806 -7.907,0 -7.907,1.344c0,1.343 10.763,12.36 7.175,12.36h-23.678v-78.998c5.023,0 18.296,20.153 16.503,20.69c-1.795,0.537 -6.816,-0.806 -6.099,1.344c0.717,2.149 12.557,18.808 11.121,19.345c-1.435,0.538 -7.534,0 -9.32,3.226" fill="#7f9832"/><path d="M345.43,310.533h-23.677c-3.588,0 7.175,-11.017 7.175,-12.36c0,-1.344 -5.771,-0.537 -7.908,-1.344c-2.138,-0.806 13.992,-17.465 12.205,-20.69c-1.786,-3.224 -7.885,-2.686 -9.32,-3.224c-1.435,-0.537 10.404,-17.196 11.122,-19.346c0.717,-2.15 -4.306,-0.806 -6.099,-1.344c-1.795,-0.537 11.48,-20.69 16.502,-20.69z" fill="#94af3c"/><path d="M79.008,295.714h10.08v22.25h-10.08z" fill="#b68046"/><path d="M89.087,295.714h10.08v22.25h-10.08z" fill="#a3723d"/><path d="M107.135,244.858c-2.642,4.768 21.208,29.401 18.048,30.593c-3.162,1.192 -11.693,0 -11.693,1.987c0,1.986 15.914,18.275 10.61,18.275h-35.013v-116.808c7.427,0 27.055,29.798 24.402,30.593c-2.652,0.794 -10.079,-1.193 -9.018,1.986c1.062,3.179 18.567,27.812 16.446,28.606c-2.123,0.795 -11.141,0 -13.782,4.768" fill="#7f9832"/><path d="M89.088,178.905v116.809h-35.012c-5.304,0 10.61,-16.289 10.61,-18.276c0,-1.987 -8.533,-0.795 -11.693,-1.987c-3.161,-1.192 20.689,-25.825 18.046,-30.593c-2.64,-4.767 -11.658,-3.973 -13.78,-4.767c-2.123,-0.795 15.384,-25.428 16.444,-28.607c1.062,-3.179 -6.366,-1.192 -9.017,-1.986c-2.653,-0.795 16.975,-30.593 24.401,-30.593z" fill="#94af3c"/><path d="M392.581,305.878c2.234,-0.18 4.33,-0.919 6.117,-1.988v12.365h-6.117zM391.538,305.923c0.351,0 0.698,-0.017 1.043,-0.045v10.377h-6.117v-13.505c1.61966,1.16818 3.31468,2.22816 5.074,3.173" fill="#b68046"/><path d="M406.234,230.259c2.863,20.429 4.745,41.186 0.004,61.418c-0.754,3.223 -1.717,6.501 -4.044,9.27c-0.929,1.107 -2.123,2.122 -3.497,2.942c-1.786,1.069 -3.881,1.808 -6.116,1.988v-100.387c0.18692,0.03051 0.37217,0.07056 0.555,0.12c1.075,0.3 1.945,0.905 2.728,1.533c7.548,6.052 9.217,14.881 10.37,23.117" fill="#7f9832"/><path d="M392.581,305.878c-0.344,0.028 -0.693,0.045 -1.043,0.045c-1.75913,-0.94425 -3.45384,-2.0039 -5.073,-3.172c-8.407,-6.069 -13.785,-14.49 -14.61,-23.225c-0.276,-2.92 -0.071,-5.853 0.136,-8.777c0.286,-4.079 0.574,-8.158 0.862,-12.237c0.216,-3.069 0.432,-6.138 0.781,-9.198c1.447,-12.757 5.173,-25.334 10.306,-37.546c0.694,-1.655 1.453,-3.353 2.984,-4.653c1.402,-1.191 3.627,-1.967 5.657,-1.625v100.388" fill="#94af3c"/><path d="M154.703,325.214v-9.3c2.002,-0.161 3.878,-0.823 5.48,-1.782v11.082h-5.481zM153.768,315.954c0.314,0 0.626,-0.015 0.934,-0.04v9.3h-5.48v-12.102c1.45114,1.04663 2.96977,1.99636 4.546,2.843" fill="#b68046"/><path d="M166.936,248.158c2.564,18.305 4.252,36.902 0.004,55.032c-0.677,2.888 -1.54,5.825 -3.624,8.308c-0.833,0.991 -1.902,1.898 -3.134,2.635c-1.6,0.958 -3.478,1.621 -5.48,1.781v-89.95c0.16717,0.02651 0.33276,0.06223 0.496,0.107c0.964,0.27 1.744,0.812 2.446,1.374c6.762,5.423 8.258,13.333 9.292,20.713" fill="#7f9832"/><path d="M154.702,315.915c-0.308,0.024 -0.619,0.04 -0.934,0.04c-1.57609,-0.84632 -3.09441,-1.79606 -4.545,-2.843c-7.533,-5.437 -12.353,-12.983 -13.093,-20.809c-0.247,-2.617 -0.063,-5.246 0.123,-7.866l0.771,-10.963c0.195,-2.75 0.389,-5.499 0.7,-8.244c1.298,-11.43 4.635,-22.699 9.235,-33.642c0.623,-1.482 1.302,-3.003 2.675,-4.168c1.255,-1.068 3.248,-1.764 5.068,-1.456v89.951" fill="#94af3c"/><path d="M17.42,286.95c3.771,-0.303 7.307,-1.551 10.323,-3.356v20.87h-10.323z" fill="#b68046"/><path d="M15.66,287.025c0.592,0 1.179,-0.028 1.761,-0.075v17.514h-10.324v-22.793c2.73342,1.97114 5.59397,3.75969 8.563,5.354" fill="#b68046"/><path d="M40.462,159.331c4.831,34.478 8.008,69.508 0.007,103.652c-1.274,5.441 -2.899,10.973 -6.826,15.648c-1.569,1.867 -3.583,3.576 -5.9,4.963c-3.016,1.804 -6.553,3.053 -10.322,3.355v-169.42c0.3147,0.05071 0.62647,0.11814 0.934,0.202c1.817,0.508 3.284,1.528 4.607,2.588c12.736,10.214 15.553,25.114 17.5,39.011" fill="#7f9832"/><path d="M17.42,286.95c-0.581,0.047 -1.168,0.075 -1.761,0.075c-2.96814,-1.59436 -5.82801,-3.38257 -8.561,-5.353c-14.188,-10.243 -23.264,-24.455 -24.658,-39.195c-0.465,-4.929 -0.117,-9.879 0.23,-14.815l1.455,-20.65c0.365,-5.178 0.73,-10.358 1.317,-15.524c2.443,-21.529 8.732,-42.755 17.394,-63.365c1.174,-2.792 2.453,-5.656 5.037,-7.852c2.365,-2.01 6.12,-3.322 9.547,-2.742v169.421" fill="#94af3c"/><path d="M-0.162,360v-67.326c0,0 234.786,75.357 480.665,0v67.326z" fill="#b9d53f"/><path d="M469.12,324.263c0,0 -3.912,-5.98 -12.358,-6.795c0,0 6.766,-2.678 13.111,0.637c0,0 -3.369,-9.146 5.055,-13.74c0,0 -0.411,8.154 3.935,11.39c0,0 1.09,-5.245 6.748,-7.005c0,0 -4.193,7.165 0.826,12.23c0,0 -8.32,3.096 -17.317,3.283M378.464,335.193c0,0 -2.431,-5.96 -10.073,-7.648c0,0 6.78,-1.723 11.986,2.043c0,0 -1.303,-8.823 7.388,-12.133c0,0 -1.994,7.488 1.38,10.959c0,0 2.046,-4.725 7.622,-5.723c0,0 -5.292,6.154 -1.656,11.39c0,0 -8.298,1.938 -16.647,1.112M442.753,333.168c0,0 -2.432,-5.96 -10.073,-7.647c0,0 6.78,-1.724 11.986,2.042c0,0 -1.303,-8.823 7.388,-12.132c0,0 -1.994,7.487 1.382,10.958c0,0 2.044,-4.724 7.62,-5.722c0,0 -5.292,6.153 -1.656,11.389c0,0 -8.298,1.938 -16.647,1.112M273.047,342.272c0,0 -0.614,-5.166 -6.452,-7.522c0,0 5.916,-0.533 9.294,3.202c0,0 0.958,-7.352 8.794,-8.93c0,0 -3.338,5.841 -1.385,9.101c0,0 2.747,-3.584 7.516,-3.68c0,0 -5.717,4.331 -3.956,9.061c0,0 -7.2,0.513 -13.811,-1.232M353.558,338.672c0,0 -0.614,-5.166 -6.452,-7.522c0,0 5.916,-0.533 9.294,3.203c0,0 0.96,-7.352 8.795,-8.932c0,0 -3.338,5.843 -1.384,9.103c0,0 2.745,-3.585 7.515,-3.681c0,0 -5.718,4.33 -3.956,9.06c0,0 -7.202,0.514 -13.812,-1.231M405.53,334.622c0,0 -0.614,-5.166 -6.451,-7.522c0,0 5.916,-0.533 9.292,3.203c0,0 0.96,-7.352 8.795,-8.932c0,0 -3.338,5.842 -1.384,9.103c0,0 2.746,-3.585 7.515,-3.682c0,0 -5.717,4.332 -3.956,9.062c0,0 -7.2,0.513 -13.81,-1.232M182.928,338.418c0,0 -0.495,-4.162 -5.198,-6.061c0,0 4.767,-0.428 7.488,2.58c0,0 0.772,-5.922 7.086,-7.195c0,0 -2.69,4.707 -1.115,7.333c0,0 2.212,-2.887 6.053,-2.966c0,0 -4.606,3.49 -3.187,7.302c0,0 -5.801,0.413 -11.127,-0.993M250.521,341.793c0,0 -0.495,-4.162 -5.197,-6.061c0,0 4.766,-0.428 7.487,2.58c0,0 0.772,-5.922 7.086,-7.195c0,0 -2.689,4.707 -1.115,7.333c0,0 2.213,-2.887 6.054,-2.966c0,0 -4.606,3.49 -3.187,7.302c0,0 -5.801,0.413 -11.128,-0.993M101.352,333.56c0,0 -0.593,-4.979 -6.217,-7.249c0,0 5.7,-0.513 8.955,3.087c0,0 0.924,-7.085 8.474,-8.607c0,0 -3.216,5.63 -1.333,8.771c0,0 2.646,-3.454 7.242,-3.547c0,0 -5.51,4.174 -3.812,8.732c0,0 -6.94,0.495 -13.31,-1.187" fill="#97c93d"/><path d="M114.87,338.285c6.37,1.682 13.309,1.187 13.309,1.187c-1.698,-4.557 3.812,-8.732 3.812,-8.732c-4.595,0.094 -7.242,3.546 -7.242,3.546c-1.882,-3.14 1.334,-8.77 1.334,-8.77c-7.55,1.523 -8.474,8.607 -8.474,8.607c-3.255,-3.6 -8.955,-3.086 -8.955,-3.086c5.623,2.27 6.216,7.248 6.216,7.248M34.058,329.961c6.37,1.681 13.309,1.187 13.309,1.187c-1.697,-4.558 3.812,-8.733 3.812,-8.733c-4.596,0.094 -7.242,3.548 -7.242,3.548c-1.881,-3.142 1.334,-8.772 1.334,-8.772c-7.551,1.523 -8.474,8.607 -8.474,8.607c-3.254,-3.599 -8.956,-3.086 -8.956,-3.086c5.626,2.27 6.217,7.248 6.217,7.248M340.073,339.813c-6.532,2.34 -14.005,2.41 -14.005,2.41c1.111,-5.005 -5.402,-8.981 -5.402,-8.981c4.914,-0.296 8.264,3.158 8.264,3.158c1.524,-3.511 -2.767,-9.234 -2.767,-9.234c8.282,0.972 10.352,8.445 10.352,8.445c2.919,-4.117 9.074,-4.061 9.074,-4.061c-5.646,2.905 -5.516,8.262 -5.516,8.262M243.044,341.416c-6.532,2.34 -14.005,2.41 -14.005,2.41c1.111,-5.005 -5.402,-8.98 -5.402,-8.98c4.913,-0.296 8.263,3.158 8.263,3.158c1.525,-3.511 -2.766,-9.234 -2.766,-9.234c8.281,0.972 10.351,8.444 10.351,8.444c2.919,-4.116 9.074,-4.06 9.074,-4.06c-5.648,2.905 -5.515,8.262 -5.515,8.262M312.139,340.966c-6.531,2.34 -14.004,2.41 -14.004,2.41c1.11,-5.004 -5.403,-8.98 -5.403,-8.98c4.914,-0.297 8.264,3.157 8.264,3.157c1.525,-3.51 -2.767,-9.234 -2.767,-9.234c8.282,0.974 10.352,8.445 10.352,8.445c2.919,-4.115 9.074,-4.06 9.074,-4.06c-5.648,2.904 -5.515,8.262 -5.515,8.262M182.359,341.191c-6.531,2.34 -14.004,2.41 -14.004,2.41c1.111,-5.005 -5.402,-8.98 -5.402,-8.98c4.913,-0.296 8.263,3.158 8.263,3.158c1.524,-3.511 -2.766,-9.234 -2.766,-9.234c8.282,0.972 10.353,8.444 10.353,8.444c2.917,-4.116 9.072,-4.06 9.072,-4.06c-5.646,2.905 -5.515,8.262 -5.515,8.262M153.561,339.371c-7.094,1.085 -14.368,-0.203 -14.368,-0.203c2.697,-4.654 -2.335,-9.693 -2.335,-9.693c4.863,0.604 6.995,4.562 6.995,4.562c2.615,-3.128 0.305,-9.46 0.305,-9.46c7.72,2.447 7.311,10.072 7.311,10.072c4.163,-3.465 10.117,-2.293 10.117,-2.293c-6.419,1.793 -8.025,7.014 -8.025,7.014M215.146,343.421c-7.093,1.085 -14.367,-0.202 -14.367,-0.202c2.697,-4.654 -2.336,-9.694 -2.336,-9.694c4.863,0.604 6.995,4.564 6.995,4.564c2.615,-3.13 0.305,-9.462 0.305,-9.462c7.72,2.447 7.311,10.072 7.311,10.072c4.163,-3.464 10.117,-2.292 10.117,-2.292c-6.418,1.792 -8.025,7.013 -8.025,7.013" fill="#97c93d"/><path d="M31.285,324.673c-7.863,1.202 -15.923,-0.226 -15.923,-0.226c2.987,-5.158 -2.59,-10.743 -2.59,-10.743c5.389,0.67 7.754,5.06 7.754,5.06c2.898,-3.469 0.335,-10.487 0.335,-10.487c8.558,2.711 8.104,11.163 8.104,11.163c4.613,-3.839 11.212,-2.541 11.212,-2.541c-7.112,1.988 -8.892,7.774 -8.892,7.774M98.578,337.948c-7.863,1.203 -15.923,-0.225 -15.923,-0.225c2.987,-5.158 -2.59,-10.743 -2.59,-10.743c5.389,0.67 7.754,5.058 7.754,5.058c2.898,-3.468 0.336,-10.486 0.336,-10.486c8.557,2.712 8.103,11.163 8.103,11.163c4.615,-3.84 11.213,-2.54 11.213,-2.54c-7.113,1.986 -8.893,7.773 -8.893,7.773" fill="#97c93d"/><path d="M14.762,329.173c-7.864,1.202 -15.924,-0.226 -15.924,-0.226c2.989,-5.158 -2.588,-10.743 -2.588,-10.743c5.388,0.67 7.753,5.06 7.753,5.06c2.899,-3.469 0.335,-10.487 0.335,-10.487c8.559,2.711 8.105,11.163 8.105,11.163c4.613,-3.839 11.211,-2.541 11.211,-2.541c-7.112,1.988 -8.892,7.774 -8.892,7.774M71.088,330.588c-7.808,1.194 -15.813,-0.224 -15.813,-0.224c2.967,-5.122 -2.571,-10.669 -2.571,-10.669c5.351,0.664 7.7,5.024 7.7,5.024c2.877,-3.444 0.333,-10.414 0.333,-10.414c8.498,2.693 8.048,11.086 8.048,11.086c4.582,-3.814 11.133,-2.524 11.133,-2.524c-7.064,1.974 -8.83,7.721 -8.83,7.721M439.202,326.728c-5.545,1.987 -11.888,2.047 -11.888,2.047c0.943,-4.249 -4.585,-7.623 -4.585,-7.623c4.17,-0.252 7.014,2.68 7.014,2.68c1.295,-2.98 -2.349,-7.838 -2.349,-7.838c7.031,0.825 8.789,7.168 8.789,7.168c2.476,-3.495 7.7,-3.447 7.7,-3.447c-4.793,2.465 -4.681,7.013 -4.681,7.013" fill="#97c93d"/><path d="M-0.162,360v-42.952c0,0 234.786,48.076 480.665,0v42.952z" fill="#97c93d"/><path d="M108.345,316.078c0,0 0.97,-5.331 -4.206,-8.724c0,0 6.147,0.486 8.412,4.847c0,0 3.235,-7.27 11.647,-7.512c0,0 -5.177,5.33 -4.206,8.966c0,0 3.882,-3.15 8.736,-2.424c0,0 -7.118,3.393 -6.795,8.482c0,0 -7.44,-0.728 -13.588,-3.635M58.095,307.996c0,0 0.944,-3.763 -2.573,-6.311c0,0 4.345,0.508 5.746,3.668c0,0 2.645,-5.08 8.634,-5.026c0,0 -3.933,3.649 -3.415,6.258c0,0 2.908,-2.135 6.322,-1.488c0,0 -5.22,2.22 -5.231,5.844c0,0 -5.254,-0.716 -9.483,-2.945M-1.83,293.833c0,0 1.015,-4.045 -2.766,-6.785c0,0 4.67,0.547 6.178,3.944c0,0 2.844,-5.461 9.28,-5.404c0,0 -4.227,3.924 -3.671,6.728c0,0 3.127,-2.295 6.797,-1.6c0,0 -5.61,2.387 -5.623,6.283c0,0 -5.648,-0.77 -10.195,-3.166M435.719,307.168c0,0 -3.64,-5.564 -11.496,-6.32c0,0 6.294,-2.492 12.196,0.59c0,0 -3.134,-8.505 4.702,-12.78c0,0 -0.383,7.586 3.66,10.595c0,0 1.013,-4.878 6.278,-6.515c0,0 -3.902,6.664 0.768,11.375c0,0 -7.738,2.882 -16.108,3.055M402.171,315.372c0,0 -2.782,-4.256 -8.792,-4.834c0,0 4.814,-1.905 9.328,0.452c0,0 -2.397,-6.507 3.597,-9.775c0,0 -0.294,5.802 2.798,8.103c0,0 0.776,-3.731 4.803,-4.983c0,0 -2.984,5.098 0.587,8.7c0,0 -5.918,2.204 -12.32,2.337M350.597,321.456c0,0 -1.096,-4.667 -6.656,-6.472c0,0 5.33,-0.83 8.795,2.373c0,0 0.108,-6.75 7.078,-8.643c0,0 -2.431,5.513 -0.315,8.367c0,0 2.128,-3.424 6.46,-3.79c0,0 -4.755,4.277 -2.659,8.48c0,0 -6.503,0.888 -12.703,-0.315" fill="#b9d53f"/><path d="M230.158,145.97l0.533,1.763c0,0 -5.73,-1.41 -8.85,2.296c0,0 1.35,-6.054 8.317,-4.059" fill="#4b5463"/><path d="M230.158,145.97c5.138,-4.049 9.84,0.978 9.84,0.978c-4.949,-2.338 -9.307,0.785 -9.307,0.785l-0.533,-1.763" fill="#353c49"/><path d="M242.007,150.925l0.06,1.62c0,0 -4.71,-1.985 -8.313,0.867c0,0 2.59,-5.147 8.253,-2.487" fill="#4b5463"/><path d="M242.007,150.925c5.456,-2.891 8.424,2.14 8.424,2.14c-3.808,-2.698 -8.364,-0.52 -8.364,-0.52l-0.06,-1.62" fill="#353c49"/><path d="M439.605,134.423l-0.214,1.137c0,0 -2.977,-1.804 -5.946,-0.129c0,0 2.623,-3.367 6.16,-1.008" fill="#4b5463"/><path d="M439.604,134.423c4.27,-1.536 5.55,2.242 5.55,2.242c-2.237,-2.223 -5.763,-1.105 -5.763,-1.105l0.214,-1.137" fill="#353c49"/><path d="M427.33,141.733l0.06,1.62c0,0 -4.71,-1.986 -8.314,0.866c0,0 2.592,-5.146 8.253,-2.486" fill="#4b5463"/><path d="M427.329,141.733c5.455,-2.89 8.425,2.14 8.425,2.14c-3.809,-2.699 -8.364,-0.52 -8.364,-0.52l-0.06,-1.62" fill="#353c49"/><path d="M57.812,130.315l0.235,1.61c0,0 -4.909,-1.692 -8.19,1.37c0,0 2.022,-5.287 7.955,-2.98" fill="#4b5463"/><path d="M57.812,130.315c5.124,-3.214 8.628,1.62 8.628,1.62c-4.089,-2.458 -8.393,-0.01 -8.393,-0.01l-0.235,-1.61" fill="#353c49"/><path d="M237.167,39c3.604,-8.7 14.42,-4.5 14.42,-4.5c-1.202,-3.3 2.002,-10.2 14.42,-9.6c12.416,0.6 14.82,6.6 14.82,6.6c0,0 2.404,-4.2 17.624,-3.3c15.221,0.9 16.823,10.8 16.823,10.8c8.412,-1.8 20.028,0 17.624,8.1c-2.403,8.1 -22.03,6.9 -22.03,6.9c-14.82,6.3 -31.243,-1.2 -31.243,-1.2c-18.826,9 -34.047,-0.9 -34.047,-0.9c-8.412,4.5 -26.837,2.4 -26.837,-5.4c0,-7.8 18.425,-7.5 18.425,-7.5" fill="#e4f5fd"/><path d="M310.869,49.35c0,0 18.914,1.15 21.871,-6.478c0.546,1.159 0.654,2.558 0.159,4.228c-2.403,8.1 -22.03,6.9 -22.03,6.9c-14.821,6.3 -31.244,-1.2 -31.244,-1.2c-18.826,9 -34.047,-0.9 -34.047,-0.9c-8.411,4.5 -26.837,2.399 -26.837,-5.401c-0.00247,-0.8093 0.21792,-1.60365 0.637,-2.296c3.29,5.824 18.71,7.054 26.2,3.047c0,0 15.221,9.9 34.047,0.9c0,0 16.424,7.5 31.244,1.2" fill="#d4effc"/><path d="M429.833,24.3c0,0 -0.801,-9.9 8.411,-10.2c9.213,-0.3 14.02,6.9 14.02,6.9c0,0 4.005,-5.4 12.417,-3.9c8.411,1.5 8.011,6.9 8.011,6.9c5.207,-1.2 14.019,-0.9 12.417,6.9c-1.602,7.8 -21.23,4.2 -21.23,4.2c-18.825,6.6 -29.64,-2.1 -29.64,-2.1c-6.409,3 -21.63,2.1 -20.028,-6c1.602,-8.1 15.622,-2.7 15.622,-2.7" fill="#e4f5fd"/><path d="M485.11,27.9c0.012,-0.06 0.018,-0.113 0.028,-0.173c0.216,0.885 0.225,1.934 -0.028,3.173c-1.603,7.8 -21.23,4.2 -21.23,4.2c-18.826,6.6 -29.641,-2.1 -29.641,-2.1c-6.408,3 -21.63,2.1 -20.028,-6c0.029,-0.145 0.07,-0.275 0.106,-0.412c1.797,5.667 14.276,6.055 19.923,3.412c0,0 10.814,8.7 29.64,2.1c0,0 19.627,3.6 21.23,-4.2" fill="#d4effc"/><path d="M73.74,18c0,0 10.415,-5.7 13.219,2.7c2.804,8.4 -16.022,6.6 -16.022,6.6c0,0 -7.61,10.8 -24.835,4.8c0,0 -18.025,7.8 -26.436,2.1c0,0 -22.832,6.6 -25.235,-3c-2.403,-9.6 10.414,-9.6 14.82,-7.2c0,0 -0.4,-9 11.616,-8.1c0,0 1.202,-8.1 14.42,-8.7c13.219,-0.6 17.625,6.3 17.625,6.3c0,0 16.422,-3.3 20.828,4.5" fill="#e4f5fd"/><path d="M86.757,20.169c0.069,0.173 0.138,0.345 0.201,0.531c2.804,8.4 -16.022,6.6 -16.022,6.6c0,0 -7.61,10.8 -24.834,4.8c0,0 -18.025,7.8 -26.437,2.1c0,0 -22.831,6.6 -25.234,-3c-0.403,-1.608 -0.37,-2.941 -0.03,-4.044c0.011,0.049 0.017,0.094 0.031,0.144c2.402,9.6 25.233,3.001 25.233,3.001c8.412,5.698 26.437,-2.102 26.437,-2.102c17.224,6 24.834,-4.8 24.834,-4.8c0,0 13.128,1.252 15.821,-3.23" fill="#d4effc"/><path d="M113.34,75.436c0,0 27.985,-5.434 29.54,6.987c1.555,12.42 -22.803,14.362 -37.314,10.092c0,0 -18.118,18.112 -41.438,9.185c0,0 -24.034,15.75 -37.854,5.564c0,0 -31.096,10.481 -36.796,-3.104c-5.702,-13.586 16.584,-13.586 25.393,-11.257c0,0 0,-13.585 13.475,-13.197c0,0 0.518,-13.974 20.73,-16.302c20.212,-2.329 24.876,10.092 24.876,10.092c0,0 24.359,-13.586 39.388,1.94" fill="#e4f5fd"/><path d="M142.586,81.084c0.13891,0.4367 0.23733,0.88526 0.294,1.34c1.555,12.42 -22.803,14.361 -37.315,10.092c0,0 -18.117,18.112 -41.438,9.184c0,0 -24.034,15.75 -37.854,5.565c0,0 -31.095,10.48 -36.795,-3.105c-1.071,-2.55 -1.155,-4.621 -0.526,-6.289c0.1458,0.50595 0.32144,1.00282 0.526,1.488c5.7,13.586 36.795,3.106 36.795,3.106c13.82,10.185 37.853,-5.565 37.853,-5.565c23.322,8.928 41.44,-9.184 41.44,-9.184c13.039,3.836 34.022,2.656 37.02,-6.632" fill="#d4effc"/><path d="M181.89,121.95c0,0 13.82,-4.05 18.025,0.9c4.206,4.95 -9.012,8.55 -13.819,7.65c0,0 -12.617,9.9 -25.836,5.85c0,0 -16.222,7.2 -21.63,1.35c-5.407,-5.85 4.206,-9.45 11.416,-7.65c0,0 -0.296,-10.138 12.77,-8.444c0,0 5.255,-11.356 19.074,0.344" fill="#e4f5fd"/><path d="M186.096,127.687c3.648,0.684 12.133,-1.227 14.178,-4.351c2.978,4.697 -9.53,8.034 -14.178,7.164c0,0 -12.618,9.9 -25.836,5.85c0,0 -16.222,7.2 -21.63,1.35c-1.65,-1.785 -1.896,-3.359 -1.244,-4.636c0.254,0.579 0.655,1.187 1.244,1.824c5.408,5.85 21.63,-1.35 21.63,-1.35c13.218,4.049 25.836,-5.851 25.836,-5.851" fill="#d4effc"/><path d="M496.536,88.02c0,0 14.833,0.322 16.117,6.11c1.285,5.788 -12.76,5.227 -16.714,2.99c0,0 -16.784,5.412 -26.831,-2.189c0,0 -18.692,1.871 -20.61,-5.098c-1.92,-6.968 8.807,-7.463 14.501,-3.694c0,0 5.024,-9.416 16.164,-4.027c0,0 10.77,-8.91 17.373,5.907" fill="#e4f5fd"/><path d="M497.409,94.532c3,1.697 11.807,2.427 15.32,0.151c0.286,5.196 -12.968,4.6 -16.79,2.437c0,0 -16.784,5.411 -26.832,-2.189c0,0 -18.69,1.872 -20.61,-5.098c-0.586,-2.125 0.011,-3.646 1.278,-4.63c-0.068,0.608 -0.016,1.285 0.192,2.043c1.919,6.968 20.61,5.096 20.61,5.096c10.048,7.602 26.832,2.19 26.832,2.19" fill="#d4effc"/><path d="M339.308,103.05c4.806,-9 16.222,-5.85 16.222,-5.85c0,0 7.21,-6.3 18.025,-6.75c10.815,-0.45 14.42,10.8 14.42,10.8c15.687,-0.013 16.823,9 16.823,9c6.009,-1.35 23.433,2.25 19.227,9.9c-4.206,7.65 -22.832,0.9 -22.832,0.9c-16.222,6.75 -30.041,-4.95 -30.041,-4.95c-14.42,7.2 -26.437,-2.25 -26.437,-2.25c0,0 -26.437,5.4 -26.437,-5.4c0,-10.8 21.03,-5.4 21.03,-5.4" fill="#e4f5fd"/><path d="M424.025,117c0.11987,-0.21855 0.22608,-0.44431 0.318,-0.676c0.494,1.133 0.46,2.41 -0.318,3.826c-4.206,7.65 -22.832,0.9 -22.832,0.9c-16.222,6.75 -30.041,-4.95 -30.041,-4.95c-14.42,7.2 -26.437,-2.25 -26.437,-2.25c0,0 -26.436,5.4 -26.436,-5.4c-0.00114,-0.55357 0.06468,-1.10524 0.196,-1.643c2.397,8.762 26.24,3.893 26.24,3.893c0,0 12.017,9.45 26.437,2.25c0,0 13.819,11.7 30.041,4.95c0,0 18.626,6.75 22.832,-0.9" fill="#d4effc"/></g><path d="M53.22651,291.60059c3.39392,0.27951 6.79236,0.47016 10.19889,0.4157c4.58656,-0.06877 9.1195,0.15653 13.69538,0.47724c0.46564,0.03191 0.46562,0.03191 0.94067,0.06445c0.89354,0.06195 1.78686,0.12673 2.68011,0.19275c0.26845,0.01883 0.53689,0.03765 0.81348,0.05703c2.06314,0.15928 3.8077,0.52058 5.70127,1.3928c1.44041,0.63557 2.8648,1.08389 4.38669,1.49462c1.29793,0.38174 2.51672,0.91601 3.75224,1.46224c0.21251,0.08581 0.42499,0.17162 0.64394,0.26006c1.82806,0.75186 1.82806,0.75186 2.28241,1.69084c0,0.24141 0,0.48286 0,0.73159c0.1402,0.05626 0.2804,0.11254 0.42485,0.17052c0.69023,0.39766 1.0641,0.86637 1.55652,1.4908c0.24991,0.31168 0.24992,0.31168 0.50488,0.62967c0.76921,1.11053 1.01383,1.9704 0.92782,3.31786c-0.04347,0.1506 -0.08692,0.30119 -0.13169,0.45635c-0.1346,0.62296 -0.08248,1.10539 -0.00166,1.73746c0.02996,0.24687 0.05992,0.49378 0.09079,0.74815c0.03417,0.27148 0.06833,0.54296 0.10353,0.82269c0.29198,2.45287 0.52287,4.90158 0.70602,7.36466c0.30433,4.06874 0.72477,8.12079 1.18392,12.17484c0.03064,0.27293 0.06129,0.54583 0.09284,0.827c0.38661,3.4298 0.82558,6.84516 1.37032,10.25351c0.02844,0.17932 0.0569,0.35861 0.08622,0.54337c0.61403,3.85463 1.2654,7.70398 2.12379,11.5126c0.05385,0.24477 0.10771,0.48954 0.16318,0.74171c0.69098,2.9454 1.61086,5.76251 4.25109,7.44771c2.57746,1.44884 5.3951,2.19481 8.23204,2.96219c0.98503,0.26664 1.96772,0.54103 2.94974,0.81851c0.44437,0.1255 0.88917,0.24948 1.33445,0.37175c0.19861,0.0556 0.39723,0.11119 0.60186,0.16848c0.17346,0.04788 0.34693,0.09575 0.52565,0.14509c0.46029,0.1626 0.46027,0.1626 1.19186,0.65031c-0.05335,0.56966 -0.05334,0.56966 -0.24386,1.21932c-3.70797,2.87215 -9.94818,2.03396 -14.36128,1.98692c-1.43998,-0.01463 -2.88002,-0.02273 -4.32006,-0.03066c-0.49805,-0.00337 -0.99606,-0.00862 -1.49409,-0.0142c-0.30385,-0.00237 -0.60768,-0.00476 -0.92074,-0.00723c-0.26529,-0.00275 -0.53059,-0.0055 -0.80393,-0.00833c-0.84344,0.02641 -1.65353,0.13483 -2.4862,0.26827c-0.25433,0.63323 -0.29819,1.07111 -0.06215,1.71502c0.38083,0.7891 0.78817,1.56236 1.19955,2.33587c0.69794,1.37492 1.15485,2.67624 1.05737,4.24044c-0.29482,0.79023 -0.43554,0.94483 -1.18883,1.38697c-4.9549,2.08105 -11.21173,-0.54244 -15.84144,-2.39529c-1.02282,-0.41994 -2.04006,-0.85154 -3.05413,-1.29218c-1.31668,-0.56651 -2.15887,-0.67138 -3.5703,-0.62586c-0.40024,0.40024 -0.31274,0.88259 -0.34866,1.43461c-0.01792,0.24457 -0.03583,0.48913 -0.0543,0.7411c-0.0358,0.51493 -0.07011,1.02998 -0.10287,1.5451c-0.12141,1.6132 -0.26772,3.01137 -1.33838,4.29617c-0.97532,0.7633 -2.09367,0.57695 -3.27691,0.51821c-0.77215,-0.09593 -1.52842,-0.24295 -2.29002,-0.40105c-0.20942,-0.0414 -0.4188,-0.08278 -0.63457,-0.12543c-0.44352,-0.0877 -0.88683,-0.17632 -1.32999,-0.26579c-1.15223,-0.23171 -2.30635,-0.45349 -3.46046,-0.67569c-0.22398,-0.0432 -0.44796,-0.0864 -0.67872,-0.13092c-9.5681,-1.89751 -9.5681,-1.89751 -18.53431,0.87682c-0.45663,0.31761 -0.90887,0.64062 -1.36006,0.96592c-0.17148,0.12296 -0.34295,0.24591 -0.51962,0.37259c-0.74221,0.53324 -1.48285,1.06867 -2.22222,1.60583c-7.30313,5.30445 -7.30315,5.30443 -10.18289,4.84975c-1.33474,-0.78425 -1.71209,-1.92226 -2.27097,-3.29213c-0.85559,-1.99792 -1.78404,-3.7432 -3.09401,-5.48692c-0.10123,-0.14554 -0.20244,-0.29109 -0.30672,-0.44105c-1.08735,-1.46373 -3.00714,-2.89159 -4.8144,-3.21688c-3.17581,-0.29164 -5.15756,0.80939 -7.7414,2.47184c-2.63017,1.67383 -5.64226,3.39497 -8.84128,3.137c-0.87438,-0.39917 -1.16886,-0.65593 -1.70704,-1.46316c-0.02054,-0.90277 0.00091,-1.79191 0.04049,-2.69344c0.03924,-1.62228 -0.21172,-2.93254 -1.22932,-4.22997c-3.29062,-2.87929 -7.60611,-3.02899 -11.80174,-2.78466c-0.80154,0.06115 -1.60237,0.12851 -2.40326,0.19743c-3.60631,0.28369 -7.10931,0.3579 -10.71473,0.04572c-0.20601,-0.01706 -0.41204,-0.0341 -0.62429,-0.05168c-1.41327,-0.13995 -2.96501,-0.30867 -4.23771,-0.96949c-0.18961,-0.51327 -0.18963,-0.51327 -0.24386,-0.97547c0.54519,-0.26516 1.0904,-0.53029 1.63561,-0.79542c0.25735,-0.12514 0.25735,-0.12514 0.51989,-0.2528c0.95876,-0.46612 1.91767,-0.93189 2.87686,-1.39714c0.29359,-0.1424 0.29359,-0.14241 0.5931,-0.2877c0.39814,-0.19313 0.79629,-0.38622 1.19445,-0.57931c1.1821,-0.57358 2.36272,-1.15005 3.54234,-1.72874c2.6137,-1.27701 5.22761,-2.48581 7.92746,-3.5703c2.00538,-0.81212 3.76475,-1.60088 5.36498,-3.09401c0.15687,-0.14334 0.31374,-0.2867 0.47535,-0.43438c2.33902,-2.39484 3.48877,-5.68144 3.48124,-8.98055c-0.003,-0.20763 -0.00598,-0.41525 -0.00905,-0.62918c-0.00016,-0.21047 -0.00032,-0.42092 -0.00048,-0.63775c-0.00573,-0.83236 -0.02231,-1.61941 -0.16135,-2.44209c-0.14373,-0.87327 -0.21217,-1.74089 -0.26208,-2.6233c-0.01021,-0.17914 -0.02041,-0.35827 -0.03091,-0.54284c-0.11873,-2.27609 -0.12682,-4.55246 -0.12436,-6.83116c0.00005,-0.23287 0.00012,-0.46575 0.0002,-0.70566c0.00571,-4.39925 0.18627,-8.76999 0.49389,-13.15752c0.04101,-0.59419 0.08003,-1.18851 0.11856,-1.78286c0.29179,-4.49265 0.63605,-8.97557 1.14013,-13.44984c0.01895,-0.17159 0.0379,-0.3432 0.05742,-0.52001c0.33383,-2.98737 0.7236,-6.03129 1.75631,-8.86872c0.09525,-0.26971 0.19049,-0.53943 0.28863,-0.81731c0.35372,-0.77559 0.72233,-1.34141 1.31172,-1.95663c0.82304,-0.15241 0.82302,-0.15241 1.70704,0c0.24141,0.20621 0.48286,0.41245 0.73159,0.6249c0.68448,0.66601 0.68448,0.666 1.56985,0.68586c1.28014,-0.4941 1.82185,-1.42259 2.5758,-2.53008c0.24386,-0.24388 0.24386,-0.24388 1.05166,-0.33533c0.89925,0.09145 0.89925,0.09145 1.46318,0.68587c0.13579,0.20621 0.27159,0.41245 0.41152,0.6249c0.66794,0.33399 1.2122,0.27464 1.95092,0.24388c0.16094,-0.08048 0.32191,-0.16095 0.48772,-0.24388c2.13175,-0.23015 2.13177,-0.23015 3.10925,0.50297c0.18106,0.15592 0.36215,0.31184 0.54869,0.47249c1.16745,-0.08447 2.12113,-0.49466 3.18546,-0.96023c1.68133,-0.70452 3.28728,-1.0555 5.10588,-1.23455c0.17209,-0.01995 0.34418,-0.03988 0.52148,-0.06042c1.72986,-0.19236 3.45503,-0.24361 5.19405,-0.29011c2.00384,-0.06046 3.98456,-0.15176 5.97464,-0.39628c3.76654,-0.44576 7.48214,-0.24507 11.25246,0.06727z" fill="#984c19" fill-rule="nonzero" stroke-width="1"/><path d="M62.46018,293.42749c0.55688,-0.00282 1.11376,-0.0078 1.6706,-0.01501c3.79025,-0.04859 7.3271,0.20899 11.02383,1.06244c0.17907,0.04097 0.35811,0.08192 0.5426,0.12412c1.10537,0.25719 2.20211,0.54171 3.29824,0.83607c0.32508,0.08597 0.65019,0.17179 0.97532,0.25749c0.91519,0.24193 1.82934,0.48766 2.74357,0.7332c0.44896,0.11825 0.89793,0.2364 1.34696,0.35437c3.9978,1.06262 7.76808,2.38626 10.84617,5.25449c-1.61675,1.61675 -5.64977,1.14811 -7.78075,1.24932c-1.88486,0.10632 -3.59216,0.35396 -5.38785,0.94545c0.16815,-0.01875 0.33629,-0.03749 0.50952,-0.0568c2.80508,-0.30294 5.60882,-0.21379 8.42196,-0.09563c0.20808,0.00749 0.41616,0.01501 0.63056,0.02275c1.05459,0.05059 1.91351,0.13471 2.87497,0.61741c0,0.24141 0,0.48284 0,0.73157c-0.73675,0.49116 -0.92829,0.55317 -1.76323,0.5887c-0.1957,0.00944 -0.39137,0.01886 -0.59298,0.02857c-0.20323,0.00755 -0.40647,0.0151 -0.61585,0.02288c-0.30908,0.01415 -0.30908,0.01415 -0.62442,0.02859c-0.50811,0.02297 -1.01637,0.04316 -1.52462,0.06286c0,0.08048 0,0.16095 0,0.24388c2.8971,0.36213 2.8971,0.36213 5.85271,0.73159c0.47986,1.43959 0.31887,3.27738 -0.20291,4.69816c-0.98451,1.5446 -2.96803,2.56511 -4.67436,3.10545c-0.72015,0.01144 -0.72017,0.01144 -1.52416,-0.06097c-0.29832,-0.02671 -0.59664,-0.05343 -0.904,-0.08096c-0.32869,-0.03356 -0.65734,-0.06756 -0.98594,-0.10193c-0.17678,-0.01772 -0.35356,-0.03544 -0.53572,-0.05369c-0.54824,-0.05575 -1.09606,-0.11459 -1.64382,-0.17493c-0.16998,-0.01815 -0.33997,-0.03631 -0.51511,-0.05501c-1.10107,-0.12914 -2.10416,-0.36341 -3.15807,-0.69182c1.21802,0.66437 2.26961,1.07889 3.6284,1.34029c0.72237,0.17161 1.33676,0.49137 1.98045,0.85447c0,0.08048 0,0.16095 0,0.24386c-0.17162,0.02571 -0.34329,0.05143 -0.52012,0.07794c-4.4919,0.67547 -8.93275,1.46006 -13.3765,2.39903c-1.69758,0.35503 -3.39697,0.67108 -5.11027,0.93997c-0.87218,0.13706 -1.73436,0.29377 -2.59789,0.47813c-1.29393,0.25947 -2.58085,0.41125 -3.89507,0.52305c-0.24066,0.02061 -0.48135,0.04122 -0.72931,0.06245c-2.79419,0.21872 -5.58339,0.20653 -8.38411,0.18331c-0.52663,-0.00246 -1.05325,-0.00469 -1.57986,-0.00667c-1.26683,-0.00528 -2.53358,-0.01363 -3.80035,-0.02382c-0.0723,-0.18704 -0.14461,-0.37408 -0.21911,-0.56678c-0.27612,-0.67071 -0.61477,-1.25862 -1.00022,-1.87185c-0.10061,0.18106 -0.20119,0.36213 -0.30483,0.54869c-0.42828,0.67301 -0.78678,1.13979 -1.40221,1.64607c-2.8183,0.52942 -6.09237,-0.33186 -8.88575,-0.76207c-0.51518,-0.07771 -1.03039,-0.15524 -1.54564,-0.23262c-1.04852,-0.15785 -2.09679,-0.31723 -3.1449,-0.47767c-1.24027,-0.18943 -2.48122,-0.37367 -3.72268,-0.55517c-0.88867,-0.13008 -1.77706,-0.26201 -2.66539,-0.39435c-0.41691,-0.06183 -0.83393,-0.123 -1.25103,-0.18353c-0.57433,-0.08362 -1.14818,-0.16998 -1.72199,-0.25713c-0.25442,-0.0361 -0.25442,-0.0361 -0.51398,-0.07295c-0.39589,-0.06158 -0.78812,-0.14589 -1.17878,-0.23474c-0.08048,-0.16095 -0.16095,-0.32189 -0.24386,-0.48772c0.14493,-0.04049 0.28984,-0.08098 0.43914,-0.1227c0.66675,-0.18685 1.33312,-0.37499 1.99949,-0.56316c0.22791,-0.06365 0.45581,-0.12732 0.69062,-0.19291c1.3425,-0.38022 2.64391,-0.80595 3.94276,-1.316c-0.30116,0.06476 -0.60231,0.12951 -0.91258,0.19623c-2.11094,0.44396 -4.21214,0.84867 -6.35757,1.08403c-0.17585,0.01945 -0.35169,0.03892 -0.53284,0.05896c-2.0032,0.20317 -3.20043,0.28369 -4.84357,-0.90675c-0.77026,-0.63814 -1.41602,-1.31702 -1.98519,-2.13951c-0.17384,-0.24332 -0.34767,-0.48663 -0.52678,-0.7373c-0.66296,-1.1803 -0.53672,-2.38158 -0.47915,-3.69796c0.01683,-0.4759 0.03151,-0.95189 0.04381,-1.42792c0.00876,-0.20879 0.01752,-0.41757 0.02655,-0.6327c-0.04407,-0.63654 -0.22277,-0.99815 -0.52761,-1.55158c-0.12841,-0.72229 -0.13472,-1.21096 0.21623,-1.86803c3.34045,-4.40379 10.51887,-5.79877 15.60438,-6.89579c0.2478,-0.05455 0.49562,-0.10912 0.75093,-0.16534c2.14508,-0.44137 3.41301,-0.18808 5.29992,0.86644c0.16174,0.08786 0.32346,0.17573 0.49011,0.26625c0.69499,0.38004 1.36534,0.77258 2.02474,1.21217c-0.18483,-0.19852 -0.18483,-0.19852 -0.37342,-0.40105c-0.15844,-0.17446 -0.31686,-0.34894 -0.4801,-0.52869c-0.23765,-0.25886 -0.23765,-0.25886 -0.48011,-0.52298c-0.37342,-0.49821 -0.37342,-0.49821 -0.37342,-1.2298c0.73564,0.03421 1.27746,0.07157 1.83184,0.58584c0.29771,0.36256 0.5757,0.7411 0.85066,1.1212c0.16094,-0.08048 0.32191,-0.16095 0.48772,-0.24386c-0.08048,-0.80475 -0.16095,-1.6095 -0.24388,-2.43863c0.4316,-0.07759 0.86351,-0.15342 1.29552,-0.22862c0.24049,-0.04243 0.48097,-0.08487 0.72874,-0.1286c2.03746,-0.29477 4.07215,-0.41145 6.12895,-0.44296c0.23362,-0.0045 0.46725,-0.00898 0.70795,-0.0136c0.73978,-0.01415 1.47956,-0.02709 2.21936,-0.03974c4.07269,-0.07052 4.07269,-0.07052 8.14179,-0.24671c2.69134,-0.14795 5.38171,-0.18162 8.07676,-0.19104z" fill="#fed673" fill-rule="nonzero" stroke-width="1"/><path d="M60.51007,297.54365c0.38666,0.01651 0.77344,0.03148 1.16022,0.04472c2.44168,0.08761 4.59984,0.46277 6.92177,1.23024c0.98326,0.31805 1.95994,0.48202 2.98082,0.64026c2.68086,0.45085 4.69423,1.69419 6.83101,3.32074c0.6393,0.46479 1.28926,0.85097 1.97854,1.23647c0.99392,0.5878 1.60974,1.07716 2.08808,2.16428c0.202,1.07018 0.12698,1.71477 -0.39437,2.6844c-0.64387,0.80852 -1.28636,1.22996 -2.19668,1.67465c-0.15262,0.07573 -0.30526,0.15144 -0.4625,0.22948c-0.34444,0.16954 -0.68901,0.33879 -1.03367,0.50786c-0.3456,0.16997 -0.69066,0.34111 -1.03489,0.51386c-3.0388,1.51252 -6.03044,2.2707 -9.35724,2.87924c-0.4675,0.09018 -0.93491,0.18085 -1.40223,0.27196c-9.07334,1.74817 -9.07332,1.74815 -13.16478,1.77419c-0.27533,0.00253 -0.27535,0.00255 -0.55625,0.00512c-0.59826,0.00421 -1.19647,0.00575 -1.79474,0.0063c-0.20655,0.00032 -0.41307,0.00066 -0.62586,0.001c-3.14558,-0.00107 -6.26798,-0.12593 -9.40299,-0.38202c-0.18146,-0.01436 -0.36291,-0.02869 -0.54987,-0.04349c-7.21015,-0.58438 -7.21016,-0.58439 -9.73811,-2.02934c-1.48959,-0.81587 -2.98282,-1.45601 -4.5844,-2.02026c-0.73803,-0.26168 -1.32798,-0.51404 -1.98466,-0.95182c0.02011,-0.25651 0.04024,-0.51302 0.06097,-0.77731c-0.07905,-1.20532 -0.49976,-1.44409 -1.34982,-2.22811c-0.62893,-0.6146 -0.85281,-0.9866 -0.90591,-1.87183c1.63538,-3.52766 5.18129,-4.50555 8.56093,-5.74793c0.15894,-0.05746 0.31789,-0.11493 0.48165,-0.17414c0.44278,-0.16508 0.87918,-0.34698 1.31493,-0.52981c1.62853,-0.60973 3.36649,-0.90122 5.06682,-1.24504c0.28012,-0.05671 0.28012,-0.05669 0.56587,-0.11454c7.47631,-1.50214 14.92866,-1.39975 22.52734,-1.06908z" fill="#fed773" fill-rule="nonzero" stroke-width="1"/><path d="M53.22651,291.60059c3.39392,0.27951 6.79236,0.47016 10.19889,0.4157c4.58656,-0.06877 9.1195,0.15653 13.69538,0.47724c0.46564,0.03191 0.46562,0.03191 0.94067,0.06445c0.89354,0.06195 1.78686,0.12673 2.68011,0.19275c0.26845,0.01883 0.53689,0.03765 0.81348,0.05703c2.06314,0.15928 3.8077,0.52058 5.70127,1.3928c1.44041,0.63557 2.8648,1.08389 4.38669,1.49462c1.29793,0.38174 2.51672,0.91601 3.75224,1.46224c0.21251,0.08581 0.42499,0.17162 0.64394,0.26006c1.82806,0.75186 1.82806,0.75186 2.28241,1.69084c0,0.24141 0,0.48286 0,0.73159c0.1402,0.05626 0.2804,0.11254 0.42485,0.17052c0.69023,0.39766 1.0641,0.86637 1.55652,1.4908c0.16661,0.20778 0.3332,0.41557 0.50488,0.62967c0.76921,1.11053 1.01383,1.9704 0.92782,3.31786c-0.0813,0.32514 -0.16256,0.65031 -0.24386,0.97547c0.02013,0.23137 0.04024,0.46273 0.06097,0.7011c-0.08724,1.09044 -0.52306,1.45 -1.28028,2.22525c-0.16094,0.08048 -0.32191,0.16095 -0.48772,0.24386c-0.01156,0.49266 -0.00905,0.98569 0,1.47842c-0.06328,0.94818 -0.1129,1.51432 -0.68111,2.28431c-1.37475,1.15271 -2.95722,1.84555 -4.61149,2.49864c-0.80832,0.30621 -0.80832,0.30621 -1.547,0.72968c-0.79719,0.35958 -1.32052,0.35035 -2.18333,0.32483c0.12869,1.33574 0.25876,2.67134 0.38997,4.00682c0.04432,0.45308 0.08833,0.9062 0.13194,1.35935c0.2167,2.24943 0.44769,4.47598 0.84661,6.7017c0.14639,0.94804 0.16798,1.88059 0.15564,2.83825c-0.00146,0.18845 -0.00294,0.3769 -0.00448,0.57107c-0.02411,1.38974 -0.16151,2.69118 -0.54421,4.03184c-0.06444,0.22696 -0.12889,0.45394 -0.19529,0.68777c-0.1722,0.58595 -0.35062,1.16906 -0.5363,1.75086c-0.08048,0 -0.16095,0 -0.24388,0c-0.00628,-0.31374 -0.01258,-0.62745 -0.01904,-0.95068c-0.074,-2.62351 -0.28187,-5.20077 -0.66682,-7.7979c-0.03733,-0.26481 -0.07464,-0.52961 -0.11311,-0.80243c-0.21384,-1.36118 -0.50386,-2.46129 -1.17234,-3.66591c-0.35695,-0.70195 -0.48022,-1.42153 -0.61973,-2.19215c-0.08629,-0.46966 -0.08628,-0.46964 -0.17432,-0.94877c-0.23119,-1.37348 -0.45108,-2.7479 -0.6487,-4.12663c-0.17189,0.07562 -0.34378,0.15125 -0.52089,0.22917c-0.7174,0.26559 -1.36195,0.38936 -2.11874,0.49385c-0.40669,0.05871 -0.40669,0.05871 -0.8216,0.11861c-0.56325,0.07839 -1.12655,0.15651 -1.68989,0.23433c-2.27807,0.32956 -4.2524,0.81278 -6.31043,1.8504c-0.5542,0.15044 -1.11376,0.28222 -1.67656,0.39628c-0.28104,0.05846 -0.56207,0.11693 -0.85161,0.17717c-1.62562,0.29016 -3.21522,0.44116 -4.86297,0.47915c-0.19206,0.00509 -0.38411,0.01017 -0.58199,0.01542c-0.62934,0.01611 -1.25869,0.03053 -1.88807,0.04459c-0.21736,0.00509 -0.43472,0.01017 -0.65868,0.01542c-3.38747,0.078 -6.77439,0.11695 -10.16274,0.12177c-0.20078,0.00062 -0.40153,0.00125 -0.6084,0.00191c-2.9896,0.00746 -5.96352,-0.10337 -8.94799,-0.27624c-0.35924,3.33002 -0.68054,6.66203 -0.97545,9.99838c-0.16094,-0.08048 -0.32191,-0.16095 -0.48773,-0.24386c-0.28584,-0.87304 -0.44055,-1.78323 -0.6249,-2.68251c-0.05391,-0.24332 -0.10783,-0.48663 -0.16336,-0.7373c-0.4556,-2.18576 -0.58416,-4.35396 -0.6749,-6.57857c-0.13492,0.00162 -0.26986,0.00325 -0.40888,0.00492c-1.42455,0.0164 -2.84908,0.02728 -4.2737,0.03526c-0.52926,0.00364 -1.0585,0.00862 -1.58773,0.01501c-2.81329,0.0331 -5.47609,0.00093 -8.22967,-0.6037c-1.36845,-0.29016 -2.7493,-0.40265 -4.14032,-0.53363c-2.55715,-0.25981 -4.97235,-0.68984 -7.45306,-1.35649c-0.00612,1.11383 -0.01051,2.22766 -0.0134,3.34151c-0.00121,0.37714 -0.00286,0.75431 -0.005,1.13144c-0.01517,2.74523 0.08742,5.45129 0.32366,8.1872c0.17284,2.23046 -0.76433,4.30441 -1.52457,6.36114c-0.08048,0 -0.16094,0 -0.24386,0c-0.0209,-0.26823 -0.04177,-0.53643 -0.06329,-0.81278c-0.07778,-0.99627 -0.15667,-1.99247 -0.23588,-2.98864c-0.0341,-0.43094 -0.06793,-0.86192 -0.10144,-1.29291c-0.04827,-0.61992 -0.09759,-1.23974 -0.14711,-1.85957c-0.01474,-0.19232 -0.0295,-0.38467 -0.04468,-0.58282c-0.07466,-0.99415 -0.07466,-0.99415 -0.26748,-1.96978c-0.12341,-0.52533 -0.13096,-0.95894 -0.10842,-1.49721c0.0071,-0.19538 0.0142,-0.39075 0.02152,-0.59205c0.00814,-0.20908 0.01629,-0.41816 0.02468,-0.63357c0.0114,-0.4458 0.02216,-0.89162 0.03239,-1.33743c0.01652,-0.70092 0.03622,-1.40094 0.06645,-2.10141c0.23924,-2.61482 0.23922,-2.61482 -0.63229,-4.9518c-0.56378,-0.37201 -1.08271,-0.6095 -1.71466,-0.83994c-0.24141,-0.24141 -0.24141,-0.24141 -0.48772,-0.48772c-0.35599,-0.1351 -0.71764,-0.25567 -1.08214,-0.3658c-0.73757,-0.22359 -1.18935,-0.41693 -1.84423,-0.85352c-0.08273,-0.5688 -0.16397,-1.13783 -0.24386,-1.70704c-0.48154,-0.60227 -0.95568,-0.85778 -1.66132,-1.14311c-1.19713,-0.5711 -1.76214,-1.43688 -2.48436,-2.51484c-0.1861,-0.23137 -0.37219,-0.46273 -0.56393,-0.7011c-1.14764,-1.44518 -0.65347,-3.5311 -0.45731,-5.26448c1.00896,-8.16618 1.00896,-8.16618 3.21601,-10.37323c0.79255,-0.10669 0.79255,-0.10669 1.70704,0c0.24141,0.20621 0.48286,0.41245 0.73159,0.6249c0.68448,0.66601 0.68448,0.666 1.56985,0.68586c1.28014,-0.4941 1.82185,-1.42259 2.5758,-2.53008c0.24386,-0.24388 0.24386,-0.24388 1.05166,-0.33533c0.89925,0.09145 0.89925,0.09145 1.46318,0.68587c0.13579,0.20621 0.27159,0.41245 0.41152,0.6249c0.66794,0.33399 1.2122,0.27464 1.95092,0.24388c0.16094,-0.08048 0.32191,-0.16095 0.48772,-0.24388c2.13175,-0.23015 2.13177,-0.23015 3.10925,0.50297c0.18106,0.15592 0.36215,0.31184 0.54869,0.47249c1.16745,-0.08447 2.12113,-0.49466 3.18546,-0.96023c1.68133,-0.70452 3.28728,-1.0555 5.10588,-1.23455c0.17209,-0.01995 0.34418,-0.03988 0.52148,-0.06042c1.72986,-0.19236 3.45503,-0.24361 5.19405,-0.29011c2.00384,-0.06046 3.98456,-0.15176 5.97464,-0.39628c3.76654,-0.44576 7.48214,-0.24507 11.25246,0.06727zM53.78712,293.6527c-1.51927,0.08372 -3.03687,0.12502 -4.55817,0.15064c-0.35058,0.0061 -0.35058,0.0061 -0.70827,0.01231c-0.95264,0.01604 -1.90529,0.03119 -2.85799,0.04395c-5.32124,-0.0831 -5.32124,-0.0831 -10.50158,0.85918c-0.02432,0.85165 0.05405,1.60811 0.24388,2.43863c-0.16094,0.08048 -0.32191,0.16095 -0.48772,0.24386c-0.171,-0.2364 -0.34202,-0.4728 -0.51821,-0.71635c-0.52347,-0.63746 -0.66657,-0.73769 -1.5089,-0.96021c-0.21629,-0.01006 -0.43256,-0.02013 -0.65538,-0.0305c0.14457,0.82716 0.43102,1.27072 0.99071,1.88994c0.1336,0.14962 0.2672,0.29926 0.40485,0.45344c0.10278,0.1119 0.2056,0.22382 0.3115,0.33913c-0.22948,-0.13235 -0.45895,-0.2647 -0.69539,-0.40105c-0.30672,-0.17625 -0.61345,-0.35247 -0.9202,-0.52869c-0.15057,-0.08692 -0.30116,-0.17384 -0.45629,-0.26338c-0.30187,-0.17318 -0.60488,-0.34437 -0.909,-0.51355c-0.39059,-0.2202 -0.77351,-0.45388 -1.15526,-0.68907c-0.96456,-0.37317 -1.70902,-0.24068 -2.69202,-0.04288c-0.26431,0.04497 -0.26431,0.04497 -0.53393,0.09084c-5.60364,0.96335 -12.64068,2.42505 -16.6022,6.87068c-0.53131,0.75318 -0.53746,1.15689 -0.422,2.06141c0.12393,0.22724 0.12393,0.22726 0.25035,0.45909c0.28558,0.62121 0.26996,1.01196 0.225,1.69091c-0.22335,3.38271 -0.22335,3.38271 1.21361,6.35283c1.81766,1.98282 1.81766,1.98282 4.27142,2.73488c0.3352,-0.01838 0.67021,-0.04054 1.00498,-0.06574c0.26996,-0.01818 0.26996,-0.01818 0.54537,-0.03672c2.89556,-0.22055 5.75753,-0.72624 8.58425,-1.38072c-2.34092,0.79999 -4.68653,1.53681 -7.07203,2.19477c0.08048,0.16095 0.16095,0.32189 0.24386,0.48772c0.64881,0.16349 0.64881,0.16349 1.45014,0.26763c0.31136,0.04643 0.62271,0.09284 0.94351,0.14068c0.34427,0.04907 0.68855,0.09807 1.03284,0.14705c0.35431,0.05203 0.70861,0.10425 1.06287,0.15667c0.9388,0.13836 1.87793,0.27409 2.81718,0.40927c0.9361,0.13515 1.87183,0.27262 2.80761,0.40997c1.08612,0.15929 2.17229,0.31827 3.25871,0.47555c1.50553,0.21797 3.01078,0.43677 4.51431,0.66823c0.22384,0.03439 0.44769,0.06875 0.67831,0.10419c0.39205,0.06062 0.78398,0.12198 1.17575,0.18435c1.58404,0.24482 3.30148,0.49302 4.88897,0.20662c0.76785,-0.62883 1.22705,-1.33078 1.70704,-2.19475c0.57051,0.80975 1.01863,1.46691 1.21932,2.43863c7.82891,0.14127 7.82891,0.14127 15.63769,-0.32007c0.4162,-0.04306 0.4162,-0.04306 0.84078,-0.08697c1.61632,-0.18991 3.17886,-0.50411 4.76033,-0.88591c0.8429,-0.20241 1.68491,-0.36614 2.53781,-0.52078c0.33693,-0.06146 0.67381,-0.12307 1.01071,-0.18479c0.17403,-0.03182 0.34807,-0.06367 0.52738,-0.09645c0.53564,-0.09996 1.07013,-0.20483 1.60453,-0.31125c4.3381,-0.85787 8.70773,-1.53252 13.07428,-2.22716c-0.89809,-0.94172 -1.7926,-1.19345 -3.04829,-1.44793c-0.89345,-0.18644 -1.56345,-0.45613 -2.31668,-0.99069c0.17949,0.07198 0.35899,0.14397 0.54392,0.21814c1.29143,0.37874 2.58774,0.52264 3.92182,0.68111c0.39867,0.0521 0.39867,0.0521 0.80541,0.10526c3.05386,0.36911 4.85836,0.01756 7.37924,-1.73609c1.20141,-1.13075 1.36822,-2.16007 1.41745,-3.73415c0.00833,-0.1806 0.01667,-0.3612 0.02525,-0.54726c0.01997,-0.44236 0.03588,-0.88489 0.05096,-1.32742c-1.33385,-0.42612 -2.61718,-0.62529 -4.0085,-0.76207c-0.30248,-0.03158 -0.30248,-0.03158 -0.61109,-0.06383c-0.49219,-0.05121 -0.98457,-0.10057 -1.47699,-0.14955c0,-0.08048 0,-0.16095 0,-0.24388c0.30838,-0.01196 0.61676,-0.02389 0.9345,-0.03621c0.40487,-0.01831 0.80971,-0.03672 1.21454,-0.05525c0.20323,-0.00755 0.40647,-0.0151 0.61585,-0.02288c0.1957,-0.00944 0.39137,-0.01886 0.59298,-0.02857c0.18006,-0.00766 0.36013,-0.01533 0.54566,-0.02322c0.56245,-0.05541 0.56245,-0.05541 1.21758,-0.56548c0,-0.24141 0,-0.48284 0,-0.73157c-1.14848,-0.57658 -2.24707,-0.59476 -3.50553,-0.64014c-0.21629,-0.00908 -0.43254,-0.01815 -0.65538,-0.0275c-2.85602,-0.11163 -5.67273,-0.10567 -8.51996,0.17992c2.1936,-0.64881 4.28973,-0.87379 6.56904,-0.97547c2.3622,-0.10567 4.55553,-0.36143 6.8434,-0.97545c-1.75802,-1.93382 -3.93443,-3.17797 -6.34044,-4.14567c-0.21566,-0.08781 -0.21566,-0.08783 -0.4357,-0.17742c-1.2458,-0.49014 -2.4965,-0.81157 -3.80142,-1.10286c-1.47173,-0.33743 -2.93516,-0.6916 -4.39047,-1.09452c-0.26598,-0.07364 -0.53197,-0.14727 -0.80602,-0.22314c-0.50472,-0.14106 -1.00894,-0.28388 -1.51247,-0.42913c-4.79618,-1.33706 -9.35794,-1.74669 -14.32422,-1.6825c-0.55695,0.00282 -1.11388,0.00519 -1.67083,0.00714c-2.61713,0.01426 -5.22588,0.07468 -7.83885,0.2223z" fill="#833d1d" fill-rule="nonzero" stroke-width="1"/><path d="M60.51007,297.54365c0.38666,0.01651 0.77344,0.03148 1.16022,0.04472c2.44168,0.08761 4.59984,0.46277 6.92177,1.23024c0.98326,0.31805 1.95994,0.48202 2.98082,0.64026c2.68086,0.45085 4.69423,1.69419 6.83101,3.32074c0.6393,0.46479 1.28926,0.85097 1.97854,1.23647c0.99392,0.5878 1.60974,1.07716 2.08808,2.16428c0.202,1.07018 0.12698,1.71477 -0.39437,2.6844c-0.64387,0.80852 -1.28636,1.22996 -2.19668,1.67465c-0.15262,0.07573 -0.30526,0.15144 -0.4625,0.22948c-0.34444,0.16954 -0.68901,0.33879 -1.03367,0.50786c-0.3456,0.16997 -0.69066,0.34111 -1.03489,0.51386c-3.0388,1.51252 -6.03044,2.2707 -9.35724,2.87924c-0.4675,0.09018 -0.93491,0.18085 -1.40223,0.27196c-9.07334,1.74817 -9.07332,1.74815 -13.16478,1.77419c-0.27533,0.00253 -0.27535,0.00255 -0.55625,0.00512c-0.59826,0.00421 -1.19647,0.00575 -1.79474,0.0063c-0.20655,0.00032 -0.41307,0.00066 -0.62586,0.001c-3.14558,-0.00107 -6.26798,-0.12593 -9.40299,-0.38202c-0.18146,-0.01436 -0.36291,-0.02869 -0.54987,-0.04349c-7.21015,-0.58438 -7.21016,-0.58439 -9.73811,-2.02934c-1.48959,-0.81587 -2.98282,-1.45601 -4.5844,-2.02026c-0.73803,-0.26168 -1.32798,-0.51404 -1.98466,-0.95182c0.02011,-0.25651 0.04024,-0.51302 0.06097,-0.77731c-0.07905,-1.20532 -0.49976,-1.44409 -1.34982,-2.22811c-0.62893,-0.6146 -0.85281,-0.9866 -0.90591,-1.87183c1.63538,-3.52766 5.18129,-4.50555 8.56093,-5.74793c0.15894,-0.05746 0.31789,-0.11493 0.48165,-0.17414c0.44278,-0.16508 0.87918,-0.34698 1.31493,-0.52981c1.62853,-0.60973 3.36649,-0.90122 5.06682,-1.24504c0.28012,-0.05671 0.28012,-0.05669 0.56587,-0.11454c7.47631,-1.50214 14.92866,-1.39975 22.52734,-1.06908zM48.3411,298.98732c-0.83298,0.13563 -1.62048,0.14777 -2.46429,0.1467c-4.64072,-0.05084 -4.64072,-0.05084 -9.00958,1.31839c-0.98405,0.48882 -1.97866,0.69662 -3.05018,0.91448c-0.61464,0.14106 -0.61466,0.14106 -1.04881,0.53249c-0.65113,0.46277 -1.23817,0.59107 -2.00711,0.77779c-1.73191,0.4218 -3.01027,0.79469 -4.12756,2.26859c-0.28802,0.57604 -0.39664,1.08724 -0.49535,1.72228c-0.05532,0.30681 -0.11067,0.61362 -0.16766,0.92973c0.0043,0.76046 0.12603,0.97754 0.66014,1.53748c0.63334,0.50326 1.2847,0.96919 1.94615,1.43461c0.2213,0.21126 0.44261,0.4225 0.67062,0.64014c0.96335,0.8194 2.20953,1.22357 3.36834,1.69371c0.83828,0.34866 0.83828,0.34864 1.50628,0.71949c0.88507,0.40151 1.69578,0.53584 2.65081,0.62842c0.26343,0.02898 0.26343,0.02898 0.53218,0.05856c0.56537,0.0616 1.13107,0.11925 1.69687,0.17673c0.3892,0.04143 0.77838,0.08312 1.16752,0.12503c0.75818,0.08139 1.51648,0.1614 2.27491,0.2404c1.00602,0.10558 2.00996,0.22532 3.01392,0.34871c2.89039,0.3483 5.62734,0.26411 8.51097,-0.06806c1.02848,-0.11602 2.02648,-0.19862 3.0633,-0.17361c2.74955,0.04652 5.32668,-0.46973 7.94506,-1.24611c1.23578,-0.36288 2.4602,-0.62901 3.72987,-0.84196c2.39377,-0.41696 4.16127,-1.38651 6.23373,-2.6263c0.59592,-0.34573 1.18976,-0.65003 1.81373,-0.94021c1.00628,-0.50772 1.00628,-0.50774 1.56987,-1.41745c0.03055,-0.82509 -0.00757,-1.40581 -0.53156,-2.07379c-1.22905,-1.12204 -2.7241,-1.926 -4.14883,-2.77037c-0.32032,-0.20128 -0.6329,-0.41505 -0.94008,-0.63586c-1.36861,-0.97711 -2.64785,-1.48306 -4.27124,-1.89683c-0.218,-0.0591 -0.436,-0.1182 -0.66062,-0.17908c-0.42988,-0.11574 -0.86051,-0.22871 -1.29188,-0.33877c-0.50934,-0.13126 -1.0154,-0.27512 -1.52064,-0.42139c-1.41804,-0.34894 -2.87786,-0.40176 -4.33046,-0.49344c-0.31639,-0.02052 -0.63279,-0.04106 -0.95878,-0.06222c-2.39821,-0.1463 -4.793,-0.19711 -7.19539,-0.19689c-0.31955,-0.0002 -0.63912,-0.00039 -0.96836,-0.00061c-1.58959,-0.00237 -1.58959,-0.00237 -3.16592,0.16922z" fill="#fbc065" fill-rule="nonzero" stroke-width="1"/><path d="M30.86303,296.56299c0.21313,0.11095 0.42626,0.22195 0.64585,0.33627c0.23859,0.12778 0.23861,0.12778 0.48202,0.25815c0,0.08048 0,0.16095 0,0.24386c-0.20057,0.02389 -0.40112,0.04779 -0.60775,0.07239c-1.80932,0.24236 -3.35282,0.61257 -5.0011,1.39079c-0.27475,0.12637 -0.54949,0.25274 -0.83255,0.38293c-1.3329,0.62952 -2.57551,1.2644 -3.70938,2.22334c-1.01824,0.85329 -2.03432,1.15798 -3.29406,1.53461c-1.62763,0.57877 -2.90736,1.76196 -3.86941,3.17499c-0.18294,0.62032 -0.18294,0.62032 0,1.21932c0.15089,0.17605 0.30178,0.35208 0.45724,0.53345c0.57235,0.75752 0.54955,0.93464 0.59822,1.83468c0.16527,0.89461 0.31254,1.21163 1.02463,1.79665c0.82417,0.47596 1.66295,0.90099 2.52282,1.3069c0.29539,0.14634 0.59037,0.29352 0.88494,0.44152c0.54144,0.27132 1.08483,0.5388 1.63072,0.80108c0.61018,0.31866 1.12639,0.65791 1.66048,1.08935c-8.31131,1.4506 -8.31129,1.4506 -10.0441,0.3658c-0.49344,-0.41248 -0.49344,-0.41247 -0.92973,-0.85352c-0.13895,-0.13801 -0.27789,-0.27601 -0.42105,-0.41819c-0.38431,-0.41745 -0.71905,-0.82199 -1.04213,-1.28884c-0.17384,-0.24332 -0.34767,-0.48663 -0.52678,-0.7373c-0.66296,-1.1803 -0.53672,-2.38158 -0.47915,-3.69796c0.01683,-0.4759 0.03151,-0.95189 0.04381,-1.42792c0.00876,-0.20879 0.01752,-0.41757 0.02655,-0.6327c-0.04407,-0.63654 -0.22277,-0.99815 -0.52761,-1.55158c-0.12841,-0.72229 -0.13472,-1.21096 0.21623,-1.86803c3.34045,-4.40379 10.51887,-5.79877 15.60438,-6.89579c0.2478,-0.05455 0.49562,-0.10912 0.75093,-0.16534c1.83593,-0.37778 3.04795,-0.35851 4.73597,0.53113z" fill="#dd8140" fill-rule="nonzero" stroke-width="1"/><path d="M62.46018,293.42749c0.55688,-0.00282 1.11376,-0.0078 1.6706,-0.01501c3.79025,-0.04859 7.3271,0.20899 11.02383,1.06244c0.17907,0.04097 0.35811,0.08192 0.5426,0.12412c1.10537,0.25719 2.20211,0.54171 3.29824,0.83607c0.32508,0.08597 0.65019,0.17179 0.97532,0.25749c0.91519,0.24193 1.82934,0.48766 2.74357,0.7332c0.44896,0.11825 0.89793,0.2364 1.34696,0.35437c3.9978,1.06262 7.76808,2.38626 10.84617,5.25449c-1.48588,1.48588 -5.04817,1.12282 -7.07202,1.21932c0.08048,-0.16095 0.16095,-0.32189 0.24386,-0.48772c-0.17162,-0.07842 -0.34329,-0.15685 -0.52012,-0.23767c-6.05851,-2.77219 -6.05851,-2.77221 -8.85336,-4.22045c-0.43003,-0.20747 -0.43004,-0.20746 -0.86876,-0.41912c-0.16654,-0.08455 -0.3331,-0.16909 -0.5047,-0.25619c-1.92799,-0.88776 -3.91907,-0.96594 -6.00339,-1.1003c-2.39555,-0.16215 -4.69443,-0.40126 -7.046,-0.90548c-5.23075,-1.10816 -10.43424,-1.20144 -15.70944,-0.42051c-2.89255,0.39905 -5.76422,0.56776 -8.68411,0.62686c-1.18551,0.03046 -2.28506,0.06476 -3.43092,0.38668c-0.2672,0.0679 -0.53441,0.13579 -0.80971,0.20576c-0.48772,-0.48772 -0.48772,-0.48772 -0.51821,-1.12786c0.01006,-0.19113 0.02011,-0.38226 0.03048,-0.57918c0.4316,-0.07759 0.86351,-0.15342 1.29552,-0.22862c0.36072,-0.06365 0.36072,-0.06365 0.72874,-0.1286c2.03746,-0.29477 4.07215,-0.41145 6.12895,-0.44296c0.35044,-0.00673 0.35044,-0.00673 0.70795,-0.0136c0.73978,-0.01415 1.47956,-0.02709 2.21936,-0.03974c4.07269,-0.07052 4.07269,-0.07052 8.14179,-0.24671c2.69134,-0.14795 5.38171,-0.18162 8.07676,-0.19104z" fill="#dc8241" fill-rule="nonzero" stroke-width="1"/><path d="M24.14442,373.95611c4.52177,2.00375 7.06834,6.49727 8.83335,10.89667c0.12259,0.29612 0.12261,0.29612 0.24768,0.59822c0.06822,0.17384 0.13642,0.34766 0.20671,0.52678c0.34236,0.55832 0.6282,0.70408 1.24122,0.92117c3.73352,0 6.44185,-2.65206 9.03817,-5.02967c3.14147,-2.83875 5.70339,-3.75271 9.88728,-3.54982c1.90673,0.14472 4.00269,0.3597 5.70469,1.26361c-0.1533,0.00355 -0.30662,0.0071 -0.46457,0.01076c-4.57653,0.11847 -7.9584,0.44125 -11.72858,3.15944c-0.17148,0.12296 -0.34295,0.24591 -0.51962,0.37259c-0.74221,0.53324 -1.48285,1.06867 -2.22222,1.60583c-7.30313,5.30445 -7.30315,5.30443 -10.18289,4.84975c-1.33474,-0.78425 -1.71209,-1.92226 -2.27097,-3.29213c-0.85559,-1.99792 -1.78404,-3.7432 -3.09401,-5.48692c-0.10123,-0.14554 -0.20244,-0.29109 -0.30672,-0.44105c-1.08735,-1.46373 -3.00714,-2.89159 -4.8144,-3.21688c-3.17581,-0.29164 -5.15756,0.80939 -7.7414,2.47184c-2.64896,1.68579 -5.62325,3.35516 -8.84128,3.137c-0.16094,-0.16094 -0.32191,-0.32191 -0.48772,-0.48772c0.80586,-0.5152 1.61878,-0.91496 2.50292,-1.27855c3.40669,-1.40563 6.46469,-3.27009 9.36061,-5.54408c1.829,-1.42951 3.34558,-2.24276 5.65171,-1.48681z" fill="#833e1e" fill-rule="nonzero" stroke-width="1"/><path d="M55.15789,301.54694c0.47171,0.0435 0.47171,0.0435 0.95295,0.08788c4.31262,0.41873 8.84897,0.93419 12.45951,3.57007c0.55431,0.83146 0.50297,1.21731 0.40963,2.18619c-0.28868,0.86439 -0.92643,1.3498 -1.70324,1.79087c-4.07522,1.78987 -7.94259,2.66215 -12.36271,3.09497c-0.22396,0.02427 -0.44791,0.04852 -0.67865,0.07352c-4.87797,0.52214 -9.18321,-0.28208 -13.84107,-1.61446c-0.76375,-0.21152 -1.53383,-0.38815 -2.30682,-0.56239c-1.08539,-0.26937 -1.85295,-0.54847 -2.68249,-1.31076c-0.31641,-0.63282 -0.30369,-0.98355 -0.13146,-1.66227c0.66455,-1.68111 2.08052,-2.50605 3.54554,-3.45887c0.24141,-0.16095 0.48284,-0.32189 0.73157,-0.48772c0.68807,-0.16003 1.36665,-0.29825 2.06141,-0.42105c0.30845,-0.05599 0.30844,-0.05599 0.62312,-0.11313c8.81044,-1.57642 8.81046,-1.57642 12.92271,-1.17288zM42.72088,304.22943c-0.42674,0.18106 -0.42674,0.18106 -0.8621,0.36579c-1.56743,0.66123 -1.56741,0.66121 -2.56247,1.93946c-0.06037,0.55649 -0.06609,1.04308 0.01047,1.59655c5.47996,3.36995 12.2096,3.84011 18.38966,2.44636c2.55945,-0.64749 5.00178,-1.35924 6.97207,-3.17795c-0.25514,-1.32203 -1.04556,-2.21064 -2.12904,-2.9835c-1.92897,-1.00105 -4.27854,-1.13442 -6.40616,-1.40603c-0.18023,-0.02388 -0.36043,-0.04775 -0.54612,-0.07234c-4.26505,-0.52638 -8.89395,-0.47141 -12.86634,1.29166z" fill="#fbc065" fill-rule="nonzero" stroke-width="1"/><path d="M81.49507,314.22781c0.15592,0.07041 0.31184,0.14083 0.47248,0.21338c0.6234,0.22899 1.18203,0.37292 1.82897,0.50297c0.94634,0.19782 1.72895,0.51296 2.57582,0.99069c0,0.08048 0,0.16095 0,0.24386c-0.17162,0.02571 -0.34329,0.05143 -0.52012,0.07794c-4.4919,0.67547 -8.93275,1.46006 -13.3765,2.39903c-1.69758,0.35503 -3.39697,0.67108 -5.11027,0.93997c-0.87218,0.13706 -1.73436,0.29377 -2.59789,0.47813c-1.29393,0.25947 -2.58085,0.41125 -3.89507,0.52305c-0.24066,0.02061 -0.48135,0.04122 -0.72931,0.06245c-2.79419,0.21872 -5.58339,0.20653 -8.38411,0.18331c-0.52663,-0.00246 -1.05325,-0.00469 -1.57986,-0.00667c-1.26683,-0.00528 -2.53358,-0.01363 -3.80035,-0.02382c-0.2622,-0.6468 -0.51079,-1.28849 -0.73159,-1.9509c0.18139,-0.0063 0.36277,-0.01258 0.54965,-0.01906c1.36454,-0.07088 2.67842,-0.1712 4.01421,-0.45818c3.47209,-0.73628 6.79641,-0.8242 10.32941,-0.74879c3.50619,0.06754 6.93233,-0.0639 10.27034,-1.22784c2.11715,-0.67656 4.09967,-0.88491 6.31871,-0.88359c1.46452,-0.00721 2.79166,-0.14611 4.12167,-0.80821c0.08048,-0.16095 0.16094,-0.32191 0.24386,-0.48773z" fill="#dd8141" fill-rule="nonzero" stroke-width="1"/><path d="M83.93368,320.81211c0.24143,0.08048 0.48286,0.16095 0.73159,0.24388c0.24664,0.54152 0.43013,1.0386 0.60013,1.60511c0.05228,0.17157 0.10457,0.34314 0.15844,0.51992c0.7075,2.46731 1.00229,5.01553 1.34473,7.55325c0.07018,0.50285 0.14068,1.00566 0.21149,1.50842c0.13893,0.98962 0.27589,1.97948 0.41122,2.96958c0.13294,0.96947 0.26986,1.93823 0.41068,2.90659c0.03367,0.2319 0.06734,0.46382 0.10205,0.70275c0.06338,0.43481 0.12721,0.86956 0.19159,1.30421c0.51257,3.52428 0.23064,6.51542 -1.82999,9.53354c-0.41654,0.45506 -0.79144,0.66653 -1.35649,0.904c-0.24386,-0.24386 -0.24386,-0.24386 -0.27624,-0.87258c0.00095,-0.44325 0.00095,-0.44325 0.00191,-0.89544c0.00012,-0.16624 0.00023,-0.33247 0.00036,-0.50374c0.00744,-1.19989 0.04955,-2.39654 0.10253,-3.59525c0.01294,-0.30594 0.02586,-0.61189 0.03917,-0.92711c0.02666,-0.60931 0.05599,-1.2185 0.08835,-1.82754c0.11031,-2.52996 -0.08628,-4.94773 -0.93152,-7.35137c-1.32646,-4.15259 -1.4615,-9.0227 -0.48772,-13.29053c0.16094,-0.16095 0.32191,-0.32189 0.48772,-0.48772z" fill="#b35b1f" fill-rule="nonzero" stroke-width="1"/><path d="M9.79939,339.8334c0.24141,0 0.48286,0 0.73159,0c0.94995,1.42492 1.05928,3.10959 1.18312,4.78008c0.02332,0.29225 0.02332,0.29225 0.04711,0.59039c0.03233,0.41022 0.06385,0.82049 0.09457,1.23083c0.04643,0.61655 0.096,1.23281 0.14598,1.8491c0.69082,8.75561 0.69082,8.75563 -1.71466,12.27793c-0.54869,0 -0.54869,0 -1.21932,-0.24388c-2.4682,-3.7397 -2.47132,-8.43825 -1.63547,-12.64711c0.13563,-0.66225 0.27492,-1.32359 0.41616,-1.98466c0.04295,-0.20264 0.0859,-0.40528 0.13015,-0.61405c0.12097,-0.56327 0.24575,-1.12548 0.37282,-1.68739c0.03654,-0.16556 0.07307,-0.3311 0.11074,-0.50165c0.24868,-1.0573 0.54608,-2.25848 1.3372,-3.0496z" fill="#b35b1f" fill-rule="nonzero" stroke-width="1"/><path d="M3.88571,371.21551c1.22871,1.26285 2.10587,2.57301 2.1033,4.37429c-0.02302,0.35619 -0.0507,0.7123 -0.09143,1.0669c-0.16094,0 -0.32191,0 -0.48773,0c-0.12072,-0.28668 -0.24143,-0.5734 -0.3658,-0.86878c-0.84137,-1.65636 -2.09488,-2.66843 -3.81034,-3.35311c-3.66763,-1.18033 -7.43391,-0.98096 -11.2177,-0.65538c-3.61152,0.2841 -7.11925,0.35683 -10.72997,0.04572c-0.20806,-0.01706 -0.41612,-0.0341 -0.6305,-0.05168c-1.40381,-0.13849 -2.65421,-0.46996 -3.97242,-0.96949c0.89545,-0.59697 1.66969,-0.64949 2.71298,-0.74683c0.20874,-0.02043 0.41752,-0.04086 0.63259,-0.06192c2.26205,-0.20025 4.52864,-0.24618 6.79768,-0.30144c3.20231,-0.07921 6.38015,-0.2695 9.55251,-0.73022c3.47907,-0.48739 6.55002,0.43752 9.50685,2.25193z" fill="#843e1f" fill-rule="nonzero" stroke-width="1"/><path d="M93.67297,375.48311c3.41258,1.63773 6.50286,2.22753 10.25749,1.17359c-0.0305,0.56393 -0.03048,0.56393 -0.24386,1.21931c-2.62508,1.63338 -6.2628,1.16972 -9.1563,0.52869c-3.59238,-0.89153 -7.05337,-2.33287 -10.44038,-3.80463c-1.31668,-0.56651 -2.15887,-0.67138 -3.5703,-0.62586c-0.40024,0.40024 -0.31274,0.88259 -0.34866,1.43461c-0.01792,0.24457 -0.03583,0.48913 -0.0543,0.7411c-0.0358,0.51493 -0.07011,1.02998 -0.10287,1.5451c-0.12207,1.62214 -0.26129,3.03975 -1.36888,4.31141c-0.10562,0.08551 -0.21124,0.17102 -0.32007,0.25911c-0.24143,-0.08048 -0.48286,-0.16095 -0.73159,-0.24386c0.04857,-0.33244 0.04857,-0.33244 0.09812,-0.67158c0.23181,-1.64976 0.41648,-3.2727 0.4963,-4.93727c0.09379,-1.546 0.177,-2.76553 1.35649,-3.87132c3.81033,-2.14331 10.58568,1.23394 14.12879,2.9416z" fill="#833e1e" fill-rule="nonzero" stroke-width="1"/><path d="M88.81094,306.4242c2.01187,0.24141 4.02374,0.48286 6.09657,0.73159c0.47986,1.43959 0.31887,3.27738 -0.20291,4.69816c-0.98451,1.5446 -2.96803,2.56511 -4.67436,3.10545c-0.72015,0.01144 -0.72017,0.01144 -1.52416,-0.06097c-0.29612,-0.02609 -0.59225,-0.05219 -0.89733,-0.07907c-1.71539,-0.17459 -3.42734,-0.37821 -5.13827,-0.59155c0.13863,-0.06697 0.27724,-0.13392 0.42009,-0.20291c1.28861,-0.66087 2.56589,-1.34732 3.34454,-2.60151c0.72269,-1.14254 1.86846,-1.73927 3.06353,-2.3167c0.16094,0 0.32191,0 0.48772,0c-0.11568,-0.26154 -0.23137,-0.5231 -0.35055,-0.79256c-0.2842,-0.64255 -0.45089,-1.19388 -0.6249,-1.88992z" fill="#dd8140" fill-rule="nonzero" stroke-width="1"/><path d="M23.94343,315.20325c0.24866,0.07544 0.49732,0.15089 0.7535,0.22862c0.84669,0.241 1.67967,0.38952 2.55389,0.50297c0.47719,0.06224 0.47719,0.06226 0.96401,0.12575c0.78926,0.09197 1.57712,0.15444 2.37004,0.20576c3.22554,0.21884 6.12638,0.7588 9.07438,2.14333c0.9139,0.30463 1.81441,0.32155 2.77205,0.36009c0.28834,0.01415 0.28834,0.01413 0.5825,0.02857c0.47128,0.02286 0.94269,0.04311 1.41411,0.06286c-0.07621,0.57918 -0.07621,0.57917 -0.24386,1.21931c-2.3412,1.56079 -6.99491,0.12953 -9.61734,-0.27434c-0.51518,-0.07771 -1.03039,-0.15524 -1.54564,-0.23262c-1.04852,-0.15785 -2.09679,-0.31723 -3.1449,-0.47767c-1.24027,-0.18943 -2.48122,-0.37367 -3.72268,-0.55517c-0.88867,-0.13008 -1.77706,-0.26201 -2.66539,-0.39435c-0.41691,-0.06183 -0.83393,-0.123 -1.25103,-0.18353c-0.57433,-0.08362 -1.14818,-0.16998 -1.72199,-0.25713c-0.16963,-0.02407 -0.33922,-0.04814 -0.51398,-0.07295c-0.39589,-0.06158 -0.78812,-0.14589 -1.17878,-0.23474c-0.08048,-0.16095 -0.16095,-0.32189 -0.24386,-0.48772c0.15385,-0.04304 0.30772,-0.0861 0.46623,-0.13044c0.69326,-0.19447 1.38618,-0.39016 2.07909,-0.58589c0.2422,-0.06774 0.48441,-0.13547 0.73396,-0.20528c0.23026,-0.06522 0.46052,-0.13046 0.69778,-0.19766c0.21327,-0.06001 0.42655,-0.12004 0.64628,-0.18189c0.49075,-0.11809 0.49075,-0.11809 0.74165,-0.40586z" fill="#dc8140" fill-rule="nonzero" stroke-width="1"/><path d="M14.02126,292.18868c0.89925,0.09145 0.89925,0.09145 1.46318,0.68587c0.13579,0.20621 0.27159,0.41245 0.41152,0.6249c0.66794,0.33399 1.2122,0.27464 1.95092,0.24388c0.16094,-0.08048 0.32191,-0.16095 0.48772,-0.24388c1.18558,-0.128 2.13178,-0.19586 3.15496,0.45724c0.16597,0.17102 0.33197,0.34202 0.50297,0.51821c0.24141,0.16095 0.48286,0.32189 0.73159,0.48772c-0.25337,0.0591 -0.50674,0.11818 -0.76778,0.17908c-3.43831,0.74831 -3.43831,0.74829 -6.45666,2.45767c-0.93698,0.75111 -1.94126,1.22539 -3.03304,1.70704c-0.16413,0.07366 -0.32826,0.1473 -0.49737,0.22319c-1.05468,0.45147 -2.00345,0.68363 -3.14533,0.79797c-0.02673,-0.23294 -0.05344,-0.46587 -0.08098,-0.70588c-0.23724,-1.93461 -0.55606,-3.76737 -1.13833,-5.63457c-0.72474,0.27423 -1.30087,0.5421 -1.95092,0.97547c0.45724,-0.94497 0.45726,-0.94497 0.73159,-1.21932c0.77731,-0.09145 0.77731,-0.09145 1.70704,0c0.24141,0.20621 0.48286,0.41245 0.73159,0.6249c0.68448,0.66601 0.68448,0.666 1.56985,0.68586c1.28014,-0.4941 1.82185,-1.42259 2.5758,-2.53008c0.24386,-0.24388 0.24386,-0.24388 1.05166,-0.33533z" fill="#9a4e1f" fill-rule="nonzero" stroke-width="1"/><path d="M126.60969,365.43901c-0.05335,0.44867 -0.05334,0.44867 -0.24386,0.97545c-3.87132,2.80035 -9.84201,2.03509 -14.36128,1.98692c-1.43998,-0.01463 -2.88002,-0.02273 -4.32006,-0.03066c-0.49805,-0.00337 -0.99606,-0.00862 -1.49409,-0.0142c-0.30385,-0.00237 -0.60768,-0.00476 -0.92074,-0.00723c-0.26529,-0.00275 -0.53059,-0.0055 -0.80393,-0.00833c-1.23396,0.03865 -2.38661,0.11099 -3.46165,0.75598c-0.61148,-0.63695 -0.73022,-0.96214 -0.82304,-1.85945c0.04527,-0.4074 0.04527,-0.40742 0.09145,-0.82304c2.03319,-1.35546 5.14813,-0.67761 7.4817,-0.43702c5.78074,0.5878 11.56027,0.78382 17.29175,-0.42801c0.58828,-0.11044 0.58828,-0.11044 1.56373,-0.11044z" fill="#833e1e" fill-rule="nonzero" stroke-width="1"/><path d="M48.32971,344.71066c0.24143,0.08048 0.48284,0.16095 0.73159,0.24386c1.14095,2.59883 1.19345,6.68171 0.51345,9.41063c-0.22261,0.54828 -0.45176,1.05714 -0.7573,1.56322c-0.32191,0 -0.6438,0 -0.97545,0c-1.67419,-1.94206 -1.70784,-5.13766 -1.52951,-7.57154c0.20383,-1.4627 0.95443,-2.65504 2.01722,-3.64616z" fill="#b35b1f" fill-rule="nonzero" stroke-width="1"/><path d="M56.37719,305.93647c0.69444,0.38388 0.69444,0.38388 1.21931,0.73157c-0.08048,0.32189 -0.16094,0.64382 -0.24386,0.97547c-2.52633,0.88423 -5.35702,1.61195 -7.99604,0.75445c-0.53916,-0.26673 -0.53916,-0.26672 -1.27075,-0.75445c0,-0.32189 0,-0.64382 0,-0.97547c2.63174,-1.63029 5.34531,-1.53115 8.29134,-0.73157z" fill="#df8542" fill-rule="nonzero" stroke-width="1"/><path d="M89.78639,304.22943c0.50288,-0.01326 1.00589,-0.02268 1.5089,-0.0305c0.2801,-0.00566 0.56018,-0.01133 0.84876,-0.01715c0.7924,0.04645 1.32139,0.19552 2.03187,0.53536c0,0.24141 0,0.48284 0,0.73157c-0.92465,0.61642 -1.6604,0.54246 -2.72822,0.51821c-0.1828,-0.00221 -0.36559,-0.00441 -0.55393,-0.00667c-0.45044,-0.00573 -0.90086,-0.01447 -1.35125,-0.0238c0.08048,-0.56332 0.16095,-1.12664 0.24386,-1.70704z" fill="#dc8140" fill-rule="nonzero" stroke-width="1"/><path d="M32.23477,295.69423c1.35062,0.12006 1.35062,0.12006 1.92042,0.74683c0.13579,0.23388 0.13579,0.23388 0.27435,0.47249c-0.68587,0.16766 -0.68586,0.16766 -1.46316,0.24388c-0.45724,-0.30483 -0.45726,-0.30483 -0.73159,-0.73159c0,-0.24141 0,-0.48286 0,-0.73159z" fill="#dd8442" fill-rule="nonzero" stroke-width="1"/></g></g></svg>