<svg version="1.1" xmlns="http://www.w3.org/2000/svg" xmlns:xlink="http://www.w3.org/1999/xlink" width="450.49801" height="120.84615" viewBox="0,0,450.49801,120.84615"><g transform="translate(-20.61134,-126.79578)"><g data-paper-data="{&quot;isPaintingLayer&quot;:true}" stroke="none" stroke-width="1" stroke-linecap="butt" stroke-linejoin="miter" stroke-miterlimit="10" stroke-dasharray="" stroke-dashoffset="0" style="mix-blend-mode: normal"><path d="M102.40835,245.76693c-10.898,2.5 -32.695,2.5 -43.594,0c-19.555,-4.485 -31.883,-16.764 -36.328,-36.328c-2.512,-11.056 -2.488,-32.851 0,-43.594c4.527,-19.546 16.785,-31.788 36.328,-36.328c10.693,-2.484 32.487,-2.516 43.594,0c19.567,4.433 31.675,16.812 36.328,36.328c2.452,10.285 2.548,32.058 0,43.594c-4.327,19.591 -16.773,31.843 -36.328,36.328" fill="#62d31a" fill-rule="evenodd"/><path d="M112.25135,235.92293c7.165,-1.644 13.365,-4.341 18.572,-8.048c-6.426,9.029 -15.975,15.038 -28.416,17.892c-10.898,2.5 -32.694,2.5 -43.594,0c-19.555,-4.486 -31.883,-16.764 -36.328,-36.328c-2.51,-11.056 -2.487,-32.851 0,-43.594c2.876,-12.412 8.879,-21.866 17.874,-28.286c-3.687,5.167 -6.379,11.312 -8.03,18.442c-2.488,10.744 -2.512,32.538 0,43.594c4.445,19.564 16.773,31.843 36.328,36.328c10.899,2.5 32.696,2.5 43.594,0" fill="#5bbf1b" fill-rule="evenodd"/><path d="M87.74835,154.60293l5.117,10.425c1.21022,2.47235 3.61137,4.14445 6.35,4.422l11.714,1.171c6.728,0.671 9.611,8.94 4.772,13.688l-9.108,8.94c-1.87457,1.84292 -2.72811,4.48685 -2.285,7.078l1.995,11.692c1.115,6.537 -5.709,11.522 -11.548,8.437l-10.524,-5.564c-2.27058,-1.20105 -4.98269,-1.22602 -7.275,-0.067l-11.272,5.692c-5.967,3.014 -12.75,-2.255 -11.356,-8.82l2.377,-11.198c0.57046,-2.68386 -0.26857,-5.47323 -2.225,-7.397l-8.959,-8.793c-4.838,-4.748 -1.956,-13.017 4.772,-13.688l11.714,-1.171c2.73863,-0.27755 5.13978,-1.94965 6.35,-4.422l5.117,-10.425c2.92,-5.948 11.355,-5.948 14.274,0" fill="#ffffff" fill-rule="evenodd"/><text transform="translate(152.875,223.92248) scale(1.42178,2.39819)" font-size="40" xml:space="preserve" data-paper-data="{&quot;origPos&quot;:null}" fill="#9966ff" fill-rule="nonzero" stroke="none" stroke-width="1" stroke-linecap="butt" stroke-linejoin="miter" stroke-miterlimit="10" stroke-dasharray="" stroke-dashoffset="0" font-family="Marker" font-weight="normal" text-anchor="start" style="mix-blend-mode: normal"><tspan x="0" dy="0">CHAMPIONS</tspan></text><g data-paper-data="{&quot;origPos&quot;:null}" fill-rule="evenodd"><path d="M102.61853,245.33973c-10.898,2.5 -32.695,2.5 -43.594,0c-19.555,-4.485 -31.883,-16.764 -36.328,-36.328c-2.512,-11.056 -2.488,-32.851 0,-43.594c4.527,-19.546 16.785,-31.788 36.328,-36.328c10.693,-2.484 32.487,-2.516 43.594,0c19.568,4.433 31.675,16.812 36.328,36.328c2.452,10.285 2.548,32.058 0,43.594c-4.327,19.591 -16.773,31.843 -36.328,36.328" data-paper-data="{&quot;origPos&quot;:null}" fill="#62d31a"/><path d="M112.46153,235.49573c7.165,-1.644 13.365,-4.34 18.572,-8.048c-6.426,9.029 -15.975,15.038 -28.416,17.892c-10.898,2.5 -32.694,2.5 -43.594,0c-19.555,-4.486 -31.883,-16.764 -36.328,-36.328c-2.51,-11.056 -2.487,-32.851 0,-43.594c2.876,-12.412 8.879,-21.866 17.874,-28.286c-3.687,5.167 -6.379,11.312 -8.03,18.442c-2.488,10.744 -2.512,32.538 0,43.594c4.445,19.564 16.773,31.843 36.328,36.328c10.899,2.5 32.696,2.5 43.594,0" data-paper-data="{&quot;origPos&quot;:null}" fill="#5bbf1b"/><path d="M114.00853,175.33573c0.428,-1.882 -0.602,-3.361 -2.91,-3.668c-0.855,-0.114 -2.035,-0.107 -3.205,-0.07c-0.768,5.988 -2.319,12.662 -4.41,18.125c6.807,-2.611 9.502,-9.904 10.524,-14.387M47.63553,175.33573c1.038,4.554 3.798,12.008 10.844,14.508c-2.138,-5.464 -3.566,-12.254 -4.252,-18.234c-1.321,-0.05 -2.712,-0.072 -3.682,0.057c-2.309,0.309 -3.339,1.787 -2.91,3.669M115.15553,166.59373c3.303,0.98 5.463,3.3 4.973,6.76c-1.148,8.131 -5.318,21.143 -20.01,23.19c-0.053,0.078 -0.103,0.17 -0.155,0.247c-2.065,3.017 -4.034,4.831 -7.375,6.235c-1.771,0.745 -4.188,1.251 -6.845,1.52v6.083h5.233c2.725,0 4.835,2.675 3.928,5.582c-0.548,1.754 -2.293,2.837 -4.103,2.837h-19.825c-2.724,0 -4.835,-2.674 -3.928,-5.581c0.547,-1.754 2.293,-2.838 4.103,-2.838h5.292v-6.102c-2.574,-0.27 -4.97,-0.767 -6.846,-1.501c-3.375,-1.319 -5.103,-3.375 -7.375,-6.235c-0.034,-0.044 -0.066,-0.098 -0.101,-0.142c-15.197,-1.76 -19.442,-15.049 -20.607,-23.295c-0.487,-3.46 1.671,-5.78 4.973,-6.76c1.728,-0.513 4.553,-0.514 7.308,-0.33c-0.026,-0.648 -0.041,-1.274 -0.044,-1.871c-0.022,-4.766 2.685,-9.011 7.374,-9.011h39.934c4.689,0 7.414,4.245 7.374,9.012c-0.005,0.591 -0.022,1.207 -0.052,1.84c2.581,-0.149 5.158,-0.12 6.774,0.36" data-paper-data="{&quot;origPos&quot;:null}" fill="#ffffff"/></g></g></g></svg>