<svg version="1.1" xmlns="http://www.w3.org/2000/svg" xmlns:xlink="http://www.w3.org/1999/xlink" width="122.51958" height="34.51975" viewBox="0,0,122.51958,34.51975"><g transform="translate(-179.03842,-162.99827)"><g data-paper-data="{&quot;isPaintingLayer&quot;:true}" fill-rule="evenodd" stroke-miterlimit="10" stroke-dasharray="" stroke-dashoffset="0" style="mix-blend-mode: normal"><path d="M199.004,191.31302c-6.095,0 -11.053,-4.96 -11.053,-11.055c0,-6.094 4.958,-11.053 11.053,-11.053h90.7c6.095,0 11.053,4.96 11.053,11.054c0,6.094 -4.958,11.053 -11.053,11.053h-90.7z" data-paper-data="{&quot;origPos&quot;:null}" fill="#966964" stroke="none" stroke-width="1" stroke-linecap="butt" stroke-linejoin="miter"/><path d="M289.705,168.40602c6.535,0 11.853,5.317 11.853,11.853c0,6.535 -5.318,11.852 -11.853,11.852h-90.7c-6.535,0 -11.853,-5.317 -11.853,-11.852c0,-6.536 5.318,-11.853 11.853,-11.853h90.7M289.705,170.00402h-90.7c-5.665,0 -10.254,4.591 -10.254,10.255c0,5.664 4.591,10.254 10.254,10.254h90.7c5.663,0 10.254,-4.591 10.254,-10.254c0,-5.664 -4.591,-10.255 -10.254,-10.255" fill="#772f09" stroke="none" stroke-width="1" stroke-linecap="butt" stroke-linejoin="miter"/><path d="M188.75,180.25902c0,-5.663 4.591,-10.255 10.255,-10.255h90.7c5.663,0 10.254,4.592 10.254,10.255" fill="#772f09" stroke="none" stroke-width="1" stroke-linecap="butt" stroke-linejoin="miter"/><path d="M257.6084,180.25902c0,5.663 -3.25978,10.255 -7.27981,10.255h-51.4874c-4.02003,0 -7.27909,-4.592 -7.27909,-10.255c0,-5.663 3.25833,-10.255 7.27909,-10.255h51.4874c4.02003,0 7.27981,4.592 7.27981,10.255" data-paper-data="{&quot;origPos&quot;:null}" fill="#fedd02" stroke="none" stroke-width="1" stroke-linecap="butt" stroke-linejoin="miter"/><path d="M194.85733,172.61728c1.99144,-1.248 4.45229,-3.223 7.11616,-3.223h85.1146c3.35036,-0.0035 6.54973,1.18725 8.82361,3.284z" data-paper-data="{&quot;origPos&quot;:null}" fill="#ffffff" stroke="none" stroke-width="1" stroke-linecap="butt" stroke-linejoin="miter" opacity="0.4"/><path d="M299.44611,180.25902c0,5.663 -5.46343,10.255 -12.2011,10.255h-86.2941c-6.73767,0 -12.19991,-4.592 -12.19991,-10.255" data-paper-data="{&quot;origPos&quot;:null}" fill="#f29101" stroke="none" stroke-width="1" stroke-linecap="butt" stroke-linejoin="miter" opacity="0.5"/><path d="M269.168,170.82802h-76.805" fill="none" stroke="#ffffff" stroke-width="1.598" stroke-linecap="round" stroke-linejoin="round"/><path d="M205.323,196.55902c-0.13046,0.00056 -0.259,-0.0314 -0.374,-0.093l-9.01,-4.77l-9.01,4.77c-0.26819,0.14222 -0.5939,0.11973 -0.84,-0.058c-0.247,-0.178 -0.691,-0.482 -0.64,-0.782l2.042,-10.111l-7.292,-7.16c-0.217,-0.212 -0.295,-2.128 -0.201,-2.415c0.095,-0.29 0.345,-0.18 0.644,-0.224l10.075,-0.196l4.505,-9.195c0.13397,-0.27441 0.41263,-0.44846 0.718,-0.44846c0.30536,0 0.58403,0.17405 0.718,0.44846l4.505,9.195l10.074,0.196c0.3,0.044 0.55,-0.065 0.646,0.224c0.092,0.287 0.015,2.203 -0.202,2.415l-7.294,7.16l2.026,10.013c0.0231,0.07551 0.0349,0.15403 0.035,0.233c0,0.44 -0.68,0.798 -1.12,0.798z" fill="#c94b06" stroke="none" stroke-width="1" stroke-linecap="butt" stroke-linejoin="miter"/><path d="M205.323,196.55902c-0.13046,0.00056 -0.259,-0.0314 -0.374,-0.093l-9.01,-4.77l-9.01,4.77c-0.26819,0.14222 -0.5939,0.11973 -0.84,-0.058c-0.247,-0.178 -0.691,-0.482 -0.64,-0.782l2.042,-10.111l-7.292,-7.16c-0.217,-0.212 -0.295,-2.128 -0.201,-2.415c0.095,-0.29 0.345,-0.18 0.644,-0.224l10.075,-0.196l4.505,-9.195c0.13397,-0.27441 0.41263,-0.44846 0.718,-0.44846c0.30536,0 0.58403,0.17405 0.718,0.44846l4.505,9.195l10.074,0.196c0.3,0.044 0.55,-0.065 0.646,0.224c0.092,0.287 0.015,2.203 -0.202,2.415l-7.294,7.16l2.026,10.013c0.0231,0.07551 0.0349,0.15403 0.035,0.233c0,0.44 -0.68,0.798 -1.12,0.798z" fill="none" stroke="#772f09" stroke-width="1.918" stroke-linecap="round" stroke-linejoin="round"/><path d="M205.323,194.64202c-0.13039,0.00006 -0.25882,-0.03187 -0.374,-0.093l-9.01,-4.77l-9.01,4.77c-0.26909,0.14226 -0.59564,0.11926 -0.84214,-0.0593c-0.24651,-0.17856 -0.37015,-0.48167 -0.31886,-0.7817l1.723,-10.11l-7.292,-7.16c-0.21746,-0.21213 -0.2956,-0.52934 -0.20158,-0.81821c0.09402,-0.28887 0.34392,-0.4993 0.64458,-0.54279l10.075,-1.474l4.505,-9.196c0.13342,-0.27507 0.41227,-0.44975 0.718,-0.44975c0.30572,0 0.58458,0.17467 0.718,0.44975l4.505,9.196l10.074,1.474c0.3,0.044 0.55,0.254 0.646,0.544c0.09244,0.28862 0.0143,0.60471 -0.202,0.817l-7.294,7.16l1.707,10.012c0.07342,0.24229 0.02782,0.50502 -0.12294,0.7084c-0.15076,0.20338 -0.38889,0.3234 -0.64206,0.32359z" fill="#c94b06" stroke="none" stroke-width="1" stroke-linecap="butt" stroke-linejoin="miter"/><path d="M205.323,194.64202c-0.13039,0.00006 -0.25882,-0.03187 -0.374,-0.093l-9.01,-4.77l-9.01,4.77c-0.26909,0.14226 -0.59564,0.11926 -0.84214,-0.0593c-0.24651,-0.17856 -0.37015,-0.48167 -0.31886,-0.7817l1.723,-10.11l-7.292,-7.16c-0.21746,-0.21213 -0.2956,-0.52934 -0.20158,-0.81821c0.09402,-0.28887 0.34392,-0.4993 0.64458,-0.54279l10.075,-1.474l4.505,-9.196c0.13342,-0.27507 0.41227,-0.44975 0.718,-0.44975c0.30572,0 0.58458,0.17467 0.718,0.44975l4.505,9.196l10.074,1.474c0.3,0.044 0.55,0.254 0.646,0.544c0.09244,0.28862 0.0143,0.60471 -0.202,0.817l-7.294,7.16l1.707,10.012c0.07342,0.24229 0.02782,0.50502 -0.12294,0.7084c-0.15076,0.20338 -0.38889,0.3234 -0.64206,0.32359z" fill="none" stroke="#772f09" stroke-width="1.918" stroke-linecap="round" stroke-linejoin="round"/><path d="M205.323,196.55902c-0.13046,0.00056 -0.259,-0.0314 -0.374,-0.093l-9.01,-4.77l-9.01,4.77c-0.26819,0.14222 -0.5939,0.11973 -0.84,-0.058c-0.247,-0.178 -0.691,-0.482 -0.64,-0.782l2.042,-10.111l-7.292,-7.16c-0.217,-0.212 -0.295,-2.128 -0.201,-2.415c0.095,-0.29 0.345,-0.18 0.644,-0.224l10.075,-0.196l4.505,-9.195c0.13397,-0.27441 0.41263,-0.44846 0.718,-0.44846c0.30536,0 0.58403,0.17405 0.718,0.44846l4.505,9.195l10.074,0.196c0.3,0.044 0.55,-0.065 0.646,0.224c0.092,0.287 0.015,2.203 -0.202,2.415l-7.294,7.16l2.026,10.013c0.0231,0.07551 0.0349,0.15403 0.035,0.233c0,0.44 -0.68,0.798 -1.12,0.798z" fill="#c94b06" stroke="none" stroke-width="1" stroke-linecap="butt" stroke-linejoin="miter"/><path d="M205.323,194.64202c-0.13039,0.00006 -0.25882,-0.03187 -0.374,-0.093l-9.01,-4.77l-9.01,4.77c-0.26909,0.14226 -0.59564,0.11926 -0.84214,-0.0593c-0.24651,-0.17856 -0.37015,-0.48167 -0.31886,-0.7817l1.723,-10.11l-7.292,-7.16c-0.21746,-0.21213 -0.2956,-0.52934 -0.20158,-0.81821c0.09402,-0.28887 0.34392,-0.4993 0.64458,-0.54279l10.075,-1.474l4.505,-9.196c0.13342,-0.27507 0.41227,-0.44975 0.718,-0.44975c0.30572,0 0.58458,0.17467 0.718,0.44975l4.505,9.196l10.074,1.474c0.3,0.044 0.55,0.254 0.646,0.544c0.09244,0.28862 0.0143,0.60471 -0.202,0.817l-7.294,7.16l1.707,10.012c0.07342,0.24229 0.02782,0.50502 -0.12294,0.7084c-0.15076,0.20338 -0.38889,0.3234 -0.64206,0.32359z" fill="#fedd02" stroke="none" stroke-width="1" stroke-linecap="butt" stroke-linejoin="miter"/><path d="M195.25,165.87402c0.323,-0.513 -0.386,0.612 0,0c1.514,-2.406 3.392,3.289 0.31,4.464c-3.395,1.294 -1,-3.368 -0.31,-4.464" fill="#ffffff" stroke="none" stroke-width="1" stroke-linecap="butt" stroke-linejoin="miter"/><path d="M192.877,170.94202c0.594,-0.165 1.044,-0.059 1.466,0.394c0.454,0.489 0.329,1.477 -0.214,1.857c-0.386,0.27 -1.002,0.316 -1.412,0.083c-0.35,-0.197 -0.545,-0.576 -0.62,-0.947c-0.102,-0.491 0.348,-1.119 0.78,-1.387M186.94,175.29002c0.363,0.101 -0.255,-0.071 0,0c1.87,0.521 -2.701,4.4 -5.113,1.739c-1.744,-1.925 3.792,-2.108 5.113,-1.739" fill="#ffffff" stroke="none" stroke-width="1" stroke-linecap="butt" stroke-linejoin="miter"/><path d="M211.882,175.62102c0.09318,0.28842 0.01536,0.60473 -0.201,0.817l-7.294,7.162l1.708,10.008c0.07347,0.24246 0.02775,0.50537 -0.12324,0.7088c-0.15099,0.20343 -0.38942,0.32332 -0.64276,0.32319h-0.006c-0.13023,-0.0003 -0.25849,-0.03185 -0.374,-0.092l-9.008,-4.77l-9.01,4.77c-0.06388,0.36805 -0.37454,0.64253 -0.74765,0.6606c-0.37312,0.01807 -0.70883,-0.22512 -0.80797,-0.58527c-0.09914,-0.36015 0.06483,-0.7409 0.39463,-0.91632l1.022,-6.007c0.667,0.098 1.347,0.15 2.036,0.15c7.696,0 14.137,-6.303 14.372,-13.95l8.036,1.176c0.30091,0.04453 0.55091,0.25507 0.646,0.544" fill="#f29101" stroke="none" stroke-width="1" stroke-linecap="butt" stroke-linejoin="miter"/><path d="M211.882,175.62102c0.09318,0.28842 0.01536,0.60473 -0.201,0.817l-7.294,7.162l1.707,10.009c0.07347,0.24246 0.02776,0.50537 -0.12324,0.7088c-0.15099,0.20343 -0.38942,0.32332 -0.64276,0.32319h-0.006c-0.13023,-0.0003 -0.25849,-0.03185 -0.374,-0.092l-9.008,-4.771l-9.01,4.772c-0.06388,0.36805 -0.37453,0.64253 -0.74765,0.6606c-0.37312,0.01807 -0.70884,-0.22512 -0.80798,-0.58528c-0.09914,-0.36015 0.06483,-0.74089 0.39463,-0.91632l0.73,-4.29c1.136,0.277 2.317,0.43 3.529,0.43c8.274,0 15.18,-6.908 15.18,-15.183c0,-0.158 -0.008,-0.316 -0.012,-0.474l6.04,0.884c0.30091,0.04453 0.55091,0.25507 0.646,0.544" fill="#f29101" stroke="none" stroke-width="1" stroke-linecap="butt" stroke-linejoin="miter"/><path d="M272.283,173.70702c-2.061,0 -2.057,-3.196 0,-3.196c2.06,0 2.057,3.196 0,3.196" fill="#ffffff" stroke="none" stroke-width="1" stroke-linecap="butt" stroke-linejoin="miter"/></g></g></svg>