<svg version="1.1" xmlns="http://www.w3.org/2000/svg" xmlns:xlink="http://www.w3.org/1999/xlink" width="138.61569" height="135.7" viewBox="0,0,138.61569,135.7"><defs><linearGradient x1="305.60411" y1="168.97598" x2="305.60411" y2="116.33002" gradientUnits="userSpaceOnUse" id="color-1"><stop offset="0" stop-color="#000000"/><stop offset="1" stop-color="#6dd2f2"/></linearGradient><linearGradient x1="340.07611" y1="178.40997" x2="340.07611" y2="275.46002" gradientUnits="userSpaceOnUse" id="color-2"><stop offset="0" stop-color="#ffffff"/><stop offset="1" stop-color="#28686f"/></linearGradient></defs><g transform="translate(-250.69215,-112.15)"><g stroke="none" stroke-miterlimit="10"><g fill-rule="nonzero"><path d="M384.03411,224.65c-2.3,14.1 -11.6,23.2 -23.7,23.2h-81.1c-12.6,0 -21.2,-8.4 -23.7,-23.2c-2.9,-16.5 -6.9,-59.6 -3.6,-89.1c1.6,-14 11.7,-23.4 25.2,-23.4h85.3c12.8,0 23.1,9.6 25.1,23.3c5.2,34.8 -2.6,83.8 -3.5,89.2z" fill="#28686f"/><path d="M380.53411,224.05c-1.8,11.2 -9,20.3 -20.2,20.3h-81.1c-11.2,0 -18.1,-7.7 -20.3,-20.3c-3.1,-18 -6.6,-60.2 -3.5,-88.1c1.4,-12.8 10.5,-20.3 21.7,-20.3h85.3c11.2,0 19.9,8.6 21.7,20.3c4.4,29.8 -0.8,71.3 -3.6,88.1z" fill="#50a5b3"/><path d="M254.43411,172.74998c-0.4,-12.9 -0.2,-26 1,-36.8c1.4,-12.8 10.5,-20.3 21.7,-20.3h85.3c11.2,0 19.9,8.6 21.7,20.3c1.8,12.6 2,27.3 1.3,41.3c-12.2,-1.9 -24.5,-4.1 -36.8,-5.6c-16.7,-2.2 -33.6,-2.2 -50.4,-1.8c-8.5,0.2 -17.1,0.6 -25.7,1.1c-4.5,0.2 -9.1,0.7 -13.6,1.1c-1.4,0.2 -2.9,0.4 -4.5,0.7z" fill="url(#color-1)" opacity="0.5" style="mix-blend-mode: screen"/><path d="M385.3341,179.34999c-0.9,18.4 -3.2,35.4 -4.8,44.7c-1.8,11.2 -9,20.3 -20.2,20.3h-81.1c-11.2,0 -18.1,-7.7 -20.3,-20.3c-1.8,-10.6 -3.8,-29.8 -4.5,-49.4c3.9,-0.4 7.7,-0.8 11.5,-1.2c8.5,-0.8 17.1,-1 25.7,-1.3c17.9,-0.7 36,-0.8 53.9,1.2c13.3,1.5 26.6,4 39.8,6z" fill="url(#color-2)" style="mix-blend-mode: multiply"/><g fill="#6dd2f2" opacity="0.7" style="mix-blend-mode: screen"><g opacity="0.5" style="mix-blend-mode: normal"><path d="M365.53411,131.35001c3.4,-3.6 6.8,-7.2 9.9,-11.1c0.46667,0.33333 0.9,0.7 1.3,1.1c-3.5,2.6 -6.4,6.1 -9.8,8.8c-0.46667,0.4 -0.93333,0.8 -1.4,1.2z"/></g><g opacity="0.5" style="mix-blend-mode: normal"><path d="M304.13411,123.95001c0,-2.8 -0.5,-5.5 -0.4,-8.3h4.3c-0.1,0.6 -0.3,1.3 -0.4,1.6c-0.3,2.2 -0.5,4.4 -0.7,6.6c-0.2,2.26667 -0.33333,4.5 -0.4,6.7c-0.66667,0.06667 -1.36667,0.13333 -2.1,0.2c-0.6,-2.2 -0.3,-4.8 -0.3,-6.8z"/></g><g opacity="0.5" style="mix-blend-mode: normal"><path d="M313.43411,115.65h15.9c-1,4.9 -1.7,9.9 -2,15c-2.2,-0.2 -4.4,-0.4 -6.6,-0.5c-2.06667,-0.13333 -4.13333,-0.16667 -6.2,-0.1c0,-4.8 -1,-9.6 -1.1,-14.4z"/></g><g opacity="0.5" style="mix-blend-mode: normal"><path d="M286.13411,119.25001c-0.33333,-1.2 -0.66667,-2.4 -1,-3.6h13c-0.06667,1.26667 -0.1,2.5 -0.1,3.7c-0.2,3.7 0.5,7.5 0.5,11.1c-2.7,-0.2 -5.5,-0.5 -8.2,-0.2c-0.26667,0.06667 -0.53333,0.13333 -0.8,0.2c-1.3,-3.7 -2.4,-7.4 -3.4,-11.2z"/></g><g opacity="0.5" style="mix-blend-mode: normal"><path d="M282.93411,133.45001c-2.9,-6.2 -7.8,-11.1 -10.6,-17.3c0.66667,-0.13333 1.33333,-0.23333 2,-0.3c1.5,2.1 2.7,4.4 3.9,6.7c1.1,2 2.1,4 3.2,6c0.8,1.4 1.7,2.8 2.6,4.2c-0.4,0.26667 -0.76667,0.5 -1.1,0.7z"/></g><g opacity="0.5" style="mix-blend-mode: normal"><path d="M300.13411,122.85001c-0.06667,-2.33333 -0.03333,-4.73333 0.1,-7.2h1.4c-0.1,2.8 0.4,5.6 0.4,8.4c0,2.1 -0.2,4.5 0.3,6.7c-0.6,0 -1.16667,-0.03333 -1.7,-0.1c-0.1,-2.6 -0.5,-5.2 -0.5,-7.8z"/></g><g opacity="0.5" style="mix-blend-mode: normal"><path d="M335.73411,131.05001c0.26667,-2.26667 0.6,-4.53333 1,-6.8c0.4,-2.7 0.5,-5.9 1.4,-8.6h4.8c-2.6,4.5 -2.4,10.5 -4,15.3c-0.86667,0 -1.73333,0.03333 -2.6,0.1c-0.2,0 -0.4,0 -0.6,0z"/></g><g opacity="0.5" style="mix-blend-mode: normal"><path d="M380.3341,136.85001c1.2,-0.6 2.4,-1.3 3.6,-1.8c0.06667,0.26667 0.13333,0.56667 0.2,0.9c0.2,1.6 0.4,3.2 0.6,4.8c-1.4,0.4 -2.8,0.7 -4.2,1c-2.8,0.7 -5.6,1.8 -8.4,2.8c-2.3,0.7 -4.7,1.4 -7,2c-0.2,-0.6 -0.4,-1.2 -0.6,-1.8c2.9,-1.3 5.7,-2.8 8.5,-4.3c2.4,-1.3 4.8,-2.4 7.3,-3.6z"/></g><g opacity="0.5" style="mix-blend-mode: normal"><path d="M276.43411,130.85001c-3.5,-4 -6.8,-8.2 -10.2,-12.4c1.26667,-0.73333 2.6,-1.3 4,-1.7c2.9,6.3 8.1,11.4 10.9,17.8c-0.06667,0.06667 -0.13333,0.1 -0.2,0.1c-0.26667,0.2 -0.53333,0.4 -0.8,0.6c-1.1,-1.6 -2.4,-3 -3.7,-4.4z"/></g><g opacity="0.5" style="mix-blend-mode: normal"><path d="M375.13411,156.05001c3.5,-0.5 7,-0.4 10.6,-0.5c0,1.06667 0,2.13333 0,3.2c-0.8,0 -1.63333,0 -2.5,0c-5.1,-0.1 -10.3,-0.3 -15.4,-0.6c-0.06667,0 -0.1,0 -0.1,0c-0.06667,-0.13333 -0.1,-0.26667 -0.1,-0.4c-0.06667,-0.13333 -0.1,-0.3 -0.1,-0.5c2.53333,-0.46667 5.06667,-0.86667 7.6,-1.2z"/></g><g opacity="0.5" style="mix-blend-mode: normal"><path d="M362.33411,128.65c2.2,-4.1 4.7,-7.9 7.5,-11.6c1.4,0.53333 2.7,1.2 3.9,2c-4.6,5.7 -10,10.9 -14.8,16.5c-0.06667,-0.13333 -0.16667,-0.23333 -0.3,-0.3c1.4,-2.1 2.6,-4.4 3.7,-6.6z"/></g><g opacity="0.5" style="mix-blend-mode: normal"><path d="M342.63411,124.15c0.5,-2.6 1.1,-6.3 2.8,-8.5h1.8c-2.5,4.5 -3.4,10.2 -4.6,15.3c-0.46667,0 -0.96667,0 -1.5,0c0.7,-2.2 1,-4.5 1.5,-6.8z"/></g><g opacity="0.5" style="mix-blend-mode: normal"><path d="M355.73411,123.25001c1,-2.5 2,-5.1 3.1,-7.6h3.6c0.4,0 0.8,0.03333 1.2,0.1c-1.8,2.7 -3.8,5.2 -5.4,8.1c-1.5,2.9 -2.8,5.8 -4.3,8.7c-0.53333,-0.2 -1.1,-0.36667 -1.7,-0.5c1.1,-3 2.3,-5.9 3.5,-8.8z"/></g><g opacity="0.5" style="mix-blend-mode: normal"><path d="M369.33411,204.65c4.5,1 9,2.4 13.5,3.8c-0.2,1.33333 -0.36667,2.6 -0.5,3.8c-2.66667,-1 -5.3,-2.1 -7.9,-3.3c-1.4,-0.6 -3.4,-1.8 -5.3,-2.2c0,-0.06667 0,-0.13333 0,-0.2c0.06667,-0.66667 0.13333,-1.3 0.2,-1.9z"/></g><g opacity="0.5" style="mix-blend-mode: normal"><path d="M374.3341,211.24998c2.6,1 5.1,2.1 7.7,3.1c-0.13333,0.86667 -0.26667,1.73333 -0.4,2.6c-2.4,-0.9 -4.8,-1.9 -6.8,-3.4c-1.9,-1.4 -3.8,-3 -6.2,-3.1c0.13333,-0.53333 0.23333,-1.1 0.3,-1.7c1.8,0.4 4.2,2 5.4,2.5z"/></g><g opacity="0.5" style="mix-blend-mode: normal"><path d="M265.63411,220.84999c-2.3,1.4 -4.3,3.2 -6.4,4.9c-0.06667,-0.53333 -0.16667,-1.1 -0.3,-1.7c-0.06667,-0.33333 -0.13333,-0.7 -0.2,-1.1c3.1,-1.7 6.3,-3.3 9.4,-5c1.8,-0.93333 3.6,-1.93333 5.4,-3c0.7,-0.5 1.6,-1.2 2.4,-1.5c0.13333,0.46667 0.23333,0.93333 0.3,1.4c-0.06667,0 -0.13333,0.03333 -0.2,0.1c-3.4,2.1 -7,3.8 -10.4,5.9z"/></g><g opacity="0.5" style="mix-blend-mode: normal"><path d="M370.03411,189.34999c4.9,0 9.7,0.9 14.5,2c-0.06667,0.8 -0.13333,1.63333 -0.2,2.5c-2.2,-0.7 -4.4,-1.3 -6.5,-1.8c-2.4,-0.7 -5.2,-2.1 -7.7,-1.8c0,-0.33333 -0.03333,-0.63333 -0.1,-0.9z"/></g><g opacity="0.5" style="mix-blend-mode: normal"><path d="M385.43411,177.34999c0,0.8 -0.03333,1.56667 -0.1,2.3c-2.1,-0.2 -4.1,-0.6 -6.2,-0.8c-3.1,-0.3 -6.3,-0.3 -9.4,-0.3c0,-0.2 0,-0.4 0,-0.6c5.2,-0.3 10.5,-0.8 15.7,-0.6z"/></g><g opacity="0.5" style="mix-blend-mode: normal"><path d="M254.23411,158.84999c0,-1 0.03333,-2 0.1,-3c2.3,-0.1 4.6,0.2 6.9,0.3c3.2,0.3 6.4,0.7 9.6,1c0,0.53333 0,1.03333 0,1.5c-5.5,0.4 -11.1,-0.3 -16.6,0.2z"/></g><g opacity="0.5" style="mix-blend-mode: normal"><path d="M254.23411,163.44999c0,-0.86667 0,-1.73333 0,-2.6c5.5,-0.5 11.2,0.2 16.7,-0.1c0,0.2 0,0.36667 0,0.5c0,0.33333 0,0.63333 0,0.9c-2,0.2 -4.1,0.4 -6.2,0.5c-3.4,0.2 -7,1.1 -10.5,0.8z"/></g><g opacity="0.5" style="mix-blend-mode: normal"><path d="M268.93411,150.45001c-4.8,-0.6 -9.6,-1 -14.4,-1.5c0.1,-3.5 0.3,-6.9 0.6,-10.2c2.7,1.1 5.6,1.9 8.3,2.8c2.7,1 5.4,1.9 8,3c-0.5,1.8 -0.7,3.8 -0.8,5.5c0,0.13333 0,0.3 0,0.5c-0.7,0 -1.4,-0.1 -1.7,-0.1z"/></g><g opacity="0.5" style="mix-blend-mode: normal"><path d="M263.23411,189.24998c-2.5,0.7 -5.3,1.2 -7.9,2.2c-0.06667,-0.8 -0.1,-1.6 -0.1,-2.4c5.2,-1.5 10.6,-2.5 15.9,-3.6c0.06667,0.6 0.13333,1.2 0.2,1.8c-2.7,0.6 -5.4,1.4 -8.1,2z"/></g><g opacity="0.5" style="mix-blend-mode: normal"><path d="M273.53411,202.15c-5.5,3.4 -10.9,7 -16.2,10.7c-0.13333,-1.4 -0.3,-2.86667 -0.5,-4.4c5.5,-2.8 10.8,-6.1 16.3,-8.9c0.06667,0.2 0.1,0.43333 0.1,0.7c0.13333,0.6 0.23333,1.23333 0.3,1.9z"/></g></g><path d="M269.33411,237.05c-0.7,1.1 -1.3,2.3 -1.8,3.5c-1.86667,-1.46667 -3.46667,-3.3 -4.8,-5.5c1.3,-0.9 2.5,-1.9 3.7,-2.9c4.8,-3.8 9.7,-7.5 14.5,-11.4c-2,3.1 -4.1,6.1 -6.3,9c-1.8,2.4 -3.7,4.7 -5.3,7.3z" fill="#449199" opacity="0.7" style="mix-blend-mode: multiply"/><path d="M372.23409,239.95002c-1.13333,1 -2.36667,1.83333 -3.7,2.5c-0.06667,-0.2 -0.16667,-0.4 -0.3,-0.6c-1.2,-1.8 -2.4,-3.6 -3.6,-5.3c-1.06667,-1.53333 -2.1,-3.1 -3.1,-4.7c0.9,1 1.8,2 2.9,2.9c1.7,1.5 3.8,2.5 5.6,3.9c0.7,0.5 1.5,0.9 2.2,1.3z" fill="#449199" opacity="0.7" style="mix-blend-mode: multiply"/><path d="M258.13411,130.35001c-1,0.9 -1.7,1.9 -2.3,3c1.6,-7.8 6.2,-13.3 12.4,-15.9c-0.26667,0.2 -0.5,0.43333 -0.7,0.7c-1.1,1.7 -0.2,4.5 0.7,6c2.5,4.1 6.3,5.7 11,5.9c7.2,0.2 14.4,-0.3 21.6,0.4c7.3,0.7 14.7,1.5 22,2c7.5,0.6 15,0.9 22.5,0.3c7.1,-0.6 14.1,-2.9 21.2,-2.9c3.4,0.1 7,-0.7 7.8,-4.6c0.7,-3.1 -1.5,-7.1 -4.5,-8.2c7.5,2.8 12.9,9.9 14.3,18.9c0,0.26667 0.03333,0.53333 0.1,0.8c-1,-3.7 -3.2,-7.1 -6.5,-7.2c-2.4,-0.1 -4.8,2.1 -6.1,4c-1.2,1.7 -0.9,3.7 -1.2,5.6c-0.2,1.5 -0.9,2.6 -1.4,4c-1.5,4.1 -1.3,8.5 -1.9,12.7c-0.93333,6.2 -1.66667,12.46667 -2.2,18.8h-95.9c-0.06667,-1.86667 -0.13333,-3.73333 -0.2,-5.6c-0.2,-8.6 -0.8,-17.3 -0.3,-25.9c0.2,-3.2 0.2,-6.1 -1.6,-8.8c-1.8,-2.9 -5.5,-7.2 -8.8,-4z" fill="#d8f2fd" opacity="0.4" style="mix-blend-mode: screen"/><path d="M265.93411,127.95001c-1.9,-1.4 -3.9,-2.8 -5.9,-4.1c0.86667,-1.2 1.86667,-2.26667 3,-3.2c0.2,0.33333 0.4,0.63333 0.6,0.9c1.4,1.9 3.2,3.6 4.8,5.3c3.2,3.4 6.6,6.6 8.9,10.6c-3.2,-3.9 -7.4,-6.6 -11.4,-9.5z" fill="#d8f2fd"/><path d="M372.13411,128.55001c2,-1.9 4.1,-3.8 6,-5.8c0.53333,0.66667 1.03333,1.33333 1.5,2c-0.6,0.33333 -1.2,0.7 -1.8,1.1c-2.3,1.6 -4.3,3.7 -6.5,5.4c-2.3,1.7 -5.1,3.3 -7.7,4.5c2.6,-2.6 5.9,-4.7 8.5,-7.2z" fill="#d8f2fd"/><path d="M380.03411,226.55c-2.4,10 -9.4,17.8 -19.7,17.8h-81.1c-10.5,0 -17.3,-6.8 -19.8,-18.1c1.7,2.6 4,4.1 6.9,2.7c5.3,-2.6 5.1,-9.5 5,-14.4c-0.1,-5.4 0,-10.8 -0.6,-16.2c-0.7,-7.2 -1.2,-14.4 -1.6,-21.6h95.6c-0.13333,1.86667 -0.26667,3.73333 -0.4,5.6c-0.4,6.4 -0.7,12.9 -0.5,19.3c0.1,6.5 0.2,12.9 2.1,19.2c0.3,1 1.9,0.8 2.1,-0.2c0.5,-2.6 0.9,-5.3 1.5,-7.9c0.1,2.1 0,4.2 0.1,6.3c0,2.1 -0.7,4.7 0.5,6.7c1.5,2.5 5,4.3 7.8,2.6c0.8,-0.46667 1.5,-1.06667 2.1,-1.8z" fill="#287c81" opacity="0.4" style="mix-blend-mode: multiply"/><path d="M270.23411,242.25c-1.8,-0.93333 -3.4,-2.16667 -4.8,-3.7c2.5,-2.7 4.7,-5.6 7.3,-8.2c1.06667,-1.06667 2.06667,-2.16667 3,-3.3c-0.9,3.2 -1.9,6.3 -3.4,9.4c-0.9,1.9 -1.5,3.8 -2.1,5.8z" fill="#d8f2fd" opacity="0.5"/><path d="M374.73409,237.45002c-1.2,1.46667 -2.53333,2.7 -4,3.7c-0.13333,-0.13333 -0.26667,-0.26667 -0.4,-0.4c-1.9,-2.4 -3.2,-5.2 -5.2,-7.6c-1.3,-1.5 -2.7,-2.8 -4,-4.3c-0.4,-0.53333 -0.8,-1.03333 -1.2,-1.5c0.5,0.2 0.9,0.5 1.3,0.6c1.9,0.8 3.5,1.9 5.1,3.2c2.8,2.13333 5.6,4.23333 8.4,6.3z" fill="#d8f2fd" opacity="0.5"/><path d="M369.63411,216.15c-1.5,9.1 -7.4,16.6 -16.6,16.6h-66.5c-9.1,0 -14.8,-6.3 -16.6,-16.6c-2.5,-14.8 -5.4,-49.4 -2.9,-72.3c1.2,-10.5 8.6,-16.6 17.8,-16.6h70c9.1,0 16.3,7 17.7,16.6c3.7,24.5 -0.6,58.5 -2.9,72.3z" fill="#6dd2f2"/><g fill="#449199" opacity="0.15" style="mix-blend-mode: multiply"><path d="M369.63411,216.15c-1.5,9.1 -7.4,16.6 -16.6,16.6h-66.5c-9.1,0 -14.8,-6.3 -16.6,-16.6c-2.5,-14.8 -5.4,-49.4 -2.9,-72.3c0.9,-7.3 4.7,-12.5 10,-14.9c-0.26667,0.33333 -0.53333,0.73333 -0.8,1.2c-1.6,3 -5.6,7.2 -4.7,10.3c1.2,3.9 4.1,14.7 3.8,18.7c-2.3,27.6 28.3,21 41.9,21.4c14.6,0.4 35.8,4.2 45,-7.5c4.8,-6.1 6.8,-30 3.8,-37.5c-0.9,-2.3 -8.9,-6.8 -10.7,-8.3c8.9,0.3 15.8,7.2 17.2,16.6c3.7,24.5 -0.6,58.5 -2.9,72.3z" style="mix-blend-mode: normal"/></g><g fill="#449199" opacity="0.15" style="mix-blend-mode: multiply"><path d="M369.63411,216.15c-1.5,9.1 -7.4,16.6 -16.6,16.6h-66.5c-9.1,0 -14.8,-6.3 -16.6,-16.6c-2.5,-14.8 -5.4,-49.4 -2.9,-72.3c0.2,-1.4 0.46667,-2.7 0.8,-3.9c0,0.26667 0,0.53333 0,0.8c0.2,6 1.4,12 2.6,17.9c3.5,16.9 -4.3,31.6 10.3,41.8c12.8,9 67.4,7.1 80.4,0c15.8,-8.7 3,-24.2 7.5,-41.1c1.7,-6.5 2.4,-13 0.9,-19.6c-0.7,-2.8 -1.9,-5.5 -3.3,-8.1c3.3,3 5.6,7.2 6.3,12.2c3.7,24.5 -0.6,58.5 -2.9,72.3z" style="mix-blend-mode: normal"/></g><path d="M267.03411,143.85001c0.4,-4.7 1.8,-9 5.1,-12.5c3.9,-4.1 9,-5.2 14.5,-5.4c12.5,-0.3 25.1,-0.5 37.7,-0.4c10.3,0 20.6,-0.1 30.9,0.5c9.8,0.7 16.2,8.4 17.3,17.8c-2.2,-8.5 -8.5,-15.4 -17.7,-15.3c-9.7,0 -19.9,0.4 -29.8,0.4c-12.1,0.1 -24.2,0 -36.3,-0.3c-5.5,-0.2 -10.8,-0.1 -15.3,3.6c-3.6,3 -5.4,7.2 -6.4,11.6z" fill="#d8f2fd"/><path d="M372.53411,143.85001c3.5,22 2.3,44.7 -0.6,66.7c-1.2,9.2 -3.5,19.4 -13.4,22.9c-4.2,1.5 -9.1,1 -13.5,1c-6.33333,0 -12.7,0 -19.1,0c-12.4,0.1 -24.8,0.1 -37.1,0c-3.8,0 -7.5,-0.3 -10.8,-2.2c-5,-2.8 -7.9,-8.2 -9.1,-13.6c-1.3,-5.8 -1.7,-11.8 -2.2,-17.7c-0.5,-6.1 -0.9,-12.2 -1.1,-18.3c-0.4,-11.2 -0.4,-22.5 0.9,-33.6c0.13333,-1.73333 0.3,-3.46667 0.5,-5.2c-1,22.2 -0.1,44.8 3.5,66.7c0.9,5.5 1.6,11.3 5.2,15.7c2.8,3.4 6.8,4.9 11,4.8c11,-0.1 22,0 33,-0.1c6.4,0.06667 12.8,0.1 19.2,0.1c5.5,0 11.3,0.6 16.7,-0.2c8.7,-1.3 11.8,-10.3 13.1,-17.8c3.8,-22.5 6,-45.9 3.9,-68.8c-0.06667,-0.13333 -0.1,-0.26667 -0.1,-0.4z" fill="#d8f2fd" opacity="0.5"/><path d="M288.33411,146.85001c-2.5,1.7 -10.7,7.6 -13.5,3.6c-1.4,-1.9 -0.2,-5.6 0.4,-7.5c2,-5.5 16,-16.3 19.1,-6.1c1.2,4.1 -3.1,7.9 -6,10z" fill="#d8f2fd"/><path d="M305.63411,137.85001c-1.5,2.6 -6.6,6.6 -6.8,1c-0.2,-3.4 3.9,-5.4 6.1,-4.8c1.3,0.3 1.9,1.5 0.7,3.8z" fill="#d8f2fd"/></g><g><path d="M335.23411,158.65c4.6,4.8 6.8,11.9 6.5,21.2c-0.9,26.8 -15.4,28.9 -19.9,28.9c-1.13333,0 -2.3,-0.13333 -3.5,-0.4c-6.1,-1.2 -10.7,-3.9 -13.3,-7.8c-2.2,-3.2 -2.9,-7.1 -2.1,-11.3c0.1,-0.4 0.3,-0.7 0.7,-1c0.4,-0.2 0.8,-0.3 1.2,-0.2l9.9,2.8c0.7,0.2 1.1,0.8 1.1,1.5c0,0.5 0.2,4.8 4.4,4.9l0.1,0.1c1.6,-0.06667 2.93333,-0.66667 4,-1.8c1.9,-2.1 2.9,-5.7 2.9,-10.5c-1.9,1.4 -4.9,3 -8.6,3c-3.5,0 -7,-1.4 -10.3,-4.2c-5.3,-4.6 -7.5,-10.8 -6,-17.1c1.4,-6.3 6.3,-11.2 12.7,-12.9c2.1,-0.5 4.2,-0.8 6.3,-0.8c5.5,0 10.4,1.9 13.9,5.6zM318.63411,165.55c-2.1,0 -3.9,1.6 -3.9,3.6c0,2 1.8,3.6 3.9,3.6c2.1,0 3.8,-1.6 3.8,-3.6c0,-2 -1.7,-3.6 -3.8,-3.6z" fill="#0c4399" fill-rule="evenodd"/><path d="M340.13411,179.74998c-0.7,21.9 -11.2,29.1 -21.5,27.1c-10.3,-2 -15.9,-8.6 -14.2,-17.3l9.9,2.8c0,0 0,6.3 5.8,6.5c5.9,0.1 9.4,-6.2 8.5,-17.1c0,0 -8.5,10.2 -19.3,0.9c-10.7,-9.3 -5.8,-24.2 6.1,-27.3c11.8,-3.1 25.4,2.6 24.7,24.4zM324.03411,169.15c0,-2.8 -2.4,-5.2 -5.4,-5.2c-3,0 -5.4,2.4 -5.4,5.2c0,2.9 2.4,5.2 5.4,5.2c3,0 5.4,-2.3 5.4,-5.2z" fill="#1d80d5" fill-rule="evenodd"/><path d="M303.73411,173.34999c-1.6,-7.8 3.3,-15.8 11.7,-18c11.8,-3.1 25.4,2.6 24.7,24.3c-4.8,-1.1 -9.5,-2.5 -14.3,-4c-1.86667,-0.6 -3.76667,-1.1 -5.7,-1.5c2.3,-0.7 3.9,-2.7 3.9,-5c0,-2.8 -2.4,-5.2 -5.4,-5.2c-3,0 -5.4,2.4 -5.4,5.2c0,1.7 0.8,3.1 2.1,4.1c-3.9,-0.5 -7.8,-0.5 -11.6,0.1z" fill="#27a8f1" fill-rule="nonzero"/><g fill="#ffffff" fill-rule="nonzero"><path d="M323.93411,170.05c0.06667,0.33333 0.1,0.66667 0.1,1c0,2.8 -2.4,5.1 -5.4,5.1c-3,0 -5.4,-2.3 -5.4,-5.1c0,-0.33333 0.03333,-0.66667 0.1,-1c0.4,2.4 2.6,4.3 5.3,4.3c2.6,0 4.8,-1.9 5.3,-4.3z"/></g><g fill="#ffffff" fill-rule="nonzero"><path d="M340.13411,179.05c-0.4,-19.7 -13.4,-24.8 -24.7,-21.8c-7,1.8 -11.6,7.7 -12,14.1c-0.4,-7.1 4.3,-14 12,-16c11.7,-3 25.1,2.5 24.7,23.7z"/></g><g fill="#ffffff" fill-rule="nonzero"><path d="M304.43411,190.84999c-0.1,0.7 -0.2,2 -0.3,2.7c-0.06667,-1.26667 0.03333,-2.6 0.3,-4l9.9,2.8c0,0 0,6.3 5.8,6.5c5.1,0.1 8.4,-4.6 8.6,-12.9c0.3,9.5 -3.1,14.3 -8.6,14.1c-5.8,-0.1 -6.8,-6.7 -6.8,-6.7z"/></g><path d="M319.13411,204.74998c0.53333,0 1.03333,0 1.5,0c0.5,0 1,0 1.5,-0.1c0.4,0 0.9,-0.1 1.3,-0.1c0.3,-0.1 0.7,-0.1 1,-0.2c2,-0.5 4.8,-1.7 6.9,-4c0.6,-0.6 1,-1.2 1.5,-1.8c0.2,-0.33333 0.4,-0.66667 0.6,-1c0.06667,-0.13333 0.16667,-0.3 0.3,-0.5c0.06667,-0.13333 0.13333,-0.26667 0.2,-0.4c0.2,-0.33333 0.36667,-0.66667 0.5,-1c0.2,-0.3 0.3,-0.7 0.4,-1c0.13333,-0.26667 0.23333,-0.56667 0.3,-0.9c0.13333,-0.26667 0.23333,-0.56667 0.3,-0.9c1.4,-4.6 1.7,-4.3 2,-4.1c0.1,0 0.3,0.2 0.3,0.9c0,0.26667 -0.06667,0.7 -0.2,1.3c-0.1,0.6 -0.2,1.4 -0.5,2.4c-0.2,0.5 -0.4,1.1 -0.6,1.7c-0.13333,0.33333 -0.26667,0.7 -0.4,1.1c-0.2,0.33333 -0.4,0.66667 -0.6,1c-0.3,0.8 -0.8,1.5 -1.3,2.3c-0.5,0.7 -1,1.4 -1.7,2.1c-1.3,1.3 -2.7,2.4 -4.1,3.1c-0.7,0.4 -1.4,0.6 -2,0.8c-0.6,0.2 -1.1,0.3 -1.5,0.5c-0.5,0.1 -0.9,0.1 -1.4,0.2c-0.3,0 -0.5,0.1 -0.8,0.1c-0.26667,0 -0.53333,0 -0.8,0c-0.26667,0 -0.53333,0 -0.8,0c-0.26667,0 -0.53333,-0.03333 -0.8,-0.1c-0.5,0 -1.1,0 -1.6,-0.2c-0.46667,-0.06667 -0.9,-0.16667 -1.3,-0.3c-0.4,-0.1 -0.8,-0.3 -1.1,-0.4c-0.5,-0.3 -0.9,-0.5 -0.8,-0.6c0.1,-0.3 1.8,0 3.7,0.1zM338.13411,183.74998c0.1,-0.1 0.4,0.1 0.6,0.5c0.3,0.4 0.4,1.1 0.2,2.1c-0.2,0.9 -0.5,1.2 -0.7,1.2c-0.2,0 -0.4,-0.3 -0.4,-0.7c-0.1,-1.1 -0.2,-1.8 -0.1,-2.3c0.1,-0.5 0.2,-0.7 0.4,-0.8z" fill="#50bcf8" fill-rule="evenodd"/></g></g></g></svg>