<svg version="1.1" xmlns="http://www.w3.org/2000/svg" xmlns:xlink="http://www.w3.org/1999/xlink" width="66.94272" height="85.48281" viewBox="0,0,66.94272,85.48281"><g transform="translate(-205.67874,-138.26893)"><g data-paper-data="{&quot;isPaintingLayer&quot;:true}" fill-rule="nonzero" stroke="none" stroke-linecap="butt" stroke-linejoin="miter" stroke-miterlimit="10" stroke-dasharray="" stroke-dashoffset="0" style="mix-blend-mode: normal"><path d="M269.32401,174.354c0,3.86 -0.09,7.5 -0.28,10.82c-0.01,0.08 -0.01,0.15 -0.02,0.22c-0.39,5.08 -1.36,9.37 -2.97,13.11c-1.98,4.5 -5.12,8.59 -9.34,12.24c-0.69,0.59 -1.44,1.09 -2.25,1.49l-2.36,1.18c-3.8,2.01 -8.3,3.16 -13.37,3.41c-0.04,0.01 -0.07,0.01 -0.1,0.01c-0.35,0.01 -0.69,0.02 -1.02,0.02c-4.86,0 -9.41,-1.4 -13.54,-4.15c-0.6,-0.4 -1.16,-0.86 -1.68,-1.37c-1.2,-1.21 -1.9,-2.46 -2.38,-3.41c-0.91,-1.84 -1.36,-3.65 -1.36,-5.51c0,-1.06 0.15,-2.1 0.44,-3.1c0.34,-1.87 1.06,-3.62 2.16,-5.16c-2.59,-2.08 -4.62,-4.52 -6.04,-7.3c-1.9,-3.67 -2.95,-7.52 -3.15,-11.43c-0.37,-6.8 0.87,-12.19 3.8,-16.41c2.67,-3.87 6.45,-7.32 11.2,-10.21c5.16,-3.13 9.96,-4.7 14.66,-4.8c0.35,-0.01 0.7,0 1.04,0.02c1.88,0.14 3.03,0.22 3.43,0.25c0.46,0.02 0.92,0.06 1.37,0.14c4.64,0.78 7.72,2.82 9.61,4.61c0.32,0.27 0.7,0.61 1.15,1c0.49,0.43 0.93,0.91 1.34,1.42l2.62,3.33c1.63,2.03 2.79,3.88 3.59,5.72c0.43,0.77 0.93,1.7 1.5,2.79c0.14,0.27 0.27,0.54 0.39,0.82c1.08,2.57 1.56,5.73 1.56,10.25z" fill="#00cccc" stroke-width="1"/><path d="M205.67874,223.75174v-85.48281h66.94272v85.48281z" data-paper-data="{&quot;origPos&quot;:null}" fill="#03cdff" stroke-width="0"/><path d="M233.0777,207.7247c-0.763,0.938 -1.525,1.554 -2.287,1.848c-0.763,0.293 -1.906,0.381 -3.431,0.264c-1.701,-0.118 -2.814,-0.118 -3.343,0c-0.059,0 -0.483,0.102 -1.275,0.308c-0.791,0.205 -1.394,0.309 -1.803,0.309c-0.118,0 -0.338,-0.104 -0.66,-0.309c-0.323,-0.206 -0.571,-0.308 -0.747,-0.308c-0.295,0 -1.071,0.044 -2.331,0.132c-1.262,0.088 -2.243,0.132 -2.947,0.132h-3.782c-1.525,-0.059 -2.405,-0.264 -2.639,-0.615c-0.527,-0.704 -0.792,-1.231 -0.792,-1.583c-0.176,-0.177 -0.322,-0.44 -0.439,-0.792c0.469,-2.404 2.756,-3.371 6.861,-2.902c2.99,0.294 4.75,0.264 5.277,-0.089c0.233,-6.273 0.088,-16.302 -0.439,-30.082c0.233,-2.58 0.468,-6.802 0.703,-12.667c-0.411,-0.058 -0.998,0.207 -1.759,0.792c-0.88,0.763 -1.438,1.203 -1.672,1.319c-0.72849,0.28709 -1.50399,0.4363 -2.287,0.44c-0.997,0 -1.729,-0.322 -2.198,-0.968c-0.29055,-0.34372 -0.44684,-0.78099 -0.44,-1.231c0,-1.056 1.056,-2.257 3.167,-3.606c2.463,-1.524 3.928,-2.903 4.398,-4.135c1.231,-0.997 2.52,-1.496 3.87,-1.496c1.759,0 2.814,0.88 3.166,2.639c-0.14545,0.31173 -0.26324,0.63565 -0.352,0.968c-0.235,1.818 -0.439,5.277 -0.616,10.38c0,0.294 -0.03,0.938 -0.088,1.935c-0.0368,0.55692 -0.06614,1.1143 -0.088,1.672v9.411c0,0.118 0.044,0.836 0.132,2.155c0.05267,0.71779 0.09701,1.43617 0.133,2.155v20.055c1.583,0.294 2.667,0.323 3.254,0.088c0.762,-0.292 1.437,-0.439 2.023,-0.439c1.349,0 2.492,0.763 3.431,2.287c0.116,0.174 0.116,0.819 0,1.933z" data-paper-data="{&quot;origPos&quot;:null}" fill="#ffffff" stroke-width="1"/><path d="M270.02665,190.909c0,0.998 -0.499,3.079 -1.495,6.245c-0.235,0.528 -1.174,1.819 -2.815,3.871c-4.34,5.102 -9.5,7.652 -15.481,7.652c-2.697,0 -5.22,-0.587 -7.564,-1.759c-0.997,-0.998 -2.493,-2.229 -4.485,-3.695c-0.06,-0.585 -0.499,-1.407 -1.319,-2.463c-0.646,-0.879 -1.32,-1.759 -2.023,-2.639c-0.06,-0.645 -0.47,-1.964 -1.231,-3.958c-0.704,-1.76 -1.056,-2.844 -1.056,-3.255c0,-0.703 0.365,-1.333 1.1,-1.891c0.732,-0.557 1.509,-0.836 2.331,-0.836c1.113,0 1.876,0.527 2.287,1.583c0,0.587 0.028,1.496 0.088,2.728c0.352,1.701 1.172,3.577 2.463,5.629c1.465,2.287 2.96,3.842 4.485,4.662c1.76,0.88 3.576,1.319 5.454,1.319c3.283,0 6.215,-1.265 8.796,-3.793c1.407,-1.353 2.229,-2.178 2.463,-2.472c0.645,-0.705 1.201,-1.704 1.672,-2.999c-0.118,-0.47 -0.06,-0.823 0.176,-1.06c0.527,-0.411 0.732,-1.44 0.615,-3.088c0,-0.233 0.044,-0.616 0.132,-1.146c0.088,-0.529 0.133,-0.941 0.133,-1.235c0,-0.058 -0.207,-1.322 -0.616,-3.793c-0.176,-0.177 -0.352,-0.383 -0.527,-0.619c-0.353,-3.175 -2.376,-5.557 -6.07,-7.146c-2.873,-1.234 -5.835,-1.765 -8.884,-1.589c-0.938,0.061 -2.186,0.211 -3.738,0.45c-1.555,0.24 -2.683,0.601 -3.387,1.08c-2.581,1.562 -4.457,2.341 -5.629,2.341c-1.407,0 -2.493,-0.821 -3.255,-2.463c0.058,-0.646 0.088,-1.584 0.088,-2.815c-0.176,-1.231 -0.411,-3.107 -0.703,-5.629c-0.235,-2.053 -0.616,-5.336 -1.144,-9.852c-0.176,-1.173 0,-2.111 0.527,-2.815c0.82,-1.113 2.696,-1.671 5.63,-1.671c0.82,0 1.904,0.044 3.254,0.132c1.349,0.088 2.199,0.132 2.551,0.132c2.345,-0.116 5.542,-0.204 9.588,-0.264c0.645,0 1.729,-0.132 3.255,-0.396c1.524,-0.265 2.639,-0.396 3.343,-0.396c1.817,0 2.844,0.734 3.078,2.199c-0.059,1.291 0,3.313 0.177,6.069c0.352,2.287 0.264,3.782 -0.265,4.486c-1.173,0.527 -2.142,0.791 -2.902,0.791c-1.35,0 -2.259,-0.615 -2.728,-1.847c-0.294,-0.762 -0.439,-1.76 -0.439,-2.991c0.058,-1.583 0.029,-2.608 -0.088,-3.078c-1.759,-0.058 -4.398,0.03 -7.916,0.264c-1.408,0.118 -4.722,0.47 -9.94,1.056c-0.176,0.118 -0.382,0.264 -0.615,0.439c-0.118,0.88 0,2.815 0.352,5.806c0.41,3.167 0.616,5.132 0.616,5.894c0.058,0 0.879,-0.264 2.463,-0.792c0.761,-0.116 1.876,-0.293 3.342,-0.527c1.936,-0.469 3.987,-0.704 6.158,-0.704c4.339,0 8.121,0.851 11.347,2.551c3.812,2.054 6.303,5.073 7.477,9.061c0.586,2.053 0.88,3.313 0.88,3.782v5.454z" fill="#ffffff" stroke-width="1"/></g></g></svg>