<svg version="1.1" xmlns="http://www.w3.org/2000/svg" xmlns:xlink="http://www.w3.org/1999/xlink" width="115.77707" height="115.76488" viewBox="0,0,115.77707,115.76488"><g transform="translate(-262.11146,-122.11756)"><g stroke="none" stroke-miterlimit="10"><path d="M355.91589,237.88244h-71.81959c-12.14471,0 -21.98484,-9.86453 -21.98484,-21.97265v-71.81958c0,-12.13251 9.87671,-21.97264 21.98484,-21.97264h71.81959c12.13251,0 21.97264,9.87671 21.97264,21.97265v71.81958c0,12.10813 -9.87671,21.97265 -21.97264,21.97265z" fill="#ff3131"/><path d="M298.09442,207.38655c-1.41445,0 -2.81669,-0.52432 -3.90191,-1.60954c-2.17044,-2.15824 -2.17044,-5.63338 0,-7.80382l18.00977,-17.99758l-17.97319,-17.97318c-2.17044,-2.17044 -2.17044,-5.64558 0,-7.80382c2.12167,-2.17044 5.63339,-2.17044 7.80383,0l17.97318,17.97319l17.961,-17.97318c2.13386,-2.17044 5.64558,-2.17044 7.80382,0c2.17044,2.15824 2.17044,5.63338 0,7.80382l-17.96099,17.97319l17.99757,17.99758c2.17044,2.17044 2.17044,5.64558 0,7.80382c-1.07303,1.08522 -2.48747,1.60954 -3.90191,1.60954c-1.40225,0 -2.81669,-0.52432 -3.90192,-1.60954l-17.99757,-17.99757l-18.00977,17.99757c-1.04864,1.08522 -2.48747,1.60954 -3.90192,1.60954z" fill="#ffffff"/></g></g></svg>