<svg version="1.1" xmlns="http://www.w3.org/2000/svg" xmlns:xlink="http://www.w3.org/1999/xlink" width="92.47678" height="121.70557" viewBox="0,0,92.47678,121.70557"><g transform="translate(-206.64522,-119.99999)"><g data-paper-data="{&quot;isPaintingLayer&quot;:true}" fill-rule="evenodd" stroke="none" stroke-width="1" stroke-linecap="butt" stroke-linejoin="miter" stroke-miterlimit="10" stroke-dasharray="" stroke-dashoffset="0" style="mix-blend-mode: normal"><path d="M299.122,221.27543c0,11.23638 -6.9852,20.43013 -15.52354,20.43013h-61.43205c-8.53599,-0.00101 -15.52119,-9.19376 -15.52119,-20.43013v-80.84631c-0.00078,-11.23739 6.98442,-20.42913 15.52197,-20.42913h61.43127c8.53833,0 15.52354,9.19174 15.52354,20.42812v80.84631z" fill="#ffffff"/><path d="M298.16239,220.43668c0,11.00209 -6.84032,20.00518 -15.20107,20.00518h-60.15622c-8.35997,0 -15.20029,-9.00309 -15.20029,-20.00619v-79.1678c0,-11.00107 6.83954,-20.00315 15.20029,-20.00315h60.15544c8.36074,0 15.20107,9.00208 15.20107,20.00315v79.16881z" fill="#f9ecc3"/><path d="M292.34087,213.29668c0,9.48687 -5.96094,17.24756 -13.2468,17.24756h-52.42171c-7.28508,0 -13.24602,-7.76069 -13.24602,-17.24756v-68.259c0,-9.48586 5.96094,-17.24757 13.24602,-17.24757h52.42171c7.28586,0 13.2468,7.76171 13.2468,17.24757z" fill="#efb469"/><path d="M292.34087,216.66586c0,9.48687 -5.96094,17.24858 -13.2468,17.24858h-52.42171c-7.28508,0 -13.24602,-7.76171 -13.24602,-17.24858v-68.25799c0,-9.48586 5.96094,-17.24756 13.24602,-17.24756h52.42171c7.28586,0 13.2468,7.7617 13.2468,17.24756z" fill="#efb469"/><path d="M291.6936,216.10601c0,9.33069 -5.8628,16.96663 -13.02949,16.96663h-51.56336c-7.16591,0 -13.02793,-7.63696 -13.02793,-16.96562v-67.14034c0,-9.33069 5.8628,-16.9646 13.02871,-16.9646h51.56258c7.16591,0 13.02949,7.63494 13.02949,16.96562z" data-paper-data="{&quot;origPos&quot;:null}" fill="#f3db95"/></g></g></svg>