<svg version="1.1" xmlns="http://www.w3.org/2000/svg" xmlns:xlink="http://www.w3.org/1999/xlink" width="115.76488" height="115.76488" viewBox="0,0,115.76488,115.76488"><g transform="translate(-262.11756,-122.11756)"><g stroke="none" stroke-miterlimit="10"><path d="M355.9098,237.88244h-71.81958c-12.13251,0 -21.97265,-9.86453 -21.97265,-21.97265v-71.81958c0,-12.13251 9.87672,-21.97264 21.97265,-21.97264h71.81958c12.1447,0 21.97265,9.87672 21.97265,21.97265v71.81958c0,12.10813 -9.86452,21.97265 -21.97264,21.97265z" fill="#1aa1ff"/><path d="M305.80679,207.38655c-1.41445,0 -2.82889,-0.52432 -3.90191,-1.60954l-15.38817,-15.37597c-2.15825,-2.17044 -2.15825,-5.64558 0,-7.80383c2.17044,-2.17044 5.64558,-2.17044 7.81602,0l11.47406,11.47406l39.87267,-39.87267c2.17044,-2.17044 5.64558,-2.17044 7.81602,0c2.15825,2.15824 2.15825,5.63338 0,7.80382l-43.78678,43.77459c-1.08522,1.08522 -2.49966,1.60954 -3.90191,1.60954z" fill="#ffffff"/></g></g></svg>