<svg version="1.1" xmlns="http://www.w3.org/2000/svg" xmlns:xlink="http://www.w3.org/1999/xlink" width="138.6184" height="135.7" viewBox="0,0,138.6184,135.7"><defs><linearGradient x1="305.55457" y1="168.97599" x2="305.55457" y2="116.33002" gradientUnits="userSpaceOnUse" id="color-1"><stop offset="0" stop-color="#000000"/><stop offset="1" stop-color="#6dd2f2"/></linearGradient><linearGradient x1="340.02658" y1="178.40998" x2="340.02658" y2="275.46002" gradientUnits="userSpaceOnUse" id="color-2"><stop offset="0" stop-color="#ffffff"/><stop offset="1" stop-color="#28686f"/></linearGradient></defs><g transform="translate(-250.6908,-112.15)"><g stroke="none" stroke-miterlimit="10"><g fill-rule="nonzero"><path d="M383.95058,224.65c-2.3,14.1 -11.6,23.2 -23.7,23.2h-81.1c-12.5,0 -21.2,-8.4 -23.7,-23.2c-2.9,-16.5 -6.8,-59.6 -3.5,-89.1c1.5,-14 11.6,-23.4 25.1,-23.4h85.3c12.8,0 23.1,9.6 25.2,23.3c5.2,34.8 -2.7,83.8 -3.6,89.2z" fill="#28686f"/><path d="M380.55058,224.05c-1.9,11.2 -9.1,20.3 -20.3,20.3h-81.1c-11.2,0 -18.1,-7.7 -20.2,-20.3c-3.1,-18 -6.7,-60.2 -3.6,-88.1c1.5,-12.8 10.5,-20.3 21.7,-20.3h85.3c11.2,0 20,8.6 21.7,20.3c4.4,29.8 -0.7,71.3 -3.5,88.1z" fill="#50a5b3"/><path d="M254.35058,172.74999c-0.4,-12.9 -0.2,-26 1,-36.8c1.5,-12.8 10.5,-20.3 21.7,-20.3h85.3c11.2,0 20,8.6 21.7,20.3c1.9,12.6 2,27.3 1.4,41.3c-12.3,-1.9 -24.5,-4.1 -36.9,-5.6c-16.7,-2.2 -33.6,-2.2 -50.3,-1.8c-8.6,0.2 -17.2,0.6 -25.7,1.1c-4.6,0.2 -9.1,0.7 -13.7,1.1c-1.4,0.2 -2.9,0.4 -4.5,0.7z" fill="url(#color-1)" opacity="0.5" style="mix-blend-mode: screen"/><path d="M385.35058,179.35c-1,18.4 -3.3,35.4 -4.8,44.7c-1.9,11.2 -9.1,20.3 -20.3,20.3h-81.1c-11.2,0 -18.1,-7.7 -20.2,-20.3c-1.9,-10.6 -3.9,-29.8 -4.5,-49.4c3.8,-0.4 7.6,-0.8 11.5,-1.2c8.5,-0.8 17.1,-1 25.6,-1.3c17.9,-0.7 36.1,-0.8 53.9,1.2c13.4,1.5 26.6,4 39.9,6z" fill="url(#color-2)" style="mix-blend-mode: multiply"/><g fill="#6dd2f2" opacity="0.7" style="mix-blend-mode: screen"><g opacity="0.5" style="mix-blend-mode: normal"><path d="M365.45058,131.35001c3.4,-3.6 6.8,-7.2 9.9,-11.1c0.46667,0.33333 0.9,0.7 1.3,1.1c-3.5,2.6 -6.3,6.1 -9.7,8.8c-0.53333,0.4 -1.03333,0.8 -1.5,1.2z"/></g><g opacity="0.5" style="mix-blend-mode: normal"><path d="M304.05058,123.95001c0.1,-2.8 -0.5,-5.5 -0.3,-8.3h4.2c-0.1,0.6 -0.3,1.3 -0.3,1.6c-0.4,2.2 -0.6,4.4 -0.8,6.6c-0.2,2.26667 -0.3,4.5 -0.3,6.7c-0.73333,0.06667 -1.43333,0.13333 -2.1,0.2c-0.6,-2.2 -0.4,-4.8 -0.4,-6.8z"/></g><g opacity="0.5" style="mix-blend-mode: normal"><path d="M313.35058,115.65h15.9c-0.9,4.9 -1.6,9.9 -2,15c-2.2,-0.2 -4.4,-0.4 -6.5,-0.5c-2.06667,-0.13333 -4.13333,-0.16667 -6.2,-0.1c-0.1,-4.8 -1.1,-9.6 -1.2,-14.4z"/></g><g opacity="0.5" style="mix-blend-mode: normal"><path d="M286.05058,119.25001c-0.33333,-1.2 -0.66667,-2.4 -1,-3.6h13c-0.06667,1.26667 -0.1,2.5 -0.1,3.7c-0.1,3.7 0.6,7.5 0.5,11.1c-2.7,-0.2 -5.5,-0.5 -8.2,-0.2c-0.26667,0.06667 -0.53333,0.13333 -0.8,0.2c-1.3,-3.7 -2.4,-7.4 -3.4,-11.2z"/></g><g opacity="0.5" style="mix-blend-mode: normal"><path d="M282.85058,133.45001c-2.8,-6.2 -7.8,-11.1 -10.6,-17.3c0.66667,-0.13333 1.36667,-0.23333 2.1,-0.3c1.5,2.1 2.7,4.4 3.9,6.7c1,2 2.1,4 3.1,6c0.8,1.4 1.8,2.8 2.6,4.2c-0.4,0.26667 -0.76667,0.5 -1.1,0.7z"/></g><g opacity="0.5" style="mix-blend-mode: normal"><path d="M300.05058,122.85001c-0.06667,-2.33333 -0.03333,-4.73333 0.1,-7.2h1.5c-0.2,2.8 0.4,5.6 0.3,8.4c0,2.1 -0.1,4.5 0.3,6.7c-0.53333,0 -1.1,-0.03333 -1.7,-0.1c0,-2.6 -0.5,-5.2 -0.5,-7.8z"/></g><g opacity="0.5" style="mix-blend-mode: normal"><path d="M335.65057,131.05001c0.33333,-2.26667 0.66667,-4.53333 1,-6.8c0.4,-2.7 0.5,-5.9 1.4,-8.6h4.8c-2.5,4.5 -2.4,10.5 -3.9,15.3c-0.93333,0 -1.8,0.03333 -2.6,0.1c-0.2,0 -0.43333,0 -0.7,0z"/></g><g opacity="0.5" style="mix-blend-mode: normal"><path d="M380.25058,136.85001c1.2,-0.6 2.4,-1.3 3.6,-1.8c0.06667,0.26667 0.13333,0.56667 0.2,0.9c0.2,1.6 0.4,3.2 0.6,4.8c-1.3,0.4 -2.7,0.7 -4.1,1c-2.9,0.7 -5.7,1.8 -8.4,2.8c-2.3,0.7 -4.7,1.4 -7.1,2c-0.2,-0.6 -0.4,-1.2 -0.6,-1.8c2.9,-1.3 5.7,-2.8 8.5,-4.3c2.4,-1.3 4.9,-2.4 7.3,-3.6z"/></g><g opacity="0.5" style="mix-blend-mode: normal"><path d="M276.45058,130.85001c-3.6,-4 -6.9,-8.2 -10.2,-12.4c1.2,-0.73333 2.5,-1.3 3.9,-1.7c2.9,6.3 8.1,11.4 10.9,17.8c-0.06667,0.06667 -0.1,0.1 -0.1,0.1c-0.33333,0.2 -0.63333,0.4 -0.9,0.6c-1.1,-1.6 -2.4,-3 -3.6,-4.4z"/></g><g opacity="0.5" style="mix-blend-mode: normal"><path d="M375.05058,156.05001c3.5,-0.5 7.1,-0.4 10.6,-0.5c0,1.06667 0.03333,2.13333 0.1,3.2c-0.86667,0 -1.73333,0 -2.6,0c-5.1,-0.1 -10.2,-0.3 -15.4,-0.6c-0.06667,0 -0.1,0 -0.1,0c0,-0.13333 -0.03333,-0.26667 -0.1,-0.4c0,-0.13333 -0.03333,-0.3 -0.1,-0.5c2.53333,-0.46667 5.06667,-0.86667 7.6,-1.2z"/></g><g opacity="0.5" style="mix-blend-mode: normal"><path d="M362.35058,128.65c2.1,-4.1 4.7,-7.9 7.4,-11.6c1.4,0.53333 2.7,1.2 3.9,2c-4.6,5.7 -9.9,10.9 -14.7,16.5c-0.13333,-0.13333 -0.26667,-0.23333 -0.4,-0.3c1.4,-2.1 2.6,-4.4 3.8,-6.6z"/></g><g opacity="0.5" style="mix-blend-mode: normal"><path d="M342.55058,124.15c0.5,-2.6 1.1,-6.3 2.8,-8.5h1.8c-2.4,4.5 -3.4,10.2 -4.6,15.3c-0.46667,0 -0.93333,0 -1.4,0c0.6,-2.2 1,-4.5 1.4,-6.8z"/></g><g opacity="0.5" style="mix-blend-mode: normal"><path d="M355.65058,123.25001c1.1,-2.5 2,-5.1 3.2,-7.6h3.5c0.4,0 0.8,0.03333 1.2,0.1c-1.7,2.7 -3.8,5.2 -5.3,8.1c-1.6,2.9 -2.8,5.8 -4.3,8.7c-0.6,-0.2 -1.2,-0.36667 -1.8,-0.5c1.1,-3 2.3,-5.9 3.5,-8.8z"/></g><g opacity="0.5" style="mix-blend-mode: normal"><path d="M369.25058,204.65c4.6,1 9.1,2.4 13.5,3.8c-0.2,1.33333 -0.36667,2.6 -0.5,3.8c-2.66667,-1 -5.3,-2.1 -7.9,-3.3c-1.4,-0.6 -3.4,-1.8 -5.3,-2.2c0.06667,-0.06667 0.1,-0.13333 0.1,-0.2c0,-0.66667 0.03333,-1.3 0.1,-1.9z"/></g><g opacity="0.5" style="mix-blend-mode: normal"><path d="M374.35058,211.24999c2.5,1 5.1,2.1 7.6,3.1c-0.06667,0.86667 -0.16667,1.73333 -0.3,2.6c-2.5,-0.9 -4.8,-1.9 -6.9,-3.4c-1.9,-1.4 -3.7,-3 -6.1,-3.1c0.06667,-0.53333 0.13333,-1.1 0.2,-1.7c1.8,0.4 4.2,2 5.5,2.5z"/></g><g opacity="0.5" style="mix-blend-mode: normal"><path d="M265.55058,220.85c-2.2,1.4 -4.2,3.2 -6.3,4.9c-0.13333,-0.53333 -0.23333,-1.1 -0.3,-1.7c-0.06667,-0.33333 -0.13333,-0.7 -0.2,-1.1c3.1,-1.7 6.2,-3.3 9.3,-5c1.86667,-0.93333 3.66667,-1.93333 5.4,-3c0.8,-0.5 1.6,-1.2 2.5,-1.5c0.06667,0.46667 0.13333,0.93333 0.2,1.4c-0.06667,0 -0.13333,0.03333 -0.2,0.1c-3.4,2.1 -7,3.8 -10.4,5.9z"/></g><g opacity="0.5" style="mix-blend-mode: normal"><path d="M370.05058,189.35c4.9,0 9.7,0.9 14.5,2c-0.06667,0.8 -0.16667,1.63333 -0.3,2.5c-2.1,-0.7 -4.3,-1.3 -6.5,-1.8c-2.3,-0.7 -5.1,-2.1 -7.7,-1.8c0,-0.33333 0,-0.63333 0,-0.9z"/></g><g opacity="0.5" style="mix-blend-mode: normal"><path d="M385.45058,177.35c-0.06667,0.8 -0.1,1.56667 -0.1,2.3c-2.1,-0.2 -4.2,-0.6 -6.3,-0.8c-3.1,-0.3 -6.3,-0.3 -9.4,-0.3c0,-0.2 0,-0.4 0,-0.6c5.3,-0.3 10.5,-0.8 15.8,-0.6z"/></g><g opacity="0.5" style="mix-blend-mode: normal"><path d="M254.25058,158.85c0,-1 0,-2 0,-3c2.3,-0.1 4.6,0.2 7,0.3c3.2,0.3 6.3,0.7 9.5,1c0,0.53333 0.03333,1.03333 0.1,1.5c-5.6,0.4 -11.1,-0.3 -16.6,0.2z"/></g><g opacity="0.5" style="mix-blend-mode: normal"><path d="M254.15058,163.44999c0,-0.86667 0,-1.73333 0,-2.6c5.6,-0.5 11.2,0.2 16.7,-0.1c0.06667,0.2 0.1,0.36667 0.1,0.5c0,0.33333 0,0.63333 0,0.9c-2.1,0.2 -4.2,0.4 -6.2,0.5c-3.4,0.2 -7.1,1.1 -10.6,0.8z"/></g><g opacity="0.5" style="mix-blend-mode: normal"><path d="M268.85058,150.45001c-4.8,-0.6 -9.6,-1 -14.4,-1.5c0.1,-3.5 0.4,-6.9 0.7,-10.2c2.7,1.1 5.6,1.9 8.2,2.8c2.7,1 5.4,1.9 8,3c-0.5,1.8 -0.7,3.8 -0.7,5.5c0,0.13333 0,0.3 0,0.5c-0.8,0 -1.4,-0.1 -1.8,-0.1z"/></g><g opacity="0.5" style="mix-blend-mode: normal"><path d="M263.15057,189.24999c-2.5,0.7 -5.3,1.2 -7.9,2.2c0,-0.8 -0.03333,-1.6 -0.1,-2.4c5.2,-1.5 10.6,-2.5 15.9,-3.6c0.06667,0.6 0.13333,1.2 0.2,1.8c-2.7,0.6 -5.4,1.4 -8.1,2z"/></g><g opacity="0.5" style="mix-blend-mode: normal"><path d="M273.55058,202.15c-5.5,3.4 -11,7 -16.2,10.7c-0.2,-1.4 -0.36667,-2.86667 -0.5,-4.4c5.4,-2.8 10.7,-6.1 16.2,-8.9c0.06667,0.2 0.13333,0.43333 0.2,0.7c0.06667,0.6 0.16667,1.23333 0.3,1.9z"/></g></g><path d="M269.25058,237.05c-0.7,1.1 -1.2,2.3 -1.8,3.5c-1.86667,-1.46667 -3.43333,-3.3 -4.7,-5.5c1.2,-0.9 2.5,-1.9 3.7,-2.9c4.8,-3.8 9.7,-7.5 14.4,-11.4c-2,3.1 -4,6.1 -6.3,9c-1.8,2.4 -3.6,4.7 -5.3,7.3z" fill="#449199" opacity="0.7" style="mix-blend-mode: multiply"/><path d="M372.25058,239.95002c-1.13333,1 -2.36667,1.83333 -3.7,2.5c-0.13333,-0.2 -0.26667,-0.4 -0.4,-0.6c-1.1,-1.8 -2.3,-3.6 -3.5,-5.3c-1.06667,-1.53333 -2.13333,-3.1 -3.2,-4.7c0.9,1 1.9,2 2.9,2.9c1.7,1.5 3.8,2.5 5.6,3.9c0.7,0.5 1.5,0.9 2.3,1.3z" fill="#449199" opacity="0.7" style="mix-blend-mode: multiply"/><path d="M258.05058,130.35001c-0.9,0.9 -1.6,1.9 -2.2,3c1.6,-7.8 6.2,-13.3 12.3,-15.9c-0.2,0.2 -0.4,0.43333 -0.6,0.7c-1.2,1.7 -0.2,4.5 0.7,6c2.5,4.1 6.2,5.7 10.9,5.9c7.2,0.2 14.5,-0.3 21.6,0.4c7.4,0.7 14.7,1.5 22,2c7.5,0.6 15.1,0.9 22.6,0.3c7,-0.6 14,-2.9 21.1,-2.9c3.4,0.1 7.1,-0.7 7.9,-4.6c0.6,-3.1 -1.5,-7.1 -4.6,-8.2c7.5,2.8 13,9.9 14.3,18.9c0,0.26667 0.03333,0.53333 0.1,0.8c-1,-3.7 -3.2,-7.1 -6.4,-7.2c-2.5,-0.1 -4.8,2.1 -6.2,4c-1.2,1.7 -0.9,3.7 -1.2,5.6c-0.2,1.5 -0.9,2.6 -1.4,4c-1.5,4.1 -1.3,8.5 -1.9,12.7c-0.93333,6.2 -1.66667,12.46667 -2.2,18.8h-95.8c-0.06667,-1.86667 -0.13333,-3.73333 -0.2,-5.6c-0.3,-8.6 -0.9,-17.3 -0.4,-25.9c0.2,-3.2 0.2,-6.1 -1.6,-8.8c-1.8,-2.9 -5.4,-7.2 -8.8,-4z" fill="#d8f2fd" opacity="0.4" style="mix-blend-mode: screen"/><path d="M265.85058,127.95001c-1.9,-1.4 -3.9,-2.8 -5.9,-4.1c0.93333,-1.2 1.93333,-2.26667 3,-3.2c0.2,0.33333 0.4,0.63333 0.6,0.9c1.4,1.9 3.2,3.6 4.9,5.3c3.1,3.4 6.5,6.6 8.8,10.6c-3.2,-3.9 -7.4,-6.6 -11.4,-9.5z" fill="#d8f2fd"/><path d="M372.05058,128.55001c2,-1.9 4.1,-3.8 6,-5.8c0.53333,0.66667 1.06667,1.33333 1.6,2c-0.66667,0.33333 -1.26667,0.7 -1.8,1.1c-2.4,1.6 -4.4,3.7 -6.6,5.4c-2.3,1.7 -5,3.3 -7.6,4.5c2.5,-2.6 5.8,-4.7 8.4,-7.2z" fill="#d8f2fd"/><path d="M380.05058,226.55c-2.5,10 -9.4,17.8 -19.8,17.8h-81.1c-10.5,0 -17.2,-6.8 -19.8,-18.1c1.7,2.6 4,4.1 6.9,2.7c5.4,-2.6 5.1,-9.5 5,-14.4c-0.1,-5.4 0,-10.8 -0.6,-16.2c-0.7,-7.2 -1.2,-14.4 -1.5,-21.6h95.5c-0.13333,1.86667 -0.26667,3.73333 -0.4,5.6c-0.4,6.4 -0.6,12.9 -0.5,19.3c0.2,6.5 0.3,12.9 2.2,19.2c0.3,1 1.8,0.8 2,-0.2c0.5,-2.6 0.9,-5.3 1.5,-7.9c0.2,2.1 0.1,4.2 0.1,6.3c0,2.1 -0.6,4.7 0.6,6.7c1.5,2.5 4.9,4.3 7.7,2.6c0.8,-0.46667 1.53333,-1.06667 2.2,-1.8z" fill="#287c81" opacity="0.4" style="mix-blend-mode: multiply"/><path d="M270.15057,242.25c-1.8,-0.93333 -3.4,-2.16667 -4.8,-3.7c2.5,-2.7 4.8,-5.6 7.4,-8.2c1,-1.06667 2,-2.16667 3,-3.3c-0.9,3.2 -2,6.3 -3.5,9.4c-0.8,1.9 -1.5,3.8 -2.1,5.8z" fill="#d8f2fd" opacity="0.5"/><path d="M374.75058,237.45002c-1.2,1.46667 -2.56667,2.7 -4.1,3.7c-0.13333,-0.13333 -0.26667,-0.26667 -0.4,-0.4c-1.9,-2.4 -3.1,-5.2 -5.2,-7.6c-1.3,-1.5 -2.7,-2.8 -4,-4.3c-0.4,-0.53333 -0.76667,-1.03333 -1.1,-1.5c0.4,0.2 0.9,0.5 1.2,0.6c1.9,0.8 3.5,1.9 5.2,3.2c2.73333,2.13333 5.53333,4.23333 8.4,6.3z" fill="#d8f2fd" opacity="0.5"/><path d="M369.65058,216.15c-1.5,9.1 -7.5,16.6 -16.6,16.6h-66.5c-9.2,0 -14.9,-6.3 -16.6,-16.6c-2.6,-14.8 -5.5,-49.4 -2.9,-72.3c1.1,-10.5 8.6,-16.6 17.7,-16.6h70c9.2,0 16.3,7 17.8,16.6c3.6,24.5 -0.6,58.5 -2.9,72.3z" fill="#6dd2f2"/><g fill="#449199" opacity="0.15" style="mix-blend-mode: multiply"><path d="M369.65058,216.15c-1.5,9.1 -7.5,16.6 -16.6,16.6h-66.5c-9.2,0 -14.9,-6.3 -16.6,-16.6c-2.6,-14.8 -5.5,-49.4 -2.9,-72.3c0.8,-7.3 4.6,-12.5 10,-14.9c-0.33333,0.33333 -0.6,0.73333 -0.8,1.2c-1.7,3 -5.7,7.2 -4.7,10.3c1.1,3.9 4,14.7 3.7,18.7c-2.3,27.6 28.3,21 42,21.4c14.6,0.4 35.7,4.2 45,-7.5c4.7,-6.1 6.8,-30 3.7,-37.5c-0.9,-2.3 -8.8,-6.8 -10.7,-8.3c8.9,0.3 15.9,7.2 17.3,16.6c3.6,24.5 -0.6,58.5 -2.9,72.3z" style="mix-blend-mode: normal"/></g><g fill="#449199" opacity="0.15" style="mix-blend-mode: multiply"><path d="M369.65058,216.15c-1.5,9.1 -7.5,16.6 -16.6,16.6h-66.5c-9.2,0 -14.9,-6.3 -16.6,-16.6c-2.6,-14.8 -5.5,-49.4 -2.9,-72.3c0.13333,-1.4 0.4,-2.7 0.8,-3.9c0,0.26667 0,0.53333 0,0.8c0.1,6 1.3,12 2.5,17.9c3.5,16.9 -4.3,31.6 10.3,41.8c12.9,9 67.5,7.1 80.4,0c15.8,-8.7 3.1,-24.2 7.5,-41.1c1.7,-6.5 2.5,-13 0.9,-19.6c-0.7,-2.8 -1.9,-5.5 -3.3,-8.1c3.3,3 5.6,7.2 6.4,12.2c3.6,24.5 -0.6,58.5 -2.9,72.3z" style="mix-blend-mode: normal"/></g><path d="M267.05058,143.85001c0.4,-4.7 1.7,-9 5,-12.5c3.9,-4.1 9.1,-5.2 14.5,-5.4c12.6,-0.3 25.1,-0.5 37.7,-0.4c10.3,0 20.7,-0.1 31,0.5c9.7,0.7 16.1,8.4 17.3,17.8c-2.3,-8.5 -8.5,-15.4 -17.8,-15.3c-9.7,0 -19.9,0.4 -29.7,0.4c-12.1,0.1 -24.2,0 -36.3,-0.3c-5.6,-0.2 -10.9,-0.1 -15.4,3.6c-3.5,3 -5.3,7.2 -6.3,11.6z" fill="#d8f2fd"/><path d="M372.55058,143.85001c3.5,22 2.2,44.7 -0.7,66.7c-1.2,9.2 -3.4,19.4 -13.4,22.9c-4.2,1.5 -9,1 -13.4,1c-6.4,0 -12.8,0 -19.2,0c-12.4,0.1 -24.7,0.1 -37.1,0c-3.8,0 -7.4,-0.3 -10.8,-2.2c-5,-2.8 -7.8,-8.2 -9,-13.6c-1.3,-5.8 -1.8,-11.8 -2.3,-17.7c-0.5,-6.1 -0.9,-12.2 -1.1,-18.3c-0.3,-11.2 -0.3,-22.5 0.9,-33.6c0.2,-1.73333 0.4,-3.46667 0.6,-5.2c-1,22.2 -0.1,44.8 3.4,66.7c0.9,5.5 1.6,11.3 5.3,15.7c2.7,3.4 6.7,4.9 10.9,4.8c11,-0.1 22.1,0 33.1,-0.1c6.4,0.06667 12.8,0.1 19.2,0.1c5.4,0 11.2,0.6 16.6,-0.2c8.8,-1.3 11.9,-10.3 13.1,-17.8c3.8,-22.5 6,-45.9 3.9,-68.8c0,-0.13333 0,-0.26667 0,-0.4z" fill="#d8f2fd" opacity="0.5"/><path d="M288.25058,146.85001c-2.5,1.7 -10.6,7.6 -13.5,3.6c-1.3,-1.9 -0.2,-5.6 0.5,-7.5c1.9,-5.5 16,-16.3 19,-6.1c1.3,4.1 -3.1,7.9 -6,10z" fill="#d8f2fd"/><path d="M305.55058,137.85001c-1.4,2.6 -6.5,6.6 -6.8,1c-0.1,-3.4 3.9,-5.4 6.1,-4.8c1.3,0.3 1.9,1.5 0.7,3.8z" fill="#d8f2fd"/></g><g><path d="M341.35058,190.35c0,9.5 -9.3,17.2 -20.8,17.2c-11.5,0 -20.8,-7.7 -20.8,-17.2c0,-5.5 2.9,-10.4 8,-13.7c-2.5,-2.6 -3.9,-6 -3.9,-9.6c0,-8 7.1,-14.5 15.8,-14.5c8.7,0 15.8,6.5 15.8,14.5c0,3.3 -1.1,6.4 -3.3,9c5.7,3.1 9.2,8.5 9.2,14.3zM316.85058,190.35c0,1.3 1.2,2.3 2.7,2.3c1.5,0 2.7,-1 2.7,-2.3c0,-1.3 -1.2,-2.3 -2.7,-2.3c-1.5,0 -2.7,1 -2.7,2.3zM321.05058,168.65c0,-1.1 -1,-2.1 -2.2,-2.1c-1.2,0 -2.2,1 -2.2,2.1c0,1.2 1,2.1 2.2,2.1c1.2,0 2.2,-0.9 2.2,-2.1z" fill="#0c4399" fill-rule="evenodd"/><g fill="#1d80d5" fill-rule="evenodd"><path d="M339.75058,190.35c0,8.7 -8.6,15.7 -19.2,15.7c-10.7,0 -19.3,-7 -19.3,-15.7c0,-5.7 3.7,-10.6 9.2,-13.4c-3.1,-2.4 -5,-5.9 -5,-9.9c0,-7.1 6.3,-13 14.2,-13c7.9,0 14.3,5.9 14.3,13c0,3.7 -1.7,7 -4.4,9.4c6.1,2.6 10.2,7.9 10.2,13.9zM315.05058,168.65c0,2 1.7,3.6 3.8,3.6c2.1,0 3.7,-1.6 3.7,-3.6c0,-2 -1.6,-3.6 -3.7,-3.6c-2.1,0 -3.8,1.6 -3.8,3.6zM323.75058,190.35c0,-2.2 -1.9,-3.9 -4.2,-3.9c-2.3,0 -4.2,1.7 -4.2,3.9c0,2.1 1.9,3.8 4.2,3.8c2.3,0 4.2,-1.7 4.2,-3.8z"/></g><g fill="#27a8f1" fill-rule="evenodd"><path d="M305.45058,167.05c0,-7.1 6.3,-13 14.2,-13c7.9,0 14.3,5.9 14.3,13c0,3.7 -1.7,7 -4.4,9.4c3.2,1.4 5.9,3.5 7.7,6.1c-1.46667,0.33333 -2.93333,0.6 -4.4,0.8c-9.2,1.4 -17.8,0.2 -26.8,-2.2c-0.26667,-0.06667 -0.56667,-0.16667 -0.9,-0.3c1.4,-1.5 3.2,-2.9 5.3,-3.9c-3.1,-2.4 -5,-5.9 -5,-9.9zM315.05058,168.65c0,2 1.7,3.6 3.8,3.6c2.1,0 3.7,-1.6 3.7,-3.6c0,-2 -1.6,-3.6 -3.7,-3.6c-2.1,0 -3.8,1.6 -3.8,3.6z"/></g><g fill="#ffffff" fill-rule="nonzero"><path d="M305.45058,168.05c0,-0.33333 0,-0.66667 0,-1c0,-7.1 6.3,-13 14.2,-13c7.9,0 14.3,5.9 14.3,13c0,0.33333 -0.03333,0.66667 -0.1,1c-0.5,-6.8 -6.6,-12.1 -14.2,-12.1c-7.5,0 -13.7,5.3 -14.2,12.1z"/></g><g fill="#ffffff" fill-rule="nonzero"><path d="M323.65057,191.24999c0.1,0.3 0.1,0 0.1,0.3c0,2.1 -1.9,3.9 -4.2,3.9c-2.3,0 -4.2,-1.8 -4.2,-3.9c0,-0.3 0.1,0 0.1,-0.3c0.5,1.7 2.1,2.9 4.1,2.9c2,0 3.6,-1.2 4.1,-2.9z"/></g><g fill="#ffffff" fill-rule="nonzero"><path d="M315.05058,169.94999c0,-0.4 0.1,-0.1 0.2,-0.4c0.4,1.6 1.9,2.7 3.6,2.7c1.7,0 3.2,-1.1 3.6,-2.7c0.1,0.3 0.1,0 0.1,0.4c0,2 -1.6,3.6 -3.7,3.6c-2.1,0 -3.8,-1.6 -3.8,-3.6z"/></g><g fill="#ffffff" fill-rule="nonzero"><path d="M301.25058,191.24999c0,-0.33333 0,-0.63333 0,-0.9c0.4,-7.9 4.4,-10.6 9.2,-13.4c0.3,0.4 0.4,0.4 0.8,0.8c-6.8,2.7 -9.6,8.2 -10,13.5z"/></g><g fill="#ffffff" fill-rule="nonzero"><path d="M339.75058,190.35c0.1,0.3 0,0.6 0,0.9c-0.6,-7.1 -5.1,-11.6 -10.9,-14.1c0.5,-0.4 0.3,-0.3 0.7,-0.7c5.4,2.8 9.8,5.6 10.2,13.9z"/></g><path d="M308.15057,200.05c1,0.7 2.1,1.3 3.1,1.8c0.5,0.3 1,0.5 1.5,0.7c0.4,0.13333 0.76667,0.26667 1.1,0.4c1.2,0.5 2.8,0.9 4.5,1.1c1.7,0.1 3.6,0.1 5.4,-0.2c1.9,-0.3 3.7,-1 5.3,-1.7c1.5,-0.9 2.9,-1.8 3.9,-2.8c2,-2 2.6,-3.2 3,-3.6c0.5,-0.5 0.6,-0.4 0.7,-0.3c0.1,0.1 0.3,0.3 0.1,1.1c-0.3,0.8 -0.8,2.2 -2.7,4c-0.9,0.9 -2.3,2 -4.1,2.9c-1.8,0.9 -3.9,1.7 -6,2c-1.1,0.2 -2.2,0.3 -3.3,0.3c-1,0 -2,-0.1 -2.9,-0.2c-1.9,-0.2 -3.4,-0.7 -4.4,-1c-1.9,-0.7 -4.5,-2.1 -6.3,-3.7c-1.8,-1.6 -2.9,-3.1 -2.7,-3.3c0.3,-0.2 1.8,1.2 3.8,2.5zM337.85058,189.55c0.2,0 0.4,0.1 0.7,0.6c0.2,0.5 0.5,1.4 0.2,2.5c-0.4,1.2 -0.8,1.5 -1,1.5c-0.2,0 -0.4,-0.4 -0.3,-0.9c0.1,-1.3 0,-2.1 0.1,-2.7c0,-0.6 0.2,-0.9 0.3,-1z" fill="#50bcf8" fill-rule="evenodd"/></g></g></g></svg>