<svg version="1.1" xmlns="http://www.w3.org/2000/svg" xmlns:xlink="http://www.w3.org/1999/xlink" width="248.17547" height="96.14316" viewBox="0,0,248.17547,96.14316"><g transform="translate(-115.91226,-131.92842)"><g data-paper-data="{&quot;isPaintingLayer&quot;:true}" stroke="none" stroke-width="1" stroke-linecap="butt" stroke-linejoin="miter" stroke-miterlimit="10" stroke-dasharray="" stroke-dashoffset="0" style="mix-blend-mode: normal"><path d="M194.09415,160.26671c0,1.48012 -1.19988,2.68 -2.68,2.68c-1.48012,0 -2.68,-1.19988 -2.68,-2.68c0,-1.48012 1.19987,-2.68 2.68,-2.68c1.48012,0 2.68,1.19988 2.68,2.68M282.96013,160.26671c0.00027,1.48012 -1.19938,2.68023 -2.6795,2.6805c-1.48012,0.00027 -2.68023,-1.19938 -2.6805,-2.6795c0,-1.48012 1.19988,-2.68 2.68,-2.68c1.48012,0 2.68,1.19988 2.68,2.68" fill="#fafcfb" fill-rule="evenodd"/><path d="M358.38176,196.87179c0,17.23165 -13.96814,31.19979 -31.19979,31.19979h-180.06991c-17.22752,0 -31.19979,-13.96814 -31.19979,-31.19979v-27.45441c0,-17.23165 13.97021,-31.20186 31.19979,-31.20186h180.07198c17.22958,0 31.19772,13.97021 31.19772,31.20186z" data-paper-data="{&quot;origPos&quot;:null}" fill="#402e09" fill-rule="evenodd"/><path d="M364.08773,191.16789c0,17.23165 -13.97021,31.1998 -31.19979,31.1998h-180.0699c-17.23165,0 -31.19979,-13.96815 -31.19979,-31.1998v-27.45441c0,-17.23165 13.96814,-31.20186 31.19979,-31.20186h180.06991c17.22958,0 31.19979,13.97021 31.19979,31.20186z" data-paper-data="{&quot;origPos&quot;:null}" fill="#ffb726" fill-rule="evenodd"/><path d="M351.25086,190.96522c0,10.25349 -8.31209,18.5656 -18.56559,18.5656h-179.66869c-4.92335,-0.00055 -9.64484,-1.95687 -13.12579,-5.43859c-3.48095,-3.48173 -5.43622,-8.20365 -5.43566,-13.127v-27.05112c-0.00109,-4.92371 1.95392,-9.64616 5.43493,-13.12833c3.48101,-3.48217 8.20281,-5.43877 13.12652,-5.43932h179.66869c10.2535,0 18.56559,8.31209 18.56559,18.56559z" data-paper-data="{&quot;origPos&quot;:null}" fill="#efd35e" fill-rule="evenodd"/><path d="M134.28139,215.87583c-8.05122,-5.64806 -13.32496,-14.99393 -13.32496,-25.55173v-27.19382c0,-17.20477 13.99296,-31.20186 31.19979,-31.20186h166.96211c-22.94382,2.78784 -45.60431,7.90439 -67.69813,14.59065c-25.03677,7.57763 -49.19251,17.51498 -71.53658,31.18738c-10.5123,6.43188 -20.46,13.75306 -29.91135,21.64917c-6.06375,5.06071 -11.51327,10.25172 -15.69089,16.51815" data-paper-data="{&quot;origPos&quot;:null}" fill="#fafcfb" fill-rule="evenodd" opacity="0.503"/><text transform="translate(173.00991,172.28817) scale(0.64265,0.64265)" font-size="40" xml:space="preserve" data-paper-data="{&quot;origPos&quot;:null}" fill="#000000" fill-rule="nonzero" stroke="none" stroke-width="1" stroke-linecap="butt" stroke-linejoin="miter" stroke-miterlimit="10" stroke-dasharray="" stroke-dashoffset="0" font-family="Sans Serif" font-weight="normal" text-anchor="start" style="mix-blend-mode: normal"><tspan x="0" dy="0">ADDITION </tspan><tspan x="0" dy="48px"> with ninja</tspan></text></g></g></svg>