<svg version="1.1" xmlns="http://www.w3.org/2000/svg" xmlns:xlink="http://www.w3.org/1999/xlink" width="118.727" height="127.52952" viewBox="0,0,118.727,127.52952"><g transform="translate(-180.39501,-112.47149)"><g data-paper-data="{&quot;isPaintingLayer&quot;:true}" stroke="none" stroke-width="1" stroke-linecap="butt" stroke-linejoin="miter" stroke-miterlimit="10" stroke-dasharray="" stroke-dashoffset="0" style="mix-blend-mode: normal"><path d="M299.12201,219.857c0,11.079 -8.968,20.144 -19.93,20.144h-78.87c-10.959,-0.001 -19.927,-9.065 -19.927,-20.144v-79.714c-0.001,-11.08 8.967,-20.143 19.928,-20.143h78.869c10.962,0 19.93,9.063 19.93,20.142v79.714z" fill="#ffffff" fill-rule="evenodd"/><path d="M297.89,219.03c0,10.848 -8.782,19.725 -19.516,19.725h-77.232c-10.733,0 -19.515,-8.877 -19.515,-19.726v-78.059c0,-10.847 8.781,-19.723 19.515,-19.723h77.231c10.734,0 19.516,8.876 19.516,19.723v78.06z" fill="#f9ecc3" fill-rule="evenodd"/><path d="M290.41601,211.99c0,9.354 -7.653,17.006 -17.007,17.006h-67.302c-9.353,0 -17.006,-7.652 -17.006,-17.006v-67.303c0,-9.353 7.653,-17.006 17.006,-17.006h67.302c9.354,0 17.007,7.653 17.007,17.006z" fill="#efb469" fill-rule="evenodd"/><path d="M290.41601,215.312c0,9.354 -7.653,17.007 -17.007,17.007h-67.302c-9.353,0 -17.006,-7.653 -17.006,-17.007v-67.302c0,-9.353 7.653,-17.006 17.006,-17.006h67.302c9.354,0 17.007,7.653 17.007,17.006z" fill="#efb469" fill-rule="evenodd"/><path d="M289.58501,214.76c0,9.2 -7.527,16.729 -16.728,16.729h-66.2c-9.2,0 -16.726,-7.53 -16.726,-16.728v-66.2c0,-9.2 7.527,-16.727 16.727,-16.727h66.199c9.2,0 16.728,7.528 16.728,16.728z" fill="#f3db95" fill-rule="evenodd"/><path d="M221.63601,160.328c0,3.292 -2.693,5.984 -5.985,5.984h-13.377c-3.292,0 -5.986,-2.692 -5.986,-5.984v-13.378c0,-3.29 2.694,-5.984 5.986,-5.984h13.377c3.292,0 5.985,2.693 5.985,5.984z" fill="#ffffff" fill-rule="evenodd"/><path d="M219.52301,158.76c0,2.992 -2.448,5.44 -5.44,5.44h-10.24c-2.994,0 -5.442,-2.448 -5.442,-5.44v-10.241c0,-2.992 2.448,-5.441 5.441,-5.441h10.241c2.992,0 5.44,2.449 5.44,5.44z" fill="#4adbff" fill-rule="evenodd"/><path d="M219.52301,159.071c0,2.82 -2.308,5.13 -5.129,5.13h-10.863c-2.82,0 -5.13,-2.31 -5.13,-5.13v-8.518c0,-2.82 2.31,-5.128 5.13,-5.128h10.863c2.821,0 5.13,2.308 5.13,5.128v8.518z" fill="#00ccff" fill-rule="evenodd"/><path d="M201.47301,141.637c0.505,0.169 0.768,0.77 0.768,0.77c-4.321,1.439 -4.224,5.087 -4.224,5.087c0,0 -1.368,0.672 -1.152,-0.096c-0.216,-4.704 4.104,-5.928 4.608,-5.76M196.76901,148.263c-0.144,0.432 0.192,2.16 0.864,1.92c0.672,-0.24 0.24,-1.968 0.24,-1.968c0,0 -0.959,-0.384 -1.103,0.048M216.56401,165.841c-0.506,-0.168 -0.77,-0.768 -0.77,-0.768c4.322,-1.44 4.225,-5.088 4.225,-5.088c0,0 1.368,-0.672 1.152,0.095c0.216,4.705 -4.104,5.929 -4.608,5.76M221.26701,159.216c0.144,-0.432 -0.192,-2.16 -0.864,-1.92c-0.672,0.24 -0.24,1.968 -0.24,1.968c0,0 0.959,0.385 1.104,-0.048" fill="#00b0dc" fill-rule="evenodd" opacity="0.5"/><path d="M253.04001,160.328c0,3.292 -2.692,5.984 -5.984,5.984h-13.378c-3.291,0 -5.985,-2.692 -5.985,-5.984v-13.378c0,-3.29 2.694,-5.984 5.985,-5.984h13.378c3.292,0 5.985,2.693 5.985,5.984v13.378z" fill="#ffffff" fill-rule="evenodd"/><path d="M250.92801,158.76c0,2.992 -2.448,5.44 -5.44,5.44h-10.241c-2.993,0 -5.441,-2.448 -5.441,-5.44v-10.241c0,-2.992 2.448,-5.441 5.44,-5.441h10.242c2.992,0 5.44,2.449 5.44,5.44z" fill="#4adbff" fill-rule="evenodd"/><path d="M250.92801,159.071c0,2.82 -2.308,5.13 -5.13,5.13h-10.861c-2.821,0 -5.13,-2.31 -5.13,-5.13v-8.518c0,-2.82 2.309,-5.128 5.13,-5.128h10.863c2.82,0 5.129,2.308 5.129,5.128v8.518z" fill="#00ccff" fill-rule="evenodd"/><path d="M232.87801,141.637c0.504,0.169 0.768,0.77 0.768,0.77c-4.321,1.439 -4.224,5.087 -4.224,5.087c0,0 -1.368,0.672 -1.152,-0.096c-0.216,-4.704 4.104,-5.928 4.608,-5.76M228.17401,148.263c-0.144,0.432 0.191,2.16 0.864,1.92c0.672,-0.24 0.24,-1.968 0.24,-1.968c0,0 -0.959,-0.384 -1.104,0.048M247.96801,165.841c-0.505,-0.168 -0.769,-0.768 -0.769,-0.768c4.322,-1.44 4.225,-5.088 4.225,-5.088c0,0 1.368,-0.672 1.152,0.095c0.216,4.705 -4.104,5.929 -4.608,5.76M252.67201,159.216c0.144,-0.432 -0.192,-2.16 -0.864,-1.92c-0.673,0.24 -0.24,1.968 -0.24,1.968c0,0 0.959,0.385 1.104,-0.048" fill="#00b0dc" fill-rule="evenodd" opacity="0.5"/><path d="M284.44401,160.328c0,3.292 -2.692,5.984 -5.984,5.984h-13.378c-3.29,0 -5.985,-2.692 -5.985,-5.984v-13.378c0,-3.29 2.694,-5.984 5.985,-5.984h13.378c3.292,0 5.984,2.693 5.984,5.984z" fill="#ffffff" fill-rule="evenodd"/><path d="M282.332,158.76c0,2.992 -2.448,5.44 -5.44,5.44h-10.242c-2.992,0 -5.44,-2.448 -5.44,-5.44v-10.241c0,-2.992 2.448,-5.441 5.44,-5.441h10.242c2.992,0 5.44,2.449 5.44,5.44z" fill="#4adbff" fill-rule="evenodd"/><path d="M282.332,159.071c0,2.82 -2.31,5.13 -5.13,5.13h-10.862c-2.821,0 -5.13,-2.31 -5.13,-5.13v-8.518c0,-2.82 2.309,-5.128 5.13,-5.128h10.863c2.82,0 5.129,2.308 5.129,5.128z" fill="#00ccff" fill-rule="evenodd"/><path d="M264.28201,141.637c0.504,0.169 0.768,0.77 0.768,0.77c-4.321,1.439 -4.224,5.087 -4.224,5.087c0,0 -1.368,0.672 -1.152,-0.096c-0.216,-4.704 4.104,-5.928 4.608,-5.76M259.57801,148.263c-0.144,0.432 0.191,2.16 0.864,1.92c0.672,-0.24 0.24,-1.968 0.24,-1.968c0,0 -0.96,-0.384 -1.104,0.048M279.37101,165.841c-0.504,-0.168 -0.768,-0.768 -0.768,-0.768c4.322,-1.44 4.225,-5.088 4.225,-5.088c0,0 1.368,-0.672 1.152,0.095c0.216,4.705 -4.104,5.929 -4.61,5.76M284.07601,159.216c0.144,-0.432 -0.192,-2.16 -0.864,-1.92c-0.673,0.24 -0.24,1.968 -0.24,1.968c0,0 0.959,0.385 1.104,-0.048" fill="#00b0dc" fill-rule="evenodd" opacity="0.5"/><path d="M221.63601,189.678c0,3.292 -2.693,5.985 -5.985,5.985h-13.377c-3.292,0 -5.986,-2.693 -5.986,-5.985v-13.378c0,-3.292 2.694,-5.985 5.986,-5.985h13.377c3.292,0 5.985,2.693 5.985,5.985v13.377z" fill="#ffffff" fill-rule="evenodd"/><path d="M219.52301,188.11c0,2.992 -2.448,5.44 -5.44,5.44h-10.24c-2.994,0 -5.442,-2.448 -5.442,-5.44v-10.24c0,-2.993 2.448,-5.442 5.441,-5.442h10.241c2.992,0 5.44,2.449 5.44,5.442z" fill="#4adbff" fill-rule="evenodd"/><path d="M219.52301,188.421c0,2.821 -2.308,5.129 -5.129,5.129h-10.863c-2.82,0 -5.13,-2.308 -5.13,-5.129v-8.517c0,-2.821 2.31,-5.129 5.13,-5.129h10.863c2.821,0 5.13,2.308 5.13,5.129v8.517z" fill="#00ccff" fill-rule="evenodd"/><path d="M201.47301,170.988c0.505,0.168 0.768,0.768 0.768,0.768c-4.321,1.44 -4.224,5.087 -4.224,5.087c0,0 -1.368,0.673 -1.152,-0.095c-0.216,-4.704 4.104,-5.929 4.608,-5.76M196.76901,177.612c-0.144,0.432 0.192,2.16 0.864,1.92c0.672,-0.24 0.24,-1.968 0.24,-1.968c0,0 -0.959,-0.384 -1.103,0.048M216.56401,195.19c-0.506,-0.168 -0.77,-0.768 -0.77,-0.768c4.322,-1.44 4.225,-5.088 4.225,-5.088c0,0 1.368,-0.672 1.152,0.096c0.216,4.705 -4.104,5.929 -4.608,5.76M221.26701,188.566c0.144,-0.433 -0.192,-2.161 -0.864,-1.921c-0.672,0.24 -0.24,1.968 -0.24,1.968c0,0 0.959,0.385 1.104,-0.047" fill="#00b0dc" fill-rule="evenodd" opacity="0.5"/><path d="M253.04001,189.678c0,3.292 -2.692,5.985 -5.984,5.985h-13.378c-3.291,0 -5.985,-2.693 -5.985,-5.985v-13.378c0,-3.292 2.694,-5.985 5.985,-5.985h13.378c3.292,0 5.985,2.693 5.985,5.985v13.377z" fill="#ffffff" fill-rule="evenodd"/><path d="M250.92801,188.11c0,2.992 -2.448,5.44 -5.44,5.44h-10.241c-2.993,0 -5.441,-2.448 -5.441,-5.44v-10.24c0,-2.993 2.448,-5.442 5.44,-5.442h10.242c2.992,0 5.44,2.449 5.44,5.442z" fill="#4adbff" fill-rule="evenodd"/><path d="M250.92801,188.421c0,2.821 -2.308,5.129 -5.13,5.129h-10.861c-2.821,0 -5.13,-2.308 -5.13,-5.129v-8.517c0,-2.821 2.309,-5.129 5.13,-5.129h10.863c2.82,0 5.129,2.308 5.129,5.129v8.517z" fill="#00ccff" fill-rule="evenodd"/><path d="M232.87801,170.988c0.504,0.168 0.768,0.768 0.768,0.768c-4.321,1.44 -4.224,5.087 -4.224,5.087c0,0 -1.368,0.673 -1.152,-0.095c-0.216,-4.704 4.104,-5.929 4.608,-5.76M228.17401,177.612c-0.144,0.432 0.191,2.16 0.864,1.92c0.672,-0.24 0.24,-1.968 0.24,-1.968c0,0 -0.959,-0.384 -1.104,0.048M247.96801,195.19c-0.505,-0.168 -0.769,-0.768 -0.769,-0.768c4.322,-1.44 4.225,-5.088 4.225,-5.088c0,0 1.368,-0.672 1.152,0.096c0.216,4.705 -4.104,5.929 -4.608,5.76M252.67201,188.566c0.144,-0.433 -0.192,-2.161 -0.864,-1.921c-0.673,0.24 -0.24,1.968 -0.24,1.968c0,0 0.959,0.385 1.104,-0.047" fill="#00b0dc" fill-rule="evenodd" opacity="0.5"/><path d="M284.44401,189.678c0,3.292 -2.692,5.985 -5.984,5.985h-13.378c-3.29,0 -5.985,-2.693 -5.985,-5.985v-13.378c0,-3.292 2.694,-5.985 5.985,-5.985h13.378c3.292,0 5.984,2.693 5.984,5.985v13.377z" fill="#ffffff" fill-rule="evenodd"/><path d="M282.332,188.11c0,2.992 -2.448,5.44 -5.44,5.44h-10.242c-2.992,0 -5.44,-2.448 -5.44,-5.44v-10.24c0,-2.993 2.448,-5.442 5.44,-5.442h10.242c2.992,0 5.44,2.449 5.44,5.442z" fill="#4adbff" fill-rule="evenodd"/><path d="M282.332,188.421c0,2.821 -2.31,5.129 -5.13,5.129h-10.862c-2.821,0 -5.13,-2.308 -5.13,-5.129v-8.517c0,-2.821 2.309,-5.129 5.13,-5.129h10.863c2.82,0 5.129,2.308 5.129,5.129z" fill="#00ccff" fill-rule="evenodd"/><path d="M264.28201,170.988c0.504,0.168 0.768,0.768 0.768,0.768c-4.321,1.44 -4.224,5.087 -4.224,5.087c0,0 -1.368,0.673 -1.152,-0.095c-0.216,-4.704 4.104,-5.929 4.608,-5.76M259.57801,177.612c-0.144,0.432 0.191,2.16 0.864,1.92c0.672,-0.24 0.24,-1.968 0.24,-1.968c0,0 -0.96,-0.384 -1.104,0.048M279.37101,195.19c-0.504,-0.168 -0.768,-0.768 -0.768,-0.768c4.322,-1.44 4.225,-5.088 4.225,-5.088c0,0 1.368,-0.672 1.152,0.096c0.216,4.705 -4.104,5.929 -4.61,5.76M284.07601,188.566c0.144,-0.433 -0.192,-2.161 -0.864,-1.921c-0.673,0.24 -0.24,1.968 -0.24,1.968c0,0 0.959,0.385 1.104,-0.047" fill="#00b0dc" fill-rule="evenodd" opacity="0.5"/><path d="M221.63601,219.028c0,3.291 -2.693,5.984 -5.985,5.984h-13.377c-3.292,0 -5.986,-2.692 -5.986,-5.984v-13.378c0,-3.291 2.694,-5.985 5.986,-5.985h13.377c3.292,0 5.985,2.694 5.985,5.985v13.377z" fill="#ffffff" fill-rule="evenodd"/><path d="M219.52301,217.46c0,2.992 -2.448,5.44 -5.44,5.44h-10.24c-2.994,0 -5.442,-2.448 -5.442,-5.44v-10.24c0,-2.993 2.448,-5.442 5.441,-5.442h10.241c2.992,0 5.44,2.45 5.44,5.441v10.24z" fill="#4adbff" fill-rule="evenodd"/><path d="M219.52301,217.77c0,2.822 -2.308,5.13 -5.129,5.13h-10.863c-2.82,0 -5.13,-2.308 -5.13,-5.13v-8.516c0,-2.821 2.31,-5.13 5.13,-5.13h10.863c2.821,0 5.13,2.309 5.13,5.13v8.517z" fill="#00ccff" fill-rule="evenodd"/><path d="M201.47301,200.338c0.505,0.168 0.768,0.768 0.768,0.768c-4.321,1.44 -4.224,5.087 -4.224,5.087c0,0 -1.368,0.673 -1.152,-0.095c-0.216,-4.704 4.104,-5.928 4.608,-5.76M196.76901,206.962c-0.144,0.433 0.192,2.161 0.864,1.92c0.672,-0.24 0.24,-1.968 0.24,-1.968c0,0 -0.959,-0.384 -1.103,0.048M216.56401,224.54c-0.506,-0.168 -0.77,-0.768 -0.77,-0.768c4.322,-1.44 4.225,-5.087 4.225,-5.087c0,0 1.368,-0.673 1.152,0.095c0.216,4.704 -4.104,5.93 -4.608,5.76M221.26701,217.916c0.144,-0.433 -0.192,-2.16 -0.864,-1.92c-0.672,0.239 -0.24,1.968 -0.24,1.968c0,0 0.959,0.384 1.104,-0.048" fill="#00b0dc" fill-rule="evenodd" opacity="0.5"/><path d="M280.20702,126.89554c0.0135,4.83343 -2.65727,8.75928 -5.96773,8.76873l-68.61136,0.20446c-3.30776,0.00945 -6.00282,-3.89954 -6.01631,-8.73432l-0.01754,-5.68972c-0.01552,-4.83343 2.6566,-8.75996 5.96638,-8.76873l68.61069,-0.20446c3.30978,-0.00945 6.00484,3.90089 6.01901,8.73432z" data-paper-data="{&quot;origPos&quot;:null}" fill="#ffffff" fill-rule="evenodd"/><path d="M278.57676,126.63845c0,4.19577 -2.57428,7.59664 -5.75113,7.59664h-65.85017c-3.17685,0 -5.7518,-3.40088 -5.7518,-7.59664v-4.93735c0,-4.19509 2.57495,-7.59597 5.7518,-7.59597h65.85017c3.17685,0 5.75113,3.40088 5.75113,7.59597z" data-paper-data="{&quot;origPos&quot;:null}" fill="#e4353a" fill-rule="evenodd"/><path d="M272.09215,114.75089c3.106,0 5.62359,3.18292 5.62359,7.10945v4.6202c0,3.92585 -2.51759,7.10878 -5.62359,7.10878h-64.38456c-3.106,0 -5.62427,-3.18292 -5.62427,-7.10878v-4.6202c0,-3.92653 2.51827,-7.10945 5.62427,-7.10945z" data-paper-data="{&quot;origPos&quot;:null}" fill="none" fill-rule="evenodd"/><path d="M201.27561,131.81264c0,0 59.46003,-0.26991 68.64915,-0.80973c9.18912,-0.54117 9.18912,-7.02713 9.18912,-7.02713c1.35158,-1.62216 -1.07964,13.24318 -2.97239,13.51309c-1.89208,0.27059 -72.9738,-0.53982 -72.9738,-0.53982z" data-paper-data="{&quot;origPos&quot;:null}" fill="#603813" fill-rule="evenodd" opacity="0.2"/><text transform="translate(215.64207,129.93048) scale(0.39826,0.39826)" font-size="40" xml:space="preserve" data-paper-data="{&quot;origPos&quot;:null}" fill="#ffffff" fill-rule="nonzero" stroke="none" stroke-width="1" stroke-linecap="butt" stroke-linejoin="miter" stroke-miterlimit="10" stroke-dasharray="" stroke-dashoffset="0" font-family="Marker" font-weight="normal" text-anchor="start" style="mix-blend-mode: normal"><tspan x="0" dy="0">LEVELS</tspan></text></g></g></svg>