<svg version="1.1" xmlns="http://www.w3.org/2000/svg" xmlns:xlink="http://www.w3.org/1999/xlink" width="550.835" height="366.524" viewBox="0,0,550.835,366.524"><g transform="translate(36,3.835)"><g data-paper-data="{&quot;isPaintingLayer&quot;:true}" fill-rule="evenodd" stroke="none" stroke-width="1" stroke-linecap="butt" stroke-linejoin="miter" stroke-miterlimit="10" stroke-dasharray="" stroke-dashoffset="0" style="mix-blend-mode: normal"><path d="M-36,-3.816h550.816v366.45h-550.816v-178.81z" fill="#d1ecf0"/><path d="M410.62,-3.817c36.57033,12.98152 71.53084,30.11517 104.196,51.065v300.672h-550.816v-300.69c32.66976,-20.9369 67.62946,-38.06412 104.196,-51.047z" fill="#d8eff3"/><path d="M239.408,54.742c105.224,0 201.47,38.422 275.408,101.965v191.213h-550.816v-191.213c73.938,-63.543 170.184,-101.965 275.408,-101.965z" fill="#e0f2f6"/><path d="M514.816,287.31v60.592h-550.816v-60.592c60.26,-87.344 161.114,-144.62 275.408,-144.62c114.295,0 215.149,57.276 275.408,144.62z" fill="#e6f5f7"/><path d="M48.367,85.358c3.36,-0.037 6.132,2.638 6.206,5.991c0.055,3.353 -2.645,6.12 -6.005,6.175l-17.02,0.33l-5.801,9.198l24.86,142.732h-42.413l-30.883,-177.307l-5.287,-1.557l-8.024,6.76v-21.84l8.189,2.42c0.092,0.037 0.202,0.055 0.294,0.092l2.478,0.732l-10.961,-62.901h42.414l16.229,92.969l13.33,-21.145c1.781,-2.84 5.564,-3.701 8.409,-1.905c1.36841,0.85761 2.33902,2.22477 2.69741,3.79943c0.35839,1.57466 0.07505,3.22722 -0.78741,4.59257l-6.977,11.048l9.052,-0.183z" fill="#c3e7ea"/><path d="M136.957,65.79c5.067,0 9.18,4.105 9.18,9.162c0,13.668 -5.545,26.036 -14.524,34.996c-5.89566,5.89363 -13.18336,10.20405 -21.188,12.532l-19.627,215.675h-61.306l24.198,-265.933c-10.52,-4.16 -19.113,-11.544 -24.842,-20.686c-6.921,-11.049 -9.694,-24.699 -6.701,-38.422c0.66,-4.398 4.48,-7.77 9.07,-7.77c5.067,0 9.18,4.105 9.18,9.162v0.953l-0.257,1.081c-2.093,9.033 -0.312,18.047 4.26,25.34c2.78858,4.43763 6.57344,8.16394 11.054,10.883l5.141,-56.58h61.306l-9.603,105.684c2.31055,-1.35547 4.43929,-2.99933 6.335,-4.892c5.86679,-5.82519 9.15911,-13.75549 9.143,-22.023c0,-5.057 4.113,-9.162 9.18,-9.162z" fill="#abdde0"/><path d="M432.378,22.293c0.055,3.353 -2.645,6.12 -6.005,6.174l-17.02,0.33l-7.381,11.708l17.443,219.522h-40.393l-13.587,-171.187l-5.416,-2.162l-13.973,9.748c-2.754,1.924 -6.554,1.246 -8.482,-1.503c-1.928,-2.748 -1.249,-6.541 1.505,-8.465l7.418,-5.167l-12.155,-4.837c-3.121,-1.246 -4.663,-4.782 -3.415,-7.897c1.249,-3.115 4.792,-4.654 7.914,-3.408l25.54,10.169l-6.28,-79.135h40.393l1.909,24.039l13.422,-21.272c0.9265,-1.45076 2.41809,-2.44733 4.113,-2.748h2.111c0.77695,0.13304 1.51969,0.41925 2.185,0.842c1.3684,0.85761 2.33903,2.22477 2.69742,3.79943c0.35839,1.57467 0.07505,3.22723 -0.78742,4.59257l-6.977,11.049l9.051,-0.184c3.36,-0.055 6.133,2.639 6.17,5.992z" fill="#c3e7ea"/><path d="M497.943,131.055c-1.69542,10.07458 -7.33904,19.05686 -15.68,24.956c-4.884,3.462 -10.557,5.808 -16.616,6.706l-15.772,126.681h-52.566l23.575,-189.454c-6.94529,-2.81773 -12.91327,-7.6079 -17.167,-13.779c-5.453,-7.897 -7.969,-17.81 -6.316,-27.96c0.43526,-4.72443 4.39956,-8.33843 9.144,-8.336c5.067,0 9.18,4.103 9.18,9.16v0.679l-0.184,0.97c-0.9819,5.26825 0.18127,10.71045 3.231,15.117c1.2496,1.80222 2.78081,3.39183 4.535,4.708l10.503,-84.338h52.566l-18.287,146.946c1.25878,-0.54811 2.45833,-1.22327 3.58,-2.015c4.36077,-3.09315 7.31318,-7.79285 8.207,-13.064c0.826,-4.984 5.545,-8.337 10.539,-7.512c4.994,0.843 8.373,5.552 7.528,10.535z" fill="#abdde0"/><path d="M468.419,203.393c-0.881,-2.602 0.514,-4.71 3.122,-4.71c2.606,0 5.434,2.108 6.316,4.71c0.881,2.601 -0.514,4.708 -3.122,4.708c-2.606,0 -5.434,-2.107 -6.316,-4.708zM470.366,220.598c-3.012,-3.28 -4.04,-7.165 -2.773,-9.62c2.754,-0.532 6.426,0.843 9.346,3.628c1.046,-2.785 3.782,-4.159 6.885,-3.628c2.919,2.437 4.535,6.339 3.745,9.619c-0.789,3.298 -3.727,4.984 -7.105,4.398c-2.975,0.586 -7.069,-1.1 -10.098,-4.397z" fill="#abdde0"/><path d="M490.801,225.123c5.526,-0.641 10.318,1.979 12.191,7c3.617,-3.464 7.877,-5.772 11.825,-6.67v16.142h-37.31c-1.51767,-0.98191 -2.9053,-2.15149 -4.13,-3.481c-4.039,-4.416 -5.399,-9.619 -3.709,-12.899c3.653,-0.733 8.593,1.117 12.503,4.855c1.322,-3.554 4.719,-5.405 8.629,-4.947zM3.879,208.266c-2.589,0 -3.984,-2.107 -3.121,-4.69c0.863,-2.584 3.69,-4.69 6.28,-4.69c2.606,0 4.002,2.106 3.12,4.69c-0.863,2.583 -3.69,4.69 -6.278,4.69zM1.695,214.753c2.9,-2.786 6.554,-4.16 9.29,-3.61c1.266,2.437 0.238,6.303 -2.754,9.583c-3.012,3.261 -7.088,4.947 -10.044,4.36c-3.341,0.587 -6.279,-1.08 -7.068,-4.36c-0.79,-3.28 0.826,-7.146 3.727,-9.583c3.084,-0.531 5.82,0.843 6.848,3.61z" fill="#abdde0"/><path d="M8.928,225.288c1.69,3.28 0.33,8.465 -3.69,12.844c-1.21492,1.32792 -2.59754,2.49204 -4.113,3.463h-37.125v-16.069c3.929,0.88 8.152,3.188 11.769,6.633c1.855,-5.003 6.628,-7.586 12.118,-6.963c3.893,-0.439 7.271,1.393 8.593,4.929c3.892,-3.719 8.795,-5.552 12.448,-4.837z" fill="#abdde0"/><path d="M-36,271.021h550.816v91.613h-550.816z" fill="#78973c"/><path d="M465.261,230.217c20.289,3.078 36.483,5.991 49.537,9.436v68.508c-51.171,14.786 -117.93,25.45 -193.024,30.012c0.018,0.385 0,0.751 -0.019,1.136c-0.294,5.149 -2.901,8.575 -5.802,7.677c-1.726,-0.55 -3.176,-2.492 -4.002,-5.075c-3.838,5.643 -8.575,9.381 -11.163,8.575c-2.516,-0.77 -2.185,-5.552 0.532,-11.232l-1.266,0.055c-2.535,0.916 -4.83,1.246 -6.28,0.806c-0.386,-0.128 -0.68,-0.293 -0.918,-0.513c-17.461,0.678 -35.308,1.026 -53.448,1.026c-5.031,0 -10.043,-0.018 -15.037,-0.073c-0.881,-3.646 -3.048,-5.827 -5.435,-5.094c-1.707,0.532 -3.139,2.437 -3.966,4.966h-0.11c-3.819,-5.589 -8.52,-9.253 -11.09,-8.465c-2.038,0.641 -2.203,3.939 -0.716,8.208c-28.055,-0.733 -55.999,-2.308 -81.943,-4.617c0.074,0.934 -0.037,1.521 -1.432,1.942c-1.395,0.421 -4.682,-0.055 -7.822,-1.411c2.975,5.918 3.398,10.975 0.808,11.782c-2.588,0.805 -7.326,-2.932 -11.163,-8.575c-0.826,2.583 -1.689,4.36 -4.002,5.075c-2.314,0.715 -5.619,-4.397 -5.802,-7.677c-0.184,-3.262 0.018,-2.804 0.275,-4.104c-48.6,-5.607 -92.078,-13.889 -127.955,-24.186v-91.136c0.441,-0.238 0.9,-0.366 1.414,-0.366c3.837,0 8.684,7.017 11.494,16.27c2.203,-3.152 4.976,-5.186 7.546,-5.186c4.076,0 6.151,5.149 4.865,11.69c13.973,-5.405 27.596,-8.831 41,-11.066c-7.583,-4.453 -15.956,-10.371 -23.667,-12.35c10.796,0.769 22.418,4.104 34.756,9.619h0.239c-5.343,-8.043 -12.081,-13.448 -20.196,-16.288c11.255,1.007 25.447,2.565 35.123,11.085c9.456,-8.136 15.772,-9.455 26.733,-10.426c-7.876,2.767 -14.486,7.934 -19.756,15.629h0.514c9.015,-5.313 18.893,-8.593 27.375,-7.512c-4.332,0.348 -9.05,3.335 -11.97,5.662c84.495,-12.569 170.202,-16.289 254.697,6.211c-13.715,-8.63 -27.595,-14.713 -41.605,-18.286c17.682,1.283 36.74,6.761 56.955,15.867c-8.685,-13.192 -19.701,-22.023 -32.939,-26.677c18.251,1.612 41.293,4.141 56.991,17.974c15.349,-13.191 25.595,-15.336 43.386,-16.911c-12.889,4.525 -23.667,13.009 -32.241,25.633c15.68,-4.086 30.111,-5.79 43.111,-4.746c0.88,-1.081 1.468,-1.704 3.47,-1.704c1.983,0 5.343,2.052 7.546,5.186c2.809,-9.253 7.656,-16.27 11.494,-16.27c3.855,0 5.398,7.017 3.874,16.27c3.69,-3.152 6.977,-5.186 9.988,-5.186c3.011,0 3.746,3.72 1.046,8.832zM427.218,223.987c-8.115,1.044 -16.396,3.115 -24.86,6.248h23.722c-0.129,-2.492 0.294,-4.672 1.138,-6.248z" fill="#95c03d"/><path d="M163.60959,326.84562c-0.57987,-0.86594 -0.34648,-2.039 0.52129,-2.6201c0.86777,-0.5811 2.04133,-0.35019 2.6212,0.51575c0.57987,0.86594 0.34648,2.039 -0.52129,2.62009c-0.86777,0.5811 -2.04133,0.3502 -2.6212,-0.51574z" fill="#87ac3f"/><path d="M158.23986,317.39517c-0.47303,-0.70617 -0.28291,-1.66286 0.42464,-2.13681c0.70756,-0.47395 1.66461,-0.28569 2.13764,0.42048c0.47303,0.70617 0.28291,1.66286 -0.42464,2.13681c-0.70756,0.47395 -1.66461,0.28569 -2.13764,-0.42048z" fill="#87ac3f"/><path d="M54.518,258.323c0,-0.84996 0.69038,-1.539 1.542,-1.539c0.85162,0 1.542,0.68903 1.542,1.539c0,0.84996 -0.69037,1.539 -1.542,1.539c-0.85162,0 -1.542,-0.68904 -1.542,-1.539z" fill="#87ac3f"/><path d="M148.16768,326.39953c-0.99667,-1.48813 -0.59565,-3.50421 0.89569,-4.50303c1.49134,-0.99882 3.50828,-0.60216 4.50495,0.88598c0.99667,1.48813 0.59565,3.50421 -0.89569,4.50303c-1.49134,0.99882 -3.50828,0.60215 -4.50495,-0.88598z" fill="#87ac3f"/><path d="M41.114,260.174c0,-1.79106 1.45508,-3.243 3.25,-3.243c1.79492,0 3.25,1.45194 3.25,3.243c0,1.79106 -1.45508,3.243 -3.25,3.243c-1.79492,0 -3.25,-1.45194 -3.25,-3.243z" fill="#87ac3f"/><path d="M53.71,269.134c0,-1.04216 0.84663,-1.887 1.891,-1.887c1.04437,0 1.891,0.84484 1.891,1.887c0,1.04216 -0.84663,1.887 -1.891,1.887c-1.04437,0 -1.891,-0.84484 -1.891,-1.887z" fill="#87ac3f"/><path d="M442.219,271.168c0,-1.79106 1.45508,-3.243 3.25,-3.243c1.79492,0 3.25,1.45194 3.25,3.243c0,1.79106 -1.45508,3.243 -3.25,3.243c-1.79492,0 -3.25,-1.45194 -3.25,-3.243z" fill="#87ac3f"/><path d="M432.341,280.127c0,-1.04216 0.84663,-1.887 1.891,-1.887c1.04437,0 1.891,0.84484 1.891,1.887c0,1.04216 -0.84663,1.887 -1.891,1.887c-1.04437,0 -1.891,-0.84484 -1.891,-1.887z" fill="#87ac3f"/><path d="M335.41481,322.71072c-0.99678,-1.48807 -0.5959,-3.50417 0.89538,-4.50309c1.49127,-0.99892 3.50824,-0.6024 4.50502,0.88566c0.99678,1.48807 0.5959,3.50417 -0.89538,4.5031c-1.49127,0.99892 -3.50824,0.6024 -4.50502,-0.88567z" fill="#87ac3f"/><path d="M432.231,269.317c0,-0.84996 0.69038,-1.539 1.542,-1.539c0.85163,0 1.542,0.68903 1.542,1.539c0,0.84996 -0.69037,1.539 -1.542,1.539c-0.85163,0 -1.542,-0.68903 -1.542,-1.539z" fill="#87ac3f"/><path d="M345.5538,313.73807c-0.47298,-0.70621 -0.28279,-1.66288 0.42479,-2.13678c0.70758,-0.4739 1.66463,-0.28558 2.13761,0.42063c0.47298,0.70621 0.28279,1.66288 -0.4248,2.13678c-0.70758,0.4739 -1.66462,0.28558 -2.1376,-0.42063z" fill="#87ac3f"/><path d="M350.92083,323.16328c-0.57993,-0.8659 -0.34663,-2.03897 0.52111,-2.62013c0.86773,-0.58116 2.0413,-0.35034 2.62123,0.51556c0.57993,0.8659 0.34662,2.03897 -0.52111,2.62014c-0.86773,0.58116 -2.0413,0.35033 -2.62123,-0.51557z" fill="#87ac3f"/><path d="M497.043,260.266c6.023,8.263 11.935,16.893 17.773,25.907v76.497h-23.575c-20.398,-57.478 -47.884,-103.357 -82.2,-138.115c27.761,18.378 53.833,43.773 78.437,75.416c-19.977,-52.696 -46.196,-95.185 -78.437,-127.855c27.43,18.158 53.246,43.205 77.61,74.353c-0.128,0.861 -0.238,1.722 -0.33,2.565c-0.937,8.794 0.496,13.32 3.213,10.114c0.936,-1.099 1.891,-2.968 2.791,-5.296c1.04461,1.37897 2.07898,2.76568 3.103,4.16l-1.488,9.839z" fill="#78973c"/><path d="M464.215,230.803c19.04,27.392 35.803,54.198 50.601,79.318v27.447c-13.77,-33.585 -30.901,-70.981 -50.601,-106.765zM514.523,348.379l0.312,0.44v13.87h-4.242l-0.661,-1.265l-0.073,-0.128l-0.037,-0.073l-0.551,-1.045l-0.11,-0.201l-0.036,-0.074l-0.625,-1.19l-0.11,-0.202l-1.432,-2.748l-0.037,-0.055l-0.533,-1.008l-0.11,-0.22l-0.11,-0.202v-0.018l-0.11,-0.22l-0.11,-0.22l-0.22,-0.421l-0.11,-0.22l-0.11,-0.22l-0.074,-0.128l-0.055,-0.091l-0.11,-0.22c-0.422,-0.788 -0.826,-1.558 -1.248,-2.346l-0.11,-0.183l-0.02,-0.018l-0.22,-0.422l-0.11,-0.22c-13.788,-25.798 -29.358,-52.86 -46.25,-79.062c17.829,22.592 34.077,44.8 48.839,65.98l0.312,0.458l0.312,0.458l0.313,0.458l0.312,0.458l0.092,0.129l0.22,0.311l0.312,0.458l0.624,0.898l0.312,0.458l0.166,0.257l0.128,0.201l0.312,0.44l0.312,0.44l0.055,0.091l0.258,0.366l0.312,0.44l0.257,0.367l0.055,0.073l0.312,0.44l0.312,0.44l0.147,0.201l0.165,0.238l0.312,0.44l0.312,0.44l0.037,0.036l0.276,0.403l0.312,0.44l0.22,0.33l0.073,0.128l0.313,0.44l0.312,0.44l0.11,0.165l0.183,0.275z" fill="#708a3a"/><path d="M494.289,331.283c0.68,1.173 3.838,-1.007 7.73,-5.13c6.702,8.575 9.511,19.294 -6.242,28.364c-22.07,12.716 -28.055,-8.007 -30.057,-21.676c4.939,-1.063 8.207,-2.602 7.895,-3.976c-0.293,-1.319 -3.8,-2.107 -8.63,-2.144c-0.238,-2.4 -0.366,-4.012 -0.55,-4.324c-2.754,-4.764 -7.069,-1.502 -11.145,-8.538c-4.057,-7.036 4.04,-10.572 1.928,-17.809c-0.661,-2.31 -1.854,-3.097 -5.343,-6.67c-8.96,-9.161 10.098,-20.154 13.587,-7.824c1.359,4.801 1.451,6.212 3.121,7.952c5.233,5.442 12.339,0.202 16.415,7.238c4.057,7.036 -0.918,9.143 1.836,13.907c0.422,0.751 7.381,5.148 13.458,11.323c-2.975,4.508 -4.627,8.208 -4.002,9.308z" fill="#b3d34e"/><path d="M485.99,333.318l11.623,20.081c-0.5958,0.389 -1.20202,0.7618 -1.818,1.118c-0.477,0.256 -0.918,0.513 -1.377,0.751l-24.163,-41.757l-10.025,-0.898c-1.01117,-0.09305 -1.75734,-0.98532 -1.67,-1.997c0.0956,-1.01112 0.98924,-1.75559 2.001,-1.667l7.418,0.678l-11.403,-19.716c-0.513,-0.879 -0.201,-2.015 0.68,-2.528c0.88752,-0.50831 2.0189,-0.20559 2.534,0.678l23.923,41.353l3.14,-6.76c0.43856,-0.91938 1.53229,-1.31863 2.46,-0.898c0.92034,0.43501 1.32111,1.52822 0.9,2.455z" fill="#a2c83a"/><path d="M506.536,322.269c3.341,0 6.022,0.623 8.28,1.685v38.68h-110.548c8.207,-39.559 21.426,-47.144 39.052,-47.144c18.857,0 24.952,19.422 32.59,19.422c13,0 11.421,-12.643 30.626,-12.643z" fill="#87ac3f"/><path d="M493.151,362.634h-136.603c18.71,-47.639 56.386,-19.404 59.874,-19.404c9.107,0 7.987,-8.831 21.427,-8.831c13.44,0 11.805,14.456 23.905,17.424c3.856,0.953 5.986,-0.073 13.973,-2.107c8.354,-2.125 14.192,5.24 17.424,12.918z" fill="#a2c83a"/></g></g></svg>