<svg version="1.1" xmlns="http://www.w3.org/2000/svg" xmlns:xlink="http://www.w3.org/1999/xlink" width="21.13715" height="33.13963" viewBox="0,0,21.13715,33.13963"><g transform="translate(-163.40523,-163.18747)"><g data-paper-data="{&quot;isPaintingLayer&quot;:true}" fill-rule="evenodd" stroke="none" stroke-linecap="butt" stroke-linejoin="miter" stroke-miterlimit="10" stroke-dasharray="" stroke-dashoffset="0" style="mix-blend-mode: normal"><g data-paper-data="{&quot;index&quot;:null}"><path d="M170.13444,195.80929c-3.44447,-1.2386 -5.63674,-4.62214 -6.39891,-10.03247c-0.44881,-3.18582 -0.43191,-9.19873 0,-12.03907c0.81959,-5.3896 2.95233,-8.80824 6.39891,-10.03247c1.95641,-0.69483 5.79527,-0.68599 7.67876,0c3.44235,1.25378 5.60152,4.63458 6.39891,10.03247c0.43824,2.96683 0.44247,8.98581 0,12.03907c-0.78295,5.40286 -2.95444,8.79387 -6.39891,10.03247c-1.91978,0.69041 -5.75916,0.69041 -7.67876,0" data-paper-data="{&quot;origPos&quot;:null}" fill="#00ccff" stroke-width="1"/><path d="M168.40067,193.09074c1.9196,0.69041 5.75898,0.69041 7.67876,0c3.44447,-1.2386 5.61596,-4.6296 6.39891,-10.03247c0.44247,-3.05327 0.43824,-9.07198 0,-12.03907c-0.29081,-1.96904 -0.76499,-3.66607 -1.41443,-5.09301c1.5844,1.77297 2.64179,4.38382 3.14838,7.81156c0.43807,2.96683 0.44212,8.98581 0,12.03907c-0.78295,5.40286 -2.95444,8.7936 -6.39891,10.03247c-1.91995,0.69041 -5.75915,0.69041 -7.67875,0c-2.19139,-0.78817 -3.87339,-2.44763 -5.00528,-4.94111c0.91717,1.02374 2.00927,1.76855 3.27133,2.22256" data-paper-data="{&quot;origPos&quot;:null}" fill="#4adbff" stroke-width="1"/><path d="M167.19458,176.0412c1.27672,-1.54684 4.68447,-4.07135 6.79682,-4.99139c1.96143,-0.85443 3.70314,0.35776 4.07676,2.91582c0.35791,2.45271 0.3828,7.48774 -0.00036,10.00175c-0.38963,2.55435 -2.05505,3.5105 -4.07654,2.91573c-1.64756,-0.48513 -5.09664,-2.63685 -6.79626,-4.99131c-1.37344,-1.90044 -1.4718,-4.06812 -0.00042,-5.8506" data-paper-data="{&quot;noHover&quot;:false,&quot;origItem&quot;:[&quot;Path&quot;,{&quot;applyMatrix&quot;:true,&quot;segments&quot;:[[[592.95257,360.25174],[0,0],[-2.63847,3.19632]],[[592.95257,370.64267],[-2.46283,-3.40786],[3.04774,4.22199]],[[605.03197,379.54618],[-2.9544,-0.86992],[3.62492,1.06654]],[[612.28789,374.34989],[-0.69869,4.58045],[0.68709,-4.50809]],[[612.28789,356.54508],[0.6418,4.39818],[-0.66997,-4.58708]],[[605.03197,351.34934],[3.51722,-1.53216],[-3.78786,1.6498]],[[592.95257,360.25174],[2.2894,-2.77379],[0,0]]],&quot;fillRule&quot;:&quot;evenodd&quot;}],&quot;origPos&quot;:null,&quot;index&quot;:null}" fill="#ffffff" stroke-width="0.5"/></g></g></g></svg>