<svg version="1.1" xmlns="http://www.w3.org/2000/svg" xmlns:xlink="http://www.w3.org/1999/xlink" width="72.74581" height="85.48281" viewBox="0,0,72.74581,85.48281"><g transform="translate(-206.65014,-138.26893)"><g data-paper-data="{&quot;isPaintingLayer&quot;:true}" fill-rule="nonzero" stroke="none" stroke-linecap="butt" stroke-linejoin="miter" stroke-miterlimit="10" stroke-dasharray="" stroke-dashoffset="0" style="mix-blend-mode: normal"><path d="M269.32401,174.354c0,3.86 -0.09,7.5 -0.28,10.82c-0.01,0.08 -0.01,0.15 -0.02,0.22c-0.39,5.08 -1.36,9.37 -2.97,13.11c-1.98,4.5 -5.12,8.59 -9.34,12.24c-0.69,0.59 -1.44,1.09 -2.25,1.49l-2.36,1.18c-3.8,2.01 -8.3,3.16 -13.37,3.41c-0.04,0.01 -0.07,0.01 -0.1,0.01c-0.35,0.01 -0.69,0.02 -1.02,0.02c-4.86,0 -9.41,-1.4 -13.54,-4.15c-0.6,-0.4 -1.16,-0.86 -1.68,-1.37c-1.2,-1.21 -1.9,-2.46 -2.38,-3.41c-0.91,-1.84 -1.36,-3.65 -1.36,-5.51c0,-1.06 0.15,-2.1 0.44,-3.1c0.34,-1.87 1.06,-3.62 2.16,-5.16c-2.59,-2.08 -4.62,-4.52 -6.04,-7.3c-1.9,-3.67 -2.95,-7.52 -3.15,-11.43c-0.37,-6.8 0.87,-12.19 3.8,-16.41c2.67,-3.87 6.45,-7.32 11.2,-10.21c5.16,-3.13 9.96,-4.7 14.66,-4.8c0.35,-0.01 0.7,0 1.04,0.02c1.88,0.14 3.03,0.22 3.43,0.25c0.46,0.02 0.92,0.06 1.37,0.14c4.64,0.78 7.72,2.82 9.61,4.61c0.32,0.27 0.7,0.61 1.15,1c0.49,0.43 0.93,0.91 1.34,1.42l2.62,3.33c1.63,2.03 2.79,3.88 3.59,5.72c0.43,0.77 0.93,1.7 1.5,2.79c0.14,0.27 0.27,0.54 0.39,0.82c1.08,2.57 1.56,5.73 1.56,10.25z" fill="#00cccc" stroke-width="1"/><path d="M206.65014,223.75174v-85.48281h72.74581v85.48281z" fill="#03cdff" stroke-width="0"/><path d="M242.54815,207.75323c0,0.761 -0.704,1.436 -2.111,2.022c-1.35,0.586 -3.343,0.454 -5.981,-0.396c-2.639,-0.851 -6.509,-1.922 -11.61,-3.211c-2.405,-0.294 -4.486,0.234 -6.245,1.584c-3.05,2.228 -5.221,3.342 -6.51,3.342c-0.879,0 -1.671,-0.352 -2.375,-1.054v-1.933c0,-0.059 0.073,-0.176 0.221,-0.351c0.146,-0.177 0.233,-0.367 0.264,-0.57c0.028,-0.206 0.132,-0.543 0.308,-1.01c0.23352,-3.22005 0.94498,-6.38741 2.111,-9.398c0.293,-0.877 1.113,-2.75 2.463,-5.62c1.759,-3.688 4.954,-7.933 9.588,-12.735c1.348,-1.287 3.283,-3.22 5.805,-5.797c1.0996,-1.04025 2.21405,-2.06469 3.343,-3.073c1.583,-1.521 2.403,-2.721 2.463,-3.601c0.116,-0.176 0.264,-0.469 0.439,-0.878c0.058,-0.644 0.029,-1.521 -0.088,-2.635c-0.059,-0.117 -0.132,-0.381 -0.22,-0.79c-0.12567,-0.64046 -0.22841,-1.2852 -0.308,-1.933c-1.76,-3.513 -5.132,-5.27 -10.115,-5.27c-3.343,0 -5.894,0.843 -7.653,2.526c-0.176,0.058 -0.41,0.146 -0.703,0.261c-0.998,0.639 -1.613,1.249 -1.848,1.829c-1.231,2.846 -2.581,4.268 -4.046,4.268c-1.643,0 -2.463,-1.084 -2.463,-3.254c0,-0.997 0.85,-2.991 2.551,-5.981c0.352,-0.234 0.82,-0.557 1.407,-0.968c0.293,-0.293 0.82,-0.674 1.584,-1.144c1.73568,-0.59775 3.48021,-1.16948 5.233,-1.715c1.788,-0.557 3.387,-0.865 4.794,-0.924c3.752,-0.117 7.271,0.558 10.555,2.022c2.228,0.939 4.046,2.654 5.454,5.146c1.407,2.493 2.052,4.823 1.935,6.992c-0.16667,1.96795 -0.86602,3.85338 -2.023,5.454c-0.703,0.879 -2.198,2.346 -4.485,4.397c-2.054,2.171 -5.22,5.366 -9.5,9.588c-0.352,0.822 -1.144,1.73 -2.375,2.727c-0.059,0.235 -0.206,0.587 -0.439,1.056c-0.763,1.35 -1.847,2.845 -3.255,4.486c0.058,0.527 -0.176,1.144 -0.703,1.847c-0.646,0.998 -0.968,1.555 -0.968,1.672c-0.47,1.114 -1.086,2.757 -1.848,4.926c-0.176,0.704 -0.47,1.789 -0.879,3.255c1.77917,-0.53095 3.5678,-1.0297 5.365,-1.496c1.30686,-0.23013 2.63104,-0.34789 3.958,-0.352c2.64,0 5.688,0.646 9.148,1.936c0.82,0.294 2.052,0.733 3.694,1.319c0.82,-0.058 1.641,-0.088 2.463,-0.088c1.348,0 2.315,0.322 2.902,0.968c0.408,0.471 0.644,1.322 0.703,2.554z" fill="#ffffff" stroke-width="1"/><path d="M277.50066,179.43826c0,2.36446 -0.45812,6.35898 -1.36951,11.98029c-0.28499,2.0452 -0.85497,4.18629 -1.71188,6.42218c-1.31309,3.32332 -3.55021,6.26309 -6.71525,8.81824c-3.16601,2.55514 -6.23184,3.83326 -9.19748,3.83326c-0.96974,0 -1.85389,-0.15908 -2.65245,-0.47834c-4.33515,-1.53309 -7.69959,-4.44017 -10.09525,-8.72235c-0.45812,-0.8292 -1.05631,-2.23589 -1.79748,-4.2168c-0.79855,-2.23589 -1.24014,-3.96074 -1.32574,-5.17566c-0.08559,-1.21274 -0.29958,-2.81011 -0.64196,-4.79103v-7.09338c0.2276,-0.1264 0.1138,-0.31817 -0.34238,-0.57423h0.51357c0,-0.31926 0.11283,-0.92617 0.34238,-1.82074c0.22663,-0.89457 0.34238,-1.56577 0.34238,-2.0136c0,-0.38354 -0.08559,-0.7344 -0.25678,-1.05475c0.22663,0 0.427,-0.09589 0.59819,-0.28766c-0.05739,-0.12748 -0.20037,-0.19177 -0.427,-0.19177c0.05641,-0.0632 0.1566,-0.15908 0.29958,-0.28766c0.14201,-0.12748 0.24219,-0.22337 0.30055,-0.28766c-0.05836,-0.06429 -0.12839,-0.11223 -0.21496,-0.14492c-0.08559,-0.03051 -0.15757,-0.07845 -0.21399,-0.14383c0.34335,-1.02206 0.65557,-2.42766 0.94154,-4.2168c0.22663,-1.4688 0.68475,-3.48131 1.36853,-6.03754c1.02713,-3.70468 3.36541,-7.53903 7.0158,-11.50195c1.02713,-1.08525 2.13888,-1.75646 3.3372,-2.01251c0.17119,0 1.28294,-0.06429 3.3372,-0.19286c2.85184,-0.1264 5.53152,0.54372 8.04196,2.0136c2.9102,1.66166 5.19012,4.1536 6.84462,7.47583c0.85691,1.72486 1.6545,4.05772 2.39566,6.9964c0.85691,3.25794 1.28391,6.07023 1.28391,8.4336v5.27264zM271.85436,168.80037c-0.34043,-0.89348 -0.73922,-2.04411 -1.19346,-3.4508c-0.56998,-2.87549 -2.26144,-5.52543 -5.07437,-7.95526c-2.81391,-2.42766 -5.41383,-3.51291 -7.80171,-3.25794c-1.07965,0.12857 -2.8995,2.14218 -5.45857,6.03863c-1.25084,1.85343 -2.50071,5.5592 -3.75058,11.11732c-1.13704,5.17566 -1.67784,9.16909 -1.61948,11.98029c0.11283,3.57829 0.28402,6.07023 0.51162,7.47474c0.39685,2.62052 1.24987,5.01658 2.55713,7.18926c1.25084,1.91663 2.21767,3.16206 2.8995,3.73846c2.55713,2.0452 4.97224,3.06617 7.2473,3.06617c0.51065,0 0.99406,-0.0632 1.44927,-0.19177c1.07965,-0.19177 2.35773,-0.98937 3.83618,-2.39606c1.25084,-1.27812 2.18849,-2.45926 2.81488,-3.54669c0.85205,-1.59628 1.64866,-3.99234 2.38788,-7.18818c1.13607,-4.66354 1.70605,-9.61583 1.70605,-14.85578c0.00195,-2.81011 -0.16924,-5.39794 -0.51162,-7.7624z" fill="#ffffff" stroke-width="1"/></g></g></svg>