<svg version="1.1" xmlns="http://www.w3.org/2000/svg" xmlns:xlink="http://www.w3.org/1999/xlink" width="68.20229" height="85.48281" viewBox="0,0,68.20229,85.48281"><g transform="translate(-205.67874,-138.26893)"><g data-paper-data="{&quot;isPaintingLayer&quot;:true}" fill-rule="nonzero" stroke="none" stroke-linecap="butt" stroke-linejoin="miter" stroke-miterlimit="10" stroke-dasharray="" stroke-dashoffset="0" style="mix-blend-mode: normal"><path d="M269.32401,174.354c0,3.86 -0.09,7.5 -0.28,10.82c-0.01,0.08 -0.01,0.15 -0.02,0.22c-0.39,5.08 -1.36,9.37 -2.97,13.11c-1.98,4.5 -5.12,8.59 -9.34,12.24c-0.69,0.59 -1.44,1.09 -2.25,1.49l-2.36,1.18c-3.8,2.01 -8.3,3.16 -13.37,3.41c-0.04,0.01 -0.07,0.01 -0.1,0.01c-0.35,0.01 -0.69,0.02 -1.02,0.02c-4.86,0 -9.41,-1.4 -13.54,-4.15c-0.6,-0.4 -1.16,-0.86 -1.68,-1.37c-1.2,-1.21 -1.9,-2.46 -2.38,-3.41c-0.91,-1.84 -1.36,-3.65 -1.36,-5.51c0,-1.06 0.15,-2.1 0.44,-3.1c0.34,-1.87 1.06,-3.62 2.16,-5.16c-2.59,-2.08 -4.62,-4.52 -6.04,-7.3c-1.9,-3.67 -2.95,-7.52 -3.15,-11.43c-0.37,-6.8 0.87,-12.19 3.8,-16.41c2.67,-3.87 6.45,-7.32 11.2,-10.21c5.16,-3.13 9.96,-4.7 14.66,-4.8c0.35,-0.01 0.7,0 1.04,0.02c1.88,0.14 3.03,0.22 3.43,0.25c0.46,0.02 0.92,0.06 1.37,0.14c4.64,0.78 7.72,2.82 9.61,4.61c0.32,0.27 0.7,0.61 1.15,1c0.49,0.43 0.93,0.91 1.34,1.42l2.62,3.33c1.63,2.03 2.79,3.88 3.59,5.72c0.43,0.77 0.93,1.7 1.5,2.79c0.14,0.27 0.27,0.54 0.39,0.82c1.08,2.57 1.56,5.73 1.56,10.25z" fill="#00cccc" stroke-width="1"/><path d="M205.67874,223.75174v-85.48281h68.20229v85.48281z" data-paper-data="{&quot;origPos&quot;:null}" fill="#03cdff" stroke-width="0"/><path d="M233.32961,206.47413c-0.763,0.84832 -1.525,1.40543 -2.287,1.67132c-0.763,0.26499 -1.906,0.34457 -3.431,0.23876c-1.701,-0.10672 -2.814,-0.10672 -3.343,0c-0.059,0 -0.483,0.09225 -1.275,0.27855c-0.791,0.1854 -1.394,0.27946 -1.803,0.27946c-0.118,0 -0.338,-0.09406 -0.66,-0.27946c-0.323,-0.18631 -0.571,-0.27855 -0.747,-0.27855c-0.295,0 -1.071,0.03979 -2.331,0.11938c-1.262,0.07959 -2.243,0.11938 -2.947,0.11938h-3.782c-1.525,-0.05336 -2.405,-0.23876 -2.639,-0.5562c-0.527,-0.63669 -0.792,-1.11331 -0.792,-1.43166c-0.176,-0.16008 -0.322,-0.39793 -0.439,-0.71628c0.469,-2.17416 2.756,-3.04871 6.861,-2.62455c2.99,0.26589 4.75,0.23876 5.277,-0.08049c0.233,-5.67326 0.088,-14.74343 -0.439,-27.20597c0.233,-2.33334 0.468,-6.15169 0.703,-11.45595c-0.411,-0.05245 -0.998,0.18721 -1.759,0.71628c-0.88,0.69005 -1.438,1.08799 -1.672,1.1929c-0.72849,0.25964 -1.50399,0.39459 -2.287,0.39793c-0.997,0 -1.729,-0.29121 -2.198,-0.87545c-0.29055,-0.31086 -0.44684,-0.70632 -0.44,-1.11331c0,-0.95504 1.056,-2.04122 3.167,-3.26124c2.463,-1.3783 3.928,-2.62545 4.398,-3.73967c1.231,-0.90168 2.52,-1.35297 3.87,-1.35297c1.759,0 2.814,0.79587 3.166,2.38669c-0.14545,0.28193 -0.26324,0.57488 -0.352,0.87545c-0.235,1.64419 -0.439,4.77249 -0.616,9.38761c0,0.26589 -0.03,0.84832 -0.088,1.75c-0.0368,0.50367 -0.06614,1.00777 -0.088,1.51215v8.51125c0,0.10672 0.044,0.75607 0.132,1.94897c0.05267,0.64916 0.09701,1.29886 0.133,1.94897v18.13762c1.583,0.26589 2.667,0.29212 3.254,0.07959c0.762,-0.26408 1.437,-0.39703 2.023,-0.39703c1.349,0 2.492,0.69005 3.431,2.06835c0.116,0.15736 0.116,0.7407 0,1.74819z" fill="#ffffff" stroke-width="1"/><path d="M272.60788,187.6544c0.057,1.234 -0.088,3.525 -0.439,6.873c-0.061,0.412 -0.5,1.409 -1.32,2.995c-1.643,3.29 -4.34,5.874 -8.092,7.755c-3.05,1.527 -6.069,2.35 -9.061,2.467c-8.854,0.295 -15.393,-2.463 -19.615,-8.269c0,-0.176 -0.03,-0.38 -0.088,-0.616c-1.231,-2.227 -1.789,-4.25 -1.671,-6.068c0.058,-1.113 0.381,-2.727 0.968,-4.838c-0.06,-0.117 -0.118,-0.293 -0.176,-0.527c2.052,-4.809 4.631,-8.357 7.74,-10.645c-4.398,-1.523 -7.155,-3.576 -8.269,-6.156c-0.646,-1.584 -0.646,-3.167 0,-4.75c1.173,-2.697 3.343,-5.043 6.509,-7.037c3.167,-1.992 6.069,-3.02 8.709,-3.078c0.585,0 1.495,0 2.727,0c0.703,0 1.407,0 2.111,0c3.342,0 6.245,0.646 8.708,1.938c3.048,1.586 4.983,3.936 5.806,7.049c0.408,1.47 0.527,2.498 0.352,3.084c-0.822,2.996 -2.963,5.64 -6.422,7.931c0.704,0.294 1.641,0.705 2.814,1.233c0.881,0.236 2.053,0.734 3.52,1.498c3.576,2.936 5.306,5.989 5.189,9.161zM266.54188,193.7584c0.467,-2.756 0.701,-4.514 0.701,-5.277c0,-2.345 -0.791,-4.223 -2.369,-5.629c-2.339,-1.993 -6.196,-3.343 -11.574,-4.047c-0.41,-0.293 -0.907,-0.586 -1.491,-0.879c-1.053,-0.117 -1.727,-0.146 -2.018,-0.088c-2.34,0.293 -4.794,1.906 -7.365,4.838c-2.866,3.225 -4.298,6.451 -4.298,9.676c0,3.46 1.577,6.188 4.735,8.18c2.748,1.76 5.963,2.639 9.646,2.639c1.111,0 2.164,-0.088 3.157,-0.264c1.987,-0.176 4.15,-1.172 6.489,-2.99c2.574,-1.994 4.035,-4.048 4.387,-6.159zM260.99688,163.3484c-0.646,-0.885 -1.847,-1.697 -3.606,-2.436c-1.759,-0.736 -3.254,-1.076 -4.485,-1.019c-0.998,0.06 -2.287,0.206 -3.87,0.442c-0.471,0.118 -1.643,0.473 -3.519,1.062c-1.291,0.473 -2.728,1.389 -4.311,2.744c-1.877,1.595 -2.757,2.953 -2.639,4.074c0.352,3.305 3.636,5.017 9.852,5.135c2.814,-0.059 5.102,-0.354 6.861,-0.885c0.937,-0.236 2.08,-0.59 3.43,-1.062c2.169,-1.416 3.255,-3.157 3.255,-5.225c0,-1.001 -0.324,-1.946 -0.968,-2.83z" fill="#ffffff" stroke-width="1"/></g></g></svg>