<svg version="1.1" xmlns="http://www.w3.org/2000/svg" xmlns:xlink="http://www.w3.org/1999/xlink" width="386.22911" height="120.84615" viewBox="0,0,386.22911,120.84615"><g transform="translate(-20.61134,-126.79579)"><g data-paper-data="{&quot;isPaintingLayer&quot;:true}" stroke="none" stroke-width="1" stroke-linecap="butt" stroke-linejoin="miter" stroke-miterlimit="10" stroke-dasharray="" stroke-dashoffset="0" style="mix-blend-mode: normal"><path d="M102.40835,245.76694c-10.898,2.5 -32.695,2.5 -43.594,0c-19.555,-4.485 -31.883,-16.764 -36.328,-36.328c-2.512,-11.056 -2.488,-32.851 0,-43.594c4.527,-19.546 16.785,-31.788 36.328,-36.328c10.693,-2.484 32.487,-2.516 43.594,0c19.567,4.433 31.675,16.812 36.328,36.328c2.452,10.285 2.548,32.058 0,43.594c-4.327,19.591 -16.773,31.843 -36.328,36.328" fill="#62d31a" fill-rule="evenodd"/><path d="M112.25135,235.92294c7.165,-1.644 13.365,-4.341 18.572,-8.048c-6.426,9.029 -15.975,15.038 -28.416,17.892c-10.898,2.5 -32.694,2.5 -43.594,0c-19.555,-4.486 -31.883,-16.764 -36.328,-36.328c-2.51,-11.056 -2.487,-32.851 0,-43.594c2.876,-12.412 8.879,-21.866 17.874,-28.286c-3.687,5.167 -6.379,11.312 -8.03,18.442c-2.488,10.744 -2.512,32.538 0,43.594c4.445,19.564 16.773,31.843 36.328,36.328c10.899,2.5 32.696,2.5 43.594,0" fill="#5bbf1b" fill-rule="evenodd"/><path d="M87.74835,154.60294l5.117,10.425c1.21022,2.47235 3.61137,4.14445 6.35,4.422l11.714,1.171c6.728,0.671 9.611,8.94 4.772,13.688l-9.108,8.94c-1.87457,1.84292 -2.72811,4.48685 -2.285,7.078l1.995,11.692c1.115,6.537 -5.709,11.522 -11.548,8.437l-10.524,-5.564c-2.27058,-1.20105 -4.98269,-1.22602 -7.275,-0.067l-11.272,5.692c-5.967,3.014 -12.75,-2.255 -11.356,-8.82l2.377,-11.198c0.57046,-2.68386 -0.26857,-5.47323 -2.225,-7.397l-8.959,-8.793c-4.838,-4.748 -1.956,-13.017 4.772,-13.688l11.714,-1.171c2.73863,-0.27755 5.13978,-1.94965 6.35,-4.422l5.117,-10.425c2.92,-5.948 11.355,-5.948 14.274,0" fill="#ffffff" fill-rule="evenodd"/><text transform="translate(152.875,223.92249) scale(1.42178,2.39819)" font-size="40" xml:space="preserve" data-paper-data="{&quot;origPos&quot;:null}" fill="#9966ff" fill-rule="nonzero" stroke="none" stroke-width="1" stroke-linecap="butt" stroke-linejoin="miter" stroke-miterlimit="10" stroke-dasharray="" stroke-dashoffset="0" font-family="Marker" font-weight="normal" text-anchor="start" style="mix-blend-mode: normal"><tspan x="0" dy="0">LOG OUT</tspan></text><path d="M102.61853,245.33974c-10.898,2.5 -32.695,2.5 -43.594,0c-19.555,-4.485 -31.883,-16.764 -36.328,-36.328c-2.512,-11.056 -2.488,-32.851 0,-43.594c4.527,-19.546 16.785,-31.788 36.328,-36.328c10.693,-2.484 32.487,-2.516 43.594,0c19.568,4.433 31.675,16.812 36.328,36.328c2.452,10.285 2.548,32.058 0,43.594c-4.327,19.591 -16.773,31.843 -36.328,36.328" data-paper-data="{&quot;origPos&quot;:null}" fill="#62d31a" fill-rule="evenodd"/><path d="M112.46153,235.49574c7.165,-1.644 13.365,-4.34 18.572,-8.048c-6.426,9.029 -15.975,15.038 -28.416,17.892c-10.898,2.5 -32.694,2.5 -43.594,0c-19.555,-4.486 -31.883,-16.764 -36.328,-36.328c-2.51,-11.056 -2.487,-32.851 0,-43.594c2.876,-12.412 8.879,-21.866 17.874,-28.286c-3.687,5.167 -6.379,11.312 -8.03,18.442c-2.488,10.744 -2.512,32.538 0,43.594c4.445,19.564 16.773,31.843 36.328,36.328c10.899,2.5 32.696,2.5 43.594,0" data-paper-data="{&quot;origPos&quot;:null}" fill="#5bbf1b" fill-rule="evenodd"/><g data-paper-data="{&quot;origPos&quot;:null}" fill="#ffffff" fill-rule="evenodd"><path d="M82.88935,217.94921c-18.827,0 -34.145,-15.317 -34.145,-34.145c0,-9.528 4.055,-18.7 11.125,-25.17c1.11337,-1.03259 2.69463,-1.38951 4.14361,-0.93531c1.44898,0.4542 2.54355,1.64989 2.86827,3.13326c0.32472,1.48337 -0.17019,3.02702 -1.29688,4.04505c-5.322,4.872 -8.375,11.768 -8.375,18.927c0,14.16 11.52,25.681 25.68,25.681c14.16,0 25.68,-11.52 25.68,-25.68c0,-7.16 -3.053,-14.056 -8.375,-18.928c-1.72378,-1.5785 -1.84239,-4.25521 -0.265,-5.98c0.75776,-0.82849 1.81381,-1.32174 2.93549,-1.37107c1.12168,-0.04933 2.21695,0.3493 3.04452,1.10807c7.07,6.47 11.125,15.642 11.125,25.17c0,18.828 -15.318,34.145 -34.145,34.145" data-paper-data="{&quot;origPos&quot;:null}"/><path d="M81.90135,184.32821c-1.12257,0.00027 -2.19925,-0.44548 -2.99312,-1.23917c-0.79387,-0.79369 -1.23988,-1.87026 -1.23988,-2.99283v-25.863c0,-2.33727 1.89473,-4.232 4.232,-4.232c2.33727,0 4.232,1.89473 4.232,4.232v25.863c0,2.33727 -1.89473,4.232 -4.232,4.232" data-paper-data="{&quot;origPos&quot;:null}"/></g></g></g></svg>