<svg version="1.1" xmlns="http://www.w3.org/2000/svg" xmlns:xlink="http://www.w3.org/1999/xlink" width="423.27268" height="180.49999" viewBox="0,0,423.27268,180.49999"><defs><linearGradient x1="53.87591" y1="273.77138" x2="53.87591" y2="221.12537" gradientUnits="userSpaceOnUse" id="color-1"><stop offset="0" stop-color="#000000"/><stop offset="1" stop-color="#ff5b47"/></linearGradient><linearGradient x1="88.34891" y1="283.2044" x2="88.34891" y2="380.25535" gradientUnits="userSpaceOnUse" id="color-2"><stop offset="0" stop-color="#ededed"/><stop offset="1" stop-color="#7d0f13"/></linearGradient><linearGradient x1="195.75991" y1="273.77138" x2="195.75991" y2="221.12537" gradientUnits="userSpaceOnUse" id="color-3"><stop offset="0" stop-color="#000000"/><stop offset="1" stop-color="#ffae60"/></linearGradient><linearGradient x1="230.23289" y1="283.2044" x2="230.23289" y2="380.25535" gradientUnits="userSpaceOnUse" id="color-4"><stop offset="0" stop-color="#ffffff"/><stop offset="1" stop-color="#973500"/></linearGradient><linearGradient x1="338.53991" y1="273.77138" x2="338.53991" y2="221.12537" gradientUnits="userSpaceOnUse" id="color-5"><stop offset="0" stop-color="#000000"/><stop offset="1" stop-color="#6de46e"/></linearGradient><linearGradient x1="373.01291" y1="283.2044" x2="373.01291" y2="380.25535" gradientUnits="userSpaceOnUse" id="color-6"><stop offset="0" stop-color="#f5f5f5"/><stop offset="1" stop-color="#316829"/></linearGradient><linearGradient x1="78.19091" y1="289.89836" x2="78.19091" y2="311.41736" gradientUnits="userSpaceOnUse" id="color-7"><stop offset="0" stop-color="#ffffff"/><stop offset="0.511" stop-color="#f1bc00"/><stop offset="0.914" stop-color="#cc740e"/></linearGradient><linearGradient x1="60.67391" y1="292.67934" x2="60.67391" y2="271.72338" gradientUnits="userSpaceOnUse" id="color-8"><stop offset="0" stop-color="#000000"/><stop offset="1" stop-color="#f1bc00"/></linearGradient><linearGradient x1="30.07691" y1="380.30639" x2="30.07691" y2="391.22443" gradientUnits="userSpaceOnUse" id="color-9"><stop offset="0" stop-color="#ffffff"/><stop offset="0.511" stop-color="#f1bc00"/><stop offset="0.914" stop-color="#cc740e"/></linearGradient><linearGradient x1="21.19391" y1="381.71536" x2="21.19391" y2="371.08437" gradientUnits="userSpaceOnUse" id="color-10"><stop offset="0" stop-color="#000000"/><stop offset="1" stop-color="#f1bc00"/></linearGradient><linearGradient x1="71.63091" y1="380.30639" x2="71.63091" y2="391.22443" gradientUnits="userSpaceOnUse" id="color-11"><stop offset="0" stop-color="#ffffff"/><stop offset="0.511" stop-color="#f1bc00"/><stop offset="0.914" stop-color="#cc740e"/></linearGradient><linearGradient x1="62.74991" y1="381.71536" x2="62.74991" y2="371.08437" gradientUnits="userSpaceOnUse" id="color-12"><stop offset="0" stop-color="#000000"/><stop offset="1" stop-color="#f1bc00"/></linearGradient><linearGradient x1="113.18091" y1="380.30639" x2="113.18091" y2="391.22443" gradientUnits="userSpaceOnUse" id="color-13"><stop offset="0" stop-color="#ffffff"/><stop offset="0.511" stop-color="#f1bc00"/><stop offset="0.914" stop-color="#cc740e"/></linearGradient><linearGradient x1="104.29791" y1="381.71536" x2="104.29791" y2="371.08437" gradientUnits="userSpaceOnUse" id="color-14"><stop offset="0" stop-color="#000000"/><stop offset="1" stop-color="#f1bc00"/></linearGradient><linearGradient x1="220.52191" y1="289.89836" x2="220.52191" y2="311.41736" gradientUnits="userSpaceOnUse" id="color-15"><stop offset="0" stop-color="#ffffff"/><stop offset="0.511" stop-color="#f1bc00"/><stop offset="0.914" stop-color="#cc740e"/></linearGradient><linearGradient x1="203.00689" y1="292.67934" x2="203.00689" y2="271.72338" gradientUnits="userSpaceOnUse" id="color-16"><stop offset="0" stop-color="#000000"/><stop offset="1" stop-color="#f1bc00"/></linearGradient><linearGradient x1="172.40791" y1="380.30639" x2="172.40791" y2="391.22443" gradientUnits="userSpaceOnUse" id="color-17"><stop offset="0" stop-color="#ffffff"/><stop offset="0.511" stop-color="#f1bc00"/><stop offset="0.914" stop-color="#cc740e"/></linearGradient><linearGradient x1="163.52691" y1="381.71536" x2="163.52691" y2="371.08437" gradientUnits="userSpaceOnUse" id="color-18"><stop offset="0" stop-color="#000000"/><stop offset="1" stop-color="#f1bc00"/></linearGradient><linearGradient x1="213.96291" y1="380.30639" x2="213.96291" y2="391.22443" gradientUnits="userSpaceOnUse" id="color-19"><stop offset="0" stop-color="#ffffff"/><stop offset="0.511" stop-color="#f1bc00"/><stop offset="0.914" stop-color="#cc740e"/></linearGradient><linearGradient x1="205.08191" y1="381.71536" x2="205.08191" y2="371.08437" gradientUnits="userSpaceOnUse" id="color-20"><stop offset="0" stop-color="#000000"/><stop offset="1" stop-color="#f1bc00"/></linearGradient><linearGradient x1="255.51291" y1="380.30639" x2="255.51291" y2="391.22443" gradientUnits="userSpaceOnUse" id="color-21"><stop offset="0" stop-color="#ffffff"/><stop offset="0.511" stop-color="#f1bc00"/><stop offset="0.914" stop-color="#cc740e"/></linearGradient><linearGradient x1="246.62991" y1="381.71536" x2="246.62991" y2="371.08437" gradientUnits="userSpaceOnUse" id="color-22"><stop offset="0" stop-color="#000000"/><stop offset="1" stop-color="#f1bc00"/></linearGradient><linearGradient x1="360.16891" y1="289.89836" x2="360.16891" y2="311.41736" gradientUnits="userSpaceOnUse" id="color-23"><stop offset="0" stop-color="#ffffff"/><stop offset="0.511" stop-color="#f1bc00"/><stop offset="0.914" stop-color="#cc740e"/></linearGradient><linearGradient x1="342.65291" y1="292.67934" x2="342.65291" y2="271.72338" gradientUnits="userSpaceOnUse" id="color-24"><stop offset="0" stop-color="#000000"/><stop offset="1" stop-color="#f1bc00"/></linearGradient><linearGradient x1="312.05491" y1="380.30639" x2="312.05491" y2="391.22443" gradientUnits="userSpaceOnUse" id="color-25"><stop offset="0" stop-color="#ffffff"/><stop offset="0.511" stop-color="#f1bc00"/><stop offset="0.914" stop-color="#cc740e"/></linearGradient><linearGradient x1="303.17291" y1="381.71536" x2="303.17291" y2="371.08437" gradientUnits="userSpaceOnUse" id="color-26"><stop offset="0" stop-color="#000000"/><stop offset="1" stop-color="#f1bc00"/></linearGradient><linearGradient x1="353.60891" y1="380.30639" x2="353.60891" y2="391.22443" gradientUnits="userSpaceOnUse" id="color-27"><stop offset="0" stop-color="#ffffff"/><stop offset="0.511" stop-color="#f1bc00"/><stop offset="0.914" stop-color="#cc740e"/></linearGradient><linearGradient x1="344.72691" y1="381.71536" x2="344.72691" y2="371.08437" gradientUnits="userSpaceOnUse" id="color-28"><stop offset="0" stop-color="#000000"/><stop offset="1" stop-color="#f1bc00"/></linearGradient><linearGradient x1="395.15991" y1="380.30639" x2="395.15991" y2="391.22443" gradientUnits="userSpaceOnUse" id="color-29"><stop offset="0" stop-color="#ffffff"/><stop offset="0.511" stop-color="#f1bc00"/><stop offset="0.914" stop-color="#cc740e"/></linearGradient><linearGradient x1="386.27691" y1="381.71536" x2="386.27691" y2="371.08437" gradientUnits="userSpaceOnUse" id="color-30"><stop offset="0" stop-color="#000000"/><stop offset="1" stop-color="#f1bc00"/></linearGradient></defs><g transform="translate(1.00704,-216.94235)"><g stroke="none" stroke-miterlimit="10"><g fill-rule="nonzero"><path d="M132.29191,329.44235c-2.3,14.1 -11.6,23.2 -23.7,23.2h-81.1c-12.5,0 -21.2,-8.4 -23.7,-23.2c-2.9,-16.5 -6.8,-59.6 -3.6,-89.1c1.6,-14 11.7,-23.4 25.2,-23.4h85.3c12.8,0 23.1,9.6 25.1,23.3c5.2,34.8 -2.6,83.8 -3.5,89.2z" fill="#7d0f13"/><path d="M128.89191,328.84234c-1.9,11.2 -9.1,20.3 -20.3,20.3h-81.1c-11.2,0 -18.1,-7.7 -20.3,-20.3c-3.1,-18 -6.6,-60.2 -3.5,-88.1c1.4,-12.8 10.5,-20.3 21.7,-20.3h85.3c11.2,0 19.9,8.6 21.7,20.3c4.4,29.8 -0.7,71.3 -3.5,88.1z" fill="#c52d2c"/><path d="M2.69191,277.54236c-0.4,-12.9 -0.2,-26 1,-36.8c1.4,-12.8 10.5,-20.3 21.7,-20.3h85.3c11.2,0 19.9,8.6 21.7,20.3c1.8,12.6 2,27.3 1.4,41.3c-12.3,-1.9 -24.6,-4.1 -36.9,-5.6c-16.7,-2.2 -33.6,-2.2 -50.4,-1.8c-8.5,0.2 -17.1,0.6 -25.7,1.1c-4.5,0.2 -9.1,0.7 -13.6,1.1c-1.4,0.2 -2.9,0.4 -4.5,0.7z" fill="url(#color-1)" opacity="0.5" style="mix-blend-mode: screen"/><path d="M133.69191,284.14237c-1,18.4 -3.3,35.4 -4.8,44.7c-1.9,11.2 -9.1,20.3 -20.3,20.3h-81.1c-11.2,0 -18.1,-7.7 -20.3,-20.3c-1.8,-10.6 -3.8,-29.8 -4.5,-49.4c3.9,-0.4 7.7,-0.8 11.6,-1.2c8.5,-0.8 17.1,-1 25.6,-1.3c17.9,-0.7 36,-0.8 53.9,1.2c13.3,1.5 26.6,4 39.9,6z" fill="url(#color-2)" style="mix-blend-mode: multiply"/><g fill="#ff5b47" opacity="0.7" style="mix-blend-mode: screen"><g opacity="0.5" style="mix-blend-mode: normal"><path d="M113.79191,236.14237c3.4,-3.6 6.8,-7.2 9.9,-11.1c0.46667,0.33333 0.9,0.7 1.3,1.1c-3.5,2.6 -6.4,6.1 -9.8,8.8c-0.46667,0.4 -0.93333,0.8 -1.4,1.2z"/></g><g opacity="0.5" style="mix-blend-mode: normal"><path d="M52.39191,228.74237c0.1,-2.8 -0.5,-5.5 -0.3,-8.3h4.2c-0.1,0.6 -0.3,1.3 -0.3,1.6c-0.4,2.2 -0.6,4.4 -0.8,6.6c-0.2,2.26667 -0.3,4.5 -0.3,6.7c-0.73333,0.06667 -1.43333,0.13333 -2.1,0.2c-0.7,-2.2 -0.4,-4.8 -0.4,-6.8z"/></g><g opacity="0.5" style="mix-blend-mode: normal"><path d="M61.69191,220.44237h15.9c-0.9,4.9 -1.7,9.9 -2,15c-2.2,-0.2 -4.4,-0.4 -6.5,-0.5c-2.1,-0.2 -4.2,-0.1 -6.3,-0.1c0,-4.8 -1,-9.5 -1.1,-14.4z"/></g><g opacity="0.5" style="mix-blend-mode: normal"><path d="M34.39191,224.04238c-0.33333,-1.2 -0.66667,-2.4 -1,-3.6h13c-0.06667,1.26667 -0.1,2.5 -0.1,3.7c-0.1,3.7 0.6,7.5 0.5,11.1c-2.7,-0.2 -5.5,-0.5 -8.2,-0.2c-0.26667,0.06667 -0.53333,0.13333 -0.8,0.2c-1.3,-3.7 -2.4,-7.4 -3.4,-11.2z"/></g><g opacity="0.5" style="mix-blend-mode: normal"><path d="M31.19191,238.24238c-2.8,-6.2 -7.8,-11.1 -10.6,-17.3c0.66667,-0.13333 1.33333,-0.23333 2,-0.3c1.5,2.1 2.7,4.4 3.9,6.7c1.1,2 2.2,4 3.2,6c0.8,1.4 1.7,2.8 2.6,4.2c-0.4,0.26667 -0.76667,0.5 -1.1,0.7z"/></g><g opacity="0.5" style="mix-blend-mode: normal"><path d="M48.39191,227.74237c-0.06667,-2.4 -0.03333,-4.83333 0.1,-7.3h1.4c-0.1,2.8 0.4,5.6 0.4,8.4c0,2.1 -0.2,4.5 0.3,6.7c-0.6,0 -1.16667,-0.03333 -1.7,-0.1c-0.1,-2.6 -0.5,-5.2 -0.5,-7.7z"/></g><g opacity="0.5" style="mix-blend-mode: normal"><path d="M83.99191,235.84234c0.33333,-2.26667 0.66667,-4.53333 1,-6.8c0.4,-2.7 0.5,-5.9 1.4,-8.6h4.8c-2.6,4.5 -2.4,10.5 -4,15.3c-0.86667,0 -1.7,0.03333 -2.5,0.1c-0.26667,0 -0.5,0 -0.7,0z"/></g><g opacity="0.5" style="mix-blend-mode: normal"><path d="M128.59191,241.64237c1.2,-0.6 2.4,-1.3 3.6,-1.8c0.06667,0.26667 0.13333,0.56667 0.2,0.9c0.2,1.6 0.4,3.2 0.6,4.8c-1.4,0.4 -2.8,0.7 -4.1,1c-2.9,0.7 -5.7,1.8 -8.5,2.8c-2.3,0.7 -4.6,1.4 -7,2c-0.2,-0.6 -0.4,-1.2 -0.6,-1.8c2.9,-1.3 5.7,-2.8 8.5,-4.3c2.4,-1.26667 4.83333,-2.46667 7.3,-3.6z"/></g><g opacity="0.5" style="mix-blend-mode: normal"><path d="M24.79191,235.64237c-3.6,-4 -6.9,-8.2 -10.3,-12.4c1.26667,-0.73333 2.6,-1.3 4,-1.7c2.9,6.3 8.1,11.4 10.9,17.8c-0.06667,0.06667 -0.13333,0.1 -0.2,0.1c-0.26667,0.2 -0.53333,0.4 -0.8,0.6c-1.1,-1.6 -2.4,-3 -3.6,-4.4z"/></g><g opacity="0.5" style="mix-blend-mode: normal"><path d="M123.39191,260.84234c3.5,-0.5 7.1,-0.4 10.6,-0.6c0,1.13333 0.03333,2.23333 0.1,3.3c-0.86667,0 -1.73333,0 -2.6,0c-5.1,-0.1 -10.3,-0.3 -15.4,-0.6c-0.06667,0 -0.1,0 -0.1,0c-0.06667,-0.13333 -0.1,-0.26667 -0.1,-0.4c0,-0.13333 -0.03333,-0.3 -0.1,-0.5c2.53333,-0.46667 5.06667,-0.86667 7.6,-1.2z"/></g><g opacity="0.5" style="mix-blend-mode: normal"><path d="M110.69191,233.44235c2.1,-4.1 4.7,-7.9 7.4,-11.6c1.4,0.53333 2.7,1.2 3.9,2c-4.6,5.7 -9.9,10.9 -14.7,16.5c-0.13333,-0.13333 -0.26667,-0.23333 -0.4,-0.3c1.4,-2.1 2.6,-4.4 3.8,-6.6z"/></g><g opacity="0.5" style="mix-blend-mode: normal"><path d="M90.89191,228.94237c0.5,-2.6 1.1,-6.3 2.8,-8.5h1.8c-2.5,4.5 -3.4,10.2 -4.6,15.3c-0.46667,0 -0.93333,0 -1.4,0c0.6,-2.2 0.9,-4.5 1.4,-6.8z"/></g><g opacity="0.5" style="mix-blend-mode: normal"><path d="M103.99191,228.04238c1.1,-2.5 2,-5.1 3.2,-7.6h3.5c0.4,0 0.8,0.03333 1.2,0.1c-1.7,2.7 -3.8,5.2 -5.4,8.1c-1.5,2.9 -2.8,5.8 -4.2,8.7c-0.6,-0.2 -1.2,-0.36667 -1.8,-0.5c1.1,-3 2.3,-5.9 3.5,-8.8z"/></g><g opacity="0.5" style="mix-blend-mode: normal"><path d="M117.59191,309.44235c4.6,1 9,2.4 13.5,3.9c-0.2,1.26667 -0.36667,2.5 -0.5,3.7c-2.66667,-1 -5.3,-2.1 -7.9,-3.3c-1.4,-0.6 -3.4,-1.8 -5.3,-2.2c0,-0.06667 0,-0.13333 0,-0.2c0.06667,-0.66667 0.13333,-1.3 0.2,-1.9z"/></g><g opacity="0.5" style="mix-blend-mode: normal"><path d="M122.59191,316.04236c2.6,1 5.1,2.1 7.7,3.1c-0.13333,0.86667 -0.23333,1.73333 -0.3,2.6c-2.5,-0.9 -4.9,-1.9 -6.9,-3.4c-1.9,-1.4 -3.8,-3 -6.1,-3.1c0.06667,-0.53333 0.13333,-1.1 0.2,-1.7c1.8,0.4 4.2,2 5.4,2.5z"/></g><g opacity="0.5" style="mix-blend-mode: normal"><path d="M13.89191,325.64237c-2.3,1.4 -4.2,3.2 -6.3,4.9c-0.13333,-0.53333 -0.26667,-1.1 -0.4,-1.7c-0.06667,-0.33333 -0.13333,-0.7 -0.2,-1.1c3.1,-1.7 6.3,-3.3 9.4,-5c1.86667,-0.93333 3.66667,-1.93333 5.4,-3c0.7,-0.5 1.6,-1.2 2.5,-1.5c0.06667,0.46667 0.13333,0.93333 0.2,1.4c-0.06667,0 -0.13333,0.03333 -0.2,0.1c-3.4,2.1 -7,3.8 -10.4,5.9z"/></g><g opacity="0.5" style="mix-blend-mode: normal"><path d="M118.39191,294.14237c4.9,0 9.7,0.9 14.4,2c-0.06667,0.8 -0.13333,1.63333 -0.2,2.5c-2.2,-0.7 -4.4,-1.3 -6.5,-1.8c-2.4,-0.7 -5.1,-2.1 -7.7,-1.8c0,-0.33333 0,-0.63333 0,-0.9z"/></g><g opacity="0.5" style="mix-blend-mode: normal"><path d="M133.69191,282.14237c0,0.8 -0.03333,1.56667 -0.1,2.3c-2,-0.2 -4.1,-0.6 -6.2,-0.8c-3.1,-0.3 -6.3,-0.3 -9.4,-0.3c0,-0.2 0,-0.4 0,-0.6c5.2,-0.3 10.5,-0.8 15.7,-0.6z"/></g><g opacity="0.5" style="mix-blend-mode: normal"><path d="M2.49191,263.64237c0,-1 0.03333,-2 0.1,-3c2.3,-0.1 4.6,0.2 7,0.3c3.1,0.3 6.3,0.7 9.5,1.1c0,0.46667 0,0.93333 0,1.4c-5.5,0.4 -11.1,-0.3 -16.6,0.2z"/></g><g opacity="0.5" style="mix-blend-mode: normal"><path d="M2.49191,268.24238c0,-0.86667 0,-1.73333 0,-2.6c5.6,-0.5 11.2,0.2 16.7,-0.1c0,0.2 0,0.36667 0,0.5c0.06667,0.33333 0.1,0.63333 0.1,0.9c-2.1,0.2 -4.2,0.4 -6.3,0.5c-3.4,0.2 -7,1.1 -10.5,0.8z"/></g><g opacity="0.5" style="mix-blend-mode: normal"><path d="M17.19191,255.24238c-4.8,-0.6 -9.6,-1 -14.4,-1.5c0.1,-3.5 0.3,-6.9 0.6,-10.2c2.7,1.1 5.6,1.9 8.3,2.8c2.7,1 5.4,1.9 8,3c-0.5,1.8 -0.7,3.8 -0.7,5.5c-0.06667,0.2 -0.1,0.36667 -0.1,0.5c-0.7,0 -1.3,-0.1 -1.7,-0.1z"/></g><g opacity="0.5" style="mix-blend-mode: normal"><path d="M11.49191,294.04236c-2.5,0.7 -5.3,1.2 -7.9,2.2c-0.06667,-0.8 -0.1,-1.6 -0.1,-2.4c5.2,-1.5 10.6,-2.5 15.9,-3.6c0.06667,0.6 0.13333,1.2 0.2,1.8c-2.7,0.6 -5.4,1.4 -8.1,2z"/></g><g opacity="0.5" style="mix-blend-mode: normal"><path d="M21.89191,306.94235c-5.6,3.4 -11,7 -16.3,10.7c-0.13333,-1.4 -0.3,-2.86667 -0.5,-4.4c5.5,-2.8 10.8,-6.1 16.3,-8.9c0.06667,0.2 0.1,0.43333 0.1,0.7c0.13333,0.6 0.26667,1.23333 0.4,1.9z"/></g></g><path d="M17.59191,341.84234c-0.7,1.1 -1.2,2.3 -1.8,3.5c-1.86667,-1.46667 -3.43333,-3.3 -4.7,-5.5c1.2,-0.9 2.4,-1.9 3.7,-2.9c4.8,-3.8 9.7,-7.5 14.4,-11.4c-2,3.1 -4.1,6.1 -6.3,9c-1.8,2.4 -3.7,4.7 -5.3,7.3z" fill="#a9252a" opacity="0.7" style="mix-blend-mode: multiply"/><path d="M120.59191,344.74238c-1.13333,1 -2.36667,1.83333 -3.7,2.5c-0.13333,-0.2 -0.26667,-0.4 -0.4,-0.6c-1.1,-1.8 -2.4,-3.6 -3.6,-5.3c-1.06667,-1.53333 -2.1,-3.06667 -3.1,-4.6c0.9,0.9 1.9,1.9 2.9,2.8c1.7,1.5 3.8,2.5 5.6,3.9c0.7,0.5 1.5,0.9 2.3,1.3z" fill="#a9252a" opacity="0.7" style="mix-blend-mode: multiply"/><path d="M6.39191,235.14237c-0.9,0.9 -1.7,1.9 -2.3,3c1.6,-7.8 6.3,-13.3 12.4,-15.9c-0.26667,0.2 -0.5,0.43333 -0.7,0.7c-1.1,1.7 -0.1,4.5 0.7,6c2.6,4.1 6.3,5.7 11,5.9c7.2,0.2 14.4,-0.3 21.6,0.4c7.4,0.7 14.7,1.5 22,2c7.5,0.6 15,0.9 22.5,0.3c7.1,-0.6 14.1,-2.9 21.2,-2.9c3.4,0.1 7,-0.7 7.9,-4.6c0.6,-3.1 -1.6,-7.1 -4.6,-8.2c7.5,2.8 12.9,9.9 14.3,18.9c0,0.26667 0.03333,0.53333 0.1,0.8c-1,-3.7 -3.2,-7.1 -6.5,-7.2c-2.4,-0.1 -4.8,2.1 -6.1,4c-1.2,1.7 -0.9,3.7 -1.2,5.6c-0.2,1.5 -0.9,2.6 -1.4,4c-1.5,4.1 -1.3,8.5 -1.9,12.7c-0.93333,6.2 -1.66667,12.46667 -2.2,18.8h-95.8c-0.13333,-1.86667 -0.2,-3.73333 -0.2,-5.6c-0.3,-8.6 -0.9,-17.3 -0.4,-25.9c0.2,-3.2 0.2,-6.1 -1.6,-8.8c-1.8,-2.8 -5.5,-7.2 -8.8,-4z" fill="#f7c7bd" opacity="0.4" style="mix-blend-mode: screen"/><path d="M14.19191,232.74238c-1.9,-1.4 -3.9,-2.8 -5.9,-4.1c0.93333,-1.2 1.93333,-2.26667 3,-3.2c0.2,0.33333 0.4,0.63333 0.6,0.9c1.4,1.9 3.2,3.6 4.8,5.4c3.2,3.3 6.6,6.5 8.9,10.5c-3.2,-3.9 -7.4,-6.6 -11.4,-9.5z" fill="#f7c7bd"/><path d="M120.39191,233.34234c2,-1.9 4.1,-3.8 6,-5.8c0.53333,0.66667 1.03333,1.33333 1.5,2c-0.6,0.33333 -1.2,0.7 -1.8,1.1c-2.3,1.6 -4.3,3.7 -6.5,5.4c-2.3,1.7 -5.1,3.3 -7.6,4.5c2.5,-2.6 5.8,-4.7 8.4,-7.2z" fill="#f7c7bd"/><path d="M128.29191,331.34234c-2.4,10 -9.4,17.8 -19.7,17.8h-81.1c-10.5,0 -17.3,-6.8 -19.8,-18.1c1.7,2.6 4,4.1 6.9,2.7c5.4,-2.6 5.1,-9.5 5,-14.4c-0.1,-5.4 0,-10.8 -0.6,-16.2c-0.7,-7.2 -1.2,-14.4 -1.6,-21.6h95.6c-0.13333,1.86667 -0.26667,3.73333 -0.4,5.6c-0.4,6.4 -0.6,12.9 -0.5,19.3c0.2,6.5 0.2,12.9 2.1,19.2c0.4,1 1.9,0.8 2.1,-0.2c0.5,-2.6 0.9,-5.3 1.5,-7.9c0.1,2.1 0.1,4.2 0.1,6.3c0,2.1 -0.6,4.7 0.5,6.7c1.5,2.5 5,4.3 7.8,2.6c0.8,-0.46667 1.5,-1.06667 2.1,-1.8z" fill="#940a14" opacity="0.4" style="mix-blend-mode: multiply"/><path d="M18.49191,347.04236c-1.8,-0.93333 -3.4,-2.16667 -4.8,-3.7c2.5,-2.7 4.8,-5.6 7.3,-8.2c1.06667,-1.06667 2.06667,-2.16667 3,-3.3c-0.9,3.2 -1.9,6.3 -3.4,9.4c-0.8,1.9 -1.5,3.8 -2.1,5.8z" fill="#f7c7bd" opacity="0.5"/><path d="M123.09191,342.24238c-1.2,1.46667 -2.56667,2.7 -4.1,3.7c-0.13333,-0.13333 -0.26667,-0.26667 -0.4,-0.4c-1.9,-2.4 -3.1,-5.2 -5.2,-7.6c-1.3,-1.5 -2.7,-2.8 -4,-4.3c-0.4,-0.53333 -0.76667,-1.03333 -1.1,-1.5c0.4,0.2 0.8,0.5 1.2,0.6c1.9,0.8 3.5,1.9 5.1,3.2c2.8,2.1 5.6,4.2 8.5,6.3z" fill="#f7c7bd" opacity="0.5"/><path d="M117.99191,320.94235c-1.6,9.1 -7.5,16.6 -16.6,16.6h-66.6c-9.1,0 -14.8,-6.3 -16.6,-16.6c-2.5,-14.8 -5.4,-49.4 -2.9,-72.3c1.2,-10.5 8.6,-16.6 17.8,-16.6h70c9.2,0 16.3,7 17.7,16.6c3.7,24.5 -0.5,58.5 -2.8,72.3z" fill="#ff5b47"/><g fill="#a9252a" opacity="0.15" style="mix-blend-mode: multiply"><path d="M117.99191,320.94235c-1.6,9.1 -7.5,16.6 -16.6,16.6h-66.6c-9.1,0 -14.8,-6.3 -16.6,-16.6c-2.5,-14.8 -5.4,-49.4 -2.9,-72.3c0.9,-7.3 4.7,-12.5 10.1,-14.9c-0.33333,0.33333 -0.6,0.73333 -0.8,1.2c-1.7,3.1 -5.7,7.2 -4.8,10.3c1.2,3.9 4.1,14.7 3.8,18.7c-2.3,27.6 28.3,21 41.9,21.4c14.6,0.4 35.8,4.2 45.1,-7.5c4.7,-6.1 6.7,-30 3.7,-37.5c-0.9,-2.3 -8.8,-6.8 -10.7,-8.3c8.9,0.3 15.8,7.2 17.2,16.6c3.7,24.5 -0.5,58.5 -2.8,72.3z" style="mix-blend-mode: normal"/></g><g fill="#a9252a" opacity="0.15" style="mix-blend-mode: multiply"><path d="M117.99191,320.94235c-1.6,9.1 -7.5,16.6 -16.6,16.6h-66.6c-9.1,0 -14.8,-6.3 -16.6,-16.6c-2.5,-14.8 -5.4,-49.4 -2.9,-72.3c0.2,-1.4 0.46667,-2.7 0.8,-3.9c0,0.26667 0,0.53333 0,0.8c0.2,6 1.4,12 2.6,17.9c3.5,16.9 -4.3,31.6 10.3,41.8c12.9,9 67.4,7.1 80.4,0c15.8,-8.7 3,-24.2 7.5,-41.1c1.7,-6.5 2.4,-13 0.9,-19.6c-0.7,-2.8 -1.9,-5.5 -3.3,-8.1c3.3,3 5.6,7.2 6.3,12.2c3.7,24.5 -0.5,58.5 -2.8,72.3z" style="mix-blend-mode: normal"/></g><path d="M15.29191,248.64237c0.4,-4.7 1.8,-9 5.1,-12.5c3.9,-4.1 9.1,-5.2 14.5,-5.4c12.5,-0.3 25.1,-0.5 37.7,-0.4c10.3,0 20.6,-0.1 30.9,0.5c9.8,0.7 16.2,8.4 17.3,17.8c-2.2,-8.5 -8.5,-15.4 -17.7,-15.3c-9.7,0 -19.9,0.4 -29.8,0.4c-12.06667,0.13333 -24.16667,0.03333 -36.3,-0.3c-5.5,-0.2 -10.8,-0.1 -15.3,3.6c-3.6,3 -5.4,7.2 -6.4,11.6z" fill="#f7c7bd"/><path d="M120.79191,248.64237c3.5,22.1 2.3,44.7 -0.6,66.7c-1.2,9.2 -3.4,19.4 -13.4,22.9c-4.2,1.5 -9,1 -13.5,1c-6.33333,0 -12.7,0 -19.1,0c-12.4,0.06667 -24.76667,0.06667 -37.1,0c-3.8,0 -7.4,-0.3 -10.8,-2.2c-5,-2.8 -7.8,-8.2 -9.1,-13.6c-1.3,-5.8 -1.7,-11.8 -2.2,-17.7c-0.5,-6.1 -0.9,-12.2 -1.1,-18.3c-0.3,-11.2 -0.4,-22.5 0.9,-33.6c0.2,-1.73333 0.36667,-3.46667 0.5,-5.2c-1,22.2 -0.1,44.8 3.5,66.7c0.9,5.5 1.6,11.3 5.3,15.7c2.7,3.4 6.7,4.9 10.9,4.8c11,-0.1 22,0 33,-0.1c6.46667,0.06667 12.9,0.1 19.3,0.1c5.4,0 11.2,0.6 16.6,-0.2c8.8,-1.3 11.9,-10.3 13.1,-17.8c3.8,-22.5 6,-45.9 3.9,-68.8c0,-0.13333 -0.03333,-0.26667 -0.1,-0.4z" fill="#f7c7bd" opacity="0.5"/><path d="M36.59189,251.64237c-2.5,1.8 -10.7,7.6 -13.5,3.6c-1.3,-1.9 -0.2,-5.6 0.5,-7.5c1.9,-5.5 15.9,-16.3 19,-6.1c1.3,4.1 -3.1,7.9 -6,10z" fill="#f7c7bd"/><path d="M53.89191,242.64237c-1.5,2.6 -6.6,6.6 -6.8,1c-0.1,-3.4 3.9,-5.4 6.1,-4.8c1.3,0.3 1.9,1.5 0.7,3.8z" fill="#f7c7bd"/></g><g fill-rule="nonzero"><path d="M274.19191,329.44235c-2.3,14.1 -11.6,23.2 -23.7,23.2h-81.1c-12.6,0 -21.2,-8.4 -23.7,-23.2c-2.9,-16.5 -6.9,-59.6 -3.6,-89.1c1.6,-14 11.7,-23.4 25.2,-23.4h85.3c12.8,0 23.1,9.6 25.1,23.3c5.2,34.8 -2.6,83.8 -3.5,89.2z" fill="#973500"/><path d="M270.69191,328.84234c-1.8,11.2 -9,20.3 -20.2,20.3h-81.1c-11.2,0 -18.1,-7.7 -20.3,-20.3c-3.1,-18 -6.6,-60.2 -3.5,-88.1c1.4,-12.8 10.5,-20.3 21.7,-20.3h85.3c11.2,0 19.9,8.6 21.7,20.3c4.4,29.8 -0.8,71.3 -3.6,88.1z" fill="#f16912"/><path d="M144.59191,277.54236c-0.4,-12.9 -0.2,-26 1,-36.8c1.4,-12.8 10.5,-20.3 21.7,-20.3h85.3c11.2,0 19.9,8.6 21.7,20.3c1.8,12.6 2,27.3 1.3,41.3c-12.2,-1.9 -24.5,-4.1 -36.8,-5.6c-16.7,-2.2 -33.6,-2.2 -50.4,-1.8c-8.5,0.2 -17.1,0.6 -25.7,1.1c-4.5,0.2 -9.1,0.7 -13.6,1.1c-1.4,0.2 -2.9,0.4 -4.5,0.7z" fill="url(#color-3)" opacity="0.5" style="mix-blend-mode: screen"/><path d="M275.49191,284.14237c-0.9,18.4 -3.2,35.4 -4.8,44.7c-1.8,11.2 -9,20.3 -20.2,20.3h-81.1c-11.2,0 -18.1,-7.7 -20.3,-20.3c-1.8,-10.6 -3.8,-29.8 -4.5,-49.4c3.9,-0.4 7.7,-0.8 11.5,-1.2c8.5,-0.8 17.1,-1 25.7,-1.3c17.9,-0.7 36,-0.8 53.9,1.2c13.3,1.5 26.6,4 39.8,6z" fill="url(#color-4)" style="mix-blend-mode: multiply"/><g fill="#ffae60" opacity="0.7" style="mix-blend-mode: screen"><g opacity="0.5" style="mix-blend-mode: normal"><path d="M255.69191,236.14237c3.4,-3.6 6.8,-7.2 9.9,-11.1c0.46667,0.33333 0.9,0.7 1.3,1.1c-3.5,2.6 -6.4,6.1 -9.8,8.8c-0.46667,0.4 -0.93333,0.8 -1.4,1.2z"/></g><g opacity="0.5" style="mix-blend-mode: normal"><path d="M194.2919,228.74237c0,-2.8 -0.5,-5.5 -0.4,-8.3h4.3c-0.1,0.6 -0.3,1.3 -0.4,1.6c-0.3,2.2 -0.5,4.4 -0.7,6.6c-0.2,2.26667 -0.33333,4.5 -0.4,6.7c-0.66667,0.06667 -1.36667,0.13333 -2.1,0.2c-0.6,-2.2 -0.3,-4.8 -0.3,-6.8z"/></g><g opacity="0.5" style="mix-blend-mode: normal"><path d="M203.59191,220.44237h15.9c-1,4.9 -1.7,9.9 -2,15c-2.2,-0.2 -4.4,-0.4 -6.6,-0.5c-2,-0.2 -4.1,-0.1 -6.2,-0.1c0,-4.8 -1,-9.5 -1.1,-14.4z"/></g><g opacity="0.5" style="mix-blend-mode: normal"><path d="M176.2919,224.04238c-0.33333,-1.2 -0.66667,-2.4 -1,-3.6h13c-0.06667,1.26667 -0.1,2.5 -0.1,3.7c-0.2,3.7 0.5,7.5 0.5,11.1c-2.8,-0.2 -5.5,-0.5 -8.2,-0.2c-0.26667,0.06667 -0.53333,0.13333 -0.8,0.2c-1.3,-3.7 -2.4,-7.4 -3.4,-11.2z"/></g><g opacity="0.5" style="mix-blend-mode: normal"><path d="M173.09191,238.24238c-2.9,-6.2 -7.8,-11.1 -10.6,-17.3c0.66667,-0.13333 1.33333,-0.23333 2,-0.3c1.5,2.1 2.7,4.4 3.9,6.7c1.1,2 2.1,4 3.2,6c0.8,1.4 1.7,2.8 2.6,4.2c-0.4,0.26667 -0.76667,0.5 -1.1,0.7z"/></g><g opacity="0.5" style="mix-blend-mode: normal"><path d="M190.19189,227.74237c0,-2.4 0.06667,-4.83333 0.2,-7.3h1.4c-0.1,2.8 0.4,5.6 0.4,8.4c0,2.1 -0.2,4.5 0.3,6.7c-0.6,0 -1.16667,-0.03333 -1.7,-0.1c-0.1,-2.6 -0.5,-5.2 -0.6,-7.7z"/></g><g opacity="0.5" style="mix-blend-mode: normal"><path d="M225.89191,235.84234c0.26667,-2.26667 0.6,-4.53333 1,-6.8c0.4,-2.7 0.5,-5.9 1.4,-8.6h4.8c-2.6,4.5 -2.4,10.5 -4,15.3c-0.86667,0 -1.73333,0.03333 -2.6,0.1c-0.2,0 -0.4,0 -0.6,0z"/></g><g opacity="0.5" style="mix-blend-mode: normal"><path d="M270.49191,241.64237c1.2,-0.6 2.4,-1.3 3.6,-1.8c0.06667,0.26667 0.13333,0.56667 0.2,0.9c0.2,1.6 0.4,3.2 0.6,4.8c-1.4,0.4 -2.8,0.7 -4.2,1c-2.8,0.7 -5.6,1.8 -8.4,2.8c-2.3,0.7 -4.7,1.4 -7,2c-0.2,-0.6 -0.4,-1.2 -0.6,-1.8c2.9,-1.3 5.7,-2.8 8.5,-4.3c2.4,-1.26667 4.83333,-2.46667 7.3,-3.6z"/></g><g opacity="0.5" style="mix-blend-mode: normal"><path d="M166.59191,235.64237c-3.5,-4 -6.8,-8.2 -10.2,-12.4c1.26667,-0.73333 2.6,-1.3 4,-1.7c2.9,6.3 8.1,11.4 10.9,17.8c-0.06667,0.06667 -0.13333,0.1 -0.2,0.1c-0.26667,0.2 -0.56667,0.4 -0.9,0.6c-1,-1.6 -2.3,-3 -3.6,-4.4z"/></g><g opacity="0.5" style="mix-blend-mode: normal"><path d="M265.29191,260.84234c3.5,-0.5 7,-0.4 10.6,-0.6c0,1.13333 0,2.23333 0,3.3c-0.8,0 -1.63333,0 -2.5,0c-5.1,-0.1 -10.3,-0.3 -15.4,-0.6c-0.06667,0 -0.13333,0 -0.2,0c0,-0.13333 0,-0.26667 0,-0.4c-0.06667,-0.13333 -0.1,-0.3 -0.1,-0.5c2.53333,-0.46667 5.06667,-0.86667 7.6,-1.2z"/></g><g opacity="0.5" style="mix-blend-mode: normal"><path d="M252.49191,233.44235c2.2,-4.1 4.7,-7.9 7.5,-11.6c1.4,0.53333 2.7,1.2 3.9,2c-4.6,5.7 -10,10.9 -14.8,16.5c-0.06667,-0.13333 -0.16667,-0.23333 -0.3,-0.3c1.4,-2.1 2.6,-4.4 3.7,-6.6z"/></g><g opacity="0.5" style="mix-blend-mode: normal"><path d="M232.79191,228.94237c0.5,-2.6 1.1,-6.3 2.8,-8.5h1.8c-2.5,4.5 -3.4,10.2 -4.6,15.3c-0.46667,0 -0.96667,0 -1.5,0c0.7,-2.2 1,-4.5 1.5,-6.8z"/></g><g opacity="0.5" style="mix-blend-mode: normal"><path d="M245.89191,228.04238c1,-2.5 2,-5.1 3.1,-7.6h3.6c0.4,0 0.8,0.03333 1.2,0.1c-1.8,2.7 -3.8,5.2 -5.4,8.1c-1.5,2.9 -2.8,5.8 -4.3,8.7c-0.53333,-0.2 -1.1,-0.36667 -1.7,-0.5c1.1,-3 2.3,-5.9 3.5,-8.8z"/></g><g opacity="0.5" style="mix-blend-mode: normal"><path d="M259.49191,309.44235c4.5,1 9,2.4 13.5,3.9c-0.2,1.26667 -0.36667,2.5 -0.5,3.7c-2.66667,-1 -5.3,-2.1 -7.9,-3.3c-1.4,-0.6 -3.4,-1.8 -5.3,-2.2c0,-0.06667 0,-0.13333 0,-0.2c0.06667,-0.66667 0.13333,-1.3 0.2,-1.9z"/></g><g opacity="0.5" style="mix-blend-mode: normal"><path d="M264.49191,316.04236c2.6,1 5.1,2.1 7.7,3.1c-0.13333,0.86667 -0.26667,1.73333 -0.4,2.6c-2.4,-0.9 -4.8,-1.9 -6.8,-3.4c-1.9,-1.4 -3.8,-3 -6.2,-3.1c0.13333,-0.53333 0.23333,-1.1 0.3,-1.7c1.8,0.4 4.2,2 5.4,2.5z"/></g><g opacity="0.5" style="mix-blend-mode: normal"><path d="M155.7919,325.64237c-2.3,1.4 -4.3,3.2 -6.4,4.9c-0.06667,-0.53333 -0.16667,-1.1 -0.3,-1.7c-0.06667,-0.33333 -0.13333,-0.7 -0.2,-1.1c3.1,-1.7 6.3,-3.3 9.4,-5c1.8,-0.93333 3.6,-1.93333 5.4,-3c0.7,-0.5 1.6,-1.2 2.4,-1.5c0.13333,0.46667 0.23333,0.93333 0.3,1.4c-0.06667,0 -0.13333,0.03333 -0.2,0.1c-3.4,2.1 -7,3.8 -10.4,5.9z"/></g><g opacity="0.5" style="mix-blend-mode: normal"><path d="M260.19191,294.14237c4.9,0 9.7,0.9 14.5,2c-0.06667,0.8 -0.13333,1.63333 -0.2,2.5c-2.2,-0.7 -4.4,-1.3 -6.5,-1.8c-2.4,-0.7 -5.2,-2.1 -7.7,-1.8c0,-0.33333 -0.03333,-0.63333 -0.1,-0.9z"/></g><g opacity="0.5" style="mix-blend-mode: normal"><path d="M275.59191,282.14237c0,0.8 -0.03333,1.56667 -0.1,2.3c-2.1,-0.2 -4.1,-0.6 -6.2,-0.8c-3.1,-0.3 -6.3,-0.3 -9.4,-0.3c0,-0.2 -0.03333,-0.4 -0.1,-0.6c5.3,-0.3 10.6,-0.8 15.8,-0.6z"/></g><g opacity="0.5" style="mix-blend-mode: normal"><path d="M144.39191,263.64237c0,-1 0,-2 0,-3c2.4,-0.1 4.7,0.2 7,0.3c3.2,0.3 6.4,0.7 9.6,1.1c0,0.46667 0,0.93333 0,1.4c-5.5,0.4 -11.1,-0.3 -16.6,0.2z"/></g><g opacity="0.5" style="mix-blend-mode: normal"><path d="M144.39191,268.24238c0,-0.86667 0,-1.73333 0,-2.6c5.5,-0.5 11.2,0.2 16.7,-0.1c0,0.2 0,0.36667 0,0.5c0,0.33333 0,0.63333 0,0.9c-2,0.2 -4.1,0.4 -6.2,0.5c-3.4,0.2 -7,1.1 -10.5,0.8z"/></g><g opacity="0.5" style="mix-blend-mode: normal"><path d="M159.09191,255.24238c-4.8,-0.6 -9.6,-1 -14.4,-1.5c0.1,-3.5 0.3,-6.9 0.6,-10.2c2.7,1.1 5.6,1.9 8.3,2.8c2.7,1 5.4,1.9 8,3c-0.5,1.8 -0.7,3.8 -0.8,5.5c0,0.2 0,0.36667 0,0.5c-0.7,0 -1.4,-0.1 -1.7,-0.1z"/></g><g opacity="0.5" style="mix-blend-mode: normal"><path d="M153.39191,294.04236c-2.5,0.7 -5.3,1.2 -7.9,2.2c-0.06667,-0.8 -0.1,-1.6 -0.1,-2.4c5.2,-1.5 10.6,-2.5 15.9,-3.6c0.06667,0.6 0.13333,1.2 0.2,1.8c-2.7,0.6 -5.4,1.4 -8.1,2z"/></g><g opacity="0.5" style="mix-blend-mode: normal"><path d="M163.69189,306.94235c-5.5,3.4 -10.9,7 -16.2,10.7c-0.13333,-1.4 -0.3,-2.86667 -0.5,-4.4c5.5,-2.8 10.8,-6.1 16.3,-8.9c0.06667,0.2 0.1,0.43333 0.1,0.7c0.13333,0.6 0.23333,1.23333 0.3,1.9z"/></g></g><path d="M159.49191,341.84234c-0.7,1.1 -1.3,2.3 -1.8,3.5c-1.86667,-1.46667 -3.46667,-3.3 -4.8,-5.5c1.3,-0.9 2.5,-1.9 3.7,-2.9c4.8,-3.8 9.7,-7.5 14.5,-11.4c-2,3.1 -4.1,6.1 -6.3,9c-1.8,2.4 -3.7,4.7 -5.3,7.3z" fill="#ce510f" opacity="0.7" style="mix-blend-mode: multiply"/><path d="M262.39191,344.74238c-1.13333,1 -2.36667,1.83333 -3.7,2.5c-0.06667,-0.2 -0.16667,-0.4 -0.3,-0.6c-1.2,-1.8 -2.4,-3.6 -3.6,-5.3c-1.06667,-1.53333 -2.1,-3.06667 -3.1,-4.6c0.9,0.9 1.8,1.9 2.9,2.8c1.7,1.5 3.8,2.5 5.6,3.9c0.7,0.5 1.5,0.9 2.2,1.3z" fill="#ce510f" opacity="0.7" style="mix-blend-mode: multiply"/><path d="M148.29191,235.14237c-1,0.9 -1.7,1.9 -2.3,3c1.6,-7.8 6.2,-13.3 12.4,-15.9c-0.26667,0.2 -0.5,0.43333 -0.7,0.7c-1.1,1.7 -0.2,4.5 0.7,6c2.5,4.1 6.3,5.7 11,5.9c7.2,0.2 14.4,-0.3 21.6,0.4c7.3,0.7 14.7,1.5 22,2c7.5,0.6 15,0.9 22.5,0.3c7.1,-0.6 14.1,-2.9 21.2,-2.9c3.4,0.1 7,-0.7 7.8,-4.6c0.7,-3.1 -1.5,-7.1 -4.5,-8.2c7.5,2.8 12.9,9.9 14.3,18.9c0,0.26667 0.03333,0.53333 0.1,0.8c-1,-3.7 -3.2,-7.1 -6.5,-7.2c-2.4,-0.1 -4.8,2.1 -6.1,4c-1.2,1.7 -0.9,3.7 -1.2,5.6c-0.2,1.5 -0.9,2.6 -1.4,4c-1.5,4.1 -1.3,8.5 -1.9,12.7c-0.93333,6.2 -1.66667,12.46667 -2.2,18.8h-95.9c-0.06667,-1.86667 -0.13333,-3.73333 -0.2,-5.6c-0.2,-8.6 -0.8,-17.3 -0.3,-25.9c0.2,-3.2 0.1,-6.1 -1.6,-8.8c-1.8,-2.8 -5.5,-7.2 -8.8,-4z" fill="#ffecd6" opacity="0.4" style="mix-blend-mode: screen"/><path d="M156.09191,232.74238c-1.9,-1.4 -3.9,-2.8 -5.9,-4.1c0.86667,-1.2 1.86667,-2.26667 3,-3.2c0.2,0.33333 0.4,0.63333 0.6,0.9c1.4,1.9 3.2,3.6 4.8,5.4c3.2,3.3 6.6,6.5 8.9,10.5c-3.2,-3.9 -7.4,-6.6 -11.4,-9.5z" fill="#ffecd6"/><path d="M262.29191,233.34234c2,-1.9 4.1,-3.8 6,-5.8c0.53333,0.66667 1.03333,1.33333 1.5,2c-0.6,0.33333 -1.2,0.7 -1.8,1.1c-2.3,1.6 -4.3,3.7 -6.5,5.4c-2.3,1.7 -5.1,3.3 -7.7,4.5c2.6,-2.6 5.9,-4.7 8.5,-7.2z" fill="#ffecd6"/><path d="M270.19191,331.34234c-2.4,10 -9.4,17.8 -19.7,17.8h-81.1c-10.5,0 -17.3,-6.8 -19.8,-18.1c1.7,2.6 4,4.1 6.9,2.7c5.3,-2.6 5.1,-9.5 5,-14.4c-0.1,-5.4 0,-10.8 -0.6,-16.2c-0.7,-7.2 -1.3,-14.4 -1.6,-21.6h95.6c-0.13333,1.86667 -0.26667,3.73333 -0.4,5.6c-0.4,6.4 -0.7,12.9 -0.5,19.3c0.1,6.5 0.2,12.9 2.1,19.2c0.3,1 1.9,0.8 2.1,-0.2c0.5,-2.6 0.9,-5.3 1.5,-7.9c0.1,2.1 0,4.2 0.1,6.3c0,2.1 -0.7,4.7 0.5,6.7c1.5,2.5 5,4.3 7.8,2.6c0.8,-0.46667 1.5,-1.06667 2.1,-1.8z" fill="#a93400" opacity="0.4" style="mix-blend-mode: multiply"/><path d="M160.39191,347.04236c-1.8,-0.93333 -3.4,-2.16667 -4.8,-3.7c2.5,-2.7 4.7,-5.6 7.3,-8.2c1.06667,-1.06667 2.06667,-2.16667 3,-3.3c-0.9,3.2 -1.9,6.3 -3.4,9.4c-0.9,1.9 -1.5,3.8 -2.1,5.8z" fill="#ffecd6" opacity="0.5"/><path d="M264.89191,342.24238c-1.2,1.46667 -2.53333,2.7 -4,3.7c-0.13333,-0.13333 -0.26667,-0.26667 -0.4,-0.4c-1.9,-2.4 -3.2,-5.2 -5.2,-7.6c-1.3,-1.5 -2.7,-2.8 -4,-4.3c-0.4,-0.53333 -0.8,-1.03333 -1.2,-1.5c0.5,0.2 0.9,0.5 1.3,0.6c1.9,0.8 3.5,1.9 5.1,3.2c2.8,2.1 5.6,4.2 8.4,6.3z" fill="#ffecd6" opacity="0.5"/><path d="M259.79191,320.94235c-1.5,9.1 -7.4,16.6 -16.6,16.6h-66.5c-9.2,0 -14.8,-6.3 -16.6,-16.6c-2.5,-14.8 -5.4,-49.4 -2.9,-72.3c1.2,-10.5 8.6,-16.6 17.8,-16.6h70c9.1,0 16.3,7 17.7,16.6c3.7,24.5 -0.6,58.5 -2.9,72.3z" fill="#ffae60"/><g fill="#ce510f" opacity="0.15" style="mix-blend-mode: multiply"><path d="M259.79191,320.94235c-1.5,9.1 -7.4,16.6 -16.6,16.6h-66.5c-9.2,0 -14.8,-6.3 -16.6,-16.6c-2.5,-14.8 -5.4,-49.4 -2.9,-72.3c0.8,-7.3 4.7,-12.5 10,-14.9c-0.26667,0.33333 -0.53333,0.73333 -0.8,1.2c-1.6,3.1 -5.6,7.2 -4.7,10.3c1.2,3.9 4.1,14.7 3.8,18.7c-2.3,27.6 28.3,21 41.9,21.4c14.6,0.4 35.7,4.2 45,-7.5c4.8,-6.1 6.8,-30 3.8,-37.5c-0.9,-2.3 -8.9,-6.8 -10.7,-8.3c8.9,0.3 15.8,7.2 17.2,16.6c3.7,24.5 -0.6,58.5 -2.9,72.3z" style="mix-blend-mode: normal"/></g><g fill="#ce510f" opacity="0.15" style="mix-blend-mode: multiply"><path d="M259.79191,320.94235c-1.5,9.1 -7.4,16.6 -16.6,16.6h-66.5c-9.2,0 -14.8,-6.3 -16.6,-16.6c-2.5,-14.8 -5.4,-49.4 -2.9,-72.3c0.2,-1.4 0.46667,-2.7 0.8,-3.9c0,0.26667 0,0.53333 0,0.8c0.2,6 1.4,12 2.6,17.9c3.5,16.9 -4.3,31.6 10.3,41.8c12.8,9 67.4,7.1 80.4,0c15.8,-8.7 3,-24.2 7.5,-41.1c1.7,-6.5 2.4,-13 0.9,-19.6c-0.7,-2.8 -1.9,-5.5 -3.3,-8.1c3.3,3 5.6,7.2 6.3,12.2c3.7,24.5 -0.6,58.5 -2.9,72.3z" style="mix-blend-mode: normal"/></g><path d="M157.19189,248.64237c0.4,-4.7 1.8,-9 5.1,-12.5c3.9,-4.1 9,-5.2 14.5,-5.4c12.5,-0.3 25.1,-0.5 37.7,-0.4c10.3,0 20.6,-0.1 30.9,0.5c9.8,0.7 16.2,8.4 17.3,17.8c-2.2,-8.5 -8.5,-15.4 -17.7,-15.3c-9.7,0 -19.9,0.4 -29.8,0.4c-12.06667,0.13333 -24.16667,0.03333 -36.3,-0.3c-5.5,-0.2 -10.8,-0.1 -15.3,3.6c-3.6,3 -5.4,7.2 -6.4,11.6z" fill="#ffecd6"/><path d="M262.69191,248.64237c3.5,22.1 2.3,44.7 -0.6,66.7c-1.2,9.2 -3.5,19.4 -13.4,22.9c-4.2,1.5 -9.1,1 -13.5,1c-6.33333,0 -12.7,0 -19.1,0c-12.4,0.06667 -24.76667,0.06667 -37.1,0c-3.8,0 -7.5,-0.3 -10.8,-2.2c-5,-2.8 -7.9,-8.2 -9.1,-13.6c-1.3,-5.8 -1.7,-11.8 -2.2,-17.7c-0.5,-6.1 -0.9,-12.2 -1.1,-18.3c-0.4,-11.2 -0.4,-22.5 0.9,-33.6c0.13333,-1.73333 0.3,-3.46667 0.5,-5.2c-1,22.2 -0.1,44.8 3.5,66.7c0.9,5.5 1.6,11.3 5.2,15.7c2.8,3.4 6.8,4.9 11,4.8c11,-0.1 22,0 33,-0.1c6.4,0.06667 12.8,0.1 19.2,0.1c5.5,0 11.3,0.6 16.7,-0.2c8.7,-1.3 11.8,-10.3 13.1,-17.8c3.8,-22.5 6,-45.9 3.9,-68.8c-0.06667,-0.13333 -0.1,-0.26667 -0.1,-0.4z" fill="#ffecd6" opacity="0.5"/><path d="M178.49191,251.64237c-2.5,1.8 -10.7,7.6 -13.5,3.6c-1.4,-1.9 -0.2,-5.6 0.4,-7.5c2,-5.5 16,-16.3 19.1,-6.1c1.2,4.1 -3.1,7.9 -6,10z" fill="#ffecd6"/><path d="M195.7919,242.64237c-1.5,2.6 -6.6,6.6 -6.8,1c-0.2,-3.4 3.9,-5.4 6.1,-4.8c1.3,0.3 1.9,1.5 0.7,3.8z" fill="#ffecd6"/></g><g fill-rule="nonzero"><path d="M416.99191,329.44235c-2.4,14.1 -11.7,23.2 -23.7,23.2h-81.2c-12.5,0 -21.1,-8.4 -23.7,-23.2c-2.8,-16.5 -6.8,-59.6 -3.5,-89.1c1.5,-14 11.7,-23.4 25.1,-23.4h85.4c12.7,0 23.1,9.6 25.1,23.3c5.2,34.8 -2.6,83.8 -3.5,89.2z" fill="#316829"/><path d="M413.49191,328.84234c-1.8,11.2 -9,20.3 -20.2,20.3h-81.2c-11.1,0 -18,-7.7 -20.2,-20.3c-3.1,-18 -6.6,-60.2 -3.5,-88.1c1.4,-12.8 10.5,-20.3 21.6,-20.3h85.4c11.2,0 19.9,8.6 21.6,20.3c4.5,29.8 -0.7,71.3 -3.5,88.1z" fill="#58a950"/><path d="M287.39191,277.54236c-0.4,-12.9 -0.2,-26 1,-36.8c1.4,-12.8 10.5,-20.3 21.6,-20.3h85.4c11.2,0 19.9,8.6 21.6,20.3c1.9,12.6 2.1,27.3 1.4,41.3c-12.3,-1.9 -24.5,-4.1 -36.8,-5.6c-16.7,-2.2 -33.6,-2.2 -50.4,-1.8c-8.6,0.2 -17.1,0.6 -25.7,1.1c-4.6,0.2 -9.1,0.7 -13.6,1.1c-1.4,0.2 -3,0.4 -4.5,0.7z" fill="url(#color-5)" opacity="0.5" style="mix-blend-mode: screen"/><path d="M418.29189,284.14237c-0.9,18.4 -3.2,35.4 -4.8,44.7c-1.8,11.2 -9,20.3 -20.2,20.3h-81.2c-11.1,0 -18,-7.7 -20.2,-20.3c-1.8,-10.6 -3.8,-29.8 -4.5,-49.4c3.8,-0.4 7.7,-0.8 11.5,-1.2c8.5,-0.8 17.1,-1 25.7,-1.3c17.9,-0.7 36,-0.8 53.8,1.2c13.4,1.5 26.6,4 39.9,6z" fill="url(#color-6)" style="mix-blend-mode: multiply"/><g fill="#6de46e" opacity="0.7" style="mix-blend-mode: screen"><g opacity="0.5" style="mix-blend-mode: normal"><path d="M398.49191,236.14237c3.3,-3.6 6.8,-7.2 9.9,-11.1c0.4,0.33333 0.83333,0.7 1.3,1.1c-3.5,2.6 -6.4,6.1 -9.8,8.8c-0.46667,0.4 -0.93333,0.8 -1.4,1.2z"/></g><g opacity="0.5" style="mix-blend-mode: normal"><path d="M337.09191,228.74237c0,-2.8 -0.5,-5.5 -0.4,-8.3h4.3c-0.2,0.6 -0.3,1.3 -0.4,1.6c-0.3,2.2 -0.5,4.4 -0.7,6.6c-0.2,2.26667 -0.33333,4.5 -0.4,6.7c-0.66667,0.06667 -1.36667,0.13333 -2.1,0.2c-0.6,-2.2 -0.3,-4.8 -0.3,-6.8z"/></g><g opacity="0.5" style="mix-blend-mode: normal"><path d="M346.39191,220.44237h15.9c-1,4.9 -1.7,9.9 -2.1,15c-2.1,-0.2 -4.3,-0.4 -6.5,-0.5c-2.1,-0.2 -4.1,-0.1 -6.2,-0.1c0,-4.8 -1,-9.5 -1.1,-14.4z"/></g><g opacity="0.5" style="mix-blend-mode: normal"><path d="M319.09191,224.04238c-0.33333,-1.2 -0.66667,-2.4 -1,-3.6h13c-0.06667,1.26667 -0.13333,2.5 -0.2,3.7c-0.1,3.7 0.6,7.5 0.6,11.1c-2.8,-0.2 -5.5,-0.5 -8.3,-0.2c-0.2,0.06667 -0.43333,0.13333 -0.7,0.2c-1.4,-3.7 -2.4,-7.4 -3.4,-11.2z"/></g><g opacity="0.5" style="mix-blend-mode: normal"><path d="M315.79191,238.24238c-2.8,-6.2 -7.7,-11.1 -10.6,-17.3c0.73333,-0.13333 1.43333,-0.23333 2.1,-0.3c1.5,2.1 2.7,4.4 3.9,6.7c1.1,2 2.1,4 3.2,6c0.7,1.4 1.7,2.8 2.5,4.2c-0.33333,0.26667 -0.7,0.5 -1.1,0.7z"/></g><g opacity="0.5" style="mix-blend-mode: normal"><path d="M332.99191,227.74237c0,-2.4 0.03333,-4.83333 0.1,-7.3h1.5c-0.1,2.8 0.4,5.6 0.4,8.4c0,2.1 -0.2,4.5 0.3,6.7c-0.6,0 -1.2,-0.03333 -1.8,-0.1c0,-2.6 -0.4,-5.2 -0.5,-7.7z"/></g><g opacity="0.5" style="mix-blend-mode: normal"><path d="M368.69191,235.84234c0.26667,-2.26667 0.56667,-4.53333 0.9,-6.8c0.4,-2.7 0.5,-5.9 1.4,-8.6h4.8c-2.5,4.5 -2.4,10.5 -3.9,15.3c-0.86667,0 -1.73333,0.03333 -2.6,0.1c-0.2,0 -0.4,0 -0.6,0z"/></g><g opacity="0.5" style="mix-blend-mode: normal"><path d="M413.29189,241.64237c1.2,-0.6 2.3,-1.3 3.6,-1.8c0.06667,0.26667 0.1,0.56667 0.1,0.9c0.26667,1.6 0.5,3.2 0.7,4.8c-1.4,0.4 -2.8,0.7 -4.2,1c-2.8,0.7 -5.6,1.8 -8.4,2.8c-2.3,0.7 -4.7,1.4 -7,2c-0.2,-0.6 -0.4,-1.2 -0.6,-1.8c2.9,-1.3 5.6,-2.8 8.4,-4.3c2.46667,-1.26667 4.93333,-2.46667 7.4,-3.6z"/></g><g opacity="0.5" style="mix-blend-mode: normal"><path d="M309.39191,235.64237c-3.6,-4 -6.9,-8.2 -10.2,-12.4c1.26667,-0.73333 2.6,-1.3 4,-1.7c2.9,6.3 8,11.4 10.8,17.8c0,0.06667 -0.03333,0.1 -0.1,0.1c-0.26667,0.2 -0.56667,0.4 -0.9,0.6c-1.1,-1.6 -2.3,-3 -3.6,-4.4z"/></g><g opacity="0.5" style="mix-blend-mode: normal"><path d="M408.09191,260.84234c3.5,-0.5 7,-0.4 10.6,-0.6c0,1.13333 0,2.23333 0,3.3c-0.86667,0 -1.7,0 -2.5,0c-5.1,-0.1 -10.3,-0.3 -15.4,-0.6c-0.06667,0 -0.13333,0 -0.2,0c0,-0.13333 0,-0.26667 0,-0.4c-0.06667,-0.13333 -0.1,-0.3 -0.1,-0.5c2.53333,-0.46667 5.06667,-0.86667 7.6,-1.2z"/></g><g opacity="0.5" style="mix-blend-mode: normal"><path d="M395.29191,233.44235c2.1,-4.1 4.7,-7.9 7.5,-11.6c1.33333,0.53333 2.63333,1.2 3.9,2c-4.7,5.7 -10,10.9 -14.8,16.5c-0.06667,-0.13333 -0.16667,-0.23333 -0.3,-0.3c1.4,-2.1 2.5,-4.4 3.7,-6.6z"/></g><g opacity="0.5" style="mix-blend-mode: normal"><path d="M375.59191,228.94237c0.5,-2.6 1.1,-6.3 2.8,-8.5h1.7c-2.4,4.5 -3.3,10.2 -4.5,15.3c-0.53333,0 -1.03333,0 -1.5,0c0.7,-2.2 1,-4.5 1.5,-6.8z"/></g><g opacity="0.5" style="mix-blend-mode: normal"><path d="M388.69191,228.04238c1,-2.5 1.9,-5.1 3.1,-7.6h3.6c0.4,0 0.76667,0.03333 1.1,0.1c-1.7,2.7 -3.8,5.2 -5.3,8.1c-1.5,2.9 -2.8,5.8 -4.3,8.7c-0.53333,-0.2 -1.13333,-0.36667 -1.8,-0.5c1.2,-3 2.3,-5.9 3.6,-8.8z"/></g><g opacity="0.5" style="mix-blend-mode: normal"><path d="M402.29191,309.44235c4.5,1 9,2.4 13.4,3.9c-0.13333,1.26667 -0.26667,2.5 -0.4,3.7c-2.66667,-1 -5.3,-2.1 -7.9,-3.3c-1.4,-0.6 -3.4,-1.8 -5.3,-2.2c0,-0.06667 0,-0.13333 0,-0.2c0.06667,-0.66667 0.13333,-1.3 0.2,-1.9z"/></g><g opacity="0.5" style="mix-blend-mode: normal"><path d="M407.29189,316.04236c2.6,1 5.1,2.1 7.7,3.1c-0.13333,0.86667 -0.26667,1.73333 -0.4,2.6c-2.4,-0.9 -4.8,-1.9 -6.9,-3.4c-1.9,-1.4 -3.7,-3 -6.1,-3.1c0.13333,-0.53333 0.23333,-1.1 0.3,-1.7c1.8,0.4 4.1,2 5.4,2.5z"/></g><g opacity="0.5" style="mix-blend-mode: normal"><path d="M298.59191,325.64237c-2.3,1.4 -4.3,3.2 -6.4,4.9c-0.13333,-0.53333 -0.23333,-1.1 -0.3,-1.7c-0.06667,-0.33333 -0.13333,-0.7 -0.2,-1.1c3.1,-1.7 6.3,-3.3 9.4,-5c1.8,-0.93333 3.6,-1.93333 5.4,-3c0.7,-0.5 1.5,-1.2 2.4,-1.5c0.06667,0.46667 0.16667,0.93333 0.3,1.4c-0.06667,0 -0.13333,0.03333 -0.2,0.1c-3.4,2.1 -7,3.8 -10.4,5.9z"/></g><g opacity="0.5" style="mix-blend-mode: normal"><path d="M402.99191,294.14237c4.9,0 9.7,0.9 14.5,2c-0.06667,0.8 -0.13333,1.63333 -0.2,2.5c-2.2,-0.7 -4.4,-1.3 -6.5,-1.8c-2.4,-0.7 -5.2,-2.1 -7.7,-1.8c-0.06667,-0.33333 -0.1,-0.63333 -0.1,-0.9z"/></g><g opacity="0.5" style="mix-blend-mode: normal"><path d="M418.3919,282.14237c0,0.8 -0.03333,1.56667 -0.1,2.3c-2.1,-0.2 -4.1,-0.6 -6.2,-0.8c-3.1,-0.3 -6.3,-0.3 -9.4,-0.3c-0.06667,-0.2 -0.1,-0.4 -0.1,-0.6c5.3,-0.3 10.6,-0.8 15.8,-0.6z"/></g><g opacity="0.5" style="mix-blend-mode: normal"><path d="M287.19191,263.64237c0,-1 0,-2 0,-3c2.3,-0.1 4.7,0.2 7,0.3c3.2,0.3 6.4,0.7 9.5,1.1c0.06667,0.46667 0.1,0.93333 0.1,1.4c-5.5,0.4 -11.1,-0.3 -16.6,0.2z"/></g><g opacity="0.5" style="mix-blend-mode: normal"><path d="M287.19191,268.24238c0,-0.86667 0,-1.73333 0,-2.6c5.5,-0.5 11.1,0.2 16.7,-0.1c0,0.2 0,0.36667 0,0.5c0,0.33333 0,0.63333 0,0.9c-2.1,0.2 -4.1,0.4 -6.2,0.5c-3.4,0.2 -7.1,1.1 -10.5,0.8z"/></g><g opacity="0.5" style="mix-blend-mode: normal"><path d="M301.79191,255.24238c-4.8,-0.6 -9.6,-1 -14.4,-1.5c0.2,-3.5 0.4,-6.9 0.7,-10.2c2.7,1.1 5.6,1.9 8.3,2.8c2.7,1 5.3,1.9 8,3c-0.6,1.8 -0.7,3.8 -0.8,5.5c0,0.2 0,0.36667 0,0.5c-0.8,0 -1.4,-0.1 -1.8,-0.1z"/></g><g opacity="0.5" style="mix-blend-mode: normal"><path d="M296.09191,294.04236c-2.4,0.7 -5.2,1.2 -7.8,2.2c-0.06667,-0.8 -0.13333,-1.6 -0.2,-2.4c5.3,-1.5 10.7,-2.5 16,-3.6c0.06667,0.6 0.13333,1.2 0.2,1.8c-2.7,0.6 -5.4,1.4 -8.2,2z"/></g><g opacity="0.5" style="mix-blend-mode: normal"><path d="M306.49191,306.94235c-5.5,3.4 -10.9,7 -16.2,10.7c-0.2,-1.4 -0.36667,-2.86667 -0.5,-4.4c5.5,-2.8 10.8,-6.1 16.3,-8.9c0,0.2 0.03333,0.43333 0.1,0.7c0.06667,0.6 0.16667,1.23333 0.3,1.9z"/></g></g><path d="M302.29191,341.84234c-0.7,1.1 -1.3,2.3 -1.8,3.5c-1.86667,-1.46667 -3.46667,-3.3 -4.8,-5.5c1.3,-0.9 2.5,-1.9 3.7,-2.9c4.8,-3.8 9.7,-7.5 14.4,-11.4c-2,3.1 -4,6.1 -6.2,9c-1.8,2.4 -3.7,4.7 -5.3,7.3z" fill="#4f9044" opacity="0.7" style="mix-blend-mode: multiply"/><path d="M405.19191,344.74238c-1.13333,1 -2.36667,1.83333 -3.7,2.5c-0.06667,-0.2 -0.16667,-0.4 -0.3,-0.6c-1.2,-1.8 -2.4,-3.6 -3.6,-5.3c-1.06667,-1.53333 -2.1,-3.06667 -3.1,-4.6c0.9,0.9 1.8,1.9 2.8,2.8c1.8,1.5 3.8,2.5 5.7,3.9c0.6,0.5 1.5,0.9 2.2,1.3z" fill="#4f9044" opacity="0.7" style="mix-blend-mode: multiply"/><path d="M290.99191,235.14237c-0.9,0.9 -1.6,1.9 -2.2,3c1.6,-7.8 6.2,-13.3 12.4,-15.9c-0.26667,0.2 -0.5,0.43333 -0.7,0.7c-1.1,1.7 -0.2,4.5 0.7,6c2.5,4.1 6.3,5.7 10.9,5.9c7.2,0.2 14.5,-0.3 21.7,0.4c7.3,0.7 14.6,1.5 22,2c7.5,0.6 15,0.9 22.5,0.3c7.1,-0.6 14,-2.9 21.1,-2.9c3.5,0.1 7.1,-0.7 7.9,-4.6c0.7,-3.1 -1.5,-7.1 -4.6,-8.2c7.5,2.8 13,9.9 14.3,18.9c0.06667,0.26667 0.1,0.53333 0.1,0.8c-1,-3.7 -3.1,-7.1 -6.4,-7.2c-2.5,-0.1 -4.8,2.1 -6.1,4c-1.2,1.7 -0.9,3.7 -1.2,5.6c-0.2,1.5 -0.9,2.6 -1.4,4c-1.5,4.1 -1.3,8.5 -1.9,12.7c-0.93333,6.2 -1.7,12.46667 -2.3,18.8h-95.8c-0.06667,-1.86667 -0.13333,-3.73333 -0.2,-5.6c-0.2,-8.6 -0.8,-17.3 -0.3,-25.9c0.1,-3.2 0.1,-6.1 -1.6,-8.8c-1.8,-2.8 -5.5,-7.2 -8.9,-4z" fill="#d1f2d3" opacity="0.4" style="mix-blend-mode: screen"/><path d="M298.89191,232.74238c-1.9,-1.4 -3.9,-2.8 -5.9,-4.1c0.86667,-1.2 1.86667,-2.26667 3,-3.2c0.2,0.33333 0.4,0.63333 0.6,0.9c1.4,1.9 3.2,3.6 4.8,5.4c3.2,3.3 6.6,6.5 8.8,10.5c-3.1,-3.9 -7.3,-6.6 -11.3,-9.5z" fill="#d1f2d3"/><path d="M404.99191,233.34234c2,-1.9 4.1,-3.8 6.1,-5.8c0.53333,0.66667 1.03333,1.33333 1.5,2c-0.6,0.33333 -1.2,0.7 -1.8,1.1c-2.3,1.6 -4.3,3.7 -6.6,5.4c-2.3,1.7 -5,3.3 -7.6,4.5c2.5,-2.6 5.9,-4.7 8.4,-7.2z" fill="#d1f2d3"/><path d="M412.99191,331.34234c-2.4,10 -9.4,17.8 -19.7,17.8h-81.2c-10.5,0 -17.2,-6.8 -19.8,-18.1c1.8,2.6 4,4.1 6.9,2.7c5.4,-2.6 5.2,-9.5 5.1,-14.4c-0.1,-5.4 -0.1,-10.8 -0.6,-16.2c-0.8,-7.2 -1.3,-14.4 -1.6,-21.6h95.6c-0.2,1.86667 -0.33333,3.73333 -0.4,5.6c-0.4,6.4 -0.7,12.9 -0.5,19.3c0.1,6.5 0.2,12.9 2.1,19.2c0.3,1 1.8,0.8 2,-0.2c0.6,-2.6 0.9,-5.3 1.5,-7.9c0.2,2.1 0.1,4.2 0.2,6.3c0,2.1 -0.7,4.7 0.5,6.7c1.5,2.5 5,4.3 7.8,2.6c0.8,-0.46667 1.5,-1.06667 2.1,-1.8z" fill="#377929" opacity="0.4" style="mix-blend-mode: multiply"/><path d="M303.19191,347.04236c-1.86667,-0.93333 -3.5,-2.16667 -4.9,-3.7c2.5,-2.7 4.8,-5.6 7.4,-8.2c1.06667,-1.06667 2.06667,-2.16667 3,-3.3c-0.9,3.2 -1.9,6.3 -3.4,9.4c-0.9,1.9 -1.5,3.8 -2.1,5.8z" fill="#d1f2d3" opacity="0.5"/><path d="M407.69191,342.24238c-1.2,1.46667 -2.53333,2.7 -4,3.7c-0.13333,-0.13333 -0.26667,-0.26667 -0.4,-0.4c-1.9,-2.4 -3.2,-5.2 -5.2,-7.6c-1.3,-1.5 -2.8,-2.8 -4,-4.3c-0.4,-0.53333 -0.8,-1.03333 -1.2,-1.5c0.5,0.2 0.9,0.5 1.3,0.6c1.8,0.8 3.5,1.9 5.1,3.2c2.8,2.1 5.6,4.2 8.4,6.3z" fill="#d1f2d3" opacity="0.5"/><path d="M402.59191,320.94235c-1.5,9.1 -7.4,16.6 -16.6,16.6h-66.5c-9.2,0 -14.8,-6.3 -16.6,-16.6c-2.6,-14.8 -5.4,-49.4 -2.9,-72.3c1.2,-10.5 8.6,-16.6 17.8,-16.6h70c9.1,0 16.3,7 17.7,16.6c3.6,24.5 -0.6,58.5 -2.9,72.3z" fill="#6de46e"/><g fill="#4f9044" opacity="0.15" style="mix-blend-mode: multiply"><path d="M402.59191,320.94235c-1.5,9.1 -7.4,16.6 -16.6,16.6h-66.5c-9.2,0 -14.8,-6.3 -16.6,-16.6c-2.6,-14.8 -5.4,-49.4 -2.9,-72.3c0.8,-7.3 4.7,-12.5 10,-14.9c-0.26667,0.33333 -0.53333,0.73333 -0.8,1.2c-1.6,3.1 -5.6,7.2 -4.7,10.3c1.2,3.9 4.1,14.7 3.8,18.7c-2.3,27.6 28.2,21 41.9,21.4c14.6,0.4 35.7,4.2 45,-7.5c4.8,-6.1 6.8,-30 3.8,-37.5c-1,-2.3 -8.9,-6.8 -10.8,-8.3c9,0.3 15.9,7.2 17.3,16.6c3.6,24.5 -0.6,58.5 -2.9,72.3z" style="mix-blend-mode: normal"/></g><g fill="#4f9044" opacity="0.15" style="mix-blend-mode: multiply"><path d="M402.59191,320.94235c-1.5,9.1 -7.4,16.6 -16.6,16.6h-66.5c-9.2,0 -14.8,-6.3 -16.6,-16.6c-2.6,-14.8 -5.4,-49.4 -2.9,-72.3c0.13333,-1.4 0.4,-2.7 0.8,-3.9c0,0.26667 0,0.53333 0,0.8c0.1,6 1.4,12 2.6,17.9c3.5,16.9 -4.4,31.6 10.2,41.8c12.9,9 67.5,7.1 80.4,0c15.9,-8.7 3.1,-24.2 7.6,-41.1c1.7,-6.5 2.4,-13 0.9,-19.6c-0.7,-2.8 -1.9,-5.5 -3.4,-8.1c3.4,3 5.7,7.2 6.4,12.2c3.6,24.5 -0.6,58.5 -2.9,72.3z" style="mix-blend-mode: normal"/></g><path d="M299.99191,248.64237c0.4,-4.7 1.8,-9 5.1,-12.5c3.9,-4.1 9,-5.2 14.5,-5.4c12.5,-0.3 25.1,-0.5 37.6,-0.4c10.3,0 20.7,-0.1 31,0.5c9.8,0.7 16.2,8.4 17.3,17.8c-2.2,-8.5 -8.5,-15.4 -17.7,-15.3c-9.7,0 -19.9,0.4 -29.8,0.4c-12.06667,0.13333 -24.16667,0.03333 -36.3,-0.3c-5.5,-0.2 -10.8,-0.1 -15.3,3.6c-3.6,3 -5.4,7.2 -6.4,11.6z" fill="#d1f2d3"/><path d="M405.49191,248.64237c3.5,22.1 2.3,44.7 -0.6,66.7c-1.2,9.2 -3.5,19.4 -13.4,22.9c-4.3,1.5 -9.1,1 -13.5,1c-6.4,0 -12.76667,0 -19.1,0c-12.4,0.06667 -24.8,0.06667 -37.2,0c-3.7,0 -7.4,-0.3 -10.8,-2.2c-4.9,-2.8 -7.8,-8.2 -9,-13.6c-1.3,-5.8 -1.8,-11.8 -2.2,-17.7c-0.5,-6.1 -1,-12.2 -1.1,-18.3c-0.4,-11.2 -0.4,-22.5 0.8,-33.6c0.2,-1.73333 0.4,-3.46667 0.6,-5.2c-1,22.2 -0.1,44.8 3.5,66.7c0.9,5.5 1.5,11.3 5.2,15.7c2.8,3.4 6.8,4.9 11,4.8c11,-0.1 22,0 33,-0.1c6.4,0.06667 12.8,0.1 19.2,0.1c5.5,0 11.3,0.6 16.7,-0.2c8.7,-1.3 11.8,-10.3 13.1,-17.8c3.7,-22.5 6,-45.9 3.8,-68.8c0,-0.13333 0,-0.26667 0,-0.4z" fill="#d1f2d3" opacity="0.5"/><path d="M321.19191,251.64237c-2.4,1.8 -10.6,7.6 -13.5,3.6c-1.3,-1.9 -0.1,-5.6 0.5,-7.5c2,-5.5 16,-16.3 19.1,-6.1c1.2,4.1 -3.1,7.9 -6.1,10z" fill="#d1f2d3"/><path d="M338.49191,242.64237c-1.4,2.6 -6.5,6.6 -6.7,1c-0.2,-3.4 3.9,-5.4 6.1,-4.8c1.2,0.3 1.9,1.5 0.6,3.8z" fill="#d1f2d3"/></g><g><path d="M108.19191,279.24238c0.4,5.5 -7.8,12.9 -15.2,18.4c0.5,1.8 1.6,5.6 2.4,9.6c1.5,8.4 1,13.3 -1.9,15.4c-1,0.66667 -2.2,1 -3.6,1c-6.2,0 -16.4,-6.9 -19.9,-9.4c-3.5,2.5 -13.8,9.4 -20,9.4c-1.4,0 -2.56667,-0.33333 -3.5,-1c-2.9,-2.1 -3.5,-7 -1.9,-15.4c0.7,-4 1.8,-7.8 2.4,-9.6c-7.4,-5.5 -15.7,-12.9 -15.2,-18.4c-0.06667,-0.33333 -0.06667,-0.66667 0,-1c0.13333,-0.26667 0.26667,-0.53333 0.4,-0.8c1.5,-2.9 5.9,-4.8 13.8,-5.9c4,-0.5 7.9,-0.7 9.8,-0.8c3.2,-9 8,-19.6 13.6,-20.2c0.06667,0 0.16667,0 0.3,0c0.06667,0 0.16667,0 0.3,0c0.06667,0 0.16667,0 0.3,0c0.06667,0 0.13333,0 0.2,0c5.7,0.6 10.5,11.2 13.6,20.2c1.9,0.1 5.8,0.3 9.8,0.8c8,1.1 12.4,3 13.8,6c0.2,0.2 0.33333,0.43333 0.4,0.7c0.13333,0.33333 0.16667,0.66667 0.1,1z" fill="#954300" fill-rule="nonzero"/><path d="M105.99191,278.94235c1.2,5.1 -11.1,14.6 -14.7,17.2l-0.8,0.9c0,0 6.7,20.2 1.7,23.8c-4.9,3.6 -21.6,-8.7 -22,-9.1l-0.2,-0.1v-0.1h-0.1v0.1l-0.1,0.1c-0.5,0.4 -17.2,12.7 -22.1,9.1c-5,-3.6 1.7,-23.8 1.7,-23.8l-0.8,-0.9c-3.5,-2.6 -15.9,-12.1 -14.6,-17.2l-0.1,-0.1h0.1v0c1.9,-5.9 23.2,-5.9 23.2,-5.9l0.2,-0.4l0.2,-0.4c1.3,-3.7 6.7,-18.9 12,-19.4c0.06667,0 0.13333,-0.03333 0.2,-0.1c0.06667,0 0.1,0 0.1,0c0,0 0.03333,0 0.1,0v0c0,0 0.03333,0 0.1,0c0.06667,0.06667 0.13333,0.1 0.2,0.1c5.3,0.5 10.7,15.7 12,19.4l0.2,0.4l0.3,0.4c0,0 21.3,0 23.1,5.9v0h0.2z" fill="#f09a00" fill-rule="nonzero"/><path d="M105.99191,278.94235c1.2,5.1 -11.1,14.6 -14.7,17.2l-0.8,0.9c0,0 6.7,20.2 1.7,23.8c-4.9,3.6 -21.6,-8.7 -22,-9.1l-0.2,-0.1v-0.1h-0.1v0.1l-0.1,0.1c-0.5,0.4 -17.2,12.7 -22.1,9.1c-5,-3.6 1.7,-23.8 1.7,-23.8l-0.8,-0.9c-3.5,-2.6 -15.9,-12.1 -14.6,-17.2l-0.1,-0.1h0.1v0c1.9,-5.9 23.2,-5.9 23.2,-5.9l0.2,-0.4l0.2,-0.4c1.3,-3.7 6.7,-18.9 12,-19.4c0.06667,0 0.13333,-0.03333 0.2,-0.1c0.06667,0 0.1,0 0.1,0c0,0 0.03333,0 0.1,0v0c0,0 0.03333,0 0.1,0c0.06667,0.06667 0.13333,0.1 0.2,0.1c5.3,0.5 10.7,15.7 12,19.4l0.2,0.4l0.3,0.4c0,0 21.3,0 23.1,5.9v0h0.2zM98.79191,280.64237c-0.2,-1.5 -15.4,-2.7 -20.3,-2.2c-0.2,-1 -6.4,-19.1 -8.4,-18.7c-0.8,0.2 -1.2,0.8 -1.6,1.3c-3.5,4.6 -7,17 -7.1,17.6c-0.13333,0 -0.23333,-0.03333 -0.3,-0.1c-3.1,-0.8 -18.7,-0.2 -18.9,2.2c-0.1,1.2 3,3.3 4,3.9c2.6,1.7 8.9,6.8 12.4,8.2c-3.8,5 -8.8,22.4 -6.2,22.5c1.4,0 5.3,-2.9 6.3,-3.8c2.3,-2 11,-9.4 11.7,-10.3c1.6,3.5 16.9,15 18.1,13.1c0.9,-1.3 -5.6,-19.9 -6,-20.7c3.2,-1 16.4,-10.7 16.3,-12.9c0,-0.06667 0,-0.1 0,-0.1z" fill="#cc740e" fill-rule="evenodd" opacity="0.3" style="mix-blend-mode: multiply"/><path d="M90.59191,297.24238c0.8,2.3 6.3,20.3 1.6,23.6c-4.9,3.6 -21.6,-8.7 -22,-9.1l-0.2,-0.1v-0.1h-0.1v0.1l-0.1,0.1c-0.5,0.4 -17.2,12.7 -22.1,9.1c-5,-3.6 1.7,-23.8 1.7,-23.8l-0.1,-0.1c3,-1.2 5.9,-2.7 9,-3.6c-3.7,5.5 -8.4,21.9 -5.9,22c1.5,0 5.3,-2.9 6.3,-3.8c2.3,-2 11,-9.4 11.7,-10.3c1.6,3.5 16.9,15 18.1,13.1c1,-1.3 -5.6,-19.9 -6,-20.7c0.13333,-0.06667 0.26667,-0.13333 0.4,-0.2c1.2,0.5 2.3,1.3 3.4,1.9c1.4,0.8 2.9,1.3 4.3,1.9z" fill="url(#color-7)" fill-rule="nonzero" opacity="0.8" style="mix-blend-mode: multiply"/><path d="M78.69191,292.14237l-0.3,0.4c0,0 8.1,16.6 6.1,18c-1.9,1.4 -14.1,-11.9 -14.3,-12.1h-0.1v-0.1v0.1h-0.1c-0.2,0.2 -12.7,13.2 -14.7,11.8c-2,-1.4 6.5,-17.7 6.5,-17.7l-0.3,-0.4c-1.4,-1 -14.2,-7.9 -13.7,-9.9v-0.1v0c0.8,-2.4 17.1,0.7 17.1,0.7l0.1,-0.2l0.1,-0.1c0.5,-1.6 2.7,-14.5 4.9,-14.7c0,0 0.03333,-0.03333 0.1,-0.1v0v0v0c0,0 0.03333,0 0.1,0c0,0.06667 0,0.1 0,0.1c2.2,0.2 4.4,13.1 4.9,14.7l0.1,0.1l0.1,0.2c0,0 16.4,-2.5 17.2,-0.1v0c0.5,2.1 -12.3,8.4 -13.8,9.4z" fill="#f09a00" fill-rule="nonzero" opacity="0.5" style="mix-blend-mode: screen"/><path d="M58.59189,292.84234c-3.5,-1.4 -9.8,-6.5 -12.4,-8.2c-1,-0.6 -4.1,-2.7 -4,-3.9c0.2,-2.4 15.8,-3 18.9,-2.2c0.06667,0.06667 0.16667,0.1 0.3,0.1c0.1,-0.6 3.6,-13 7.1,-17.6c0.4,-0.5 0.8,-1.1 1.6,-1.3c2,-0.4 8.3,17.7 8.4,18.7c4.9,-0.5 20.1,0.7 20.3,2.2c0,0 0,0.03333 0,0.1c0.1,2 -10.6,10.1 -15.1,12.4h-25.3c0.06667,-0.13333 0.13333,-0.23333 0.2,-0.3z" fill="url(#color-8)" fill-rule="nonzero" style="mix-blend-mode: screen"/><path d="M60.79191,281.14237c-0.1,1.6 -4.2,2.8 -9.2,2.6c-5.1,-0.1 -9.1,-1.6 -9,-3.2c0,-1.6 4.1,-2.8 9.2,-2.6c5,0.1 9.1,1.6 9,3.2z" fill="#ffff69" fill-rule="nonzero"/><path d="M67.09191,279.54236c1.3,1 0.2,3.2 -1.2,4c-0.8,0.46667 -1.46667,0.73333 -2,0.8c-4.3,0.8 -0.8,-8.2 3.2,-4.8z" fill="#ffff69" fill-rule="nonzero"/></g><g><path d="M45.29191,374.84234c0.2,2.8 -4,6.6 -7.7,9.4c0.3,0.9 0.8,2.8 1.2,4.9c0.8,4.2 0.5,6.7 -1,7.8c-0.46667,0.33333 -1.06667,0.5 -1.8,0.5c-3.1,0 -8.3,-3.5 -10.1,-4.8c-1.8,1.3 -7,4.8 -10.1,4.8c-0.73333,0 -1.33333,-0.16667 -1.8,-0.5c-1.5,-1.1 -1.8,-3.6 -1,-7.8c0.4,-2.1 0.9,-4 1.2,-4.9c-3.7,-2.8 -7.9,-6.6 -7.7,-9.4c0,-0.13333 0.03333,-0.3 0.1,-0.5c0,-0.13333 0.06667,-0.23333 0.2,-0.3c0.7,-1.6 2.9,-2.5 6.9,-3.1c2.1,-0.2 4.1,-0.3 5,-0.3c1.6,-4.6 4.1,-10 6.9,-10.3c0.06667,0 0.13333,0 0.2,0c0,0 0.03333,0 0.1,0c0.06667,0 0.13333,0 0.2,0c0,0 0.03333,0 0.1,0c2.9,0.3 5.3,5.7 6.9,10.3c1,0 2.9,0.1 5,0.3c4,0.6 6.2,1.5 7,3.1c0.06667,0.06667 0.13333,0.16667 0.2,0.3c0,0.2 0,0.36667 0,0.5z" fill="#954300" fill-rule="nonzero"/><path d="M36.69191,383.54236l-0.3,0.4c0,0 3.3,10.3 0.8,12.1c-2.5,1.8 -11,-4.5 -11.2,-4.6l-0.1,-0.1v-0.1v0.1l-0.1,0.1c-0.2,0.1 -8.7,6.4 -11.2,4.6c-2.5,-1.8 0.9,-12.1 0.9,-12.1l-0.4,-0.4c-1.8,-1.4 -8.1,-6.2 -7.5,-8.8l0.1,-0.1v0c0.9,-2.9 11.7,-3 11.7,-3l0.1,-0.2l0.2,-0.1c0.6,-1.9 3.4,-9.6 6,-9.9c0.06667,0 0.1,0 0.1,0c0.06667,0 0.1,0 0.1,0v0v0c0.06667,0 0.1,0 0.1,0c0,0 0.03333,0 0.1,0c2.7,0.3 5.4,8 6.1,9.9l0.1,0.1l0.1,0.2c0,0 10.8,0.1 11.8,3c0,0 0,0.03333 0,0.1c0.6,2.6 -5.6,7.4 -7.5,8.8z" fill="#f09a00" fill-rule="nonzero"/><path d="M44.19191,374.74238c0.6,2.6 -5.6,7.4 -7.5,8.8l-0.3,0.4c0,0 3.3,10.3 0.8,12.1c-2.5,1.8 -11,-4.5 -11.2,-4.6l-0.1,-0.1v-0.1v0.1l-0.1,0.1c-0.2,0.1 -8.7,6.4 -11.2,4.6c-2.5,-1.8 0.9,-12.1 0.9,-12.1l-0.4,-0.4c-1.8,-1.4 -8.1,-6.2 -7.5,-8.8l0.1,-0.1v0c0.9,-2.9 11.7,-3 11.7,-3l0.1,-0.2l0.2,-0.1c0.6,-1.9 3.4,-9.6 6,-9.9c0.06667,0 0.1,0 0.1,0c0.06667,0 0.1,0 0.1,0v0v0c0.06667,0 0.1,0 0.1,0c0,0 0.03333,0 0.1,0c2.7,0.3 5.4,8 6.1,9.9l0.1,0.1l0.1,0.2c0,0 10.8,0.1 11.8,3c0,0 0,0.03333 0,0.1zM40.59189,375.54236c-0.1,-0.8 -7.8,-1.3 -10.3,-1.1c-0.1,-0.5 -3.2,-9.7 -4.3,-9.5c-0.4,0.1 -0.6,0.4 -0.8,0.7c-1.8,2.3 -3.5,8.6 -3.6,8.9c-0.06667,0 -0.13333,0 -0.2,0c-1.5,-0.5 -9.4,-0.1 -9.5,1.1c-0.1,0.6 1.5,1.6 2,2c1.3,0.8 4.5,3.4 6.3,4.1c-1.9,2.6 -4.5,11.4 -3.2,11.4c0.8,0 2.7,-1.4 3.2,-1.9c1.2,-1 5.6,-4.8 6,-5.2c0.8,1.7 8.5,7.6 9.2,6.6c0.4,-0.7 -2.9,-10.1 -3.1,-10.5c1.6,-0.5 8.3,-5.4 8.3,-6.5c0,-0.06667 0,-0.1 0,-0.1z" fill="#cc740e" fill-rule="evenodd" opacity="0.3" style="mix-blend-mode: multiply"/><path d="M36.39191,384.04236c0.4,1.2 3.2,10.3 0.8,12c-2.5,1.8 -11,-4.5 -11.2,-4.6l-0.1,-0.1v-0.1v0.1l-0.1,0.1c-0.2,0.1 -8.7,6.4 -11.2,4.6c-2.5,-1.8 0.9,-12.1 0.9,-12.1l-0.1,-0.1c1.5,-0.6 3,-1.3 4.6,-1.8c-1.9,2.8 -4.3,11.1 -3,11.2c0.7,0 2.7,-1.5 3.2,-2c1.2,-1 5.6,-4.7 5.9,-5.2c0.8,1.8 8.6,7.7 9.2,6.7c0.5,-0.7 -2.8,-10.1 -3,-10.5c0.06667,-0.06667 0.13333,-0.1 0.2,-0.1c0.6,0.2 1.1,0.6 1.7,0.9c0.7,0.4 1.5,0.7 2.2,1z" fill="url(#color-9)" fill-rule="nonzero" opacity="0.8" style="mix-blend-mode: multiply"/><path d="M37.29191,376.74238c0.3,1 -6.2,4.2 -7,4.7l-0.1,0.2c0,0 4.1,8.4 3.1,9.1c-1,0.8 -7.2,-6 -7.3,-6.1h-0.1c-0.1,0.1 -6.4,6.7 -7.4,6c-1,-0.7 3.3,-9 3.3,-9l-0.2,-0.2c-0.7,-0.5 -7.2,-4 -6.9,-5l-0.1,-0.1h0.1c0.3,-1.2 8.7,0.4 8.7,0.4v-0.1l0.1,-0.1c0.2,-0.8 1.3,-7.3 2.4,-7.4c0,-0.06667 0.03333,-0.1 0.1,-0.1v0v0v0c0,0 0,0.03333 0,0.1c1.1,0.1 2.2,6.6 2.5,7.4v0.1l0.1,0.1c0,0 8.4,-1.3 8.7,-0.1v0h0.1z" fill="#f09a00" fill-rule="nonzero" opacity="0.5" style="mix-blend-mode: screen"/><path d="M20.09191,381.84234c-1.7,-0.8 -5,-3.3 -6.3,-4.2c-0.4,-0.3 -2,-1.4 -2,-2c0.1,-1.2 8,-1.5 9.6,-1.1c0.06667,0 0.13333,0.03333 0.2,0.1c0,-0.3 1.8,-6.7 3.6,-9c0.2,-0.2 0.4,-0.5 0.8,-0.6c1,-0.2 4.2,9 4.2,9.5c2.5,-0.3 10.2,0.3 10.3,1c0,0.06667 0,0.1 0,0.1c0.1,1 -5.3,5.1 -7.6,6.3h-12.8c0,-0.06667 0,-0.1 0,-0.1z" fill="url(#color-10)" fill-rule="nonzero" style="mix-blend-mode: screen"/><path d="M21.29191,375.84234c-0.1,0.8 -2.2,1.4 -4.7,1.4c-2.6,-0.1 -4.6,-0.9 -4.6,-1.7c0,-0.8 2.1,-1.4 4.7,-1.3c2.5,0.1 4.6,0.8 4.6,1.6z" fill="#ffff69" fill-rule="nonzero"/><path d="M24.49191,375.04236c0.6,0.5 0.1,1.6 -0.7,2c-0.4,0.26667 -0.73333,0.43333 -1,0.5c-2.1,0.4 -0.4,-4.2 1.7,-2.5z" fill="#ffff69" fill-rule="nonzero"/></g><g><path d="M86.79191,374.84234c0.3,2.8 -3.9,6.6 -7.7,9.4c0.3,0.9 0.9,2.8 1.2,4.9c0.9,4.2 0.5,6.7 -0.9,7.8c-0.46667,0.33333 -1.06667,0.5 -1.8,0.5c-3.1,0 -8.4,-3.5 -10.1,-4.8c-1.8,1.3 -7,4.8 -10.1,4.8c-0.73333,0 -1.36667,-0.16667 -1.9,-0.5c-1.4,-1.1 -1.7,-3.6 -0.9,-7.8c0.4,-2.1 0.9,-4 1.2,-4.9c-3.8,-2.8 -8,-6.6 -7.7,-9.4c-0.06667,-0.13333 -0.06667,-0.3 0,-0.5c0.06667,-0.13333 0.13333,-0.23333 0.2,-0.3c0.7,-1.6 3,-2.5 7,-3.1c2,-0.2 4,-0.3 5,-0.3c1.6,-4.6 4,-10 6.9,-10.3c0,0 0.03333,0 0.1,0c0.06667,0 0.13333,0 0.2,0c0,0 0.03333,0 0.1,0c0.06667,0 0.1,0 0.1,0c2.9,0.3 5.3,5.7 6.9,10.3c1,0 3,0.1 5,0.3c4.1,0.6 6.3,1.5 7,3.1c0.06667,0.06667 0.13333,0.16667 0.2,0.3c0.06667,0.2 0.06667,0.36667 0,0.5z" fill="#954300" fill-rule="nonzero"/><path d="M85.69191,374.74238c0.7,2.6 -5.6,7.4 -7.4,8.8l-0.4,0.4c0,0 3.4,10.3 0.9,12.1c-2.5,1.8 -11,-4.5 -11.2,-4.6l-0.1,-0.1v-0.1h-0.1v0.1v0.1c-0.3,0.1 -8.7,6.4 -11.2,4.6c-2.6,-1.8 0.8,-12.1 0.8,-12.1l-0.4,-0.4c-1.8,-1.4 -8,-6.2 -7.4,-8.8h-0.1h0.1v-0.1c1,-2.9 11.8,-3 11.8,-3l0.1,-0.2l0.1,-0.1c0.6,-1.9 3.4,-9.6 6.1,-9.9c0,0 0.03333,0 0.1,0v0c0.06667,0 0.1,0 0.1,0v0v0c0.06667,0 0.1,0 0.1,0c2.7,0.3 5.5,8 6.1,9.9l0.1,0.1l0.2,0.2c0,0 10.8,0.1 11.7,3v0.1h0.1z" fill="#f09a00" fill-rule="nonzero"/><path d="M85.69191,374.74238c0.7,2.6 -5.6,7.4 -7.4,8.8l-0.4,0.4c0,0 3.4,10.3 0.9,12.1c-2.5,1.8 -11,-4.5 -11.2,-4.6l-0.1,-0.1v-0.1h-0.1v0.1v0.1c-0.3,0.1 -8.7,6.4 -11.2,4.6c-2.6,-1.8 0.8,-12.1 0.8,-12.1l-0.4,-0.4c-1.8,-1.4 -8,-6.2 -7.4,-8.8h-0.1h0.1v-0.1c1,-2.9 11.8,-3 11.8,-3l0.1,-0.2l0.1,-0.1c0.6,-1.9 3.4,-9.6 6.1,-9.9c0,0 0.03333,0 0.1,0v0c0.06667,0 0.1,0 0.1,0v0v0c0.06667,0 0.1,0 0.1,0c2.7,0.3 5.5,8 6.1,9.9l0.1,0.1l0.2,0.2c0,0 10.8,0.1 11.7,3v0.1h0.1zM81.99191,375.54236c-0.1,-0.8 -7.8,-1.3 -10.2,-1.1c-0.1,-0.5 -3.3,-9.7 -4.3,-9.5c-0.4,0.1 -0.6,0.4 -0.8,0.7c-1.8,2.3 -3.6,8.6 -3.6,8.9c-0.06667,0 -0.13333,0 -0.2,0c-1.6,-0.5 -9.5,-0.1 -9.6,1.1c-0.1,0.6 1.6,1.6 2,2c1.4,0.8 4.6,3.4 6.3,4.1c-1.9,2.6 -4.4,11.4 -3.1,11.4c0.7,0 2.7,-1.4 3.2,-1.9c1.2,-1 5.6,-4.8 5.9,-5.2c0.8,1.7 8.6,7.6 9.2,6.6c0.5,-0.7 -2.8,-10.1 -3,-10.5c1.6,-0.5 8.3,-5.4 8.2,-6.5c0,-0.06667 0,-0.1 0,-0.1z" fill="#cc740e" fill-rule="evenodd" opacity="0.3" style="mix-blend-mode: multiply"/><path d="M77.89191,384.04236c0.4,1.2 3.2,10.3 0.9,12c-2.5,1.8 -11,-4.5 -11.2,-4.6l-0.1,-0.1v-0.1h-0.1v0.1v0.1c-0.3,0.1 -8.7,6.4 -11.2,4.6c-2.6,-1.8 0.8,-12.1 0.8,-12.1v-0.1c1.5,-0.6 3,-1.3 4.5,-1.8c-1.9,2.8 -4.2,11.1 -3,11.2c0.8,0 2.7,-1.5 3.3,-2c1.1,-1 5.5,-4.7 5.9,-5.2c0.8,1.8 8.5,7.7 9.2,6.7c0.5,-0.7 -2.9,-10.1 -3.1,-10.5c0.06667,-0.06667 0.13333,-0.1 0.2,-0.1c0.6,0.2 1.2,0.6 1.8,0.9c0.6,0.4 1.4,0.7 2.1,1z" fill="url(#color-11)" fill-rule="nonzero" opacity="0.8" style="mix-blend-mode: multiply"/><path d="M78.89191,376.74238c0.2,1 -6.3,4.2 -7,4.7l-0.2,0.2c0,0 4.2,8.4 3.2,9.1c-1,0.8 -7.2,-6 -7.3,-6.1h-0.1c-0.1,0.1 -6.5,6.7 -7.5,6c-1,-0.7 3.3,-9 3.3,-9l-0.1,-0.2c-0.8,-0.5 -7.2,-4 -7,-5v-0.1c0.4,-1.2 8.7,0.4 8.7,0.4l0.1,-0.1v-0.1c0.3,-0.8 1.4,-7.3 2.5,-7.4c0,-0.06667 0,-0.1 0,-0.1v0v0c0,0 0.03333,0 0.1,0c0,0 0,0.03333 0,0.1c1.1,0.1 2.2,6.6 2.5,7.4v0.1l0.1,0.1c0,0 8.3,-1.3 8.7,-0.1z" fill="#f09a00" fill-rule="nonzero" opacity="0.5" style="mix-blend-mode: screen"/><path d="M61.69191,381.84234c-1.8,-0.8 -5,-3.3 -6.3,-4.2c-0.5,-0.3 -2.1,-1.4 -2,-2c0.1,-1.2 8,-1.5 9.6,-1.1c0,0 0.03333,0.03333 0.1,0.1c0.1,-0.3 1.8,-6.7 3.6,-9c0.2,-0.2 0.4,-0.5 0.9,-0.6c1,-0.2 4.1,9 4.2,9.5c2.5,-0.3 10.2,0.3 10.3,1c0,0.06667 0,0.1 0,0.1c0,1 -5.4,5.1 -7.7,6.3h-12.8c0.06667,-0.06667 0.1,-0.1 0.1,-0.1z" fill="url(#color-12)" fill-rule="nonzero" style="mix-blend-mode: screen"/><path d="M62.79191,375.84234c0,0.8 -2.1,1.4 -4.7,1.4c-2.5,-0.1 -4.6,-0.9 -4.5,-1.7c0,-0.8 2.1,-1.4 4.6,-1.3c2.6,0.1 4.6,0.8 4.6,1.6z" fill="#ffff69" fill-rule="nonzero"/><path d="M65.99191,375.04236c0.7,0.5 0.1,1.6 -0.6,2c-0.4,0.26667 -0.73333,0.43333 -1,0.5c-2.2,0.4 -0.4,-4.2 1.6,-2.5z" fill="#ffff69" fill-rule="nonzero"/></g><g><path d="M128.39191,374.84234c0.2,2.8 -4,6.6 -7.7,9.4c0.3,0.9 0.8,2.8 1.2,4.9c0.8,4.2 0.5,6.7 -1,7.8c-0.46667,0.33333 -1.06667,0.5 -1.8,0.5c-3.1,0 -8.3,-3.5 -10.1,-4.8c-1.8,1.3 -7,4.8 -10.1,4.8c-0.73333,0 -1.33333,-0.16667 -1.8,-0.5c-1.5,-1.1 -1.8,-3.6 -1,-7.8c0.4,-2.1 1,-4 1.2,-4.9c-3.7,-2.8 -7.9,-6.6 -7.7,-9.4c0,-0.13333 0.03333,-0.3 0.1,-0.5c0,-0.13333 0.06667,-0.23333 0.2,-0.3c0.7,-1.6 2.9,-2.5 6.9,-3.1c2.1,-0.2 4.1,-0.3 5,-0.3c1.6,-4.6 4.1,-10 6.9,-10.3c0.06667,0 0.13333,0 0.2,0c0,0 0.03333,0 0.1,0c0.06667,0 0.13333,0 0.2,0c0,0 0.03333,0 0.1,0c2.9,0.3 5.3,5.7 6.9,10.3c1,0 2.9,0.1 5,0.3c4,0.6 6.2,1.5 7,3.1c0.06667,0.06667 0.13333,0.16667 0.2,0.3c0,0.2 0,0.36667 0,0.5z" fill="#954300" fill-rule="nonzero"/><path d="M119.79191,383.54236l-0.3,0.4c0,0 3.3,10.3 0.8,12.1c-2.5,1.8 -10.9,-4.5 -11.2,-4.6l-0.1,-0.1v-0.1v0.1l-0.1,0.1c-0.2,0.1 -8.7,6.4 -11.2,4.6c-2.5,-1.8 0.9,-12.1 0.9,-12.1l-0.4,-0.4c-1.8,-1.4 -8.1,-6.2 -7.5,-8.8l0.1,-0.1v0c0.9,-2.9 11.7,-3 11.7,-3l0.1,-0.2l0.2,-0.1c0.6,-1.9 3.4,-9.6 6,-9.9c0.06667,0 0.1,0 0.1,0c0.06667,0 0.1,0 0.1,0v0v0c0.06667,0 0.1,0 0.1,0c0,0 0.03333,0 0.1,0c2.7,0.3 5.4,8 6.1,9.9l0.1,0.1l0.1,0.2c0,0 10.8,0.1 11.8,3c0,0 0,0.03333 0,0.1c0.6,2.6 -5.6,7.4 -7.5,8.8z" fill="#f09a00" fill-rule="nonzero"/><path d="M127.29191,374.74238c0.6,2.6 -5.6,7.4 -7.5,8.8l-0.3,0.4c0,0 3.3,10.3 0.8,12.1c-2.5,1.8 -10.9,-4.5 -11.2,-4.6l-0.1,-0.1v-0.1v0.1l-0.1,0.1c-0.2,0.1 -8.7,6.4 -11.2,4.6c-2.5,-1.8 0.9,-12.1 0.9,-12.1l-0.4,-0.4c-1.8,-1.4 -8.1,-6.2 -7.5,-8.8l0.1,-0.1v0c0.9,-2.9 11.7,-3 11.7,-3l0.1,-0.2l0.2,-0.1c0.6,-1.9 3.4,-9.6 6,-9.9c0.06667,0 0.1,0 0.1,0c0.06667,0 0.1,0 0.1,0v0v0c0.06667,0 0.1,0 0.1,0c0,0 0.03333,0 0.1,0c2.7,0.3 5.4,8 6.1,9.9l0.1,0.1l0.1,0.2c0,0 10.8,0.1 11.8,3c0,0 0,0.03333 0,0.1zM123.69191,375.54236c-0.1,-0.8 -7.8,-1.3 -10.3,-1.1c-0.1,-0.5 -3.2,-9.7 -4.3,-9.5c-0.4,0.1 -0.6,0.4 -0.8,0.7c-1.8,2.3 -3.5,8.6 -3.6,8.9c-0.06667,0 -0.1,0 -0.1,0c-1.6,-0.5 -9.5,-0.1 -9.6,1.1c-0.1,0.6 1.5,1.6 2,2c1.3,0.8 4.5,3.4 6.3,4.1c-1.9,2.6 -4.5,11.4 -3.2,11.4c0.8,0 2.7,-1.4 3.3,-1.9c1.1,-1 5.5,-4.8 5.9,-5.2c0.8,1.7 8.5,7.6 9.2,6.6c0.5,-0.7 -2.9,-10.1 -3.1,-10.5c1.6,-0.5 8.4,-5.4 8.3,-6.5c0,-0.06667 0,-0.1 0,-0.1z" fill="#cc740e" fill-rule="evenodd" opacity="0.3" style="mix-blend-mode: multiply"/><path d="M119.49191,384.04236c0.4,1.2 3.2,10.3 0.8,12c-2.5,1.8 -10.9,-4.5 -11.2,-4.6l-0.1,-0.1v-0.1v0.1l-0.1,0.1c-0.2,0.1 -8.7,6.4 -11.2,4.6c-2.5,-1.8 0.9,-12.1 0.9,-12.1l-0.1,-0.1c1.5,-0.6 3,-1.3 4.6,-1.8c-1.9,2.8 -4.3,11.1 -3,11.2c0.7,0 2.7,-1.5 3.2,-2c1.2,-1 5.6,-4.7 5.9,-5.2c0.8,1.8 8.6,7.7 9.2,6.7c0.5,-0.7 -2.8,-10.1 -3,-10.5c0.06667,-0.06667 0.13333,-0.1 0.2,-0.1c0.6,0.2 1.1,0.6 1.7,0.9c0.7,0.4 1.5,0.7 2.2,1z" fill="url(#color-13)" fill-rule="nonzero" opacity="0.8" style="mix-blend-mode: multiply"/><path d="M120.39191,376.74238c0.3,1 -6.2,4.2 -6.9,4.7l-0.2,0.2c0,0 4.1,8.4 3.1,9.1c-1,0.8 -7.2,-6 -7.3,-6.1h-0.1c-0.1,0.1 -6.4,6.7 -7.4,6c-1,-0.7 3.3,-9 3.3,-9l-0.2,-0.2c-0.7,-0.5 -7.2,-4 -6.9,-5l-0.1,-0.1h0.1c0.3,-1.2 8.7,0.4 8.7,0.4v-0.1l0.1,-0.1c0.2,-0.8 1.3,-7.3 2.4,-7.4c0,-0.06667 0.03333,-0.1 0.1,-0.1v0v0v0c0,0 0.03333,0.03333 0.1,0.1c1,0.1 2.2,6.6 2.4,7.4l0.1,0.1v0.1c0,0 8.4,-1.3 8.7,-0.1h0.1z" fill="#f09a00" fill-rule="nonzero" opacity="0.5" style="mix-blend-mode: screen"/><path d="M103.29191,381.84234c-1.9,-0.8 -5,-3.3 -6.4,-4.2c-0.4,-0.3 -2,-1.4 -2,-2c0.2,-1.2 8,-1.5 9.6,-1.1c0.06667,0 0.13333,0.03333 0.2,0.1c0,-0.3 1.8,-6.7 3.6,-9c0.2,-0.2 0.4,-0.5 0.8,-0.6c1,-0.2 4.2,9 4.3,9.5c2.4,-0.3 10.1,0.3 10.2,1c0,0.06667 0,0.1 0,0.1c0.1,1 -5.4,5.1 -7.6,6.3h-12.8c0,-0.06667 0.03333,-0.1 0.1,-0.1z" fill="url(#color-14)" fill-rule="nonzero" style="mix-blend-mode: screen"/><path d="M104.39191,375.84234c-0.1,0.8 -2.2,1.4 -4.7,1.4c-2.6,-0.1 -4.6,-0.9 -4.6,-1.7c0,-0.8 2.1,-1.4 4.7,-1.3c2.5,0.1 4.6,0.8 4.6,1.6z" fill="#ffff69" fill-rule="nonzero"/><path d="M107.59191,375.04236c0.6,0.5 0.1,1.6 -0.7,2c-0.4,0.26667 -0.73333,0.43333 -1,0.5c-2.1,0.4 -0.4,-4.2 1.7,-2.5z" fill="#ffff69" fill-rule="nonzero"/></g><g><path d="M250.49191,279.24238c0.4,5.5 -7.8,12.9 -15.2,18.4c0.6,1.8 1.6,5.6 2.4,9.6c1.6,8.4 1,13.3 -1.9,15.4c-0.93333,0.66667 -2.13333,1 -3.6,1c-6.1,0 -16.4,-6.9 -19.9,-9.4c-3.5,2.5 -13.8,9.4 -19.9,9.4c-1.46667,0 -2.66667,-0.33333 -3.6,-1c-2.9,-2.1 -3.5,-7 -1.9,-15.4c0.8,-4 1.8,-7.8 2.4,-9.6c-7.4,-5.5 -15.7,-12.9 -15.2,-18.4c-0.06667,-0.33333 -0.03333,-0.66667 0.1,-1c0.06667,-0.26667 0.2,-0.53333 0.4,-0.8c1.4,-2.9 5.8,-4.8 13.7,-5.9c4.1,-0.5 7.9,-0.7 9.9,-0.8c3.1,-9 7.9,-19.6 13.5,-20.2c0.13333,0 0.23333,0 0.3,0c0.06667,0 0.16667,0 0.3,0c0.13333,0 0.23333,0 0.3,0c0.06667,0 0.16667,0 0.3,0c5.6,0.6 10.4,11.2 13.5,20.2c2,0.1 5.8,0.3 9.9,0.8c7.9,1.1 12.3,3 13.7,6c0.2,0.2 0.33333,0.43333 0.4,0.7c0.13333,0.33333 0.16667,0.66667 0.1,1z" fill="#954300" fill-rule="nonzero"/><path d="M248.29191,278.94235c1.2,5.1 -11.1,14.6 -14.7,17.2l-0.7,0.9c0,0 6.6,20.2 1.7,23.8c-5,3.6 -21.6,-8.7 -22.1,-9.1l-0.2,-0.1v-0.1v0.1l-0.2,0.1c-0.5,0.4 -17.2,12.7 -22.1,9.1c-4.9,-3.6 1.7,-23.8 1.7,-23.8l-0.7,-0.9c-3.6,-2.6 -16,-12.1 -14.7,-17.2l-0.1,-0.1h0.1v0c1.9,-5.9 23.2,-5.9 23.2,-5.9l0.2,-0.4l0.3,-0.4c1.2,-3.7 6.7,-18.9 12,-19.4c0.06667,0 0.13333,-0.03333 0.2,-0.1c0,0 0.03333,0 0.1,0v0v0c0.06667,0 0.1,0 0.1,0c0.06667,0.06667 0.13333,0.1 0.2,0.1c5.3,0.5 10.8,15.7 12,19.4l0.2,0.4l0.3,0.4c0,0 21.3,0 23.1,5.9c0,0 0.03333,0 0.1,0h0.1z" fill="#f09a00" fill-rule="nonzero"/><path d="M248.29191,278.94235c1.2,5.1 -11.1,14.6 -14.7,17.2l-0.7,0.9c0,0 6.6,20.2 1.7,23.8c-5,3.6 -21.6,-8.7 -22.1,-9.1l-0.2,-0.1v-0.1v0.1l-0.2,0.1c-0.5,0.4 -17.2,12.7 -22.1,9.1c-4.9,-3.6 1.7,-23.8 1.7,-23.8l-0.7,-0.9c-3.6,-2.6 -16,-12.1 -14.7,-17.2l-0.1,-0.1h0.1v0c1.9,-5.9 23.2,-5.9 23.2,-5.9l0.2,-0.4l0.3,-0.4c1.2,-3.7 6.7,-18.9 12,-19.4c0.06667,0 0.13333,-0.03333 0.2,-0.1c0,0 0.03333,0 0.1,0v0v0c0.06667,0 0.1,0 0.1,0c0.06667,0.06667 0.13333,0.1 0.2,0.1c5.3,0.5 10.8,15.7 12,19.4l0.2,0.4l0.3,0.4c0,0 21.3,0 23.1,5.9c0,0 0.03333,0 0.1,0h0.1zM241.09191,280.64237c-0.2,-1.5 -15.4,-2.7 -20.3,-2.2c-0.1,-1 -6.3,-19.1 -8.3,-18.7c-0.8,0.2 -1.2,0.8 -1.7,1.3c-3.5,4.6 -7,17 -7.1,17.6c-0.06667,0 -0.16667,-0.03333 -0.3,-0.1c-3.1,-0.8 -18.6,-0.2 -18.9,2.2c-0.1,1.2 3,3.3 4,3.9c2.6,1.7 8.9,6.8 12.4,8.2c-3.7,5 -8.8,22.4 -6.2,22.5c1.5,0 5.3,-2.9 6.4,-3.8c2.2,-2 10.9,-9.4 11.6,-10.3c1.6,3.5 16.9,15 18.2,13.1c0.9,-1.3 -5.7,-19.9 -6.1,-20.7c3.2,-1 16.4,-10.7 16.3,-12.9c0,-0.06667 0,-0.1 0,-0.1z" fill="#cc740e" fill-rule="evenodd" opacity="0.3" style="mix-blend-mode: multiply"/><path d="M232.99191,297.24238c0.7,2.3 6.2,20.3 1.6,23.6c-5,3.6 -21.6,-8.7 -22.1,-9.1l-0.2,-0.1v-0.1v0.1l-0.2,0.1c-0.5,0.4 -17.2,12.7 -22.1,9.1c-4.9,-3.6 1.7,-23.8 1.7,-23.8l-0.1,-0.1c3,-1.2 5.9,-2.7 9,-3.6c-3.7,5.5 -8.4,21.9 -5.9,22c1.5,0 5.3,-2.9 6.4,-3.8c2.2,-2 10.9,-9.4 11.6,-10.3c1.6,3.5 16.9,15 18.2,13.1c0.9,-1.3 -5.7,-19.9 -6.1,-20.7c0.13333,-0.06667 0.3,-0.13333 0.5,-0.2c1.2,0.5 2.2,1.3 3.3,1.9c1.4,0.8 2.9,1.3 4.4,1.9z" fill="url(#color-15)" fill-rule="nonzero" opacity="0.8" style="mix-blend-mode: multiply"/><path d="M234.79191,282.74238c0.5,2.1 -12.3,8.4 -13.8,9.4l-0.3,0.4c0,0 8.2,16.6 6.2,18c-2,1.4 -14.2,-11.9 -14.4,-12.1v-0.1h-0.1v0.1c-0.2,0.2 -12.8,13.2 -14.8,11.8c-2,-1.4 6.5,-17.7 6.5,-17.7l-0.3,-0.4c-1.4,-1 -14.2,-7.9 -13.7,-9.9v-0.1v0c0.8,-2.4 17.2,0.7 17.2,0.7l0.1,-0.2l0.1,-0.1c0.5,-1.6 2.7,-14.5 4.8,-14.7c0,0 0.03333,-0.03333 0.1,-0.1v0v0c0,0 0.03333,0 0.1,0v0c0,0.06667 0.03333,0.1 0.1,0.1c2.1,0.2 4.3,13.1 4.8,14.7l0.1,0.1l0.1,0.2c0,0 16.5,-2.5 17.2,-0.1v0h0.1z" fill="#f09a00" fill-rule="nonzero" opacity="0.5" style="mix-blend-mode: screen"/><path d="M200.89191,292.84234c-3.5,-1.4 -9.8,-6.5 -12.4,-8.2c-1,-0.6 -4.1,-2.7 -4,-3.9c0.3,-2.4 15.8,-3 18.9,-2.2c0.13333,0.06667 0.26667,0.1 0.4,0.1c0,-0.6 3.5,-13 7.1,-17.6c0.4,-0.5 0.8,-1.1 1.6,-1.3c2,-0.4 8.2,17.7 8.3,18.7c4.9,-0.5 20.1,0.7 20.3,2.2c0,0 0,0.03333 0,0.1c0.1,2 -10.6,10.1 -15.1,12.4h-25.2c0.06667,-0.13333 0.1,-0.23333 0.1,-0.3z" fill="url(#color-16)" fill-rule="nonzero" style="mix-blend-mode: screen"/><path d="M203.09191,281.14237c0,1.6 -4.2,2.8 -9.2,2.6c-5,-0.1 -9.1,-1.6 -9,-3.2c0,-1.6 4.2,-2.8 9.2,-2.6c5,0.1 9.1,1.6 9,3.2z" fill="#ffff69" fill-rule="nonzero"/><path d="M209.49191,279.54236c1.2,1 0.1,3.2 -1.3,4c-0.8,0.46667 -1.46667,0.73333 -2,0.8c-4.2,0.8 -0.7,-8.2 3.3,-4.8z" fill="#ffff69" fill-rule="nonzero"/></g><g><path d="M187.59191,374.84234c0.3,2.8 -3.9,6.6 -7.7,9.4c0.3,0.9 0.8,2.8 1.2,4.9c0.8,4.2 0.5,6.7 -0.9,7.8c-0.53333,0.33333 -1.13333,0.5 -1.8,0.5h-0.1c-3.1,0 -8.3,-3.5 -10.1,-4.8c-1.7,1.3 -7,4.8 -10.1,4.8c-0.73333,0 -1.33333,-0.16667 -1.8,-0.5c-1.4,-1.1 -1.7,-3.6 -0.9,-7.8c0.3,-2.1 0.9,-4 1.2,-4.9c-3.8,-2.8 -8,-6.6 -7.7,-9.4c-0.06667,-0.13333 -0.06667,-0.3 0,-0.5c0.06667,-0.13333 0.13333,-0.23333 0.2,-0.3c0.7,-1.6 3,-2.5 7,-3.1c2,-0.2 4,-0.3 5,-0.3c1.6,-4.6 4,-10 6.9,-10.3c0,0 0.03333,0 0.1,0c0.06667,0 0.1,0 0.1,0c0.06667,0 0.13333,0 0.2,0c0.06667,0 0.1,0 0.1,0c2.9,0.3 5.3,5.7 6.9,10.3c1,0 3,0.1 5,0.3c4,0.6 6.3,1.5 7,3.1c0.06667,0.06667 0.13333,0.16667 0.2,0.3c0.06667,0.2 0.06667,0.36667 0,0.5z" fill="#954300" fill-rule="nonzero"/><path d="M186.49191,374.74238c0.6,2.6 -5.6,7.4 -7.4,8.8l-0.4,0.4c0,0 3.4,10.3 0.8,12.1c-2.4,1.8 -10.9,-4.5 -11.2,-4.6v-0.1v-0.1h-0.1v0.1l-0.1,0.1c-0.2,0.1 -8.7,6.4 -11.2,4.6c-2.5,-1.8 0.9,-12.1 0.9,-12.1l-0.4,-0.4c-1.8,-1.4 -8.1,-6.2 -7.4,-8.8h-0.1l0.1,-0.1v0c0.9,-2.9 11.7,-3 11.7,-3l0.2,-0.2l0.1,-0.1c0.6,-1.9 3.4,-9.6 6.1,-9.9c0,0 0.03333,0 0.1,0v0v0c0,0 0.03333,0 0.1,0v0c0.06667,0 0.1,0 0.1,0c2.7,0.3 5.5,8 6.1,9.9l0.1,0.1l0.1,0.2c0,0 10.9,0.1 11.8,3c0,0 0,0.03333 0,0.1h0.1z" fill="#f09a00" fill-rule="nonzero"/><path d="M186.49191,374.74238c0.6,2.6 -5.6,7.4 -7.4,8.8l-0.4,0.4c0,0 3.4,10.3 0.8,12.1c-2.4,1.8 -10.9,-4.5 -11.2,-4.6v-0.1v-0.1h-0.1v0.1l-0.1,0.1c-0.2,0.1 -8.7,6.4 -11.2,4.6c-2.5,-1.8 0.9,-12.1 0.9,-12.1l-0.4,-0.4c-1.8,-1.4 -8.1,-6.2 -7.4,-8.8h-0.1l0.1,-0.1v0c0.9,-2.9 11.7,-3 11.7,-3l0.2,-0.2l0.1,-0.1c0.6,-1.9 3.4,-9.6 6.1,-9.9c0,0 0.03333,0 0.1,0v0v0c0,0 0.03333,0 0.1,0v0c0.06667,0 0.1,0 0.1,0c2.7,0.3 5.5,8 6.1,9.9l0.1,0.1l0.1,0.2c0,0 10.9,0.1 11.8,3c0,0 0,0.03333 0,0.1h0.1zM182.7919,375.54236c-0.1,-0.8 -7.8,-1.3 -10.3,-1.1c-0.1,-0.5 -3.2,-9.7 -4.2,-9.5c-0.4,0.1 -0.6,0.4 -0.8,0.7c-1.8,2.3 -3.6,8.6 -3.6,8.9c-0.06667,0 -0.13333,0 -0.2,0c-1.6,-0.5 -9.5,-0.1 -9.6,1.1c-0.1,0.6 1.5,1.6 2,2c1.3,0.8 4.5,3.4 6.3,4.1c-1.9,2.6 -4.5,11.4 -3.2,11.4c0.8,0 2.7,-1.4 3.3,-1.9c1.1,-1 5.5,-4.8 5.9,-5.2c0.8,1.7 8.6,7.6 9.2,6.6c0.5,-0.7 -2.8,-10.1 -3.1,-10.5c1.7,-0.5 8.4,-5.4 8.3,-6.5c0,-0.06667 0,-0.1 0,-0.1z" fill="#cc740e" fill-rule="evenodd" opacity="0.3" style="mix-blend-mode: multiply"/><path d="M178.69189,384.04236c0.4,1.2 3.2,10.3 0.8,12c-2.4,1.8 -10.9,-4.5 -11.2,-4.6v-0.1v-0.1h-0.1v0.1l-0.1,0.1c-0.2,0.1 -8.7,6.4 -11.2,4.6c-2.5,-1.8 0.9,-12.1 0.9,-12.1v-0.1c1.5,-0.6 2.9,-1.3 4.5,-1.8c-1.9,2.8 -4.3,11.1 -3,11.2c0.8,0 2.7,-1.5 3.2,-2c1.2,-1 5.6,-4.7 6,-5.2c0.8,1.8 8.5,7.7 9.2,6.7c0.4,-0.7 -2.9,-10.1 -3.1,-10.5c0.06667,-0.06667 0.13333,-0.1 0.2,-0.1c0.6,0.2 1.2,0.6 1.7,0.9c0.7,0.4 1.5,0.7 2.2,1z" fill="url(#color-17)" fill-rule="nonzero" opacity="0.8" style="mix-blend-mode: multiply"/><path d="M179.69189,376.74238c0.2,1 -6.3,4.2 -7,4.7l-0.2,0.2c0,0 4.2,8.4 3.1,9.1c-1,0.8 -7.1,-6 -7.2,-6.1h-0.1c-0.1,0.1 -6.5,6.7 -7.5,6c-1,-0.7 3.3,-9 3.3,-9l-0.1,-0.2c-0.8,-0.5 -7.3,-4 -7,-5v-0.1c0.4,-1.2 8.7,0.4 8.7,0.4v-0.1l0.1,-0.1c0.2,-0.8 1.4,-7.3 2.4,-7.4c0.06667,-0.06667 0.1,-0.1 0.1,-0.1v0v0v0c0.06667,0 0.1,0.03333 0.1,0.1c1.1,0.1 2.2,6.6 2.4,7.4l0.1,0.1v0.1c0,0 8.4,-1.3 8.8,-0.1v0z" fill="#f09a00" fill-rule="nonzero" opacity="0.5" style="mix-blend-mode: screen"/><path d="M162.49191,381.84234c-1.8,-0.8 -5,-3.3 -6.3,-4.2c-0.5,-0.3 -2.1,-1.4 -2.1,-2c0.2,-1.2 8.1,-1.5 9.6,-1.1c0.06667,0 0.13333,0.03333 0.2,0.1c0,-0.3 1.8,-6.7 3.6,-9c0.2,-0.2 0.4,-0.5 0.8,-0.6c1,-0.2 4.2,9 4.3,9.5c2.4,-0.3 10.2,0.3 10.3,1c0,0.06667 0,0.1 0,0.1c0,1 -5.4,5.1 -7.7,6.3h-12.8c0,-0.06667 0.03333,-0.1 0.1,-0.1z" fill="url(#color-18)" fill-rule="nonzero" style="mix-blend-mode: screen"/><path d="M163.59191,375.84234c0,0.8 -2.1,1.4 -4.7,1.4c-2.5,-0.1 -4.6,-0.9 -4.6,-1.7c0.1,-0.8 2.2,-1.4 4.7,-1.3c2.6,0.1 4.6,0.8 4.6,1.6z" fill="#ffff69" fill-rule="nonzero"/><path d="M166.7919,375.04236c0.6,0.5 0.1,1.6 -0.6,2c-0.4,0.26667 -0.76667,0.43333 -1.1,0.5c-2.1,0.4 -0.3,-4.2 1.7,-2.5z" fill="#ffff69" fill-rule="nonzero"/></g><g><path d="M229.19189,374.84234c0.2,2.8 -4,6.6 -7.7,9.4c0.3,0.9 0.8,2.8 1.2,4.9c0.8,4.2 0.5,6.7 -1,7.8c-0.46667,0.33333 -1.06667,0.5 -1.8,0.5c-3.1,0 -8.3,-3.5 -10.1,-4.8c-1.8,1.3 -7,4.8 -10.1,4.8c-0.73333,0 -1.33333,-0.16667 -1.8,-0.5c-1.5,-1.1 -1.8,-3.6 -1,-7.8c0.4,-2.1 0.9,-4 1.2,-4.9c-3.7,-2.8 -7.9,-6.6 -7.7,-9.4c0,-0.13333 0.03333,-0.3 0.1,-0.5c0,-0.13333 0.03333,-0.23333 0.1,-0.3c0.8,-1.6 3,-2.5 7,-3.1c2.1,-0.2 4,-0.3 5,-0.3c1.6,-4.6 4,-10 6.9,-10.3c0.06667,0 0.1,0 0.1,0c0.06667,0 0.13333,0 0.2,0c0.06667,0 0.13333,0 0.2,0c0,0 0.03333,0 0.1,0c2.8,0.3 5.3,5.7 6.9,10.3c0.9,0 2.9,0.1 5,0.3c4,0.6 6.2,1.5 6.9,3.1c0.13333,0.06667 0.2,0.16667 0.2,0.3c0.06667,0.2 0.1,0.36667 0.1,0.5z" fill="#954300" fill-rule="nonzero"/><path d="M220.59191,383.54236l-0.4,0.4c0,0 3.4,10.3 0.9,12.1c-2.5,1.8 -11,-4.5 -11.2,-4.6l-0.1,-0.1v-0.1v0.1l-0.1,0.1c-0.2,0.1 -8.7,6.4 -11.2,4.6c-2.5,-1.8 0.8,-12.1 0.8,-12.1l-0.3,-0.4c-1.9,-1.4 -8.1,-6.2 -7.5,-8.8v-0.1c1,-2.9 11.8,-3 11.8,-3l0.1,-0.2l0.1,-0.1c0.7,-1.9 3.4,-9.6 6.1,-9.9c0.06667,0 0.1,0 0.1,0c0.06667,0 0.1,0 0.1,0v0v0c0,0 0.03333,0 0.1,0c0,0 0.03333,0 0.1,0c2.6,0.3 5.4,8 6.1,9.9l0.1,0.1l0.1,0.2c0,0 10.8,0.1 11.7,3v0.1h0.1c0.6,2.6 -5.7,7.4 -7.5,8.8z" fill="#f09a00" fill-rule="nonzero"/><path d="M228.09191,374.74238c0.6,2.6 -5.7,7.4 -7.5,8.8l-0.4,0.4c0,0 3.4,10.3 0.9,12.1c-2.5,1.8 -11,-4.5 -11.2,-4.6l-0.1,-0.1v-0.1v0.1l-0.1,0.1c-0.2,0.1 -8.7,6.4 -11.2,4.6c-2.5,-1.8 0.8,-12.1 0.8,-12.1l-0.3,-0.4c-1.9,-1.4 -8.1,-6.2 -7.5,-8.8v-0.1c1,-2.9 11.8,-3 11.8,-3l0.1,-0.2l0.1,-0.1c0.7,-1.9 3.4,-9.6 6.1,-9.9c0.06667,0 0.1,0 0.1,0c0.06667,0 0.1,0 0.1,0v0v0c0,0 0.03333,0 0.1,0c0,0 0.03333,0 0.1,0c2.6,0.3 5.4,8 6.1,9.9l0.1,0.1l0.1,0.2c0,0 10.8,0.1 11.7,3v0.1zM224.49191,375.54236c-0.1,-0.8 -7.9,-1.3 -10.3,-1.1c-0.1,-0.5 -3.3,-9.7 -4.3,-9.5c-0.4,0.1 -0.6,0.4 -0.8,0.7c-1.8,2.3 -3.6,8.6 -3.6,8.9c-0.06667,0 -0.13333,0 -0.2,0c-1.5,-0.5 -9.4,-0.1 -9.5,1.1c-0.1,0.6 1.5,1.6 2,2c1.3,0.8 4.5,3.4 6.3,4.1c-1.9,2.6 -4.5,11.4 -3.2,11.4c0.8,0 2.7,-1.4 3.2,-1.9c1.2,-1 5.6,-4.8 6,-5.2c0.8,1.7 8.5,7.6 9.2,6.6c0.4,-0.7 -2.9,-10.1 -3.1,-10.5c1.6,-0.5 8.3,-5.4 8.3,-6.5c0,-0.06667 0,-0.1 0,-0.1z" fill="#cc740e" fill-rule="evenodd" opacity="0.3" style="mix-blend-mode: multiply"/><path d="M220.2919,384.04236c0.3,1.2 3.2,10.3 0.8,12c-2.5,1.8 -11,-4.5 -11.2,-4.6l-0.1,-0.1v-0.1v0.1l-0.1,0.1c-0.2,0.1 -8.7,6.4 -11.2,4.6c-2.5,-1.8 0.8,-12.1 0.8,-12.1v-0.1c1.5,-0.6 3,-1.3 4.6,-1.8c-1.9,2.8 -4.3,11.1 -3,11.2c0.7,0 2.7,-1.5 3.2,-2c1.1,-1 5.6,-4.7 5.9,-5.2c0.8,1.8 8.6,7.7 9.2,6.7c0.5,-0.7 -2.8,-10.1 -3.1,-10.5c0.06667,-0.06667 0.16667,-0.1 0.3,-0.1c0.6,0.2 1.1,0.6 1.7,0.9c0.7,0.4 1.4,0.7 2.2,1z" fill="url(#color-19)" fill-rule="nonzero" opacity="0.8" style="mix-blend-mode: multiply"/><path d="M221.19189,376.74238c0.3,1 -6.2,4.2 -7,4.7l-0.1,0.2c0,0 4.1,8.4 3.1,9.1c-1,0.8 -7.2,-6 -7.3,-6.1h-0.1c-0.1,0.1 -6.4,6.7 -7.4,6c-1.1,-0.7 3.3,-9 3.3,-9l-0.2,-0.2c-0.7,-0.5 -7.2,-4 -7,-5v-0.1c0.4,-1.2 8.7,0.4 8.7,0.4l0.1,-0.1v-0.1c0.3,-0.8 1.4,-7.3 2.5,-7.4c0,-0.06667 0,-0.1 0,-0.1c0,0 0.03333,0 0.1,0v0v0c0,0 0,0.03333 0,0.1c1.1,0.1 2.2,6.6 2.5,7.4v0.1l0.1,0.1c0,0 8.3,-1.3 8.7,-0.1z" fill="#f09a00" fill-rule="nonzero" opacity="0.5" style="mix-blend-mode: screen"/><path d="M203.99191,381.84234c-1.8,-0.8 -5,-3.3 -6.3,-4.2c-0.5,-0.3 -2.1,-1.4 -2,-2c0.1,-1.2 8,-1.5 9.6,-1.1c0.06667,0 0.13333,0.03333 0.2,0.1c0,-0.3 1.8,-6.7 3.6,-9c0.2,-0.2 0.4,-0.5 0.8,-0.6c1,-0.2 4.2,9 4.2,9.5c2.5,-0.3 10.2,0.3 10.3,1c0,0.06667 0,0.1 0,0.1c0.1,1 -5.4,5.1 -7.6,6.3h-12.9c0.06667,-0.06667 0.1,-0.1 0.1,-0.1z" fill="url(#color-20)" fill-rule="nonzero" style="mix-blend-mode: screen"/><path d="M205.09191,375.84234c0,0.8 -2.1,1.4 -4.6,1.4c-2.6,-0.1 -4.6,-0.9 -4.6,-1.7c0,-0.8 2.1,-1.4 4.7,-1.3c2.5,0.1 4.6,0.8 4.5,1.6z" fill="#ffff69" fill-rule="nonzero"/><path d="M208.39191,375.04236c0.6,0.5 0,1.6 -0.7,2c-0.4,0.26667 -0.73333,0.43333 -1,0.5c-2.1,0.4 -0.4,-4.2 1.7,-2.5z" fill="#ffff69" fill-rule="nonzero"/></g><g><path d="M270.69191,374.84234c0.3,2.8 -3.9,6.6 -7.7,9.4c0.3,0.9 0.8,2.8 1.2,4.9c0.8,4.2 0.5,6.7 -0.9,7.8c-0.53333,0.33333 -1.16667,0.5 -1.9,0.5c-3.1,0 -8.3,-3.5 -10.1,-4.8c-1.7,1.3 -7,4.8 -10.1,4.8c-0.73333,0 -1.33333,-0.16667 -1.8,-0.5c-1.4,-1.1 -1.7,-3.6 -0.9,-7.8c0.3,-2.1 0.9,-4 1.2,-4.9c-3.8,-2.8 -8,-6.6 -7.7,-9.4c-0.06667,-0.13333 -0.06667,-0.3 0,-0.5c0.06667,-0.13333 0.13333,-0.23333 0.2,-0.3c0.7,-1.6 3,-2.5 7,-3.1c2,-0.2 4,-0.3 5,-0.3c1.6,-4.6 4,-10 6.9,-10.3c0,0 0.03333,0 0.1,0c0.06667,0 0.1,0 0.1,0c0.06667,0 0.13333,0 0.2,0c0.06667,0 0.1,0 0.1,0c2.9,0.3 5.3,5.7 6.9,10.3c1,0 3,0.1 5,0.3c4,0.6 6.3,1.5 7,3.1c0.06667,0.06667 0.13333,0.16667 0.2,0.3c0.06667,0.2 0.06667,0.36667 0,0.5z" fill="#954300" fill-rule="nonzero"/><path d="M269.59191,374.74238c0.6,2.6 -5.6,7.4 -7.4,8.8l-0.4,0.4c0,0 3.4,10.3 0.8,12.1c-2.4,1.8 -10.9,-4.5 -11.2,-4.6v-0.1v-0.1h-0.1v0.1l-0.1,0.1c-0.2,0.1 -8.7,6.4 -11.2,4.6c-2.5,-1.8 0.9,-12.1 0.9,-12.1l-0.4,-0.4c-1.8,-1.4 -8.1,-6.2 -7.4,-8.8h-0.1l0.1,-0.1v0c0.9,-2.9 11.7,-3 11.7,-3l0.2,-0.2l0.1,-0.1c0.6,-1.9 3.4,-9.6 6.1,-9.9c0,0 0.03333,0 0.1,0v0v0c0.06667,0 0.1,0 0.1,0v0c0.06667,0 0.1,0 0.1,0c2.7,0.3 5.5,8 6.1,9.9l0.1,0.1l0.1,0.2c0,0 10.9,0.1 11.8,3c0,0 0,0.03333 0,0.1h0.1z" fill="#f09a00" fill-rule="nonzero"/><path d="M269.59191,374.74238c0.6,2.6 -5.6,7.4 -7.4,8.8l-0.4,0.4c0,0 3.4,10.3 0.8,12.1c-2.4,1.8 -10.9,-4.5 -11.2,-4.6v-0.1v-0.1h-0.1v0.1l-0.1,0.1c-0.2,0.1 -8.7,6.4 -11.2,4.6c-2.5,-1.8 0.9,-12.1 0.9,-12.1l-0.4,-0.4c-1.8,-1.4 -8.1,-6.2 -7.4,-8.8h-0.1l0.1,-0.1v0c0.9,-2.9 11.7,-3 11.7,-3l0.2,-0.2l0.1,-0.1c0.6,-1.9 3.4,-9.6 6.1,-9.9c0,0 0.03333,0 0.1,0v0v0c0.06667,0 0.1,0 0.1,0v0c0.06667,0 0.1,0 0.1,0c2.7,0.3 5.5,8 6.1,9.9l0.1,0.1l0.1,0.2c0,0 10.9,0.1 11.8,3c0,0 0,0.03333 0,0.1h0.1zM265.89191,375.54236c-0.1,-0.8 -7.8,-1.3 -10.3,-1.1c0,-0.5 -3.2,-9.7 -4.2,-9.5c-0.4,0.1 -0.6,0.4 -0.8,0.7c-1.8,2.3 -3.6,8.6 -3.6,8.9c-0.06667,0 -0.13333,0 -0.2,0c-1.6,-0.5 -9.5,-0.1 -9.6,1.1c-0.1,0.6 1.5,1.6 2,2c1.3,0.8 4.5,3.4 6.3,4.1c-1.9,2.6 -4.4,11.4 -3.1,11.4c0.7,0 2.7,-1.4 3.2,-1.9c1.1,-1 5.6,-4.8 5.9,-5.2c0.8,1.7 8.6,7.6 9.2,6.6c0.5,-0.7 -2.8,-10.1 -3.1,-10.5c1.7,-0.5 8.4,-5.4 8.3,-6.5c0,-0.06667 0,-0.1 0,-0.1z" fill="#cc740e" fill-rule="evenodd" opacity="0.3" style="mix-blend-mode: multiply"/><path d="M261.79191,384.04236c0.4,1.2 3.2,10.3 0.8,12c-2.4,1.8 -10.9,-4.5 -11.2,-4.6v-0.1v-0.1h-0.1v0.1l-0.1,0.1c-0.2,0.1 -8.7,6.4 -11.2,4.6c-2.5,-1.8 0.9,-12.1 0.9,-12.1v-0.1c1.5,-0.6 2.9,-1.3 4.5,-1.8c-1.9,2.8 -4.3,11.1 -3,11.2c0.8,0 2.7,-1.5 3.2,-2c1.2,-1 5.6,-4.7 6,-5.2c0.8,1.8 8.5,7.7 9.2,6.7c0.4,-0.7 -2.9,-10.1 -3.1,-10.5c0.06667,-0.06667 0.13333,-0.1 0.2,-0.1c0.6,0.2 1.2,0.6 1.7,0.9c0.7,0.4 1.5,0.7 2.2,1z" fill="url(#color-21)" fill-rule="nonzero" opacity="0.8" style="mix-blend-mode: multiply"/><path d="M262.79191,376.74238c0.2,1 -6.3,4.2 -7,4.7l-0.2,0.2c0,0 4.2,8.4 3.1,9.1c-1,0.8 -7.1,-6 -7.2,-6.1h-0.1c-0.1,0.1 -6.5,6.7 -7.5,6c-1,-0.7 3.3,-9 3.3,-9l-0.1,-0.2c-0.8,-0.5 -7.3,-4 -7,-5v-0.1c0.4,-1.2 8.7,0.4 8.7,0.4v-0.1l0.1,-0.1c0.3,-0.8 1.4,-7.3 2.4,-7.4c0.06667,-0.06667 0.1,-0.1 0.1,-0.1v0v0v0c0.06667,0 0.1,0.03333 0.1,0.1c1.1,0.1 2.2,6.6 2.4,7.4l0.1,0.1v0.1c0,0 8.4,-1.3 8.8,-0.1z" fill="#f09a00" fill-rule="nonzero" opacity="0.5" style="mix-blend-mode: screen"/><path d="M245.59191,381.84234c-1.8,-0.8 -5,-3.3 -6.3,-4.2c-0.5,-0.3 -2.1,-1.4 -2.1,-2c0.2,-1.2 8.1,-1.5 9.6,-1.1c0.06667,0 0.13333,0.03333 0.2,0.1c0,-0.3 1.8,-6.7 3.6,-9c0.2,-0.2 0.4,-0.5 0.8,-0.6c1.1,-0.2 4.2,9 4.3,9.5c2.4,-0.3 10.2,0.3 10.3,1c0,0.06667 0,0.1 0,0.1c0,1 -5.4,5.1 -7.7,6.3h-12.8c0,-0.06667 0.03333,-0.1 0.1,-0.1z" fill="url(#color-22)" fill-rule="nonzero" style="mix-blend-mode: screen"/><path d="M246.69191,375.84234c0,0.8 -2.1,1.4 -4.7,1.4c-2.5,-0.1 -4.6,-0.9 -4.6,-1.7c0.1,-0.8 2.2,-1.4 4.7,-1.3c2.6,0.1 4.6,0.8 4.6,1.6z" fill="#ffff69" fill-rule="nonzero"/><path d="M249.89191,375.04236c0.6,0.5 0.1,1.6 -0.6,2c-0.4,0.26667 -0.76667,0.43333 -1.1,0.5c-2.1,0.4 -0.3,-4.2 1.7,-2.5z" fill="#ffff69" fill-rule="nonzero"/></g><g><path d="M390.09191,279.24238c0.5,5.5 -7.8,12.9 -15.2,18.4c0.6,1.8 1.7,5.6 2.4,9.6c1.6,8.4 1,13.3 -1.9,15.4c-0.93333,0.66667 -2.1,1 -3.5,1c-6.2,0 -16.5,-6.9 -20,-9.4c-3.5,2.5 -13.7,9.4 -19.9,9.4c-1.4,0 -2.6,-0.33333 -3.6,-1c-2.8,-2.1 -3.4,-7 -1.9,-15.4c0.8,-4 1.9,-7.8 2.4,-9.6c-7.3,-5.5 -15.6,-12.9 -15.2,-18.4c0,-0.33333 0.03333,-0.66667 0.1,-1c0.06667,-0.26667 0.2,-0.53333 0.4,-0.8c1.5,-2.9 5.9,-4.8 13.8,-5.9c4,-0.5 7.9,-0.7 9.8,-0.8c3.1,-9 7.9,-19.6 13.6,-20.2c0.06667,0 0.13333,0 0.2,0c0.13333,0 0.23333,0 0.3,0c0.13333,0 0.26667,0 0.4,0c0.06667,0 0.13333,0 0.2,0c5.6,0.6 10.5,11.2 13.6,20.2c1.9,0.1 5.8,0.3 9.8,0.8c7.9,1.1 12.4,3 13.8,6c0.13333,0.2 0.26667,0.43333 0.4,0.7c0.06667,0.33333 0.06667,0.66667 0,1z" fill="#954300" fill-rule="nonzero"/><path d="M387.89191,278.94235c1.3,5.1 -11,14.6 -14.6,17.2l-0.8,0.9c0,0 6.7,20.2 1.7,23.8c-4.9,3.6 -21.6,-8.7 -22.1,-9.1l-0.1,-0.1v-0.1h-0.1v0.1l-0.2,0.1c-0.4,0.4 -17.1,12.7 -22,9.1c-5,-3.6 1.7,-23.8 1.7,-23.8l-0.8,-0.9c-3.6,-2.6 -15.9,-12.1 -14.7,-17.2l-0.1,-0.1h0.2v0c1.8,-5.9 23.1,-5.9 23.1,-5.9l0.3,-0.4l0.2,-0.4c1.3,-3.7 6.7,-18.9 12,-19.4c0.06667,0 0.13333,-0.03333 0.2,-0.1c0.06667,0 0.1,0 0.1,0v0c0.06667,0 0.1,0 0.1,0c0,0 0.03333,0 0.1,0c0.06667,0.06667 0.13333,0.1 0.2,0.1c5.3,0.5 10.7,15.7 12,19.4l0.2,0.4l0.2,0.4c0,0 21.4,0 23.2,5.9v0h0.1z" fill="#f09a00" fill-rule="nonzero"/><path d="M387.89191,278.94235c1.3,5.1 -11,14.6 -14.6,17.2l-0.8,0.9c0,0 6.7,20.2 1.7,23.8c-4.9,3.6 -21.6,-8.7 -22.1,-9.1l-0.1,-0.1v-0.1h-0.1v0.1l-0.2,0.1c-0.4,0.4 -17.1,12.7 -22,9.1c-5,-3.6 1.7,-23.8 1.7,-23.8l-0.8,-0.9c-3.6,-2.6 -15.9,-12.1 -14.7,-17.2l-0.1,-0.1h0.2v0c1.8,-5.9 23.1,-5.9 23.1,-5.9l0.3,-0.4l0.2,-0.4c1.3,-3.7 6.7,-18.9 12,-19.4c0.06667,0 0.13333,-0.03333 0.2,-0.1c0.06667,0 0.1,0 0.1,0v0c0.06667,0 0.1,0 0.1,0c0,0 0.03333,0 0.1,0c0.06667,0.06667 0.13333,0.1 0.2,0.1c5.3,0.5 10.7,15.7 12,19.4l0.2,0.4l0.2,0.4c0,0 21.4,0 23.2,5.9v0h0.1zM380.79191,280.64237c-0.2,-1.5 -15.5,-2.7 -20.3,-2.2c-0.2,-1 -6.4,-19.1 -8.4,-18.7c-0.8,0.2 -1.2,0.8 -1.6,1.3c-3.5,4.6 -7,17 -7.1,17.6c-0.13333,0 -0.23333,-0.03333 -0.3,-0.1c-3.1,-0.8 -18.7,-0.2 -18.9,2.2c-0.2,1.2 3,3.3 4,3.9c2.5,1.7 8.8,6.8 12.4,8.2c-3.8,5 -8.8,22.4 -6.3,22.5c1.5,0 5.3,-2.9 6.4,-3.8c2.3,-2 11,-9.4 11.7,-10.3c1.5,3.5 16.8,15 18.1,13.1c0.9,-1.3 -5.6,-19.9 -6.1,-20.7c3.3,-1 16.5,-10.7 16.4,-12.9c0,-0.06667 0,-0.1 0,-0.1z" fill="#cc740e" fill-rule="evenodd" opacity="0.3" style="mix-blend-mode: multiply"/><path d="M372.59191,297.24238c0.7,2.3 6.3,20.3 1.6,23.6c-4.9,3.6 -21.6,-8.7 -22.1,-9.1l-0.1,-0.1v-0.1h-0.1v0.1l-0.2,0.1c-0.4,0.4 -17.1,12.7 -22,9.1c-5,-3.6 1.7,-23.8 1.7,-23.8l-0.1,-0.1c3,-1.2 5.8,-2.7 9,-3.6c-3.7,5.5 -8.5,21.9 -6,22c1.5,0 5.3,-2.9 6.4,-3.8c2.3,-2 11,-9.4 11.7,-10.3c1.5,3.5 16.8,15 18.1,13.1c0.9,-1.3 -5.6,-19.9 -6,-20.7c0.13333,-0.06667 0.26667,-0.13333 0.4,-0.2c1.2,0.5 2.3,1.3 3.4,1.9c1.3,0.8 2.8,1.3 4.3,1.9z" fill="url(#color-23)" fill-rule="nonzero" opacity="0.8" style="mix-blend-mode: multiply"/><path d="M360.69191,292.14237l-0.3,0.4c0,0 8.1,16.6 6.1,18c-2,1.4 -14.1,-11.9 -14.3,-12.1h-0.1v-0.1v0.1h-0.1c-0.2,0.2 -12.7,13.2 -14.7,11.8c-2,-1.4 6.5,-17.7 6.5,-17.7l-0.3,-0.4c-1.5,-1 -14.2,-7.9 -13.7,-9.9l-0.1,-0.1h0.1v0c0.7,-2.4 17.1,0.7 17.1,0.7l0.1,-0.2l0.1,-0.1c0.5,-1.6 2.7,-14.5 4.9,-14.7c0,0 0,-0.03333 0,-0.1c0,0 0.03333,0 0.1,0v0v0v0c0.06667,0.06667 0.1,0.1 0.1,0.1c2.1,0.2 4.3,13.1 4.9,14.7v0.1l0.2,0.2c0,0 16.4,-2.5 17.2,-0.1v0c0.5,2.1 -12.4,8.4 -13.8,9.4z" fill="#f09a00" fill-rule="nonzero" opacity="0.5" style="mix-blend-mode: screen"/><path d="M340.59191,292.84234c-3.6,-1.4 -9.9,-6.5 -12.4,-8.2c-1,-0.6 -4.2,-2.7 -4,-3.9c0.2,-2.4 15.8,-3 18.9,-2.2c0.06667,0.06667 0.16667,0.1 0.3,0.1c0.1,-0.6 3.6,-13 7.1,-17.6c0.4,-0.5 0.8,-1.1 1.6,-1.3c2,-0.4 8.2,17.7 8.4,18.7c4.9,-0.5 20.1,0.7 20.3,2.2c0,0 0,0.03333 0,0.1c0.1,2 -10.7,10.1 -15.1,12.4h-25.3c0.06667,-0.13333 0.13333,-0.23333 0.2,-0.3z" fill="url(#color-24)" fill-rule="nonzero" style="mix-blend-mode: screen"/><path d="M342.79191,281.14237c-0.1,1.6 -4.2,2.8 -9.2,2.6c-5.1,-0.1 -9.1,-1.6 -9.1,-3.2c0.1,-1.6 4.2,-2.8 9.2,-2.6c5.1,0.1 9.1,1.6 9.1,3.2z" fill="#ffff69" fill-rule="nonzero"/><path d="M349.09191,279.54236c1.3,1 0.2,3.2 -1.3,4c-0.8,0.46667 -1.46667,0.73333 -2,0.8c-4.2,0.8 -0.7,-8.2 3.3,-4.8z" fill="#ffff69" fill-rule="nonzero"/></g><g><path d="M327.29191,374.84234c0.2,2.8 -4,6.6 -7.7,9.4c0.2,0.9 0.8,2.8 1.2,4.9c0.8,4.2 0.5,6.7 -1,7.8c-0.46667,0.33333 -1.06667,0.5 -1.8,0.5c-3.1,0 -8.3,-3.5 -10.1,-4.8c-1.8,1.3 -7,4.8 -10.1,4.8c-0.73333,0 -1.33333,-0.16667 -1.8,-0.5c-1.5,-1.1 -1.8,-3.6 -1,-7.8c0.4,-2.1 0.9,-4 1.2,-4.9c-3.7,-2.8 -7.9,-6.6 -7.7,-9.4c0,-0.13333 0,-0.3 0,-0.5c0.06667,-0.13333 0.13333,-0.23333 0.2,-0.3c0.8,-1.6 3,-2.5 7,-3.1c2.1,-0.2 4,-0.3 5,-0.3c1.6,-4.6 4,-10 6.9,-10.3c0.06667,0 0.1,0 0.1,0c0.06667,0 0.13333,0 0.2,0c0.06667,0 0.1,0 0.1,0c0.06667,0 0.13333,0 0.2,0c2.8,0.3 5.3,5.7 6.9,10.3c0.9,0 2.9,0.1 5,0.3c4,0.6 6.2,1.5 6.9,3.1c0.13333,0.06667 0.2,0.16667 0.2,0.3c0.06667,0.2 0.1,0.36667 0.1,0.5z" fill="#954300" fill-rule="nonzero"/><path d="M318.69191,383.54236l-0.4,0.4c0,0 3.4,10.3 0.9,12.1c-2.5,1.8 -11,-4.5 -11.2,-4.6l-0.1,-0.1v-0.1v0.1l-0.1,0.1c-0.3,0.1 -8.7,6.4 -11.2,4.6c-2.5,-1.8 0.8,-12.1 0.8,-12.1l-0.3,-0.4c-1.9,-1.4 -8.1,-6.2 -7.5,-8.8v-0.1v0c1,-2.9 11.8,-3 11.8,-3l0.1,-0.2l0.1,-0.1c0.7,-1.9 3.4,-9.6 6.1,-9.9c0.06667,0 0.1,0 0.1,0c0,0 0.03333,0 0.1,0v0v0c0,0 0.03333,0 0.1,0c0,0 0.03333,0 0.1,0c2.6,0.3 5.4,8 6,9.9l0.2,0.1l0.1,0.2c0,0 10.8,0.1 11.7,3c0,0 0,0.03333 0,0.1h0.1c0.6,2.6 -5.7,7.4 -7.5,8.8z" fill="#f09a00" fill-rule="nonzero"/><path d="M326.19191,374.74238c0.6,2.6 -5.7,7.4 -7.5,8.8l-0.4,0.4c0,0 3.4,10.3 0.9,12.1c-2.5,1.8 -11,-4.5 -11.2,-4.6l-0.1,-0.1v-0.1v0.1l-0.1,0.1c-0.3,0.1 -8.7,6.4 -11.2,4.6c-2.5,-1.8 0.8,-12.1 0.8,-12.1l-0.3,-0.4c-1.9,-1.4 -8.1,-6.2 -7.5,-8.8v-0.1v0c1,-2.9 11.8,-3 11.8,-3l0.1,-0.2l0.1,-0.1c0.7,-1.9 3.4,-9.6 6.1,-9.9c0.06667,0 0.1,0 0.1,0c0,0 0.03333,0 0.1,0v0v0c0,0 0.03333,0 0.1,0c0,0 0.03333,0 0.1,0c2.6,0.3 5.4,8 6,9.9l0.2,0.1l0.1,0.2c0,0 10.8,0.1 11.7,3c0,0 0,0.03333 0,0.1zM322.59191,375.54236c-0.1,-0.8 -7.9,-1.3 -10.3,-1.1c-0.1,-0.5 -3.3,-9.7 -4.3,-9.5c-0.4,0.1 -0.6,0.4 -0.8,0.7c-1.8,2.3 -3.6,8.6 -3.6,8.9c-0.06667,0 -0.13333,0 -0.2,0c-1.6,-0.5 -9.4,-0.1 -9.6,1.1c0,0.6 1.6,1.6 2.1,2c1.3,0.8 4.5,3.4 6.3,4.1c-1.9,2.6 -4.5,11.4 -3.2,11.4c0.8,0 2.7,-1.4 3.2,-1.9c1.2,-1 5.6,-4.8 5.9,-5.2c0.8,1.7 8.6,7.6 9.3,6.6c0.4,-0.7 -2.9,-10.1 -3.1,-10.5c1.6,-0.5 8.3,-5.4 8.3,-6.5c0,-0.06667 0,-0.1 0,-0.1z" fill="#cc740e" fill-rule="evenodd" opacity="0.3" style="mix-blend-mode: multiply"/><path d="M318.39191,384.04236c0.3,1.2 3.1,10.3 0.8,12c-2.5,1.8 -11,-4.5 -11.2,-4.6l-0.1,-0.1v-0.1v0.1l-0.1,0.1c-0.3,0.1 -8.7,6.4 -11.2,4.6c-2.5,-1.8 0.8,-12.1 0.8,-12.1v-0.1c1.5,-0.6 3,-1.3 4.6,-1.8c-1.9,2.8 -4.3,11.1 -3,11.2c0.7,0 2.6,-1.5 3.2,-2c1.1,-1 5.5,-4.7 5.9,-5.2c0.8,1.8 8.6,7.7 9.2,6.7c0.5,-0.7 -2.8,-10.1 -3.1,-10.5c0.06667,-0.06667 0.16667,-0.1 0.3,-0.1c0.6,0.2 1.1,0.6 1.7,0.9c0.7,0.4 1.4,0.7 2.2,1z" fill="url(#color-25)" fill-rule="nonzero" opacity="0.8" style="mix-blend-mode: multiply"/><path d="M319.29191,376.74238c0.3,1 -6.2,4.2 -7,4.7l-0.1,0.2c0,0 4.1,8.4 3.1,9.1c-1,0.8 -7.2,-6 -7.3,-6.1h-0.1c-0.1,0.1 -6.4,6.7 -7.4,6c-1.1,-0.7 3.2,-9 3.2,-9l-0.1,-0.2c-0.7,-0.5 -7.2,-4 -7,-5v-0.1c0.4,-1.2 8.7,0.4 8.7,0.4l0.1,-0.1v-0.1c0.3,-0.8 1.4,-7.3 2.5,-7.4c0,-0.06667 0,-0.1 0,-0.1c0,0 0.03333,0 0.1,0v0v0c0,0 0,0.03333 0,0.1c1.1,0.1 2.2,6.6 2.5,7.4v0.1l0.1,0.1c0,0 8.3,-1.3 8.7,-0.1v0z" fill="#f09a00" fill-rule="nonzero" opacity="0.5" style="mix-blend-mode: screen"/><path d="M302.09191,381.84234c-1.8,-0.8 -5,-3.3 -6.3,-4.2c-0.5,-0.3 -2.1,-1.4 -2,-2c0.1,-1.2 8,-1.5 9.6,-1.1c0.06667,0 0.13333,0.03333 0.2,0.1c0,-0.3 1.8,-6.7 3.6,-9c0.2,-0.2 0.4,-0.5 0.8,-0.6c1,-0.2 4.1,9 4.2,9.5c2.5,-0.3 10.2,0.3 10.3,1c0,0.06667 0,0.1 0,0.1c0.1,1 -5.4,5.1 -7.6,6.3h-12.9c0.06667,-0.06667 0.1,-0.1 0.1,-0.1z" fill="url(#color-26)" fill-rule="nonzero" style="mix-blend-mode: screen"/><path d="M303.19191,375.84234c0,0.8 -2.1,1.4 -4.6,1.4c-2.6,-0.1 -4.6,-0.9 -4.6,-1.7c0,-0.8 2.1,-1.4 4.7,-1.3c2.5,0.1 4.6,0.8 4.5,1.6z" fill="#ffff69" fill-rule="nonzero"/><path d="M306.49191,375.04236c0.6,0.5 0,1.6 -0.7,2c-0.4,0.26667 -0.73333,0.43333 -1,0.5c-2.1,0.4 -0.4,-4.2 1.7,-2.5z" fill="#ffff69" fill-rule="nonzero"/></g><g><path d="M368.79191,374.84234c0.3,2.8 -3.9,6.6 -7.7,9.4c0.3,0.9 0.8,2.8 1.2,4.9c0.8,4.2 0.5,6.7 -0.9,7.8c-0.53333,0.33333 -1.16667,0.5 -1.9,0.5c-3.1,0 -8.3,-3.5 -10.1,-4.8c-1.7,1.3 -7,4.8 -10.1,4.8c-0.73333,0 -1.33333,-0.16667 -1.8,-0.5c-1.4,-1.1 -1.8,-3.6 -0.9,-7.8c0.3,-2.1 0.9,-4 1.2,-4.9c-3.8,-2.8 -8,-6.6 -7.7,-9.4c-0.06667,-0.13333 -0.06667,-0.3 0,-0.5c0.06667,-0.13333 0.13333,-0.23333 0.2,-0.3c0.7,-1.6 3,-2.5 7,-3.1c2,-0.2 4,-0.3 5,-0.3c1.6,-4.6 4,-10 6.9,-10.3c0,0 0.03333,0 0.1,0c0.06667,0 0.1,0 0.1,0c0.06667,0 0.13333,0 0.2,0c0.06667,0 0.1,0 0.1,0c2.9,0.3 5.3,5.7 6.9,10.3c1,0 3,0.1 5,0.3c4,0.6 6.3,1.5 7,3.1c0.06667,0.06667 0.13333,0.16667 0.2,0.3c0.06667,0.2 0.06667,0.36667 0,0.5z" fill="#954300" fill-rule="nonzero"/><path d="M367.69191,374.74238c0.6,2.6 -5.6,7.4 -7.4,8.8l-0.4,0.4c0,0 3.4,10.3 0.8,12.1c-2.5,1.8 -10.9,-4.5 -11.2,-4.6v-0.1v-0.1h-0.1v0.1l-0.1,0.1c-0.2,0.1 -8.7,6.4 -11.2,4.6c-2.5,-1.8 0.9,-12.1 0.9,-12.1l-0.4,-0.4c-1.8,-1.4 -8.1,-6.2 -7.4,-8.8h-0.1h0.1v-0.1c0.9,-2.9 11.7,-3 11.7,-3l0.2,-0.2l0.1,-0.1c0.6,-1.9 3.4,-9.6 6.1,-9.9c0,0 0.03333,0 0.1,0v0v0c0.06667,0 0.1,0 0.1,0v0c0.06667,0 0.1,0 0.1,0c2.7,0.3 5.5,8 6.1,9.9l0.1,0.1l0.1,0.2c0,0 10.8,0.1 11.8,3v0.1h0.1z" fill="#f09a00" fill-rule="nonzero"/><path d="M367.69191,374.74238c0.6,2.6 -5.6,7.4 -7.4,8.8l-0.4,0.4c0,0 3.4,10.3 0.8,12.1c-2.5,1.8 -10.9,-4.5 -11.2,-4.6v-0.1v-0.1h-0.1v0.1l-0.1,0.1c-0.2,0.1 -8.7,6.4 -11.2,4.6c-2.5,-1.8 0.9,-12.1 0.9,-12.1l-0.4,-0.4c-1.8,-1.4 -8.1,-6.2 -7.4,-8.8h-0.1h0.1v-0.1c0.9,-2.9 11.7,-3 11.7,-3l0.2,-0.2l0.1,-0.1c0.6,-1.9 3.4,-9.6 6.1,-9.9c0,0 0.03333,0 0.1,0v0v0c0.06667,0 0.1,0 0.1,0v0c0.06667,0 0.1,0 0.1,0c2.7,0.3 5.5,8 6.1,9.9l0.1,0.1l0.1,0.2c0,0 10.8,0.1 11.8,3v0.1h0.1zM363.99191,375.54236c-0.1,-0.8 -7.8,-1.3 -10.3,-1.1c-0.1,-0.5 -3.2,-9.7 -4.2,-9.5c-0.4,0.1 -0.6,0.4 -0.8,0.7c-1.8,2.3 -3.6,8.6 -3.6,8.9c-0.06667,0 -0.13333,0 -0.2,0c-1.6,-0.5 -9.5,-0.1 -9.6,1.1c-0.1,0.6 1.5,1.6 2,2c1.3,0.8 4.5,3.4 6.3,4.1c-1.9,2.6 -4.5,11.4 -3.1,11.4c0.7,0 2.6,-1.4 3.2,-1.9c1.1,-1 5.5,-4.8 5.9,-5.2c0.8,1.7 8.6,7.6 9.2,6.6c0.5,-0.7 -2.8,-10.1 -3.1,-10.5c1.7,-0.5 8.4,-5.4 8.3,-6.5c0,-0.06667 0,-0.1 0,-0.1z" fill="#cc740e" fill-rule="evenodd" opacity="0.3" style="mix-blend-mode: multiply"/><path d="M359.89191,384.04236c0.4,1.2 3.2,10.3 0.8,12c-2.5,1.8 -10.9,-4.5 -11.2,-4.6v-0.1v-0.1h-0.1v0.1l-0.1,0.1c-0.2,0.1 -8.7,6.4 -11.2,4.6c-2.5,-1.8 0.9,-12.1 0.9,-12.1v-0.1c1.5,-0.6 2.9,-1.3 4.5,-1.8c-1.9,2.8 -4.3,11.1 -3,11.2c0.8,0 2.7,-1.5 3.2,-2c1.2,-1 5.6,-4.7 6,-5.2c0.8,1.8 8.5,7.7 9.2,6.7c0.4,-0.7 -2.9,-10.1 -3.1,-10.5c0.06667,-0.06667 0.13333,-0.1 0.2,-0.1c0.6,0.2 1.2,0.6 1.7,0.9c0.7,0.4 1.5,0.7 2.2,1z" fill="url(#color-27)" fill-rule="nonzero" opacity="0.8" style="mix-blend-mode: multiply"/><path d="M360.89191,376.74238c0.2,1 -6.3,4.2 -7,4.7l-0.2,0.2c0,0 4.2,8.4 3.1,9.1c-1,0.8 -7.2,-6 -7.2,-6.1h-0.1c-0.1,0.1 -6.5,6.7 -7.5,6c-1,-0.7 3.3,-9 3.3,-9l-0.2,-0.2c-0.7,-0.5 -7.2,-4 -6.9,-5v-0.1c0.4,-1.2 8.7,0.4 8.7,0.4v-0.1l0.1,-0.1c0.2,-0.8 1.4,-7.3 2.4,-7.4c0.06667,-0.06667 0.1,-0.1 0.1,-0.1v0v0v0c0.06667,0 0.1,0.03333 0.1,0.1c1.1,0.1 2.2,6.6 2.4,7.4l0.1,0.1v0.1c0,0 8.4,-1.3 8.8,-0.1z" fill="#f09a00" fill-rule="nonzero" opacity="0.5" style="mix-blend-mode: screen"/><path d="M343.69191,381.84234c-1.8,-0.8 -5,-3.3 -6.3,-4.2c-0.5,-0.3 -2.1,-1.4 -2.1,-2c0.2,-1.2 8.1,-1.5 9.6,-1.1c0.06667,0 0.13333,0.03333 0.2,0.1c0,-0.3 1.8,-6.7 3.6,-9c0.2,-0.2 0.4,-0.5 0.8,-0.6c1,-0.2 4.2,9 4.3,9.5c2.4,-0.3 10.2,0.3 10.3,1c0,0.06667 0,0.1 0,0.1c0,1 -5.4,5.1 -7.7,6.3h-12.8c0,-0.06667 0.03333,-0.1 0.1,-0.1z" fill="url(#color-28)" fill-rule="nonzero" style="mix-blend-mode: screen"/><path d="M344.79191,375.84234c0,0.8 -2.1,1.4 -4.7,1.4c-2.5,-0.1 -4.6,-0.9 -4.6,-1.7c0.1,-0.8 2.1,-1.4 4.7,-1.3c2.6,0.1 4.6,0.8 4.6,1.6z" fill="#ffff69" fill-rule="nonzero"/><path d="M347.99191,375.04236c0.6,0.5 0.1,1.6 -0.6,2c-0.46667,0.26667 -0.83333,0.43333 -1.1,0.5c-2.1,0.4 -0.3,-4.2 1.7,-2.5z" fill="#ffff69" fill-rule="nonzero"/></g><g><path d="M410.3919,374.84234c0.2,2.8 -4,6.6 -7.7,9.4c0.3,0.9 0.8,2.8 1.2,4.9c0.8,4.2 0.5,6.7 -1,7.8c-0.46667,0.33333 -1.06667,0.5 -1.8,0.5c-3.1,0 -8.3,-3.5 -10.1,-4.8c-1.8,1.3 -7,4.8 -10.1,4.8c-0.73333,0 -1.33333,-0.16667 -1.8,-0.5c-1.5,-1.1 -1.8,-3.6 -1,-7.8c0.4,-2.1 0.9,-4 1.2,-4.9c-3.7,-2.8 -7.9,-6.6 -7.7,-9.4c0,-0.13333 0,-0.3 0,-0.5c0.06667,-0.13333 0.13333,-0.23333 0.2,-0.3c0.8,-1.6 3,-2.5 7,-3.1c2.1,-0.2 4,-0.3 5,-0.3c1.6,-4.6 4,-10 6.9,-10.3c0.06667,0 0.1,0 0.1,0c0.06667,0 0.13333,0 0.2,0c0.06667,0 0.1,0 0.1,0c0.06667,0 0.13333,0 0.2,0c2.8,0.3 5.3,5.7 6.9,10.3c0.9,0 2.9,0.1 5,0.3c4,0.6 6.2,1.5 6.9,3.1c0.13333,0.06667 0.2,0.16667 0.2,0.3c0.06667,0.2 0.1,0.36667 0.1,0.5z" fill="#954300" fill-rule="nonzero"/><path d="M401.79191,383.54236l-0.4,0.4c0,0 3.4,10.3 0.9,12.1c-2.5,1.8 -11,-4.5 -11.2,-4.6l-0.1,-0.1v-0.1v0.1l-0.1,0.1c-0.3,0.1 -8.7,6.4 -11.2,4.6c-2.5,-1.8 0.8,-12.1 0.8,-12.1l-0.3,-0.4c-1.8,-1.4 -8.1,-6.2 -7.5,-8.8v-0.1v0c1,-2.9 11.8,-3 11.8,-3l0.1,-0.2l0.1,-0.1c0.7,-1.9 3.4,-9.6 6.1,-9.9c0.06667,0 0.1,0 0.1,0c0,0 0.03333,0 0.1,0v0v0c0,0 0.03333,0 0.1,0c0,0 0.03333,0 0.1,0c2.6,0.3 5.4,8 6,9.9l0.2,0.1l0.1,0.2c0,0 10.8,0.1 11.7,3c0,0 0,0.03333 0,0.1h0.1c0.6,2.6 -5.7,7.4 -7.5,8.8z" fill="#f09a00" fill-rule="nonzero"/><path d="M409.29189,374.74238c0.6,2.6 -5.7,7.4 -7.5,8.8l-0.4,0.4c0,0 3.4,10.3 0.9,12.1c-2.5,1.8 -11,-4.5 -11.2,-4.6l-0.1,-0.1v-0.1v0.1l-0.1,0.1c-0.3,0.1 -8.7,6.4 -11.2,4.6c-2.5,-1.8 0.8,-12.1 0.8,-12.1l-0.3,-0.4c-1.8,-1.4 -8.1,-6.2 -7.5,-8.8v-0.1v0c1,-2.9 11.8,-3 11.8,-3l0.1,-0.2l0.1,-0.1c0.7,-1.9 3.4,-9.6 6.1,-9.9c0.06667,0 0.1,0 0.1,0c0,0 0.03333,0 0.1,0v0v0c0,0 0.03333,0 0.1,0c0,0 0.03333,0 0.1,0c2.6,0.3 5.4,8 6,9.9l0.2,0.1l0.1,0.2c0,0 10.8,0.1 11.7,3c0,0 0,0.03333 0,0.1zM405.69191,375.54236c-0.1,-0.8 -7.9,-1.3 -10.3,-1.1c-0.1,-0.5 -3.3,-9.7 -4.3,-9.5c-0.4,0.1 -0.6,0.4 -0.8,0.7c-1.8,2.3 -3.6,8.6 -3.6,8.9c-0.06667,0 -0.13333,0 -0.2,0c-1.5,-0.5 -9.4,-0.1 -9.6,1.1c0,0.6 1.6,1.6 2.1,2c1.3,0.8 4.5,3.4 6.3,4.1c-1.9,2.6 -4.5,11.4 -3.2,11.4c0.8,0 2.7,-1.4 3.2,-1.9c1.2,-1 5.6,-4.8 6,-5.2c0.8,1.7 8.5,7.6 9.2,6.6c0.4,-0.7 -2.9,-10.1 -3.1,-10.5c1.6,-0.5 8.3,-5.4 8.3,-6.5c0,-0.06667 0,-0.1 0,-0.1z" fill="#cc740e" fill-rule="evenodd" opacity="0.3" style="mix-blend-mode: multiply"/><path d="M401.49191,384.04236c0.3,1.2 3.1,10.3 0.8,12c-2.5,1.8 -11,-4.5 -11.2,-4.6l-0.1,-0.1v-0.1v0.1l-0.1,0.1c-0.3,0.1 -8.7,6.4 -11.2,4.6c-2.5,-1.8 0.8,-12.1 0.8,-12.1v-0.1c1.5,-0.6 3,-1.3 4.6,-1.8c-1.9,2.8 -4.3,11.1 -3,11.2c0.7,0 2.7,-1.5 3.2,-2c1.1,-1 5.5,-4.7 5.9,-5.2c0.8,1.8 8.6,7.7 9.2,6.7c0.5,-0.7 -2.8,-10.1 -3.1,-10.5c0.06667,-0.06667 0.16667,-0.1 0.3,-0.1c0.6,0.2 1.1,0.6 1.7,0.9c0.7,0.4 1.4,0.7 2.2,1z" fill="url(#color-29)" fill-rule="nonzero" opacity="0.8" style="mix-blend-mode: multiply"/><path d="M402.39191,376.74238c0.3,1 -6.2,4.2 -7,4.7l-0.1,0.2c0,0 4.1,8.4 3.1,9.1c-1,0.8 -7.2,-6 -7.3,-6.1h-0.1c-0.1,0.1 -6.4,6.7 -7.4,6c-1.1,-0.7 3.2,-9 3.2,-9l-0.1,-0.2c-0.7,-0.5 -7.2,-4 -7,-5v-0.1c0.4,-1.2 8.7,0.4 8.7,0.4l0.1,-0.1v-0.1c0.3,-0.8 1.4,-7.3 2.5,-7.4c0,-0.06667 0,-0.1 0,-0.1c0,0 0.03333,0 0.1,0v0v0c0,0 0,0.03333 0,0.1c1.1,0.1 2.2,6.6 2.5,7.4v0.1l0.1,0.1c0,0 8.3,-1.3 8.7,-0.1z" fill="#f09a00" fill-rule="nonzero" opacity="0.5" style="mix-blend-mode: screen"/><path d="M385.19191,381.84234c-1.8,-0.8 -5,-3.3 -6.3,-4.2c-0.5,-0.3 -2.1,-1.4 -2,-2c0.1,-1.2 8,-1.5 9.6,-1.1c0.06667,0 0.13333,0.03333 0.2,0.1c0,-0.3 1.8,-6.7 3.6,-9c0.2,-0.2 0.4,-0.5 0.8,-0.6c1,-0.2 4.1,9 4.2,9.5c2.5,-0.3 10.2,0.3 10.3,1c0,0.06667 0,0.1 0,0.1c0.1,1 -5.4,5.1 -7.6,6.3h-12.9c0.06667,-0.06667 0.1,-0.1 0.1,-0.1z" fill="url(#color-30)" fill-rule="nonzero" style="mix-blend-mode: screen"/><path d="M386.29191,375.84234c0,0.8 -2.1,1.4 -4.6,1.4c-2.6,-0.1 -4.6,-0.9 -4.6,-1.7c0,-0.8 2.1,-1.4 4.7,-1.3c2.5,0.1 4.6,0.8 4.5,1.6z" fill="#ffff69" fill-rule="nonzero"/><path d="M389.59191,375.04236c0.6,0.5 0,1.6 -0.7,2c-0.4,0.26667 -0.73333,0.43333 -1,0.5c-2.1,0.4 -0.4,-4.2 1.7,-2.5z" fill="#ffff69" fill-rule="nonzero"/></g></g></g></svg>