<svg version="1.1" xmlns="http://www.w3.org/2000/svg" xmlns:xlink="http://www.w3.org/1999/xlink" width="70.8283" height="85.48281" viewBox="0,0,70.8283,85.48281"><g transform="translate(-205.67874,-138.26893)"><g data-paper-data="{&quot;isPaintingLayer&quot;:true}" fill-rule="nonzero" stroke="none" stroke-linecap="butt" stroke-linejoin="miter" stroke-miterlimit="10" stroke-dasharray="" stroke-dashoffset="0" style="mix-blend-mode: normal"><path d="M269.32401,174.354c0,3.86 -0.09,7.5 -0.28,10.82c-0.01,0.08 -0.01,0.15 -0.02,0.22c-0.39,5.08 -1.36,9.37 -2.97,13.11c-1.98,4.5 -5.12,8.59 -9.34,12.24c-0.69,0.59 -1.44,1.09 -2.25,1.49l-2.36,1.18c-3.8,2.01 -8.3,3.16 -13.37,3.41c-0.04,0.01 -0.07,0.01 -0.1,0.01c-0.35,0.01 -0.69,0.02 -1.02,0.02c-4.86,0 -9.41,-1.4 -13.54,-4.15c-0.6,-0.4 -1.16,-0.86 -1.68,-1.37c-1.2,-1.21 -1.9,-2.46 -2.38,-3.41c-0.91,-1.84 -1.36,-3.65 -1.36,-5.51c0,-1.06 0.15,-2.1 0.44,-3.1c0.34,-1.87 1.06,-3.62 2.16,-5.16c-2.59,-2.08 -4.62,-4.52 -6.04,-7.3c-1.9,-3.67 -2.95,-7.52 -3.15,-11.43c-0.37,-6.8 0.87,-12.19 3.8,-16.41c2.67,-3.87 6.45,-7.32 11.2,-10.21c5.16,-3.13 9.96,-4.7 14.66,-4.8c0.35,-0.01 0.7,0 1.04,0.02c1.88,0.14 3.03,0.22 3.43,0.25c0.46,0.02 0.92,0.06 1.37,0.14c4.64,0.78 7.72,2.82 9.61,4.61c0.32,0.27 0.7,0.61 1.15,1c0.49,0.43 0.93,0.91 1.34,1.42l2.62,3.33c1.63,2.03 2.79,3.88 3.59,5.72c0.43,0.77 0.93,1.7 1.5,2.79c0.14,0.27 0.27,0.54 0.39,0.82c1.08,2.57 1.56,5.73 1.56,10.25z" fill="#00cccc" stroke-width="1"/><path d="M205.67874,223.75174v-85.48281h70.8283v85.48281z" data-paper-data="{&quot;origPos&quot;:null}" fill="#03cdff" stroke-width="0"/><path d="M233.0777,207.7247c-0.763,0.938 -1.525,1.554 -2.287,1.848c-0.763,0.293 -1.906,0.381 -3.431,0.264c-1.701,-0.118 -2.814,-0.118 -3.343,0c-0.059,0 -0.483,0.102 -1.275,0.308c-0.791,0.205 -1.394,0.309 -1.803,0.309c-0.118,0 -0.338,-0.104 -0.66,-0.309c-0.323,-0.206 -0.571,-0.308 -0.747,-0.308c-0.295,0 -1.071,0.044 -2.331,0.132c-1.262,0.088 -2.243,0.132 -2.947,0.132h-3.782c-1.525,-0.059 -2.405,-0.264 -2.639,-0.615c-0.527,-0.704 -0.792,-1.231 -0.792,-1.583c-0.176,-0.177 -0.322,-0.44 -0.439,-0.792c0.469,-2.404 2.756,-3.371 6.861,-2.902c2.99,0.294 4.75,0.264 5.277,-0.089c0.233,-6.273 0.088,-16.302 -0.439,-30.082c0.233,-2.58 0.468,-6.802 0.703,-12.667c-0.411,-0.058 -0.998,0.207 -1.759,0.792c-0.88,0.763 -1.438,1.203 -1.672,1.319c-0.72849,0.28709 -1.50399,0.4363 -2.287,0.44c-0.997,0 -1.729,-0.322 -2.198,-0.968c-0.29055,-0.34372 -0.44684,-0.78099 -0.44,-1.231c0,-1.056 1.056,-2.257 3.167,-3.606c2.463,-1.524 3.928,-2.903 4.398,-4.135c1.231,-0.997 2.52,-1.496 3.87,-1.496c1.759,0 2.814,0.88 3.166,2.639c-0.14545,0.31173 -0.26324,0.63565 -0.352,0.968c-0.235,1.818 -0.439,5.277 -0.616,10.38c0,0.294 -0.03,0.938 -0.088,1.935c-0.0368,0.55692 -0.06614,1.1143 -0.088,1.672v9.411c0,0.118 0.044,0.836 0.132,2.155c0.05267,0.71779 0.09701,1.43617 0.133,2.155v20.055c1.583,0.294 2.667,0.323 3.254,0.088c0.762,-0.292 1.437,-0.439 2.023,-0.439c1.349,0 2.492,0.763 3.431,2.287c0.116,0.174 0.116,0.819 0,1.933z" data-paper-data="{&quot;origPos&quot;:null}" fill="#ffffff" stroke-width="1"/><path d="M274.87754,186.11185c0.528,2.405 0.792,4.633 0.792,6.685c0,2.814 -0.499,5.22 -1.495,7.213c-0.176,0.587 -0.587,1.379 -1.231,2.375c-6.041,5.922 -14.484,8.972 -25.333,9.148c-1.174,0 -2.463,-0.323 -3.87,-0.968c-1.583,-0.822 -3.431,-2.229 -5.541,-4.223c-2.405,-2.228 -3.754,-4.016 -4.047,-5.365c-0.176,-0.469 -0.47,-1.173 -0.879,-2.111c0,-0.117 -0.206,-1.407 -0.616,-3.87c-0.118,0.176 -0.176,0.499 -0.176,0.968c-0.118,-0.41 -0.176,-0.88 -0.176,-1.407c0,-2.111 0.82,-4.442 2.463,-6.993c1.641,-2.551 3.431,-3.826 5.365,-3.826c0.938,0 1.848,0.353 2.727,1.06c0.234,0.177 0.353,0.56 0.353,1.147c0,0.236 -0.104,0.546 -0.308,0.928c-0.207,0.382 -0.339,0.691 -0.396,0.926c-0.821,0.707 -1.643,1.413 -2.463,2.12c-1.174,1.118 -1.818,2.06 -1.935,2.825c-0.118,0.471 -0.177,0.971 -0.177,1.501c0,2.944 1.32,5.843 3.959,8.697c2.639,2.854 5.423,4.281 8.356,4.281c0.527,0 1.084,-0.059 1.671,-0.176c0.996,-0.06 2.463,-0.178 4.397,-0.354c2.287,-0.529 4.632,-1.408 7.037,-2.643c2.932,-1.527 4.75,-3.157 5.453,-4.891c0.704,-1.731 1.056,-3.627 1.056,-5.683c0,-1.996 -0.352,-3.846 -1.056,-5.55c-0.176,-0.471 -0.439,-1.146 -0.791,-2.027c-2.347,-3.524 -4.956,-5.726 -7.828,-6.608c-0.704,-0.233 -2.171,-0.381 -4.398,-0.439c-2.229,-0.06 -3.842,-0.147 -4.838,-0.266c-1.935,-0.233 -3.489,-0.733 -4.662,-1.498c-0.352,-0.409 -0.527,-0.908 -0.527,-1.496c0,-1.41 0.585,-2.468 1.759,-3.173c0.938,-0.587 2.668,-2.937 5.19,-7.049c1.699,-2.408 4.162,-5.991 7.389,-10.749c-7.213,0 -14.368,0.439 -21.463,1.319c0,0.88 0.205,2.493 0.616,4.838c0.527,3.108 0.82,4.956 0.879,5.542c0.058,0.703 -0.234,1.422 -0.879,2.154c-0.646,0.734 -1.467,1.188 -2.463,1.363c-0.939,0.177 -1.76,-0.176 -2.463,-1.055c-0.235,-0.353 -0.383,-1.056 -0.44,-2.111c0,-0.88 -0.47,-4.163 -1.407,-9.852c-0.059,-0.117 -0.176,-0.264 -0.352,-0.44c-0.353,-1.816 -0.528,-2.696 -0.528,-2.639c0,-0.645 0.176,-1.172 0.528,-1.583c0.996,-0.996 2.608,-1.524 4.838,-1.583c1.816,0 5.951,-0.088 12.402,-0.265c1.231,0 5.014,-0.204 11.347,-0.615c0.938,-0.117 1.905,-0.233 2.902,-0.352c1.465,-0.176 2.448,-0.117 2.947,0.176c0.497,0.294 0.864,0.703 1.099,1.231c0.469,0.998 0.322,1.965 -0.439,2.902c-0.411,0.235 -0.91,0.675 -1.495,1.319c-0.763,1.231 -1.922,2.859 -3.475,4.882c-1.554,2.023 -2.683,3.622 -3.386,4.794c-0.939,1.643 -2.375,4.105 -4.311,7.389c10.496,1.583 17.034,5.894 19.615,12.931c0.234,0.237 0.47,0.618 0.704,1.146z" data-paper-data="{&quot;origPos&quot;:null}" fill="#ffffff" stroke-width="1"/></g></g></svg>