<svg version="1.1" xmlns="http://www.w3.org/2000/svg" xmlns:xlink="http://www.w3.org/1999/xlink" width="138.6176" height="135.6" viewBox="0,0,138.6176,135.6"><defs><linearGradient x1="305.56907" y1="168.963" x2="305.56907" y2="116.318" gradientUnits="userSpaceOnUse" id="color-1"><stop offset="0" stop-color="#000000"/><stop offset="1" stop-color="#6dd2f2"/></linearGradient><linearGradient x1="340.04207" y1="178.396" x2="340.04207" y2="275.448" gradientUnits="userSpaceOnUse" id="color-2"><stop offset="0" stop-color="#ffffff"/><stop offset="1" stop-color="#28686f"/></linearGradient><linearGradient x1="305.56907" y1="168.963" x2="305.56907" y2="116.318" gradientUnits="userSpaceOnUse" id="color-3"><stop offset="0" stop-color="#000000"/><stop offset="1" stop-color="#6dd2f2"/></linearGradient><linearGradient x1="340.04207" y1="178.396" x2="340.04207" y2="275.448" gradientUnits="userSpaceOnUse" id="color-4"><stop offset="0" stop-color="#ffffff"/><stop offset="1" stop-color="#28686f"/></linearGradient></defs><g transform="translate(-250.6912,-112.2)"><g stroke="none" stroke-miterlimit="10"><g fill-rule="nonzero"><path d="M384.03507,224.7c-2.4,14 -11.7,23.1 -23.7,23.1h-81.2c-12.5,0 -21.1,-8.4 -23.7,-23.1c-2.8,-16.6 -6.8,-59.7 -3.5,-89.2c1.5,-14 11.6,-23.3 25.1,-23.3h85.4c12.7,0 23.1,9.5 25.1,23.2c5.2,34.9 -2.6,83.8 -3.5,89.3z" fill="#28686f"/><path d="M380.53507,224.1c-1.8,11.1 -9.1,20.2 -20.2,20.2h-81.2c-11.1,0 -18.1,-7.7 -20.2,-20.2c-3.1,-18 -6.6,-60.2 -3.5,-88.2c1.4,-12.8 10.4,-20.2 21.6,-20.2h85.4c11.2,0 19.9,8.5 21.6,20.2c4.5,29.8 -0.7,71.3 -3.5,88.2z" fill="#50a5b3"/><path d="M254.33507,172.7c-0.3,-12.9 -0.1,-25.9 1.1,-36.8c1.4,-12.8 10.4,-20.2 21.6,-20.2h85.4c11.2,0 19.9,8.5 21.6,20.2c1.9,12.6 2.1,27.3 1.4,41.4c-12.3,-1.9 -24.5,-4.1 -36.9,-5.7c-16.6,-2.1 -33.5,-2.2 -50.3,-1.8c-8.6,0.2 -17.1,0.6 -25.7,1.1c-4.6,0.3 -9.1,0.7 -13.6,1.2c-1.4,0.1 -3,0.4 -4.6,0.6z" fill="url(#color-1)" opacity="0.5" style="mix-blend-mode: screen"/><path d="M385.33507,179.4c-1,18.3 -3.2,35.3 -4.8,44.7c-1.8,11.1 -9.1,20.2 -20.2,20.2h-81.2c-11.1,0 -18.1,-7.7 -20.2,-20.2c-1.9,-10.7 -3.8,-29.8 -4.5,-49.5c3.8,-0.3 7.7,-0.8 11.5,-1.1c8.5,-0.8 17.1,-1.1 25.6,-1.4c18,-0.6 36.1,-0.8 53.9,1.2c13.4,1.5 26.6,4 39.9,6.1z" fill="url(#color-2)" style="mix-blend-mode: multiply"/><g fill="#6dd2f2" opacity="0.7" style="mix-blend-mode: screen"><g opacity="0.5" style="mix-blend-mode: normal"><path d="M365.53507,131.4c3.3,-3.7 6.8,-7.3 9.9,-11.2c0.4,0.4 0.8,0.8 1.2,1.2c-3.4,2.6 -6.3,6 -9.7,8.8c-0.46667,0.4 -0.93333,0.8 -1.4,1.2z"/></g><g opacity="0.5" style="mix-blend-mode: normal"><path d="M304.13507,123.9c0,-2.7 -0.6,-5.5 -0.4,-8.2h4.2c-0.1,0.6 -0.2,1.2 -0.3,1.6c-0.3,2.1 -0.5,4.3 -0.7,6.5c-0.2,2.26667 -0.33333,4.53333 -0.4,6.8c-0.66667,0 -1.36667,0.03333 -2.1,0.1c-0.6,-2.1 -0.3,-4.7 -0.3,-6.8z"/></g><g opacity="0.5" style="mix-blend-mode: normal"><path d="M313.43507,115.7h15.9c-1,4.8 -1.7,9.9 -2.1,14.9c-2.1,-0.2 -4.3,-0.4 -6.5,-0.5c-2.1,-0.1 -4.1,-0.1 -6.2,0c0,-4.9 -1.1,-9.6 -1.1,-14.4z"/></g><g opacity="0.5" style="mix-blend-mode: normal"><path d="M286.13507,119.3c-0.33333,-1.2 -0.66667,-2.4 -1,-3.6h12.9c0,1.2 -0.03333,2.4 -0.1,3.6c-0.1,3.7 0.6,7.5 0.6,11.2c-2.8,-0.3 -5.5,-0.6 -8.3,-0.2c-0.26667,0 -0.5,0.03333 -0.7,0.1c-1.4,-3.7 -2.4,-7.4 -3.4,-11.1z"/></g><g opacity="0.5" style="mix-blend-mode: normal"><path d="M282.83507,133.4c-2.8,-6.1 -7.7,-11.1 -10.6,-17.2c0.66667,-0.13333 1.36667,-0.26667 2.1,-0.4c1.5,2.1 2.7,4.5 3.9,6.7c1.1,2 2.1,4 3.2,6c0.7,1.5 1.7,2.8 2.5,4.3c-0.33333,0.2 -0.7,0.4 -1.1,0.6z"/></g><g opacity="0.5" style="mix-blend-mode: normal"><path d="M300.03507,122.9c0,-2.4 0,-4.8 0.1,-7.2h1.5c-0.1,2.8 0.4,5.6 0.4,8.3c-0.1,2.2 -0.2,4.6 0.3,6.7c-0.6,0 -1.2,-0.03333 -1.8,-0.1c0,-2.5 -0.4,-5.1 -0.5,-7.7z"/></g><g opacity="0.5" style="mix-blend-mode: normal"><path d="M335.73507,131c0.26667,-2.26667 0.56667,-4.53333 0.9,-6.8c0.4,-2.7 0.5,-5.9 1.4,-8.5h4.8c-2.5,4.4 -2.4,10.4 -3.9,15.3c-0.86667,0 -1.73333,0 -2.6,0c-0.2,0 -0.4,0 -0.6,0z"/></g><g opacity="0.5" style="mix-blend-mode: normal"><path d="M380.23507,136.8c1.3,-0.6 2.4,-1.3 3.7,-1.8c0,0.33333 0.03333,0.63333 0.1,0.9c0.26667,1.6 0.46667,3.23333 0.6,4.9c-1.3,0.4 -2.7,0.6 -4.1,1c-2.8,0.7 -5.6,1.8 -8.4,2.7c-2.3,0.8 -4.7,1.4 -7.1,2c-0.13333,-0.6 -0.3,-1.16667 -0.5,-1.7c2.8,-1.4 5.6,-2.8 8.4,-4.3c2.4,-1.26667 4.83333,-2.5 7.3,-3.7z"/></g><g opacity="0.5" style="mix-blend-mode: normal"><path d="M276.43507,130.9c-3.6,-4 -6.9,-8.3 -10.2,-12.5c1.26667,-0.66667 2.6,-1.23333 4,-1.7c2.9,6.4 8,11.5 10.8,17.9c0,0 -0.03333,0 -0.1,0c-0.26667,0.2 -0.56667,0.4 -0.9,0.6c-1.1,-1.5 -2.3,-2.9 -3.6,-4.3z"/></g><g opacity="0.5" style="mix-blend-mode: normal"><path d="M375.13507,156c3.5,-0.5 7,-0.4 10.5,-0.5c0.06667,1.06667 0.1,2.16667 0.1,3.3c-0.86667,-0.06667 -1.7,-0.1 -2.5,-0.1c-5.2,-0.1 -10.3,-0.3 -15.4,-0.6c-0.06667,0 -0.13333,0 -0.2,0c0,-0.06667 0,-0.16667 0,-0.3c-0.06667,-0.2 -0.1,-0.4 -0.1,-0.6c2.46667,-0.46667 5,-0.86667 7.6,-1.2z"/></g><g opacity="0.5" style="mix-blend-mode: normal"><path d="M362.33507,128.6c2.1,-4.1 4.7,-7.9 7.5,-11.6c1.33333,0.53333 2.63333,1.2 3.9,2c-4.7,5.7 -10,10.9 -14.8,16.5c-0.13333,-0.06667 -0.23333,-0.16667 -0.3,-0.3c1.4,-2.1 2.5,-4.3 3.7,-6.6z"/></g><g opacity="0.5" style="mix-blend-mode: normal"><path d="M342.53507,124.2c0.6,-2.7 1.2,-6.4 2.8,-8.5h1.8c-2.4,4.5 -3.4,10.2 -4.5,15.2c-0.53333,0 -1.03333,0 -1.5,0c0.6,-2.2 1,-4.5 1.4,-6.7z"/></g><g opacity="0.5" style="mix-blend-mode: normal"><path d="M355.73507,123.2c1,-2.5 1.9,-5.1 3.1,-7.5h3.6c0.33333,0 0.7,0 1.1,0c-1.7,2.8 -3.8,5.3 -5.3,8.1c-1.5,2.9 -2.8,5.9 -4.3,8.8c-0.6,-0.26667 -1.2,-0.46667 -1.8,-0.6c1.2,-2.9 2.3,-5.9 3.6,-8.8z"/></g><g opacity="0.5" style="mix-blend-mode: normal"><path d="M369.23507,204.6c4.6,1.1 9.1,2.4 13.5,3.9c-0.13333,1.26667 -0.3,2.5 -0.5,3.7c-2.66667,-1 -5.26667,-2.06667 -7.8,-3.2c-1.4,-0.6 -3.5,-1.9 -5.3,-2.3c0,-0.06667 0,-0.13333 0,-0.2c0.06667,-0.6 0.1,-1.23333 0.1,-1.9z"/></g><g opacity="0.5" style="mix-blend-mode: normal"><path d="M374.33507,211.2c2.53333,1.06667 5.1,2.1 7.7,3.1c-0.13333,0.93333 -0.26667,1.8 -0.4,2.6c-2.4,-0.9 -4.8,-1.9 -6.9,-3.4c-1.9,-1.4 -3.7,-3 -6.1,-3c0.06667,-0.6 0.16667,-1.16667 0.3,-1.7c1.8,0.3 4.1,1.9 5.4,2.4z"/></g><g opacity="0.5" style="mix-blend-mode: normal"><path d="M265.63507,220.8c-2.3,1.5 -4.3,3.3 -6.4,4.9c-0.13333,-0.53333 -0.23333,-1.06667 -0.3,-1.6c-0.06667,-0.4 -0.13333,-0.8 -0.2,-1.2c3.1,-1.7 6.2,-3.3 9.4,-5c1.8,-0.93333 3.6,-1.93333 5.4,-3c0.7,-0.4 1.5,-1.1 2.4,-1.5c0.06667,0.46667 0.13333,0.93333 0.2,1.4c-0.06667,0 -0.13333,0.03333 -0.2,0.1c-3.3,2.1 -6.9,3.8 -10.3,5.9z"/></g><g opacity="0.5" style="mix-blend-mode: normal"><path d="M370.03507,189.3c4.9,0.1 9.7,1 14.5,2c-0.06667,0.86667 -0.13333,1.7 -0.2,2.5c-2.2,-0.6 -4.4,-1.2 -6.6,-1.8c-2.3,-0.6 -5.1,-2.1 -7.7,-1.8c0,-0.26667 0,-0.56667 0,-0.9z"/></g><g opacity="0.5" style="mix-blend-mode: normal"><path d="M385.43507,177.3c-0.06667,0.8 -0.1,1.56667 -0.1,2.3c-2.1,-0.2 -4.2,-0.5 -6.2,-0.7c-3.1,-0.4 -6.3,-0.4 -9.5,-0.4c0,-0.2 0,-0.4 0,-0.6c5.3,-0.3 10.5,-0.7 15.8,-0.6z"/></g><g opacity="0.5" style="mix-blend-mode: normal"><path d="M254.23507,158.8c0,-1 0,-1.96667 0,-2.9c2.3,-0.2 4.7,0.1 7,0.3c3.2,0.2 6.4,0.6 9.5,1c0.06667,0.46667 0.1,0.93333 0.1,1.4c-5.5,0.4 -11.1,-0.3 -16.6,0.2z"/></g><g opacity="0.5" style="mix-blend-mode: normal"><path d="M254.23507,163.4c0,-0.8 0,-1.63333 0,-2.5c5.5,-0.6 11.1,0.2 16.7,-0.2c0,0.2 0,0.4 0,0.6c0,0.26667 0,0.53333 0,0.8c-2.1,0.2 -4.1,0.5 -6.2,0.6c-3.4,0.1 -7.1,1 -10.5,0.7z"/></g><g opacity="0.5" style="mix-blend-mode: normal"><path d="M268.83507,150.4c-4.8,-0.6 -9.6,-1 -14.4,-1.5c0.2,-3.5 0.4,-6.9 0.7,-10.1c2.7,1 5.6,1.8 8.3,2.7c2.7,1 5.3,1.9 7.9,3c-0.5,1.8 -0.6,3.8 -0.7,5.5c0,0.2 0,0.4 0,0.6c-0.8,-0.1 -1.4,-0.1 -1.8,-0.2z"/></g><g opacity="0.5" style="mix-blend-mode: normal"><path d="M263.13507,189.3c-2.4,0.6 -5.3,1.2 -7.8,2.1c-0.06667,-0.8 -0.13333,-1.6 -0.2,-2.4c5.2,-1.4 10.6,-2.4 16,-3.6c0.06667,0.6 0.13333,1.2 0.2,1.8c-2.8,0.6 -5.4,1.4 -8.2,2.1z"/></g><g opacity="0.5" style="mix-blend-mode: normal"><path d="M273.53507,202.1c-5.5,3.4 -10.9,7 -16.2,10.8c-0.2,-1.4 -0.36667,-2.86667 -0.5,-4.4c5.5,-2.9 10.8,-6.2 16.3,-9c0,0.26667 0.03333,0.5 0.1,0.7c0.06667,0.66667 0.16667,1.3 0.3,1.9z"/></g></g><path d="M269.33507,237c-0.7,1.1 -1.3,2.3 -1.9,3.5c-1.8,-1.46667 -3.36667,-3.26667 -4.7,-5.4c1.3,-1 2.5,-2 3.7,-3c4.8,-3.8 9.7,-7.5 14.4,-11.4c-2,3.1 -4,6.2 -6.2,9.1c-1.9,2.3 -3.7,4.7 -5.3,7.2z" fill="#449199" opacity="0.7" style="mix-blend-mode: multiply"/><path d="M372.23507,240c-1.13333,0.93333 -2.36667,1.73333 -3.7,2.4c-0.13333,-0.2 -0.23333,-0.4 -0.3,-0.6c-1.2,-1.8 -2.4,-3.5 -3.6,-5.3c-1.06667,-1.53333 -2.1,-3.06667 -3.1,-4.6c0.9,1 1.8,1.9 2.8,2.8c1.7,1.5 3.8,2.6 5.7,3.9c0.6,0.5 1.4,0.9 2.2,1.4z" fill="#449199" opacity="0.7" style="mix-blend-mode: multiply"/><path d="M258.03507,130.3c-0.9,0.9 -1.6,1.9 -2.2,3c1.6,-7.8 6.2,-13.3 12.4,-15.9c-0.26667,0.26667 -0.5,0.53333 -0.7,0.8c-1.2,1.6 -0.2,4.4 0.7,5.9c2.5,4.1 6.3,5.8 10.9,5.9c7.2,0.2 14.5,-0.3 21.7,0.4c7.3,0.7 14.6,1.5 22,2.1c7.4,0.5 15,0.8 22.5,0.2c7,-0.6 14,-2.9 21.1,-2.8c3.5,0 7.1,-0.7 7.9,-4.6c0.6,-3.2 -1.5,-7.1 -4.6,-8.3c7.5,2.8 13,10 14.3,18.9c0.06667,0.26667 0.1,0.56667 0.1,0.9c-1,-3.7 -3.1,-7.2 -6.4,-7.3c-2.5,-0.1 -4.8,2.2 -6.1,4c-1.3,1.7 -0.9,3.7 -1.2,5.6c-0.2,1.5 -0.9,2.7 -1.4,4c-1.6,4.1 -1.4,8.5 -2,12.7c-0.86667,6.26667 -1.6,12.53333 -2.2,18.8h-95.8c-0.06667,-1.86667 -0.13333,-3.73333 -0.2,-5.6c-0.2,-8.6 -0.8,-17.2 -0.3,-25.8c0.1,-3.3 0.1,-6.2 -1.6,-8.9c-1.8,-2.8 -5.5,-7.2 -8.9,-4z" fill="#d8f2fd" opacity="0.4" style="mix-blend-mode: screen"/><path d="M265.83507,127.9c-1.8,-1.4 -3.8,-2.8 -5.8,-4.1c0.86667,-1.2 1.86667,-2.26667 3,-3.2c0.2,0.33333 0.4,0.63333 0.6,0.9c1.4,2 3.2,3.7 4.8,5.4c3.2,3.3 6.6,6.5 8.8,10.5c-3.1,-3.9 -7.3,-6.6 -11.4,-9.5z" fill="#d8f2fd"/><path d="M372.03507,128.6c2,-2 4.1,-3.8 6.1,-5.8c0.53333,0.6 1.03333,1.23333 1.5,1.9c-0.6,0.4 -1.2,0.76667 -1.8,1.1c-2.3,1.6 -4.3,3.7 -6.6,5.4c-2.3,1.7 -5,3.3 -7.6,4.5c2.5,-2.6 5.9,-4.7 8.4,-7.1z" fill="#d8f2fd"/><path d="M380.03507,226.6c-2.5,9.9 -9.4,17.7 -19.7,17.7h-81.2c-10.5,0 -17.2,-6.8 -19.8,-18c1.8,2.5 4,4 6.9,2.6c5.4,-2.5 5.2,-9.4 5.1,-14.4c-0.1,-5.4 -0.1,-10.7 -0.6,-16.1c-0.73333,-7.26667 -1.26667,-14.5 -1.6,-21.7h95.6c-0.2,1.86667 -0.36667,3.73333 -0.5,5.6c-0.3,6.4 -0.6,12.9 -0.4,19.3c0.1,6.5 0.2,12.9 2.1,19.2c0.3,1 1.8,0.9 2,-0.1c0.6,-2.7 0.9,-5.4 1.5,-8c0.2,2.1 0.1,4.2 0.1,6.3c0.1,2.2 -0.6,4.7 0.6,6.7c1.5,2.5 5,4.4 7.8,2.7c0.8,-0.53333 1.5,-1.13333 2.1,-1.8z" fill="#287c81" opacity="0.4" style="mix-blend-mode: multiply"/><path d="M270.13507,242.3c-1.8,-0.93333 -3.4,-2.16667 -4.8,-3.7c2.5,-2.7 4.8,-5.6 7.4,-8.3c1.06667,-1.06667 2.06667,-2.16667 3,-3.3c-0.9,3.2 -2,6.3 -3.4,9.5c-0.9,1.8 -1.5,3.8 -2.2,5.8z" fill="#d8f2fd" opacity="0.5"/><path d="M374.73507,237.4c-1.2,1.46667 -2.56667,2.73333 -4.1,3.8c-0.06667,-0.2 -0.16667,-0.36667 -0.3,-0.5c-1.9,-2.4 -3.2,-5.2 -5.2,-7.5c-1.3,-1.5 -2.8,-2.9 -4,-4.4c-0.4,-0.46667 -0.8,-0.96667 -1.2,-1.5c0.5,0.3 0.9,0.5 1.2,0.6c1.9,0.9 3.6,1.9 5.2,3.2c2.8,2.1 5.6,4.2 8.4,6.3z" fill="#d8f2fd" opacity="0.5"/><path d="M369.63507,216.1c-1.5,9.2 -7.4,16.6 -16.6,16.6h-66.5c-9.2,0 -14.8,-6.3 -16.6,-16.6c-2.6,-14.7 -5.4,-49.3 -2.9,-72.2c1.2,-10.5 8.6,-16.7 17.8,-16.7h69.9c9.2,0 16.4,7.1 17.8,16.7c3.6,24.4 -0.6,58.4 -2.9,72.2z" fill="#6dd2f2"/><g fill="#449199" opacity="0.15" style="mix-blend-mode: multiply"><path d="M369.63507,216.1c-1.5,9.2 -7.4,16.6 -16.6,16.6h-66.5c-9.2,0 -14.8,-6.3 -16.6,-16.6c-2.6,-14.7 -5.4,-49.3 -2.9,-72.2c0.8,-7.3 4.7,-12.5 10,-15c-0.26667,0.4 -0.53333,0.8 -0.8,1.2c-1.7,3.1 -5.7,7.2 -4.7,10.3c1.2,3.9 4.1,14.7 3.7,18.8c-2.2,27.5 28.3,20.9 42,21.3c14.6,0.5 35.7,4.3 45,-7.5c4.8,-6 6.8,-30 3.8,-37.5c-1,-2.3 -8.9,-6.7 -10.8,-8.2c9,0.2 15.9,7.2 17.3,16.6c3.6,24.4 -0.6,58.4 -2.9,72.2z" style="mix-blend-mode: normal"/></g><g fill="#449199" opacity="0.15" style="mix-blend-mode: multiply"><path d="M369.63507,216.1c-1.5,9.2 -7.4,16.6 -16.6,16.6h-66.5c-9.2,0 -14.8,-6.3 -16.6,-16.6c-2.6,-14.7 -5.4,-49.3 -2.9,-72.2c0.13333,-1.4 0.4,-2.73333 0.8,-4c0,0.26667 0,0.53333 0,0.8c0.1,6 1.3,12 2.6,17.9c3.5,17 -4.4,31.6 10.2,41.8c12.9,9 67.5,7.1 80.4,0c15.9,-8.6 3.1,-24.2 7.5,-41.1c1.8,-6.4 2.5,-13 0.9,-19.5c-0.6,-2.9 -1.9,-5.6 -3.3,-8.2c3.4,3 5.6,7.3 6.4,12.3c3.6,24.4 -0.6,58.4 -2.9,72.2z" style="mix-blend-mode: normal"/></g><path d="M267.03507,143.9c0.4,-4.7 1.7,-9.1 5.1,-12.6c3.9,-4 9,-5.2 14.4,-5.4c12.6,-0.3 25.2,-0.4 37.7,-0.4c10.3,0.1 20.7,-0.1 31,0.5c9.8,0.8 16.2,8.4 17.3,17.9c-2.2,-8.5 -8.5,-15.4 -17.7,-15.4c-9.8,0.1 -19.9,0.4 -29.8,0.5c-12.13333,0.06667 -24.23333,-0.06667 -36.3,-0.4c-5.5,-0.1 -10.8,-0.1 -15.3,3.6c-3.6,3 -5.4,7.2 -6.4,11.7z" fill="#d8f2fd"/><path d="M372.53507,143.9c3.5,22 2.2,44.6 -0.6,66.7c-1.2,9.1 -3.5,19.4 -13.4,22.9c-4.3,1.5 -9.1,0.9 -13.5,0.9c-6.4,0.06667 -12.76667,0.1 -19.1,0.1c-12.4,0 -24.8,-0.03333 -37.2,-0.1c-3.7,0 -7.4,-0.3 -10.8,-2.2c-4.9,-2.8 -7.8,-8.2 -9,-13.6c-1.3,-5.7 -1.8,-11.8 -2.2,-17.6c-0.5,-6.1 -1,-12.2 -1.1,-18.3c-0.4,-11.2 -0.4,-22.5 0.8,-33.7c0.2,-1.73333 0.4,-3.43333 0.6,-5.1c-1,22.1 -0.1,44.7 3.4,66.6c0.9,5.5 1.6,11.3 5.3,15.8c2.8,3.3 6.7,4.8 11,4.8c11,-0.1 22,-0.1 33,-0.1c6.4,0 12.8,0 19.2,0c5.4,0 11.3,0.7 16.7,-0.1c8.7,-1.3 11.8,-10.3 13.1,-17.9c3.7,-22.5 6,-45.9 3.8,-68.7c0,-0.13333 0,-0.26667 0,-0.4z" fill="#d8f2fd" opacity="0.5"/><path d="M288.23507,146.8c-2.5,1.8 -10.6,7.6 -13.5,3.6c-1.3,-1.8 -0.2,-5.6 0.5,-7.5c1.9,-5.4 16,-16.3 19.1,-6.1c1.2,4.1 -3.1,7.9 -6.1,10z" fill="#d8f2fd"/><path d="M305.53507,137.8c-1.4,2.6 -6.5,6.7 -6.8,1c-0.1,-3.4 4,-5.3 6.2,-4.8c1.2,0.4 1.9,1.5 0.6,3.8z" fill="#d8f2fd"/></g><g><path d="M306.33507,181.2l-6.2,-8.4c-0.2,-0.4 -0.3,-0.9 -0.2,-1.3c0.1,-0.4 0.4,-0.8 0.8,-1c0,-0.1 8.6,-4.7 12.7,-14.6c0.2,-0.6 0.8,-1 1.4,-1h11.9c0.7,0 1.4,0.6 1.5,1.3l4.8,39.1h1.8c0.9,0 1.6,0.7 1.6,1.5v9.9c0,0.8 -0.7,1.5 -1.6,1.5h-21.3c-0.7,0 -1.4,-0.6 -1.5,-1.4l-0.9,-9.8c-0.1,-0.5 0.1,-0.9 0.4,-1.2c0.3,-0.3 0.7,-0.5 1.1,-0.5h3.8l-1.6,-18.8c-1.7,1.9 -4.1,4.2 -6.7,5.3c-0.6,0.2 -1.4,0 -1.8,-0.6z" fill="#0c4399" fill-rule="nonzero"/><path d="M334.83507,196.8v9.9h-21.3l-0.9,-9.9h5.5l-2.1,-24.3c0,0 -4,6 -8.5,7.8l-6.1,-8.4c0,0 9.1,-4.8 13.4,-15.5h11.9l4.9,40.4z" fill="#1d80d5" fill-rule="nonzero"/><path d="M307.53507,180.3l-6.1,-8.4c0,0 9.1,-4.8 13.4,-15.5h11.9l3.2,26.8c-4.1,1.6 -8.3,3.1 -12.7,3.9l-1.2,-14.6c0,0 -4,6 -8.5,7.8z" fill="#27a8f1" fill-rule="nonzero"/><g fill="#ffffff" fill-rule="nonzero"><path d="M301.43507,171.9c0,0 9.1,-4.8 13.4,-15.5h11.9l4.9,40.4l-4.9,-38.5h-11.9c-3.5,8.5 -13.4,13.6 -13.4,13.6z"/></g><path d="M316.83507,204.8c0.7,0 1.5,0 2.2,0c0.7,-0.1 1.4,-0.1 1.8,-0.1c1.7,-0.1 4,-0.2 6.4,-0.3c0.6,0 1.2,-0.03333 1.8,-0.1c0.6,0 1.2,0 1.8,0c0.6,0 1.13333,0 1.6,0c0.26667,0 0.5,0 0.7,0c0,-0.2 0,-0.4 0,-0.5c0,-0.3 0.1,-0.6 0.1,-0.8c0,-0.5 0.1,-0.8 0.1,-1c0.1,-0.4 0.3,-0.4 0.5,-0.3c0.1,0 0.4,0 0.6,0.5c0.1,0.2 0.2,0.6 0.2,1c0.06667,0.26667 0.1,0.56667 0.1,0.9c0,0.13333 -0.03333,0.3 -0.1,0.5c0,0.33333 -0.03333,0.7 -0.1,1.1c0,0.06667 -0.03333,0.16667 -0.1,0.3c-0.06667,0 -0.16667,0 -0.3,0c-0.2,0 -0.4,0 -0.6,0c-0.33333,0 -0.66667,0 -1,0c-0.46667,0 -1,0 -1.6,0c-0.6,0 -1.2,-0.03333 -1.8,-0.1c-0.6,0.1 -1.3,0.1 -1.9,0.1c-2.6,0.1 -5.1,0.2 -6.3,0.3c-0.6,0 -1.4,0 -2.1,0c-0.8,0 -1.6,-0.1 -2.3,-0.2c-1.4,-0.2 -2.6,-0.4 -2.5,-0.7c0,-0.3 1.3,-0.5 2.8,-0.6zM333.13507,204.3c-0.06667,0 -0.06667,0 0,0l-0.1,0.1c0,0 0.03333,0 0.1,0zM333.13507,197.9c0.1,-0.1 0.4,-0.1 0.7,0.2c0.3,0.2 0.6,0.7 0.7,1.4c0.1,1.3 -0.7,1.2 -1,0.7c-0.4,-0.8 -0.6,-1.3 -0.6,-1.6c-0.1,-0.2 0,-0.3 0,-0.4c0.06667,-0.13333 0.13333,-0.23333 0.2,-0.3z" fill="#50bcf8" fill-rule="evenodd"/><path d="M384.03507,224.7c-2.4,14 -11.7,23.1 -23.7,23.1h-81.2c-12.5,0 -21.1,-8.4 -23.7,-23.1c-2.8,-16.6 -6.8,-59.7 -3.5,-89.2c1.5,-14 11.6,-23.3 25.1,-23.3h85.4c12.7,0 23.1,9.5 25.1,23.2c5.2,34.9 -2.6,83.8 -3.5,89.3z" fill="#28686f" fill-rule="nonzero"/><path d="M380.53507,224.1c-1.8,11.1 -9.1,20.2 -20.2,20.2h-81.2c-11.1,0 -18.1,-7.7 -20.2,-20.2c-3.1,-18 -6.6,-60.2 -3.5,-88.2c1.4,-12.8 10.4,-20.2 21.6,-20.2h85.4c11.2,0 19.9,8.5 21.6,20.2c4.5,29.8 -0.7,71.3 -3.5,88.2z" fill="#50a5b3" fill-rule="nonzero"/><path d="M254.33507,172.7c-0.3,-12.9 -0.1,-25.9 1.1,-36.8c1.4,-12.8 10.4,-20.2 21.6,-20.2h85.4c11.2,0 19.9,8.5 21.6,20.2c1.9,12.6 2.1,27.3 1.4,41.4c-12.3,-1.9 -24.5,-4.1 -36.9,-5.7c-16.6,-2.1 -33.5,-2.2 -50.3,-1.8c-8.6,0.2 -17.1,0.6 -25.7,1.1c-4.6,0.3 -9.1,0.7 -13.6,1.2c-1.4,0.1 -3,0.4 -4.6,0.6z" fill="url(#color-3)" fill-rule="nonzero" opacity="0.5" style="mix-blend-mode: screen"/><path d="M385.33507,179.4c-1,18.3 -3.2,35.3 -4.8,44.7c-1.8,11.1 -9.1,20.2 -20.2,20.2h-81.2c-11.1,0 -18.1,-7.7 -20.2,-20.2c-1.9,-10.7 -3.8,-29.8 -4.5,-49.5c3.8,-0.3 7.7,-0.8 11.5,-1.1c8.5,-0.8 17.1,-1.1 25.6,-1.4c18,-0.6 36.1,-0.8 53.9,1.2c13.4,1.5 26.6,4 39.9,6.1z" fill="url(#color-4)" fill-rule="nonzero" style="mix-blend-mode: multiply"/><path d="M365.53507,131.4c3.3,-3.7 6.8,-7.3 9.9,-11.2c0.4,0.4 0.8,0.8 1.2,1.2c-3.4,2.6 -6.3,6 -9.7,8.8c-0.46667,0.4 -0.93333,0.8 -1.4,1.2z" fill="#6dd2f2" fill-rule="nonzero"/><path d="M304.13507,123.9c0,-2.7 -0.6,-5.5 -0.4,-8.2h4.2c-0.1,0.6 -0.2,1.2 -0.3,1.6c-0.3,2.1 -0.5,4.3 -0.7,6.5c-0.2,2.26667 -0.33333,4.53333 -0.4,6.8c-0.66667,0 -1.36667,0.03333 -2.1,0.1c-0.6,-2.1 -0.3,-4.7 -0.3,-6.8z" fill="#6dd2f2" fill-rule="nonzero"/><path d="M313.43507,115.7h15.9c-1,4.8 -1.7,9.9 -2.1,14.9c-2.1,-0.2 -4.3,-0.4 -6.5,-0.5c-2.1,-0.1 -4.1,-0.1 -6.2,0c0,-4.9 -1.1,-9.6 -1.1,-14.4z" fill="#6dd2f2" fill-rule="nonzero"/><path d="M286.13507,119.3c-0.33333,-1.2 -0.66667,-2.4 -1,-3.6h12.9c0,1.2 -0.03333,2.4 -0.1,3.6c-0.1,3.7 0.6,7.5 0.6,11.2c-2.8,-0.3 -5.5,-0.6 -8.3,-0.2c-0.26667,0 -0.5,0.03333 -0.7,0.1c-1.4,-3.7 -2.4,-7.4 -3.4,-11.1z" fill="#6dd2f2" fill-rule="nonzero"/><path d="M282.83507,133.4c-2.8,-6.1 -7.7,-11.1 -10.6,-17.2c0.66667,-0.13333 1.36667,-0.26667 2.1,-0.4c1.5,2.1 2.7,4.5 3.9,6.7c1.1,2 2.1,4 3.2,6c0.7,1.5 1.7,2.8 2.5,4.3c-0.33333,0.2 -0.7,0.4 -1.1,0.6z" fill="#6dd2f2" fill-rule="nonzero"/><path d="M300.03507,122.9c0,-2.4 0,-4.8 0.1,-7.2h1.5c-0.1,2.8 0.4,5.6 0.4,8.3c-0.1,2.2 -0.2,4.6 0.3,6.7c-0.6,0 -1.2,-0.03333 -1.8,-0.1c0,-2.5 -0.4,-5.1 -0.5,-7.7z" fill="#6dd2f2" fill-rule="nonzero"/><path d="M335.73507,131c0.26667,-2.26667 0.56667,-4.53333 0.9,-6.8c0.4,-2.7 0.5,-5.9 1.4,-8.5h4.8c-2.5,4.4 -2.4,10.4 -3.9,15.3c-0.86667,0 -1.73333,0 -2.6,0c-0.2,0 -0.4,0 -0.6,0z" fill="#6dd2f2" fill-rule="nonzero"/><path d="M380.23507,136.8c1.3,-0.6 2.4,-1.3 3.7,-1.8c0,0.33333 0.03333,0.63333 0.1,0.9c0.26667,1.6 0.46667,3.23333 0.6,4.9c-1.3,0.4 -2.7,0.6 -4.1,1c-2.8,0.7 -5.6,1.8 -8.4,2.7c-2.3,0.8 -4.7,1.4 -7.1,2c-0.13333,-0.6 -0.3,-1.16667 -0.5,-1.7c2.8,-1.4 5.6,-2.8 8.4,-4.3c2.4,-1.26667 4.83333,-2.5 7.3,-3.7z" fill="#6dd2f2" fill-rule="nonzero"/><path d="M276.43507,130.9c-3.6,-4 -6.9,-8.3 -10.2,-12.5c1.26667,-0.66667 2.6,-1.23333 4,-1.7c2.9,6.4 8,11.5 10.8,17.9c0,0 -0.03333,0 -0.1,0c-0.26667,0.2 -0.56667,0.4 -0.9,0.6c-1.1,-1.5 -2.3,-2.9 -3.6,-4.3z" fill="#6dd2f2" fill-rule="nonzero"/><path d="M375.13507,156c3.5,-0.5 7,-0.4 10.5,-0.5c0.06667,1.06667 0.1,2.16667 0.1,3.3c-0.86667,-0.06667 -1.7,-0.1 -2.5,-0.1c-5.2,-0.1 -10.3,-0.3 -15.4,-0.6c-0.06667,0 -0.13333,0 -0.2,0c0,-0.06667 0,-0.16667 0,-0.3c-0.06667,-0.2 -0.1,-0.4 -0.1,-0.6c2.46667,-0.46667 5,-0.86667 7.6,-1.2z" fill="#6dd2f2" fill-rule="nonzero"/><path d="M362.33507,128.6c2.1,-4.1 4.7,-7.9 7.5,-11.6c1.33333,0.53333 2.63333,1.2 3.9,2c-4.7,5.7 -10,10.9 -14.8,16.5c-0.13333,-0.06667 -0.23333,-0.16667 -0.3,-0.3c1.4,-2.1 2.5,-4.3 3.7,-6.6z" fill="#6dd2f2" fill-rule="nonzero"/><path d="M342.53507,124.2c0.6,-2.7 1.2,-6.4 2.8,-8.5h1.8c-2.4,4.5 -3.4,10.2 -4.5,15.2c-0.53333,0 -1.03333,0 -1.5,0c0.6,-2.2 1,-4.5 1.4,-6.7z" fill="#6dd2f2" fill-rule="nonzero"/><path d="M355.73507,123.2c1,-2.5 1.9,-5.1 3.1,-7.5h3.6c0.33333,0 0.7,0 1.1,0c-1.7,2.8 -3.8,5.3 -5.3,8.1c-1.5,2.9 -2.8,5.9 -4.3,8.8c-0.6,-0.26667 -1.2,-0.46667 -1.8,-0.6c1.2,-2.9 2.3,-5.9 3.6,-8.8z" fill="#6dd2f2" fill-rule="nonzero"/><path d="M369.23507,204.6c4.6,1.1 9.1,2.4 13.5,3.9c-0.13333,1.26667 -0.3,2.5 -0.5,3.7c-2.66667,-1 -5.26667,-2.06667 -7.8,-3.2c-1.4,-0.6 -3.5,-1.9 -5.3,-2.3c0,-0.06667 0,-0.13333 0,-0.2c0.06667,-0.6 0.1,-1.23333 0.1,-1.9z" fill="#6dd2f2" fill-rule="nonzero"/><path d="M374.33507,211.2c2.53333,1.06667 5.1,2.1 7.7,3.1c-0.13333,0.93333 -0.26667,1.8 -0.4,2.6c-2.4,-0.9 -4.8,-1.9 -6.9,-3.4c-1.9,-1.4 -3.7,-3 -6.1,-3c0.06667,-0.6 0.16667,-1.16667 0.3,-1.7c1.8,0.3 4.1,1.9 5.4,2.4z" fill="#6dd2f2" fill-rule="nonzero"/><path d="M265.63507,220.8c-2.3,1.5 -4.3,3.3 -6.4,4.9c-0.13333,-0.53333 -0.23333,-1.06667 -0.3,-1.6c-0.06667,-0.4 -0.13333,-0.8 -0.2,-1.2c3.1,-1.7 6.2,-3.3 9.4,-5c1.8,-0.93333 3.6,-1.93333 5.4,-3c0.7,-0.4 1.5,-1.1 2.4,-1.5c0.06667,0.46667 0.13333,0.93333 0.2,1.4c-0.06667,0 -0.13333,0.03333 -0.2,0.1c-3.3,2.1 -6.9,3.8 -10.3,5.9z" fill="#6dd2f2" fill-rule="nonzero"/><path d="M370.03507,189.3c4.9,0.1 9.7,1 14.5,2c-0.06667,0.86667 -0.13333,1.7 -0.2,2.5c-2.2,-0.6 -4.4,-1.2 -6.6,-1.8c-2.3,-0.6 -5.1,-2.1 -7.7,-1.8c0,-0.26667 0,-0.56667 0,-0.9z" fill="#6dd2f2" fill-rule="nonzero"/><path d="M385.43507,177.3c-0.06667,0.8 -0.1,1.56667 -0.1,2.3c-2.1,-0.2 -4.2,-0.5 -6.2,-0.7c-3.1,-0.4 -6.3,-0.4 -9.5,-0.4c0,-0.2 0,-0.4 0,-0.6c5.3,-0.3 10.5,-0.7 15.8,-0.6z" fill="#6dd2f2" fill-rule="nonzero"/><path d="M254.23507,158.8c0,-1 0,-1.96667 0,-2.9c2.3,-0.2 4.7,0.1 7,0.3c3.2,0.2 6.4,0.6 9.5,1c0.06667,0.46667 0.1,0.93333 0.1,1.4c-5.5,0.4 -11.1,-0.3 -16.6,0.2z" fill="#6dd2f2" fill-rule="nonzero"/><path d="M254.23507,163.4c0,-0.8 0,-1.63333 0,-2.5c5.5,-0.6 11.1,0.2 16.7,-0.2c0,0.2 0,0.4 0,0.6c0,0.26667 0,0.53333 0,0.8c-2.1,0.2 -4.1,0.5 -6.2,0.6c-3.4,0.1 -7.1,1 -10.5,0.7z" fill="#6dd2f2" fill-rule="nonzero"/><path d="M268.83507,150.4c-4.8,-0.6 -9.6,-1 -14.4,-1.5c0.2,-3.5 0.4,-6.9 0.7,-10.1c2.7,1 5.6,1.8 8.3,2.7c2.7,1 5.3,1.9 7.9,3c-0.5,1.8 -0.6,3.8 -0.7,5.5c0,0.2 0,0.4 0,0.6c-0.8,-0.1 -1.4,-0.1 -1.8,-0.2z" fill="#6dd2f2" fill-rule="nonzero"/><path d="M263.13507,189.3c-2.4,0.6 -5.3,1.2 -7.8,2.1c-0.06667,-0.8 -0.13333,-1.6 -0.2,-2.4c5.2,-1.4 10.6,-2.4 16,-3.6c0.06667,0.6 0.13333,1.2 0.2,1.8c-2.8,0.6 -5.4,1.4 -8.2,2.1z" fill="#6dd2f2" fill-rule="nonzero"/><path d="M273.53507,202.1c-5.5,3.4 -10.9,7 -16.2,10.8c-0.2,-1.4 -0.36667,-2.86667 -0.5,-4.4c5.5,-2.9 10.8,-6.2 16.3,-9c0,0.26667 0.03333,0.5 0.1,0.7c0.06667,0.66667 0.16667,1.3 0.3,1.9z" fill="#6dd2f2" fill-rule="nonzero"/><path d="M269.33507,237c-0.7,1.1 -1.3,2.3 -1.9,3.5c-1.8,-1.46667 -3.36667,-3.26667 -4.7,-5.4c1.3,-1 2.5,-2 3.7,-3c4.8,-3.8 9.7,-7.5 14.4,-11.4c-2,3.1 -4,6.2 -6.2,9.1c-1.9,2.3 -3.7,4.7 -5.3,7.2z" fill="#449199" fill-rule="nonzero" opacity="0.7" style="mix-blend-mode: multiply"/><path d="M372.23507,240c-1.13333,0.93333 -2.36667,1.73333 -3.7,2.4c-0.13333,-0.2 -0.23333,-0.4 -0.3,-0.6c-1.2,-1.8 -2.4,-3.5 -3.6,-5.3c-1.06667,-1.53333 -2.1,-3.06667 -3.1,-4.6c0.9,1 1.8,1.9 2.8,2.8c1.7,1.5 3.8,2.6 5.7,3.9c0.6,0.5 1.4,0.9 2.2,1.4z" fill="#449199" fill-rule="nonzero" opacity="0.7" style="mix-blend-mode: multiply"/><path d="M258.03507,130.3c-0.9,0.9 -1.6,1.9 -2.2,3c1.6,-7.8 6.2,-13.3 12.4,-15.9c-0.26667,0.26667 -0.5,0.53333 -0.7,0.8c-1.2,1.6 -0.2,4.4 0.7,5.9c2.5,4.1 6.3,5.8 10.9,5.9c7.2,0.2 14.5,-0.3 21.7,0.4c7.3,0.7 14.6,1.5 22,2.1c7.4,0.5 15,0.8 22.5,0.2c7,-0.6 14,-2.9 21.1,-2.8c3.5,0 7.1,-0.7 7.9,-4.6c0.6,-3.2 -1.5,-7.1 -4.6,-8.3c7.5,2.8 13,10 14.3,18.9c0.06667,0.26667 0.1,0.56667 0.1,0.9c-1,-3.7 -3.1,-7.2 -6.4,-7.3c-2.5,-0.1 -4.8,2.2 -6.1,4c-1.3,1.7 -0.9,3.7 -1.2,5.6c-0.2,1.5 -0.9,2.7 -1.4,4c-1.6,4.1 -1.4,8.5 -2,12.7c-0.86667,6.26667 -1.6,12.53333 -2.2,18.8h-95.8c-0.06667,-1.86667 -0.13333,-3.73333 -0.2,-5.6c-0.2,-8.6 -0.8,-17.2 -0.3,-25.8c0.1,-3.3 0.1,-6.2 -1.6,-8.9c-1.8,-2.8 -5.5,-7.2 -8.9,-4z" fill="#d8f2fd" fill-rule="nonzero" opacity="0.4" style="mix-blend-mode: screen"/><path d="M265.83507,127.9c-1.8,-1.4 -3.8,-2.8 -5.8,-4.1c0.86667,-1.2 1.86667,-2.26667 3,-3.2c0.2,0.33333 0.4,0.63333 0.6,0.9c1.4,2 3.2,3.7 4.8,5.4c3.2,3.3 6.6,6.5 8.8,10.5c-3.1,-3.9 -7.3,-6.6 -11.4,-9.5z" fill="#d8f2fd" fill-rule="nonzero"/><path d="M372.03507,128.6c2,-2 4.1,-3.8 6.1,-5.8c0.53333,0.6 1.03333,1.23333 1.5,1.9c-0.6,0.4 -1.2,0.76667 -1.8,1.1c-2.3,1.6 -4.3,3.7 -6.6,5.4c-2.3,1.7 -5,3.3 -7.6,4.5c2.5,-2.6 5.9,-4.7 8.4,-7.1z" fill="#d8f2fd" fill-rule="nonzero"/><path d="M380.03507,226.6c-2.5,9.9 -9.4,17.7 -19.7,17.7h-81.2c-10.5,0 -17.2,-6.8 -19.8,-18c1.8,2.5 4,4 6.9,2.6c5.4,-2.5 5.2,-9.4 5.1,-14.4c-0.1,-5.4 -0.1,-10.7 -0.6,-16.1c-0.73333,-7.26667 -1.26667,-14.5 -1.6,-21.7h95.6c-0.2,1.86667 -0.36667,3.73333 -0.5,5.6c-0.3,6.4 -0.6,12.9 -0.4,19.3c0.1,6.5 0.2,12.9 2.1,19.2c0.3,1 1.8,0.9 2,-0.1c0.6,-2.7 0.9,-5.4 1.5,-8c0.2,2.1 0.1,4.2 0.1,6.3c0.1,2.2 -0.6,4.7 0.6,6.7c1.5,2.5 5,4.4 7.8,2.7c0.8,-0.53333 1.5,-1.13333 2.1,-1.8z" fill="#287c81" fill-rule="nonzero" opacity="0.4" style="mix-blend-mode: multiply"/><path d="M270.13507,242.3c-1.8,-0.93333 -3.4,-2.16667 -4.8,-3.7c2.5,-2.7 4.8,-5.6 7.4,-8.3c1.06667,-1.06667 2.06667,-2.16667 3,-3.3c-0.9,3.2 -2,6.3 -3.4,9.5c-0.9,1.8 -1.5,3.8 -2.2,5.8z" fill="#d8f2fd" fill-rule="nonzero" opacity="0.5"/><path d="M374.73507,237.4c-1.2,1.46667 -2.56667,2.73333 -4.1,3.8c-0.06667,-0.2 -0.16667,-0.36667 -0.3,-0.5c-1.9,-2.4 -3.2,-5.2 -5.2,-7.5c-1.3,-1.5 -2.8,-2.9 -4,-4.4c-0.4,-0.46667 -0.8,-0.96667 -1.2,-1.5c0.5,0.3 0.9,0.5 1.2,0.6c1.9,0.9 3.6,1.9 5.2,3.2c2.8,2.1 5.6,4.2 8.4,6.3z" fill="#d8f2fd" fill-rule="nonzero" opacity="0.5"/><path d="M369.63507,216.1c-1.5,9.2 -7.4,16.6 -16.6,16.6h-66.5c-9.2,0 -14.8,-6.3 -16.6,-16.6c-2.6,-14.7 -5.4,-49.3 -2.9,-72.2c1.2,-10.5 8.6,-16.7 17.8,-16.7h69.9c9.2,0 16.4,7.1 17.8,16.7c3.6,24.4 -0.6,58.4 -2.9,72.2z" fill="#6dd2f2" fill-rule="nonzero"/><path d="M369.63507,216.1c-1.5,9.2 -7.4,16.6 -16.6,16.6h-66.5c-9.2,0 -14.8,-6.3 -16.6,-16.6c-2.6,-14.7 -5.4,-49.3 -2.9,-72.2c0.8,-7.3 4.7,-12.5 10,-15c-0.26667,0.4 -0.53333,0.8 -0.8,1.2c-1.7,3.1 -5.7,7.2 -4.7,10.3c1.2,3.9 4.1,14.7 3.7,18.8c-2.2,27.5 28.3,20.9 42,21.3c14.6,0.5 35.7,4.3 45,-7.5c4.8,-6 6.8,-30 3.8,-37.5c-1,-2.3 -8.9,-6.7 -10.8,-8.2c9,0.2 15.9,7.2 17.3,16.6c3.6,24.4 -0.6,58.4 -2.9,72.2z" fill="#449199" fill-rule="nonzero"/><path d="M369.63507,216.1c-1.5,9.2 -7.4,16.6 -16.6,16.6h-66.5c-9.2,0 -14.8,-6.3 -16.6,-16.6c-2.6,-14.7 -5.4,-49.3 -2.9,-72.2c0.13333,-1.4 0.4,-2.73333 0.8,-4c0,0.26667 0,0.53333 0,0.8c0.1,6 1.3,12 2.6,17.9c3.5,17 -4.4,31.6 10.2,41.8c12.9,9 67.5,7.1 80.4,0c15.9,-8.6 3.1,-24.2 7.5,-41.1c1.8,-6.4 2.5,-13 0.9,-19.5c-0.6,-2.9 -1.9,-5.6 -3.3,-8.2c3.4,3 5.6,7.3 6.4,12.3c3.6,24.4 -0.6,58.4 -2.9,72.2z" fill="#449199" fill-rule="nonzero"/><path d="M267.03507,143.9c0.4,-4.7 1.7,-9.1 5.1,-12.6c3.9,-4 9,-5.2 14.4,-5.4c12.6,-0.3 25.2,-0.4 37.7,-0.4c10.3,0.1 20.7,-0.1 31,0.5c9.8,0.8 16.2,8.4 17.3,17.9c-2.2,-8.5 -8.5,-15.4 -17.7,-15.4c-9.8,0.1 -19.9,0.4 -29.8,0.5c-12.13333,0.06667 -24.23333,-0.06667 -36.3,-0.4c-5.5,-0.1 -10.8,-0.1 -15.3,3.6c-3.6,3 -5.4,7.2 -6.4,11.7z" fill="#d8f2fd" fill-rule="nonzero"/><path d="M372.53507,143.9c3.5,22 2.2,44.6 -0.6,66.7c-1.2,9.1 -3.5,19.4 -13.4,22.9c-4.3,1.5 -9.1,0.9 -13.5,0.9c-6.4,0.06667 -12.76667,0.1 -19.1,0.1c-12.4,0 -24.8,-0.03333 -37.2,-0.1c-3.7,0 -7.4,-0.3 -10.8,-2.2c-4.9,-2.8 -7.8,-8.2 -9,-13.6c-1.3,-5.7 -1.8,-11.8 -2.2,-17.6c-0.5,-6.1 -1,-12.2 -1.1,-18.3c-0.4,-11.2 -0.4,-22.5 0.8,-33.7c0.2,-1.73333 0.4,-3.43333 0.6,-5.1c-1,22.1 -0.1,44.7 3.4,66.6c0.9,5.5 1.6,11.3 5.3,15.8c2.8,3.3 6.7,4.8 11,4.8c11,-0.1 22,-0.1 33,-0.1c6.4,0 12.8,0 19.2,0c5.4,0 11.3,0.7 16.7,-0.1c8.7,-1.3 11.8,-10.3 13.1,-17.9c3.7,-22.5 6,-45.9 3.8,-68.7c0,-0.13333 0,-0.26667 0,-0.4z" fill="#d8f2fd" fill-rule="nonzero" opacity="0.5"/><path d="M288.23507,146.8c-2.5,1.8 -10.6,7.6 -13.5,3.6c-1.3,-1.8 -0.2,-5.6 0.5,-7.5c1.9,-5.4 16,-16.3 19.1,-6.1c1.2,4.1 -3.1,7.9 -6.1,10z" fill="#d8f2fd" fill-rule="nonzero"/><path d="M305.53507,137.8c-1.4,2.6 -6.5,6.7 -6.8,1c-0.1,-3.4 4,-5.3 6.2,-4.8c1.2,0.4 1.9,1.5 0.6,3.8z" fill="#d8f2fd" fill-rule="nonzero"/><path d="M306.33507,181.2l-6.2,-8.4c-0.2,-0.4 -0.3,-0.9 -0.2,-1.3c0.1,-0.4 0.4,-0.8 0.8,-1c0,-0.1 8.6,-4.7 12.7,-14.6c0.2,-0.6 0.8,-1 1.4,-1h11.9c0.7,0 1.4,0.6 1.5,1.3l4.8,39.1h1.8c0.9,0 1.6,0.7 1.6,1.5v9.9c0,0.8 -0.7,1.5 -1.6,1.5h-21.3c-0.7,0 -1.4,-0.6 -1.5,-1.4l-0.9,-9.8c-0.1,-0.5 0.1,-0.9 0.4,-1.2c0.3,-0.3 0.7,-0.5 1.1,-0.5h3.8l-1.6,-18.8c-1.7,1.9 -4.1,4.2 -6.7,5.3c-0.6,0.2 -1.4,0 -1.8,-0.6z" fill="#0c4399" fill-rule="nonzero"/><path d="M334.83507,196.8v9.9h-21.3l-0.9,-9.9h5.5l-2.1,-24.3c0,0 -4,6 -8.5,7.8l-6.1,-8.4c0,0 9.1,-4.8 13.4,-15.5h11.9l4.9,40.4z" fill="#1d80d5" fill-rule="nonzero"/><path d="M307.53507,180.3l-6.1,-8.4c0,0 9.1,-4.8 13.4,-15.5h11.9l3.2,26.8c-4.1,1.6 -8.3,3.1 -12.7,3.9l-1.2,-14.6c0,0 -4,6 -8.5,7.8z" fill="#27a8f1" fill-rule="nonzero"/><path d="M301.43507,171.9c0,0 9.1,-4.8 13.4,-15.5h11.9l4.9,40.4l-4.9,-38.5h-11.9c-3.5,8.5 -13.4,13.6 -13.4,13.6z" fill="#ffffff" fill-rule="nonzero"/><path d="M316.83507,204.8c0.7,0 1.5,0 2.2,0c0.7,-0.1 1.4,-0.1 1.8,-0.1c1.7,-0.1 4,-0.2 6.4,-0.3c0.6,0 1.2,-0.03333 1.8,-0.1c0.6,0 1.2,0 1.8,0c0.6,0 1.13333,0 1.6,0c0.26667,0 0.5,0 0.7,0c0,-0.2 0,-0.4 0,-0.5c0,-0.3 0.1,-0.6 0.1,-0.8c0,-0.5 0.1,-0.8 0.1,-1c0.1,-0.4 0.3,-0.4 0.5,-0.3c0.1,0 0.4,0 0.6,0.5c0.1,0.2 0.2,0.6 0.2,1c0.06667,0.26667 0.1,0.56667 0.1,0.9c0,0.13333 -0.03333,0.3 -0.1,0.5c0,0.33333 -0.03333,0.7 -0.1,1.1c0,0.06667 -0.03333,0.16667 -0.1,0.3c-0.06667,0 -0.16667,0 -0.3,0c-0.2,0 -0.4,0 -0.6,0c-0.33333,0 -0.66667,0 -1,0c-0.46667,0 -1,0 -1.6,0c-0.6,0 -1.2,-0.03333 -1.8,-0.1c-0.6,0.1 -1.3,0.1 -1.9,0.1c-2.6,0.1 -5.1,0.2 -6.3,0.3c-0.6,0 -1.4,0 -2.1,0c-0.8,0 -1.6,-0.1 -2.3,-0.2c-1.4,-0.2 -2.6,-0.4 -2.5,-0.7c0,-0.3 1.3,-0.5 2.8,-0.6zM333.13507,204.3c-0.06667,0 -0.06667,0 0,0l-0.1,0.1c0,0 0.03333,0 0.1,0zM333.13507,197.9c0.1,-0.1 0.4,-0.1 0.7,0.2c0.3,0.2 0.6,0.7 0.7,1.4c0.1,1.3 -0.7,1.2 -1,0.7c-0.4,-0.8 -0.6,-1.3 -0.6,-1.6c-0.1,-0.2 0,-0.3 0,-0.4c0.06667,-0.13333 0.13333,-0.23333 0.2,-0.3z" fill="#50bcf8" fill-rule="evenodd"/></g></g></g></svg>