<svg version="1.1" xmlns="http://www.w3.org/2000/svg" xmlns:xlink="http://www.w3.org/1999/xlink" width="138.6184" height="135.7" viewBox="0,0,138.6184,135.7"><defs><linearGradient x1="305.55457" y1="168.94001" x2="305.55457" y2="116.29499" gradientUnits="userSpaceOnUse" id="color-1"><stop offset="0" stop-color="#000000"/><stop offset="1" stop-color="#6dd2f2"/></linearGradient><linearGradient x1="340.02758" y1="178.373" x2="340.02758" y2="275.42502" gradientUnits="userSpaceOnUse" id="color-2"><stop offset="0" stop-color="#ffffff"/><stop offset="1" stop-color="#28686f"/></linearGradient></defs><g transform="translate(-250.6908,-112.15)"><g stroke="none" stroke-miterlimit="10"><g fill-rule="nonzero"><path d="M383.95058,224.65c-2.3,14.1 -11.6,23.2 -23.7,23.2h-81.1c-12.5,0 -21.2,-8.5 -23.7,-23.2c-2.9,-16.5 -6.8,-59.7 -3.5,-89.2c1.5,-13.9 11.6,-23.3 25.1,-23.3h85.3c12.8,0 23.1,9.5 25.2,23.2c5.2,34.9 -2.7,83.8 -3.6,89.3z" fill="#28686f"/><path d="M380.55058,224.05c-1.9,11.1 -9.1,20.2 -20.3,20.2h-81.1c-11.2,0 -18.1,-7.7 -20.2,-20.2c-3.1,-18 -6.7,-60.2 -3.6,-88.2c1.5,-12.8 10.5,-20.2 21.7,-20.2h85.3c11.2,0 20,8.6 21.7,20.2c4.4,29.9 -0.7,71.4 -3.5,88.2z" fill="#50a5b3"/><path d="M254.35058,172.65c-0.4,-12.9 -0.2,-25.9 1,-36.8c1.5,-12.8 10.5,-20.2 21.7,-20.2h85.3c11.2,0 20,8.6 21.7,20.2c1.9,12.7 2,27.4 1.4,41.4c-12.3,-1.9 -24.5,-4.1 -36.9,-5.7c-16.7,-2.1 -33.6,-2.2 -50.3,-1.8c-8.6,0.2 -17.2,0.6 -25.7,1.1c-4.6,0.3 -9.1,0.7 -13.7,1.2c-1.4,0.1 -2.9,0.4 -4.5,0.6z" fill="url(#color-1)" opacity="0.5" style="mix-blend-mode: screen"/><path d="M385.35058,179.34999c-1,18.4 -3.3,35.3 -4.8,44.7c-1.9,11.1 -9.1,20.2 -20.3,20.2h-81.1c-11.2,0 -18.1,-7.7 -20.2,-20.2c-1.9,-10.7 -3.9,-29.8 -4.5,-49.4c3.8,-0.4 7.6,-0.8 11.5,-1.2c8.5,-0.8 17.1,-1.1 25.6,-1.4c17.9,-0.6 36.1,-0.8 53.9,1.3c13.4,1.5 26.6,3.9 39.9,6z" fill="url(#color-2)" style="mix-blend-mode: multiply"/><g fill="#6dd2f2" opacity="0.7" style="mix-blend-mode: screen"><g opacity="0.5" style="mix-blend-mode: normal"><path d="M365.45058,131.35c3.4,-3.6 6.8,-7.3 9.9,-11.1c0.46667,0.33333 0.9,0.7 1.3,1.1c-3.5,2.6 -6.3,6.1 -9.7,8.8c-0.53333,0.4 -1.03333,0.8 -1.5,1.2z"/></g><g opacity="0.5" style="mix-blend-mode: normal"><path d="M304.05058,123.85c0.1,-2.7 -0.5,-5.5 -0.3,-8.2h4.2c-0.1,0.6 -0.3,1.2 -0.3,1.6c-0.4,2.2 -0.6,4.4 -0.8,6.5c-0.2,2.26667 -0.3,4.53333 -0.3,6.8c-0.73333,0.06667 -1.43333,0.1 -2.1,0.1c-0.6,-2.1 -0.4,-4.7 -0.4,-6.8z"/></g><g opacity="0.5" style="mix-blend-mode: normal"><path d="M313.35058,115.65002h15.9c-0.9,4.9 -1.6,9.9 -2,14.9c-2.2,-0.2 -4.4,-0.4 -6.5,-0.5c-2.1,-0.1 -4.2,-0.1 -6.2,0c-0.1,-4.8 -1.1,-9.6 -1.2,-14.4z"/></g><g opacity="0.5" style="mix-blend-mode: normal"><path d="M286.05058,119.24999c-0.33333,-1.2 -0.66667,-2.4 -1,-3.6h13c-0.06667,1.2 -0.1,2.43333 -0.1,3.7c-0.1,3.6 0.6,7.4 0.5,11.1c-2.7,-0.3 -5.5,-0.6 -8.2,-0.2c-0.26667,0 -0.53333,0.03333 -0.8,0.1c-1.3,-3.6 -2.4,-7.3 -3.4,-11.1z"/></g><g opacity="0.5" style="mix-blend-mode: normal"><path d="M282.85058,133.45c-2.8,-6.2 -7.8,-11.2 -10.6,-17.3c0.66667,-0.13333 1.36667,-0.26667 2.1,-0.4c1.5,2.1 2.7,4.5 3.9,6.7c1,2 2.1,4 3.1,6c0.8,1.5 1.8,2.9 2.6,4.3c-0.4,0.2 -0.76667,0.43333 -1.1,0.7z"/></g><g opacity="0.5" style="mix-blend-mode: normal"><path d="M300.05058,122.85c-0.1,-2.4 0,-4.8 0.1,-7.2h1.5c-0.2,2.8 0.4,5.6 0.3,8.4c0,2.1 -0.1,4.5 0.3,6.6c-0.53333,0 -1.1,0 -1.7,0c0,-2.6 -0.5,-5.2 -0.5,-7.8z"/></g><g opacity="0.5" style="mix-blend-mode: normal"><path d="M335.65057,130.95c0.33333,-2.26667 0.66667,-4.53333 1,-6.8c0.4,-2.7 0.5,-5.8 1.4,-8.5h4.8c-2.5,4.4 -2.4,10.4 -3.9,15.3c-0.93333,0 -1.8,0 -2.6,0c-0.2,0 -0.43333,0 -0.7,0z"/></g><g opacity="0.5" style="mix-blend-mode: normal"><path d="M380.25058,136.75001c1.2,-0.5 2.4,-1.2 3.6,-1.7c0.06667,0.26667 0.13333,0.53333 0.2,0.8c0.2,1.6 0.4,3.23333 0.6,4.9c-1.3,0.4 -2.7,0.6 -4.1,1c-2.9,0.7 -5.7,1.8 -8.4,2.7c-2.3,0.8 -4.7,1.4 -7.1,2.1c-0.2,-0.6 -0.4,-1.2 -0.6,-1.8c2.9,-1.3 5.7,-2.8 8.5,-4.3c2.4,-1.26667 4.83333,-2.5 7.3,-3.7z"/></g><g opacity="0.5" style="mix-blend-mode: normal"><path d="M276.45058,130.85c-3.6,-4 -6.9,-8.3 -10.2,-12.5c1.2,-0.66667 2.5,-1.23333 3.9,-1.7c2.9,6.4 8.1,11.5 10.9,17.9c-0.06667,0 -0.1,0.03333 -0.1,0.1c-0.33333,0.13333 -0.63333,0.3 -0.9,0.5c-1.1,-1.5 -2.4,-2.9 -3.6,-4.3z"/></g><g opacity="0.5" style="mix-blend-mode: normal"><path d="M375.05058,155.95c3.5,-0.4 7.1,-0.4 10.6,-0.5c0,1.06667 0.03333,2.16667 0.1,3.3c-0.86667,-0.06667 -1.73333,-0.1 -2.6,-0.1c-5.1,0 -10.2,-0.3 -15.4,-0.6c-0.06667,0 -0.1,0.03333 -0.1,0.1c0,-0.13333 -0.03333,-0.26667 -0.1,-0.4c0,-0.2 -0.03333,-0.4 -0.1,-0.6c2.53333,-0.46667 5.06667,-0.86667 7.6,-1.2z"/></g><g opacity="0.5" style="mix-blend-mode: normal"><path d="M362.35058,128.55001c2.1,-4 4.7,-7.9 7.4,-11.5c1.4,0.46667 2.7,1.1 3.9,1.9c-4.6,5.8 -9.9,11 -14.7,16.6c-0.13333,-0.13333 -0.26667,-0.23333 -0.4,-0.3c1.4,-2.2 2.6,-4.4 3.8,-6.7z"/></g><g opacity="0.5" style="mix-blend-mode: normal"><path d="M342.55058,124.15002c0.5,-2.6 1.1,-6.3 2.8,-8.5h1.8c-2.4,4.5 -3.4,10.2 -4.6,15.3c-0.46667,-0.06667 -0.93333,-0.1 -1.4,-0.1c0.6,-2.2 1,-4.4 1.4,-6.7z"/></g><g opacity="0.5" style="mix-blend-mode: normal"><path d="M355.65058,123.15002c1.1,-2.4 2,-5 3.2,-7.5h3.5c0.4,0 0.8,0 1.2,0c-1.7,2.8 -3.8,5.3 -5.3,8.2c-1.6,2.8 -2.8,5.8 -4.3,8.7c-0.6,-0.2 -1.2,-0.4 -1.8,-0.6c1.1,-2.9 2.3,-5.9 3.5,-8.8z"/></g><g opacity="0.5" style="mix-blend-mode: normal"><path d="M369.25058,204.55c4.6,1.1 9.1,2.5 13.5,3.9c-0.2,1.33333 -0.36667,2.6 -0.5,3.8c-2.66667,-1.06667 -5.3,-2.16667 -7.9,-3.3c-1.4,-0.6 -3.4,-1.9 -5.3,-2.3c0.06667,-0.06667 0.1,-0.13333 0.1,-0.2c0,-0.6 0.03333,-1.23333 0.1,-1.9z"/></g><g opacity="0.5" style="mix-blend-mode: normal"><path d="M374.35058,211.25002c2.53333,1 5.06667,2.03333 7.6,3.1c-0.06667,0.86667 -0.16667,1.7 -0.3,2.5c-2.5,-0.8 -4.8,-1.8 -6.9,-3.4c-1.9,-1.4 -3.7,-2.9 -6.1,-3c0.06667,-0.53333 0.13333,-1.1 0.2,-1.7c1.8,0.4 4.2,2 5.5,2.5z"/></g><g opacity="0.5" style="mix-blend-mode: normal"><path d="M265.55058,220.85003c-2.2,1.4 -4.2,3.2 -6.3,4.8c-0.13333,-0.53333 -0.23333,-1.06667 -0.3,-1.6c-0.06667,-0.33333 -0.13333,-0.7 -0.2,-1.1c3.1,-1.8 6.2,-3.4 9.3,-5c1.9,-1 3.7,-2 5.4,-3.1c0.8,-0.4 1.6,-1.1 2.5,-1.4c0.06667,0.4 0.13333,0.83333 0.2,1.3c-0.06667,0.06667 -0.13333,0.1 -0.2,0.1c-3.4,2.2 -7,3.9 -10.4,6z"/></g><g opacity="0.5" style="mix-blend-mode: normal"><path d="M370.05058,189.34999c4.9,0 9.7,0.9 14.5,1.9c-0.06667,0.86667 -0.16667,1.73333 -0.3,2.6c-2.1,-0.7 -4.3,-1.3 -6.5,-1.9c-2.3,-0.6 -5.1,-2.1 -7.7,-1.8c0,-0.26667 0,-0.53333 0,-0.8z"/></g><g opacity="0.5" style="mix-blend-mode: normal"><path d="M385.45058,177.34999c-0.06667,0.73333 -0.1,1.5 -0.1,2.3c-2.1,-0.3 -4.2,-0.6 -6.3,-0.8c-3.1,-0.3 -6.3,-0.3 -9.4,-0.4c0,-0.2 0,-0.4 0,-0.6c5.3,-0.3 10.5,-0.7 15.8,-0.5z"/></g><g opacity="0.5" style="mix-blend-mode: normal"><path d="M254.25058,158.75001c0,-0.93333 0,-1.9 0,-2.9c2.3,-0.2 4.6,0.1 7,0.3c3.2,0.2 6.3,0.6 9.5,1c0,0.46667 0.03333,0.93333 0.1,1.4c-5.6,0.4 -11.1,-0.2 -16.6,0.2z"/></g><g opacity="0.5" style="mix-blend-mode: normal"><path d="M254.15058,163.45c0,-0.86667 0,-1.73333 0,-2.6c5.6,-0.5 11.2,0.2 16.7,-0.2c0.06667,0.2 0.1,0.4 0.1,0.6c0,0.26667 0,0.53333 0,0.8c-2.1,0.3 -4.2,0.5 -6.2,0.6c-3.4,0.1 -7.1,1 -10.6,0.8z"/></g><g opacity="0.5" style="mix-blend-mode: normal"><path d="M268.85058,150.35c-4.8,-0.6 -9.6,-1 -14.4,-1.5c0.1,-3.5 0.4,-6.9 0.7,-10.1c2.7,1.1 5.6,1.8 8.2,2.8c2.7,0.9 5.4,1.9 8,2.9c-0.5,1.9 -0.7,3.9 -0.7,5.5c0,0.2 0,0.4 0,0.6c-0.8,-0.1 -1.4,-0.1 -1.8,-0.2z"/></g><g opacity="0.5" style="mix-blend-mode: normal"><path d="M263.15057,189.25002c-2.5,0.6 -5.3,1.2 -7.9,2.1c0,-0.73333 -0.03333,-1.5 -0.1,-2.3c5.2,-1.5 10.6,-2.5 15.9,-3.6c0.06667,0.6 0.13333,1.16667 0.2,1.7c-2.7,0.6 -5.4,1.4 -8.1,2.1z"/></g><g opacity="0.5" style="mix-blend-mode: normal"><path d="M273.55058,202.15c-5.5,3.4 -11,6.9 -16.2,10.7c-0.2,-1.4 -0.36667,-2.86667 -0.5,-4.4c5.4,-2.9 10.7,-6.1 16.2,-8.9c0.06667,0.2 0.13333,0.4 0.2,0.6c0.06667,0.66667 0.16667,1.33333 0.3,2z"/></g></g><path d="M269.25058,236.95002c-0.7,1.2 -1.2,2.4 -1.8,3.6c-1.86667,-1.46667 -3.43333,-3.3 -4.7,-5.5c1.2,-1 2.5,-2 3.7,-2.9c4.8,-3.9 9.7,-7.5 14.4,-11.4c-2,3 -4,6.1 -6.3,9c-1.8,2.4 -3.6,4.7 -5.3,7.2z" fill="#449199" opacity="0.7" style="mix-blend-mode: multiply"/><path d="M372.25058,239.95002c-1.13333,0.93333 -2.36667,1.73333 -3.7,2.4c-0.13333,-0.2 -0.26667,-0.36667 -0.4,-0.5c-1.1,-1.8 -2.3,-3.6 -3.5,-5.3c-1.06667,-1.53333 -2.13333,-3.1 -3.2,-4.7c0.9,1 1.9,2 2.9,2.8c1.7,1.5 3.8,2.6 5.6,3.9c0.7,0.6 1.5,0.9 2.3,1.4z" fill="#449199" opacity="0.7" style="mix-blend-mode: multiply"/><path d="M258.05058,130.25001c-0.9,0.9 -1.6,1.9 -2.2,3c1.6,-7.8 6.2,-13.2 12.3,-15.9c-0.2,0.26667 -0.4,0.53333 -0.6,0.8c-1.2,1.6 -0.2,4.5 0.7,5.9c2.5,4.2 6.2,5.8 10.9,5.9c7.2,0.2 14.5,-0.2 21.6,0.4c7.4,0.7 14.7,1.6 22,2.1c7.5,0.6 15.1,0.8 22.6,0.2c7,-0.6 14,-2.8 21.1,-2.8c3.4,0 7.1,-0.7 7.9,-4.6c0.6,-3.1 -1.5,-7.1 -4.6,-8.3c7.5,2.9 13,10 14.3,18.9c0,0.33333 0.03333,0.63333 0.1,0.9c-1,-3.7 -3.2,-7.1 -6.4,-7.3c-2.5,0 -4.8,2.2 -6.2,4.1c-1.2,1.7 -0.9,3.6 -1.2,5.6c-0.2,1.4 -0.9,2.6 -1.4,4c-1.5,4 -1.3,8.4 -1.9,12.7c-0.93333,6.2 -1.66667,12.43333 -2.2,18.7h-95.8c-0.06667,-1.86667 -0.13333,-3.7 -0.2,-5.5c-0.3,-8.6 -0.9,-17.3 -0.4,-25.9c0.2,-3.2 0.2,-6.1 -1.6,-8.9c-1.8,-2.8 -5.4,-7.2 -8.8,-4z" fill="#d8f2fd" opacity="0.4" style="mix-blend-mode: screen"/><path d="M265.85058,127.85c-1.9,-1.3 -3.9,-2.8 -5.9,-4.1c0.93333,-1.13333 1.93333,-2.16667 3,-3.1c0.2,0.26667 0.4,0.56667 0.6,0.9c1.4,1.9 3.2,3.6 4.9,5.3c3.1,3.4 6.5,6.5 8.8,10.5c-3.2,-3.8 -7.4,-6.6 -11.4,-9.5z" fill="#d8f2fd"/><path d="M372.05058,128.55001c2,-2 4.1,-3.8 6,-5.8c0.53333,0.6 1.06667,1.26667 1.6,2c-0.66667,0.33333 -1.26667,0.7 -1.8,1.1c-2.4,1.5 -4.4,3.6 -6.6,5.3c-2.3,1.7 -5,3.3 -7.6,4.6c2.5,-2.6 5.8,-4.7 8.4,-7.2z" fill="#d8f2fd"/><path d="M380.05058,226.55001c-2.5,10 -9.4,17.7 -19.8,17.7h-81.1c-10.5,0 -17.2,-6.8 -19.8,-18c1.7,2.6 4,4 6.9,2.6c5.4,-2.5 5.1,-9.4 5,-14.4c-0.1,-5.4 0,-10.7 -0.6,-16.1c-0.73333,-7.2 -1.23333,-14.43333 -1.5,-21.7h95.5c-0.13333,1.86667 -0.26667,3.73333 -0.4,5.6c-0.4,6.4 -0.6,12.9 -0.5,19.3c0.2,6.5 0.3,13 2.2,19.2c0.3,1.1 1.8,0.9 2,-0.1c0.5,-2.6 0.9,-5.3 1.5,-8c0.2,2.1 0.1,4.3 0.1,6.3c0,2.2 -0.6,4.7 0.6,6.7c1.5,2.6 4.9,4.4 7.7,2.7c0.8,-0.53333 1.53333,-1.13333 2.2,-1.8z" fill="#287c81" opacity="0.4" style="mix-blend-mode: multiply"/><path d="M270.15057,242.25002c-1.8,-0.93333 -3.4,-2.16667 -4.8,-3.7c2.5,-2.7 4.8,-5.6 7.4,-8.3c1,-1 2,-2.06667 3,-3.2c-0.9,3.1 -2,6.2 -3.5,9.4c-0.8,1.8 -1.5,3.8 -2.1,5.8z" fill="#d8f2fd" opacity="0.5"/><path d="M374.75058,237.35003c-1.2,1.46667 -2.56667,2.73333 -4.1,3.8c-0.13333,-0.2 -0.26667,-0.36667 -0.4,-0.5c-1.9,-2.4 -3.1,-5.2 -5.2,-7.5c-1.3,-1.5 -2.7,-2.8 -4,-4.4c-0.4,-0.46667 -0.76667,-0.93333 -1.1,-1.4c0.4,0.2 0.9,0.4 1.2,0.6c1.9,0.8 3.5,1.9 5.2,3.1c2.7,2.2 5.6,4.3 8.4,6.3z" fill="#d8f2fd" opacity="0.5"/><path d="M369.65058,216.15c-1.5,9.1 -7.5,16.6 -16.6,16.6h-66.5c-9.2,0 -14.9,-6.4 -16.6,-16.6c-2.6,-14.8 -5.5,-49.4 -2.9,-72.3c1.1,-10.5 8.6,-16.6 17.7,-16.6h70c9.2,0 16.3,7 17.8,16.6c3.6,24.4 -0.6,58.4 -2.9,72.3z" fill="#6dd2f2"/><g fill="#449199" opacity="0.15" style="mix-blend-mode: multiply"><path d="M369.65058,216.15c-1.5,9.1 -7.5,16.6 -16.6,16.6h-66.5c-9.2,0 -14.9,-6.4 -16.6,-16.6c-2.6,-14.8 -5.5,-49.4 -2.9,-72.3c0.8,-7.3 4.6,-12.5 10,-15c-0.33333,0.4 -0.6,0.8 -0.8,1.2c-1.7,3.1 -5.7,7.2 -4.7,10.4c1.1,3.9 4,14.6 3.7,18.7c-2.3,27.6 28.3,20.9 42,21.3c14.6,0.5 35.7,4.3 45,-7.5c4.7,-6 6.8,-29.9 3.7,-37.5c-0.9,-2.3 -8.8,-6.7 -10.7,-8.2c8.9,0.2 15.9,7.2 17.3,16.6c3.6,24.4 -0.6,58.4 -2.9,72.3z" style="mix-blend-mode: normal"/></g><g fill="#449199" opacity="0.15" style="mix-blend-mode: multiply"><path d="M369.65058,216.15c-1.5,9.1 -7.5,16.6 -16.6,16.6h-66.5c-9.2,0 -14.9,-6.4 -16.6,-16.6c-2.6,-14.8 -5.5,-49.4 -2.9,-72.3c0.13333,-1.4 0.4,-2.7 0.8,-3.9c0,0.26667 0,0.53333 0,0.8c0.1,6 1.3,12 2.5,17.8c3.5,17 -4.3,31.7 10.3,41.9c12.9,8.9 67.5,7 80.4,0c15.8,-8.7 3.1,-24.3 7.5,-41.1c1.7,-6.5 2.5,-13 0.9,-19.6c-0.7,-2.9 -1.9,-5.6 -3.3,-8.2c3.3,3 5.6,7.3 6.4,12.3c3.6,24.4 -0.6,58.4 -2.9,72.3z" style="mix-blend-mode: normal"/></g><path d="M267.05058,143.85c0.4,-4.7 1.7,-9.1 5,-12.5c3.9,-4.1 9.1,-5.2 14.5,-5.4c12.6,-0.4 25.1,-0.5 37.7,-0.5c10.3,0.1 20.7,0 31,0.6c9.7,0.7 16.1,8.3 17.3,17.8c-2.3,-8.5 -8.5,-15.4 -17.8,-15.4c-9.7,0.1 -19.9,0.5 -29.7,0.5c-12.13333,0.06667 -24.23333,-0.06667 -36.3,-0.4c-5.6,-0.1 -10.9,-0.1 -15.4,3.7c-3.5,2.9 -5.3,7.1 -6.3,11.6z" fill="#d8f2fd"/><path d="M372.55058,143.85c3.5,22 2.2,44.6 -0.7,66.7c-1.2,9.2 -3.4,19.4 -13.4,22.9c-4.2,1.5 -9,0.9 -13.4,1c-6.4,0 -12.8,0 -19.2,0c-12.33333,0.06667 -24.7,0.03333 -37.1,-0.1c-3.8,0 -7.4,-0.2 -10.8,-2.1c-5,-2.9 -7.8,-8.2 -9,-13.7c-1.3,-5.7 -1.8,-11.8 -2.3,-17.6c-0.5,-6.1 -0.9,-12.2 -1.1,-18.3c-0.3,-11.2 -0.3,-22.5 0.9,-33.7c0.2,-1.66667 0.4,-3.36667 0.6,-5.1c-1,22.1 -0.1,44.7 3.4,66.7c0.9,5.5 1.6,11.3 5.3,15.7c2.7,3.3 6.7,4.8 10.9,4.8c11,-0.1 22.1,-0.1 33.1,-0.1c6.4,0 12.8,0.03333 19.2,0.1c5.4,0 11.2,0.6 16.6,-0.2c8.8,-1.3 11.9,-10.3 13.1,-17.8c3.8,-22.6 6,-46 3.9,-68.8c0,-0.13333 0,-0.26667 0,-0.4z" fill="#d8f2fd" opacity="0.5"/><path d="M288.25058,146.75001c-2.5,1.8 -10.6,7.6 -13.5,3.6c-1.3,-1.8 -0.2,-5.6 0.5,-7.4c1.9,-5.5 16,-16.4 19,-6.2c1.3,4.1 -3.1,8 -6,10z" fill="#d8f2fd"/><path d="M305.55058,137.75001c-1.4,2.6 -6.5,6.7 -6.8,1.1c-0.1,-3.5 3.9,-5.4 6.1,-4.8c1.3,0.3 1.9,1.5 0.7,3.7z" fill="#d8f2fd"/></g><g><path d="M298.24758,185.047c0.1,-0.8 0.7,-1.5 1.6,-1.5h12c0.9,0 1.5,0.7 1.5,1.6c0,0.2 0.1,4.6 3.1,4.6c2.3,0 3.8,-0.8 4.5,-2.6c1,-2.3 0.1,-5.6 -0.8,-6.4c-0.86667,-0.86667 -1.86667,-1.56667 -3,-2.1c-2,-1 -4.5,-1.5 -7.3,-1.5c-3.1,0 -5.6,0.7 -6.1,0.8c-0.5,0.1 -1,0 -1.4,-0.3c-0.4,-0.3 -0.6,-0.8 -0.6,-1.3l0.9,-20.6c0,-0.8 0.6,-1.4 1.4,-1.5l27.6,-1c0.8,-0.1 1.5,0.5 1.6,1.3l1.1,10.8c0,0.5 -0.1,0.9 -0.4,1.2c-0.3,0.3 -0.7,0.5 -1.1,0.5l-14.4,0.2l0.1,0.6c8.4,0.7 17.3,5 18,13.1c0.4,5.2 1.3,14.9 -4.1,20.8c-2.9,3.1 -7.1,4.7 -12.7,4.7c-0.6,0 -1.2,0 -1.8,0c-19.9,-1.2 -19.7,-21.2 -19.7,-21.4z" fill="#0c4399" fill-rule="nonzero"/><path d="M318.04758,204.84699c-18.7,-1.1 -18.2,-19.7 -18.2,-19.7h12c0,0 0,6.1 4.6,6.1c8.4,0 7,-9.5 4.8,-11.6c-1,-1 -2.2,-1.8 -3.4,-2.4c-6.2,-3.1 -13.6,-1.1 -14.5,-0.8l0.1,-3.6l0.7,-17l27.6,-1.1l1.1,10.8l-16.1,0.1l0.4,3.7c7.9,0.3 17.2,4.1 17.8,11.8c0.8,8.8 1.7,24.8 -16.9,23.7z" fill="#1d80d5" fill-rule="nonzero"/><path d="M303.94758,171.74702c-0.13333,-0.06667 -0.26667,-0.1 -0.4,-0.1l0.6,-15.8l27.6,-1.1l1.1,10.8l-16.1,0.1l0.4,3.7c5.7,0.2 12.1,2.2 15.5,6.2c-0.13333,0.06667 -0.23333,0.1 -0.3,0.1c-4.7,1.4 -9.1,-1.2 -13.8,-3.1c-5.1,-2.1 -9.9,-2.3 -14.6,-0.8z" fill="#27a8f1" fill-rule="nonzero"/><g fill="#ffffff" fill-rule="nonzero"><path d="M316.94758,167.547l0.2,1.8c7.9,0.3 17.2,4.1 17.8,11.8c0.2,2 0.4,4.5 0.3,7c0,-1.9 -0.1,-3.6 -0.3,-5.2c-0.6,-7.7 -9.9,-12.7 -17.8,-13z"/></g><g fill="#ffffff" fill-rule="nonzero"><path d="M310.94758,186.24702l-10.1,-0.1c-0.7,1.3 0.1,5.9 0.1,5.9c-1.1,-3.9 -1.1,-6.9 -1.1,-6.9h12c0,0 0,6.1 4.6,6.1c4.4,0 6.1,-2.7 6.4,-5.5c0.3,3.4 -2.6,6.9 -6.2,6.6c-4.6,-0.4 -5.7,-6.1 -5.7,-6.1z"/></g><g fill="#ffffff" fill-rule="nonzero"><path d="M304.14757,155.847l27.6,-1.1l1.1,10.8l-1.7,-9.6l-26.3,1.7l-1.1,7.9z"/></g><path d="M309.84758,200.147c1,0.3 2,0.7 2.9,1c1,0.3 1.8,0.5 2.4,0.7c2.1,0.5 5.4,1 8.5,0.2c0.73333,-0.2 1.46667,-0.46667 2.2,-0.8c0.7,-0.3 1.3,-0.7 1.9,-1.2c1.2,-0.8 2.1,-1.9 2.8,-2.9c0.2,-0.2 0.3,-0.5 0.5,-0.7c0.06667,-0.2 0.16667,-0.4 0.3,-0.6c0.2,-0.4 0.3,-0.7 0.5,-1c0.2,-0.6 0.4,-1 0.5,-1.3c0.3,-0.4 0.5,-0.3 0.6,-0.3c0.1,0.1 0.4,0.3 0.4,1c-0.1,0.3 -0.1,0.8 -0.3,1.4c-0.1,0.3 -0.2,0.7 -0.4,1.1c-0.13333,0.2 -0.23333,0.43333 -0.3,0.7c-0.13333,0.2 -0.3,0.4 -0.5,0.6c-0.6,0.9 -1.6,2.1 -3,3.2c-0.66667,0.53333 -1.43333,1 -2.3,1.4c-0.86667,0.4 -1.76667,0.73333 -2.7,1c-1.8,0.4 -3.7,0.5 -5.3,0.4c-1.6,-0.1 -2.9,-0.4 -3.8,-0.6c-1.7,-0.4 -4,-1.3 -5.7,-2.3c-1.8,-1.1 -3,-2.1 -2.9,-2.4c0.2,-0.2 1.8,0.6 3.7,1.4zM333.54758,188.047c0.2,-0.1 1,0.7 0.8,2.6c-0.1,1 -0.4,1.3 -0.7,1.4c-0.2,0 -0.4,-0.3 -0.4,-0.7c-0.5,-2.3 -0.1,-3.2 0.3,-3.3z" fill="#50bcf8" fill-rule="evenodd"/></g></g></g></svg>