<svg version="1.1" xmlns="http://www.w3.org/2000/svg" xmlns:xlink="http://www.w3.org/1999/xlink" width="234.53856" height="161.13028" viewBox="0,0,234.53856,161.13028"><g transform="translate(-52.012,-224.89167)"><g fill-rule="evenodd" stroke="none" stroke-miterlimit="10"><path d="M286.55056,386.02195h-194.952v-55.59c8.74,5.662 12.228,13.65 24.952,13.65c11.548,0 20.748,-29.371 49.298,-29.371c19.921,0 36.116,6.395 48.196,34.575h0.515c17.479,0 15.349,18.817 31.102,22.683c5.013,1.228 7.767,-0.11 18.177,-2.748c10.906,-2.767 18.471,6.816 22.712,16.801z" fill="#87ac3f"/><path d="M133.863,304.97967c14.872,-7.164 29.579,-12.605 44.084,-16.215c-20.527,9.931 -40.302,23.379 -59.322,40.438c-7.217,0.403 -12.32,1.447 -12.32,2.638c0,0.88 2.735,1.667 7.05,2.18c-11.164,10.5 -22.089,22.244 -32.719,35.29h-28.624v-80.51c8.666,-11.451 17.553,-21.932 26.678,-31.368c0.587,2.272 1.359,3.646 2.185,3.646c1.358,0 2.534,-3.646 3.066,-8.923c10.759,-10.554 21.886,-19.66 33.361,-27.264c-25.502,25.817 -46.232,59.42 -62.022,101.104c19.444,-25.028 40.082,-45.11 62.022,-59.64c-22.124,22.428 -40.669,50.68 -55.503,84.998c21.5,-17.113 42.67,-31.239 63.49,-42.105l-4.59,7.384z" fill="#78973c"/><path d="M140.62,307.52667c-4.719,4.837 -6.316,5.9 -7.216,9.015c-2.846,9.784 8.079,14.529 2.589,24.021c-5.508,9.491 -11.31,5.094 -15.037,11.524c-0.239,0.422 -0.422,2.602 -0.735,5.827c-6.518,0.055 -11.236,1.118 -11.641,2.895c-0.421,1.832 3.985,3.94 10.65,5.35c-0.146,1.026 -0.312,2.089 -0.496,3.152h-54.971c1.138,-4.251 3.543,-8.356 6.518,-12.167c5.25,5.534 9.492,8.484 10.41,6.889c0.844,-1.483 -1.414,-6.486 -5.416,-12.55c8.188,-8.319 17.589,-14.255 18.158,-15.263c3.727,-6.413 -2.993,-9.253 2.497,-18.744c5.49,-9.491 15.074,-2.418 22.143,-9.766c2.24,-2.345 2.369,-4.251 4.205,-10.737c4.7,-16.636 30.423,-1.814 18.342,10.554z" fill="#b3d34e"/><path d="M123.82196,299.65472c0.16618,0.64283 0.06367,1.3256 -0.28396,1.89128l-15.386,26.605l10.025,-0.898c1.37105,-0.12675 2.58525,0.88196 2.712,2.253c0.12675,1.37104 -0.88195,2.58525 -2.253,2.712l-13.514,1.228l-16.891,29.206h-5.784l1.45,-2.51l-5.691,-12.295c-0.588,-1.246 -0.037,-2.73 1.211,-3.317c0.6012,-0.28069 1.28932,-0.31088 1.91279,-0.08393c0.62347,0.22695 1.13115,0.69244 1.41122,1.29393l4.223,9.106l32.278,-55.792c0.3308,-0.57496 0.87677,-0.99467 1.51746,-1.16652c0.64068,-0.17185 1.32341,-0.08171 1.89754,0.25052c0.57822,0.32635 0.99878,0.8739 1.16496,1.51672z" fill="#a2c83a"/><path d="M161.588,369.31067h-109.576v-36.608c13.862,0.677 18.507,15.06 24.309,15.06c10.099,0 8.869,-9.821 23.795,-9.821c14.91,0 13.092,16.069 26.55,19.367c4.278,1.045 6.628,-0.091 15.515,-2.345c9.308,-2.363 15.771,5.827 19.407,14.347z" fill="#a2c83a"/></g></g></svg>